# MagicaVoxel @ Ephtracy

# group
o 

# material
mtllib towers-212.mtl
usemtl palette

# normals
vn -1 0 0
vn 1 0 0
vn 0 0 1
vn 0 0 -1
vn 0 -1 0
vn 0 1 0

# texcoords
vt 0.263672 0.5
vt 0.541016 0.5
vt 0.583984 0.5

# verts
v -25.5 0 19.3
v -25.5 0 15.3
v -25.5 0.1 19.3
v -25.5 0.1 15.3
v -24.7 0.7 16.3
v -24.7 0.7 16
v -24.7 1.6 16.3
v -24.7 1.6 16
v -24.6 0.1 16.2
v -24.6 0.1 16.1
v -24.6 0.7 16.2
v -24.6 0.7 16.1
v -24.4 0.7 17
v -24.4 0.7 16.7
v -24.4 1.5 17
v -24.4 1.5 16.7
v -24.3 0.1 16.9
v -24.3 0.1 16.8
v -24.3 0.7 16.9
v -24.3 0.7 16.8
v -23.9 0.7 16.4
v -23.9 0.7 16.1
v -23.9 2.1 16.4
v -23.9 2.1 16.1
v -23.8 0.1 16.3
v -23.8 0.1 16.2
v -23.8 0.7 16.3
v -23.8 0.7 16.2
v -23.2 0.7 16.7
v -23.2 0.7 16.4
v -23.2 0.7 16.1
v -23.2 0.7 15.8
v -23.2 1.5 16.7
v -23.2 1.5 16.4
v -23.2 1.8 16.1
v -23.2 1.8 15.8
v -23.1 0.1 16.6
v -23.1 0.1 16.5
v -23.1 0.1 16
v -23.1 0.1 15.9
v -23.1 0.7 16.6
v -23.1 0.7 16.5
v -23.1 0.7 16
v -23.1 0.7 15.9
v -22.6 0.7 17.2
v -22.6 0.7 16.9
v -22.6 1.4 17.2
v -22.6 1.4 16.9
v -22.5 0.1 17.1
v -22.5 0.1 17
v -22.5 0.7 17.1
v -22.5 0.7 17
v -22.5 0.7 16.4
v -22.5 0.7 16.1
v -22.5 1.6 16.4
v -22.5 1.6 16.1
v -22.4 0.1 16.3
v -22.4 0.1 16.2
v -22.4 0.7 16.3
v -22.4 0.7 16.2
v -22.3 0.7 17.9
v -22.3 0.7 17.6
v -22.3 1.7 17.9
v -22.3 1.7 17.6
v -22.2 0.1 17.8
v -22.2 0.1 17.7
v -22.2 0.7 17.8
v -22.2 0.7 17.7
v -24.5 0.1 16.2
v -24.5 0.1 16.1
v -24.5 0.7 16.2
v -24.5 0.7 16.1
v -24.4 0.7 16.3
v -24.4 0.7 16
v -24.4 1.6 16.3
v -24.4 1.6 16
v -24.2 0.1 16.9
v -24.2 0.1 16.8
v -24.2 0.7 16.9
v -24.2 0.7 16.8
v -24.1 0.7 17
v -24.1 0.7 16.7
v -24.1 1.5 17
v -24.1 1.5 16.7
v -23.7 0.1 16.3
v -23.7 0.1 16.2
v -23.7 0.7 16.3
v -23.7 0.7 16.2
v -23.6 0.7 16.4
v -23.6 0.7 16.1
v -23.6 2.1 16.4
v -23.6 2.1 16.1
v -23 0.1 16.6
v -23 0.1 16.5
v -23 0.1 16
v -23 0.1 15.9
v -23 0.7 16.6
v -23 0.7 16.5
v -23 0.7 16
v -23 0.7 15.9
v -22.9 0.7 16.7
v -22.9 0.7 16.4
v -22.9 0.7 16.1
v -22.9 0.7 15.8
v -22.9 1.5 16.7
v -22.9 1.5 16.4
v -22.9 1.8 16.1
v -22.9 1.8 15.8
v -22.4 0.1 17.1
v -22.4 0.1 17
v -22.4 0.7 17.1
v -22.4 0.7 17
v -22.3 0.1 16.3
v -22.3 0.1 16.2
v -22.3 0.7 17.2
v -22.3 0.7 16.9
v -22.3 0.7 16.3
v -22.3 0.7 16.2
v -22.3 1.4 17.2
v -22.3 1.4 16.9
v -22.2 0.7 16.4
v -22.2 0.7 16.1
v -22.2 1.6 16.4
v -22.2 1.6 16.1
v -22.1 0.1 17.8
v -22.1 0.1 17.7
v -22.1 0.7 17.8
v -22.1 0.7 17.7
v -22 0.7 17.9
v -22 0.7 17.6
v -22 1.7 17.9
v -22 1.7 17.6
v -21.5 0 19.3
v -21.5 0 15.3
v -21.5 0.1 19.3
v -21.5 0.1 15.3
v -25.5 0 19.3
v -25.5 0.1 19.3
v -21.5 0 19.3
v -21.5 0.1 19.3
v -22.3 0.7 17.9
v -22.3 1.7 17.9
v -22 0.7 17.9
v -22 1.7 17.9
v -22.2 0.1 17.8
v -22.2 0.7 17.8
v -22.1 0.1 17.8
v -22.1 0.7 17.8
v -22.6 0.7 17.2
v -22.6 1.4 17.2
v -22.3 0.7 17.2
v -22.3 1.4 17.2
v -22.5 0.1 17.1
v -22.5 0.7 17.1
v -22.4 0.1 17.1
v -22.4 0.7 17.1
v -24.4 0.7 17
v -24.4 1.5 17
v -24.1 0.7 17
v -24.1 1.5 17
v -24.3 0.1 16.9
v -24.3 0.7 16.9
v -24.2 0.1 16.9
v -24.2 0.7 16.9
v -23.2 0.7 16.7
v -23.2 1.5 16.7
v -22.9 0.7 16.7
v -22.9 1.5 16.7
v -23.1 0.1 16.6
v -23.1 0.7 16.6
v -23 0.1 16.6
v -23 0.7 16.6
v -23.9 0.7 16.4
v -23.9 2.1 16.4
v -23.6 0.7 16.4
v -23.6 2.1 16.4
v -22.5 0.7 16.4
v -22.5 1.6 16.4
v -22.2 0.7 16.4
v -22.2 1.6 16.4
v -24.7 0.7 16.3
v -24.7 1.6 16.3
v -24.4 0.7 16.3
v -24.4 1.6 16.3
v -23.8 0.1 16.3
v -23.8 0.7 16.3
v -23.7 0.1 16.3
v -23.7 0.7 16.3
v -22.4 0.1 16.3
v -22.4 0.7 16.3
v -22.3 0.1 16.3
v -22.3 0.7 16.3
v -24.6 0.1 16.2
v -24.6 0.7 16.2
v -24.5 0.1 16.2
v -24.5 0.7 16.2
v -23.2 0.7 16.1
v -23.2 1.8 16.1
v -22.9 0.7 16.1
v -22.9 1.8 16.1
v -23.1 0.1 16
v -23.1 0.7 16
v -23 0.1 16
v -23 0.7 16
v -22.2 0.1 17.7
v -22.2 0.7 17.7
v -22.1 0.1 17.7
v -22.1 0.7 17.7
v -22.3 0.7 17.6
v -22.3 1.7 17.6
v -22 0.7 17.6
v -22 1.7 17.6
v -22.5 0.1 17
v -22.5 0.7 17
v -22.4 0.1 17
v -22.4 0.7 17
v -22.6 0.7 16.9
v -22.6 1.4 16.9
v -22.3 0.7 16.9
v -22.3 1.4 16.9
v -24.3 0.1 16.8
v -24.3 0.7 16.8
v -24.2 0.1 16.8
v -24.2 0.7 16.8
v -24.4 0.7 16.7
v -24.4 1.5 16.7
v -24.1 0.7 16.7
v -24.1 1.5 16.7
v -23.1 0.1 16.5
v -23.1 0.7 16.5
v -23 0.1 16.5
v -23 0.7 16.5
v -23.2 0.7 16.4
v -23.2 1.5 16.4
v -22.9 0.7 16.4
v -22.9 1.5 16.4
v -23.8 0.1 16.2
v -23.8 0.7 16.2
v -23.7 0.1 16.2
v -23.7 0.7 16.2
v -22.4 0.1 16.2
v -22.4 0.7 16.2
v -22.3 0.1 16.2
v -22.3 0.7 16.2
v -24.6 0.1 16.1
v -24.6 0.7 16.1
v -24.5 0.1 16.1
v -24.5 0.7 16.1
v -23.9 0.7 16.1
v -23.9 2.1 16.1
v -23.6 0.7 16.1
v -23.6 2.1 16.1
v -22.5 0.7 16.1
v -22.5 1.6 16.1
v -22.2 0.7 16.1
v -22.2 1.6 16.1
v -24.7 0.7 16
v -24.7 1.6 16
v -24.4 0.7 16
v -24.4 1.6 16
v -23.1 0.1 15.9
v -23.1 0.7 15.9
v -23 0.1 15.9
v -23 0.7 15.9
v -23.2 0.7 15.8
v -23.2 1.8 15.8
v -22.9 0.7 15.8
v -22.9 1.8 15.8
v -25.5 0 15.3
v -25.5 0.1 15.3
v -21.5 0 15.3
v -21.5 0.1 15.3
v -25.5 0 19.3
v -21.5 0 19.3
v -25.5 0 15.3
v -21.5 0 15.3
v -22.3 0.7 17.9
v -22 0.7 17.9
v -22.2 0.7 17.8
v -22.1 0.7 17.8
v -22.2 0.7 17.7
v -22.1 0.7 17.7
v -22.3 0.7 17.6
v -22 0.7 17.6
v -22.6 0.7 17.2
v -22.3 0.7 17.2
v -22.5 0.7 17.1
v -22.4 0.7 17.1
v -24.4 0.7 17
v -24.1 0.7 17
v -22.5 0.7 17
v -22.4 0.7 17
v -24.3 0.7 16.9
v -24.2 0.7 16.9
v -22.6 0.7 16.9
v -22.3 0.7 16.9
v -24.3 0.7 16.8
v -24.2 0.7 16.8
v -24.4 0.7 16.7
v -24.1 0.7 16.7
v -23.2 0.7 16.7
v -22.9 0.7 16.7
v -23.1 0.7 16.6
v -23 0.7 16.6
v -23.1 0.7 16.5
v -23 0.7 16.5
v -23.9 0.7 16.4
v -23.6 0.7 16.4
v -23.2 0.7 16.4
v -22.9 0.7 16.4
v -22.5 0.7 16.4
v -22.2 0.7 16.4
v -24.7 0.7 16.3
v -24.4 0.7 16.3
v -23.8 0.7 16.3
v -23.7 0.7 16.3
v -22.4 0.7 16.3
v -22.3 0.7 16.3
v -24.6 0.7 16.2
v -24.5 0.7 16.2
v -23.8 0.7 16.2
v -23.7 0.7 16.2
v -22.4 0.7 16.2
v -22.3 0.7 16.2
v -24.6 0.7 16.1
v -24.5 0.7 16.1
v -23.9 0.7 16.1
v -23.6 0.7 16.1
v -23.2 0.7 16.1
v -22.9 0.7 16.1
v -22.5 0.7 16.1
v -22.2 0.7 16.1
v -24.7 0.7 16
v -24.4 0.7 16
v -23.1 0.7 16
v -23 0.7 16
v -23.1 0.7 15.9
v -23 0.7 15.9
v -23.2 0.7 15.8
v -22.9 0.7 15.8
v -25.5 0.1 19.3
v -21.5 0.1 19.3
v -22.2 0.1 17.8
v -22.1 0.1 17.8
v -22.2 0.1 17.7
v -22.1 0.1 17.7
v -22.5 0.1 17.1
v -22.4 0.1 17.1
v -22.5 0.1 17
v -22.4 0.1 17
v -24.3 0.1 16.9
v -24.2 0.1 16.9
v -24.3 0.1 16.8
v -24.2 0.1 16.8
v -23.1 0.1 16.6
v -23 0.1 16.6
v -23.1 0.1 16.5
v -23 0.1 16.5
v -23.8 0.1 16.3
v -23.7 0.1 16.3
v -22.4 0.1 16.3
v -22.3 0.1 16.3
v -24.6 0.1 16.2
v -24.5 0.1 16.2
v -23.8 0.1 16.2
v -23.7 0.1 16.2
v -22.4 0.1 16.2
v -22.3 0.1 16.2
v -24.6 0.1 16.1
v -24.5 0.1 16.1
v -23.1 0.1 16
v -23 0.1 16
v -23.1 0.1 15.9
v -23 0.1 15.9
v -25.5 0.1 15.3
v -21.5 0.1 15.3
v -22.6 1.4 17.2
v -22.3 1.4 17.2
v -22.6 1.4 16.9
v -22.3 1.4 16.9
v -24.4 1.5 17
v -24.1 1.5 17
v -24.4 1.5 16.7
v -24.1 1.5 16.7
v -23.2 1.5 16.7
v -22.9 1.5 16.7
v -23.2 1.5 16.4
v -22.9 1.5 16.4
v -22.5 1.6 16.4
v -22.2 1.6 16.4
v -24.7 1.6 16.3
v -24.4 1.6 16.3
v -22.5 1.6 16.1
v -22.2 1.6 16.1
v -24.7 1.6 16
v -24.4 1.6 16
v -22.3 1.7 17.9
v -22 1.7 17.9
v -22.3 1.7 17.6
v -22 1.7 17.6
v -23.2 1.8 16.1
v -22.9 1.8 16.1
v -23.2 1.8 15.8
v -22.9 1.8 15.8
v -23.9 2.1 16.4
v -23.6 2.1 16.4
v -23.9 2.1 16.1
v -23.6 2.1 16.1

# faces
f 3/2/1 2/2/1 1/2/1
f 4/2/1 2/2/1 3/2/1
f 7/3/1 6/3/1 5/3/1
f 8/3/1 6/3/1 7/3/1
f 11/1/1 10/1/1 9/1/1
f 12/1/1 10/1/1 11/1/1
f 15/3/1 14/3/1 13/3/1
f 16/3/1 14/3/1 15/3/1
f 19/1/1 18/1/1 17/1/1
f 20/1/1 18/1/1 19/1/1
f 23/3/1 22/3/1 21/3/1
f 24/3/1 22/3/1 23/3/1
f 27/1/1 26/1/1 25/1/1
f 28/1/1 26/1/1 27/1/1
f 33/3/1 30/3/1 29/3/1
f 34/3/1 30/3/1 33/3/1
f 35/3/1 32/3/1 31/3/1
f 36/3/1 32/3/1 35/3/1
f 41/1/1 38/1/1 37/1/1
f 42/1/1 38/1/1 41/1/1
f 43/1/1 40/1/1 39/1/1
f 44/1/1 40/1/1 43/1/1
f 47/3/1 46/3/1 45/3/1
f 48/3/1 46/3/1 47/3/1
f 51/1/1 50/1/1 49/1/1
f 52/1/1 50/1/1 51/1/1
f 55/3/1 54/3/1 53/3/1
f 56/3/1 54/3/1 55/3/1
f 59/1/1 58/1/1 57/1/1
f 60/1/1 58/1/1 59/1/1
f 63/3/1 62/3/1 61/3/1
f 64/3/1 62/3/1 63/3/1
f 67/1/1 66/1/1 65/1/1
f 68/1/1 66/1/1 67/1/1
f 69/1/2 70/1/2 71/1/2
f 71/1/2 70/1/2 72/1/2
f 73/3/2 74/3/2 75/3/2
f 75/3/2 74/3/2 76/3/2
f 77/1/2 78/1/2 79/1/2
f 79/1/2 78/1/2 80/1/2
f 81/3/2 82/3/2 83/3/2
f 83/3/2 82/3/2 84/3/2
f 85/1/2 86/1/2 87/1/2
f 87/1/2 86/1/2 88/1/2
f 89/3/2 90/3/2 91/3/2
f 91/3/2 90/3/2 92/3/2
f 93/1/2 94/1/2 97/1/2
f 97/1/2 94/1/2 98/1/2
f 95/1/2 96/1/2 99/1/2
f 99/1/2 96/1/2 100/1/2
f 101/3/2 102/3/2 105/3/2
f 105/3/2 102/3/2 106/3/2
f 103/3/2 104/3/2 107/3/2
f 107/3/2 104/3/2 108/3/2
f 109/1/2 110/1/2 111/1/2
f 111/1/2 110/1/2 112/1/2
f 113/1/2 114/1/2 117/1/2
f 117/1/2 114/1/2 118/1/2
f 115/3/2 116/3/2 119/3/2
f 119/3/2 116/3/2 120/3/2
f 121/3/2 122/3/2 123/3/2
f 123/3/2 122/3/2 124/3/2
f 125/1/2 126/1/2 127/1/2
f 127/1/2 126/1/2 128/1/2
f 129/3/2 130/3/2 131/3/2
f 131/3/2 130/3/2 132/3/2
f 133/2/2 134/2/2 135/2/2
f 135/2/2 134/2/2 136/2/2
f 139/2/3 138/2/3 137/2/3
f 140/2/3 138/2/3 139/2/3
f 143/3/3 142/3/3 141/3/3
f 144/3/3 142/3/3 143/3/3
f 147/1/3 146/1/3 145/1/3
f 148/1/3 146/1/3 147/1/3
f 151/3/3 150/3/3 149/3/3
f 152/3/3 150/3/3 151/3/3
f 155/1/3 154/1/3 153/1/3
f 156/1/3 154/1/3 155/1/3
f 159/3/3 158/3/3 157/3/3
f 160/3/3 158/3/3 159/3/3
f 163/1/3 162/1/3 161/1/3
f 164/1/3 162/1/3 163/1/3
f 167/3/3 166/3/3 165/3/3
f 168/3/3 166/3/3 167/3/3
f 171/1/3 170/1/3 169/1/3
f 172/1/3 170/1/3 171/1/3
f 175/3/3 174/3/3 173/3/3
f 176/3/3 174/3/3 175/3/3
f 179/3/3 178/3/3 177/3/3
f 180/3/3 178/3/3 179/3/3
f 183/3/3 182/3/3 181/3/3
f 184/3/3 182/3/3 183/3/3
f 187/1/3 186/1/3 185/1/3
f 188/1/3 186/1/3 187/1/3
f 191/1/3 190/1/3 189/1/3
f 192/1/3 190/1/3 191/1/3
f 195/1/3 194/1/3 193/1/3
f 196/1/3 194/1/3 195/1/3
f 199/3/3 198/3/3 197/3/3
f 200/3/3 198/3/3 199/3/3
f 203/1/3 202/1/3 201/1/3
f 204/1/3 202/1/3 203/1/3
f 205/1/4 206/1/4 207/1/4
f 207/1/4 206/1/4 208/1/4
f 209/3/4 210/3/4 211/3/4
f 211/3/4 210/3/4 212/3/4
f 213/1/4 214/1/4 215/1/4
f 215/1/4 214/1/4 216/1/4
f 217/3/4 218/3/4 219/3/4
f 219/3/4 218/3/4 220/3/4
f 221/1/4 222/1/4 223/1/4
f 223/1/4 222/1/4 224/1/4
f 225/3/4 226/3/4 227/3/4
f 227/3/4 226/3/4 228/3/4
f 229/1/4 230/1/4 231/1/4
f 231/1/4 230/1/4 232/1/4
f 233/3/4 234/3/4 235/3/4
f 235/3/4 234/3/4 236/3/4
f 237/1/4 238/1/4 239/1/4
f 239/1/4 238/1/4 240/1/4
f 241/1/4 242/1/4 243/1/4
f 243/1/4 242/1/4 244/1/4
f 245/1/4 246/1/4 247/1/4
f 247/1/4 246/1/4 248/1/4
f 249/3/4 250/3/4 251/3/4
f 251/3/4 250/3/4 252/3/4
f 253/3/4 254/3/4 255/3/4
f 255/3/4 254/3/4 256/3/4
f 257/3/4 258/3/4 259/3/4
f 259/3/4 258/3/4 260/3/4
f 261/1/4 262/1/4 263/1/4
f 263/1/4 262/1/4 264/1/4
f 265/3/4 266/3/4 267/3/4
f 267/3/4 266/3/4 268/3/4
f 269/2/4 270/2/4 271/2/4
f 271/2/4 270/2/4 272/2/4
f 275/2/5 274/2/5 273/2/5
f 276/2/5 274/2/5 275/2/5
f 279/3/5 278/3/5 277/3/5
f 280/3/5 278/3/5 279/3/5
f 281/3/5 279/3/5 277/3/5
f 282/3/5 278/3/5 280/3/5
f 283/3/5 281/3/5 277/3/5
f 283/3/5 282/3/5 281/3/5
f 284/3/5 278/3/5 282/3/5
f 284/3/5 282/3/5 283/3/5
f 287/3/5 286/3/5 285/3/5
f 288/3/5 286/3/5 287/3/5
f 291/3/5 287/3/5 285/3/5
f 292/3/5 286/3/5 288/3/5
f 293/3/5 290/3/5 289/3/5
f 294/3/5 290/3/5 293/3/5
f 295/3/5 292/3/5 291/3/5
f 295/3/5 291/3/5 285/3/5
f 296/3/5 286/3/5 292/3/5
f 296/3/5 292/3/5 295/3/5
f 297/3/5 293/3/5 289/3/5
f 298/3/5 290/3/5 294/3/5
f 299/3/5 297/3/5 289/3/5
f 299/3/5 298/3/5 297/3/5
f 300/3/5 290/3/5 298/3/5
f 300/3/5 298/3/5 299/3/5
f 303/3/5 302/3/5 301/3/5
f 304/3/5 302/3/5 303/3/5
f 305/3/5 303/3/5 301/3/5
f 306/3/5 302/3/5 304/3/5
f 309/3/5 305/3/5 301/3/5
f 309/3/5 306/3/5 305/3/5
f 310/3/5 302/3/5 306/3/5
f 310/3/5 306/3/5 309/3/5
f 315/3/5 308/3/5 307/3/5
f 316/3/5 308/3/5 315/3/5
f 317/3/5 312/3/5 311/3/5
f 318/3/5 312/3/5 317/3/5
f 319/3/5 314/3/5 313/3/5
f 320/3/5 314/3/5 319/3/5
f 321/3/5 315/3/5 307/3/5
f 322/3/5 308/3/5 316/3/5
f 323/3/5 317/3/5 311/3/5
f 324/3/5 312/3/5 318/3/5
f 325/3/5 319/3/5 313/3/5
f 326/3/5 314/3/5 320/3/5
f 327/3/5 321/3/5 307/3/5
f 327/3/5 322/3/5 321/3/5
f 328/3/5 308/3/5 322/3/5
f 328/3/5 322/3/5 327/3/5
f 331/3/5 323/3/5 311/3/5
f 331/3/5 324/3/5 323/3/5
f 332/3/5 312/3/5 324/3/5
f 332/3/5 324/3/5 331/3/5
f 333/3/5 326/3/5 325/3/5
f 333/3/5 325/3/5 313/3/5
f 334/3/5 314/3/5 326/3/5
f 334/3/5 326/3/5 333/3/5
f 335/3/5 330/3/5 329/3/5
f 336/3/5 330/3/5 335/3/5
f 337/3/5 335/3/5 329/3/5
f 338/3/5 330/3/5 336/3/5
f 339/3/5 337/3/5 329/3/5
f 339/3/5 338/3/5 337/3/5
f 340/3/5 330/3/5 338/3/5
f 340/3/5 338/3/5 339/3/5
f 341/2/6 342/2/6 343/2/6
f 343/2/6 342/2/6 344/2/6
f 341/2/6 343/2/6 345/2/6
f 344/2/6 342/2/6 346/2/6
f 341/2/6 345/2/6 347/2/6
f 345/2/6 346/2/6 347/2/6
f 347/2/6 346/2/6 348/2/6
f 341/2/6 347/2/6 349/2/6
f 348/2/6 346/2/6 350/2/6
f 341/2/6 349/2/6 351/2/6
f 349/2/6 350/2/6 351/2/6
f 351/2/6 350/2/6 352/2/6
f 341/2/6 351/2/6 353/2/6
f 352/2/6 350/2/6 354/2/6
f 354/2/6 350/2/6 355/2/6
f 353/2/6 354/2/6 355/2/6
f 355/2/6 350/2/6 356/2/6
f 353/2/6 355/2/6 357/2/6
f 356/2/6 350/2/6 358/2/6
f 353/2/6 357/2/6 359/2/6
f 357/2/6 358/2/6 359/2/6
f 359/2/6 358/2/6 360/2/6
f 350/2/6 346/2/6 361/2/6
f 360/2/6 358/2/6 361/2/6
f 358/2/6 350/2/6 361/2/6
f 361/2/6 346/2/6 362/2/6
f 341/2/6 353/2/6 363/2/6
f 353/2/6 359/2/6 363/2/6
f 363/2/6 359/2/6 364/2/6
f 364/2/6 359/2/6 365/2/6
f 360/2/6 361/2/6 366/2/6
f 366/2/6 361/2/6 367/2/6
f 362/2/6 346/2/6 368/2/6
f 341/2/6 363/2/6 369/2/6
f 366/2/6 367/2/6 370/2/6
f 364/2/6 365/2/6 370/2/6
f 367/2/6 368/2/6 370/2/6
f 365/2/6 366/2/6 370/2/6
f 370/2/6 368/2/6 371/2/6
f 369/2/6 370/2/6 371/2/6
f 371/2/6 368/2/6 372/2/6
f 369/2/6 371/2/6 373/2/6
f 372/2/6 368/2/6 374/2/6
f 341/2/6 369/2/6 375/2/6
f 373/2/6 374/2/6 375/2/6
f 369/2/6 373/2/6 375/2/6
f 346/2/6 342/2/6 376/2/6
f 375/2/6 374/2/6 376/2/6
f 374/2/6 368/2/6 376/2/6
f 368/2/6 346/2/6 376/2/6
f 377/3/6 378/3/6 379/3/6
f 379/3/6 378/3/6 380/3/6
f 381/3/6 382/3/6 383/3/6
f 383/3/6 382/3/6 384/3/6
f 385/3/6 386/3/6 387/3/6
f 387/3/6 386/3/6 388/3/6
f 389/3/6 390/3/6 393/3/6
f 393/3/6 390/3/6 394/3/6
f 391/3/6 392/3/6 395/3/6
f 395/3/6 392/3/6 396/3/6
f 397/3/6 398/3/6 399/3/6
f 399/3/6 398/3/6 400/3/6
f 401/3/6 402/3/6 403/3/6
f 403/3/6 402/3/6 404/3/6
f 405/3/6 406/3/6 407/3/6
f 407/3/6 406/3/6 408/3/6
