# MagicaVoxel @ Ephtracy

# group
o 

# material
mtllib towers-217.mtl
usemtl palette

# normals
vn -1 0 0
vn 1 0 0
vn 0 0 1
vn 0 0 -1
vn 0 -1 0
vn 0 1 0

# texcoords
vt 0.263672 0.5
vt 0.541016 0.5
vt 0.583984 0.5

# verts
v -25.5 0 19.3
v -25.5 0 15.3
v -25.5 0.1 19.3
v -25.5 0.1 15.3
v -25 0.7 17
v -25 0.7 16.7
v -25 1.5 17
v -25 1.5 16.7
v -24.9 0.1 16.9
v -24.9 0.1 16.8
v -24.9 0.7 16.9
v -24.9 0.7 16.8
v -24.8 0.6 18.5
v -24.8 0.6 18.2
v -24.8 1.8 18.5
v -24.8 1.8 18.2
v -24.7 0.1 18.4
v -24.7 0.1 18.3
v -24.7 0.6 18.4
v -24.7 0.6 18.3
v -24.7 0.9 17.7
v -24.7 0.9 17.4
v -24.7 1.7 17.7
v -24.7 1.7 17.4
v -24.6 0.1 17.6
v -24.6 0.1 17.5
v -24.6 0.9 17.6
v -24.6 0.9 17.5
v -24.1 0.5 18.2
v -24.1 0.5 17.9
v -24.1 1.6 18.2
v -24.1 1.6 17.9
v -24 0.1 18.1
v -24 0.1 18
v -24 0.5 18.1
v -24 0.5 18
v -24.8 0.1 16.9
v -24.8 0.1 16.8
v -24.8 0.7 16.9
v -24.8 0.7 16.8
v -24.7 0.7 17
v -24.7 0.7 16.7
v -24.7 1.5 17
v -24.7 1.5 16.7
v -24.6 0.1 18.4
v -24.6 0.1 18.3
v -24.6 0.6 18.4
v -24.6 0.6 18.3
v -24.5 0.1 17.6
v -24.5 0.1 17.5
v -24.5 0.6 18.5
v -24.5 0.6 18.2
v -24.5 0.9 17.6
v -24.5 0.9 17.5
v -24.5 1.8 18.5
v -24.5 1.8 18.2
v -24.4 0.9 17.7
v -24.4 0.9 17.4
v -24.4 1.7 17.7
v -24.4 1.7 17.4
v -23.9 0.1 18.1
v -23.9 0.1 18
v -23.9 0.5 18.1
v -23.9 0.5 18
v -23.8 0.5 18.2
v -23.8 0.5 17.9
v -23.8 1.6 18.2
v -23.8 1.6 17.9
v -21.5 0 19.3
v -21.5 0 15.3
v -21.5 0.1 19.3
v -21.5 0.1 15.3
v -25.5 0 19.3
v -25.5 0.1 19.3
v -21.5 0 19.3
v -21.5 0.1 19.3
v -24.8 0.6 18.5
v -24.8 1.8 18.5
v -24.5 0.6 18.5
v -24.5 1.8 18.5
v -24.7 0.1 18.4
v -24.7 0.6 18.4
v -24.6 0.1 18.4
v -24.6 0.6 18.4
v -24.1 0.5 18.2
v -24.1 1.6 18.2
v -23.8 0.5 18.2
v -23.8 1.6 18.2
v -24 0.1 18.1
v -24 0.5 18.1
v -23.9 0.1 18.1
v -23.9 0.5 18.1
v -24.7 0.9 17.7
v -24.7 1.7 17.7
v -24.4 0.9 17.7
v -24.4 1.7 17.7
v -24.6 0.1 17.6
v -24.6 0.9 17.6
v -24.5 0.1 17.6
v -24.5 0.9 17.6
v -25 0.7 17
v -25 1.5 17
v -24.7 0.7 17
v -24.7 1.5 17
v -24.9 0.1 16.9
v -24.9 0.7 16.9
v -24.8 0.1 16.9
v -24.8 0.7 16.9
v -24.7 0.1 18.3
v -24.7 0.6 18.3
v -24.6 0.1 18.3
v -24.6 0.6 18.3
v -24.8 0.6 18.2
v -24.8 1.8 18.2
v -24.5 0.6 18.2
v -24.5 1.8 18.2
v -24 0.1 18
v -24 0.5 18
v -23.9 0.1 18
v -23.9 0.5 18
v -24.1 0.5 17.9
v -24.1 1.6 17.9
v -23.8 0.5 17.9
v -23.8 1.6 17.9
v -24.6 0.1 17.5
v -24.6 0.9 17.5
v -24.5 0.1 17.5
v -24.5 0.9 17.5
v -24.7 0.9 17.4
v -24.7 1.7 17.4
v -24.4 0.9 17.4
v -24.4 1.7 17.4
v -24.9 0.1 16.8
v -24.9 0.7 16.8
v -24.8 0.1 16.8
v -24.8 0.7 16.8
v -25 0.7 16.7
v -25 1.5 16.7
v -24.7 0.7 16.7
v -24.7 1.5 16.7
v -25.5 0 15.3
v -25.5 0.1 15.3
v -21.5 0 15.3
v -21.5 0.1 15.3
v -25.5 0 19.3
v -21.5 0 19.3
v -25.5 0 15.3
v -21.5 0 15.3
v -24.1 0.5 18.2
v -23.8 0.5 18.2
v -24 0.5 18.1
v -23.9 0.5 18.1
v -24 0.5 18
v -23.9 0.5 18
v -24.1 0.5 17.9
v -23.8 0.5 17.9
v -24.8 0.6 18.5
v -24.5 0.6 18.5
v -24.7 0.6 18.4
v -24.6 0.6 18.4
v -24.7 0.6 18.3
v -24.6 0.6 18.3
v -24.8 0.6 18.2
v -24.5 0.6 18.2
v -25 0.7 17
v -24.7 0.7 17
v -24.9 0.7 16.9
v -24.8 0.7 16.9
v -24.9 0.7 16.8
v -24.8 0.7 16.8
v -25 0.7 16.7
v -24.7 0.7 16.7
v -24.7 0.9 17.7
v -24.4 0.9 17.7
v -24.6 0.9 17.6
v -24.5 0.9 17.6
v -24.6 0.9 17.5
v -24.5 0.9 17.5
v -24.7 0.9 17.4
v -24.4 0.9 17.4
v -25.5 0.1 19.3
v -21.5 0.1 19.3
v -24.7 0.1 18.4
v -24.6 0.1 18.4
v -24.7 0.1 18.3
v -24.6 0.1 18.3
v -24 0.1 18.1
v -23.9 0.1 18.1
v -24 0.1 18
v -23.9 0.1 18
v -24.6 0.1 17.6
v -24.5 0.1 17.6
v -24.6 0.1 17.5
v -24.5 0.1 17.5
v -24.9 0.1 16.9
v -24.8 0.1 16.9
v -24.9 0.1 16.8
v -24.8 0.1 16.8
v -25.5 0.1 15.3
v -21.5 0.1 15.3
v -25 1.5 17
v -24.7 1.5 17
v -25 1.5 16.7
v -24.7 1.5 16.7
v -24.1 1.6 18.2
v -23.8 1.6 18.2
v -24.1 1.6 17.9
v -23.8 1.6 17.9
v -24.7 1.7 17.7
v -24.4 1.7 17.7
v -24.7 1.7 17.4
v -24.4 1.7 17.4
v -24.8 1.8 18.5
v -24.5 1.8 18.5
v -24.8 1.8 18.2
v -24.5 1.8 18.2

# faces
f 3/2/1 2/2/1 1/2/1
f 4/2/1 2/2/1 3/2/1
f 7/3/1 6/3/1 5/3/1
f 8/3/1 6/3/1 7/3/1
f 11/1/1 10/1/1 9/1/1
f 12/1/1 10/1/1 11/1/1
f 15/3/1 14/3/1 13/3/1
f 16/3/1 14/3/1 15/3/1
f 19/1/1 18/1/1 17/1/1
f 20/1/1 18/1/1 19/1/1
f 23/3/1 22/3/1 21/3/1
f 24/3/1 22/3/1 23/3/1
f 27/1/1 26/1/1 25/1/1
f 28/1/1 26/1/1 27/1/1
f 31/3/1 30/3/1 29/3/1
f 32/3/1 30/3/1 31/3/1
f 35/1/1 34/1/1 33/1/1
f 36/1/1 34/1/1 35/1/1
f 37/1/2 38/1/2 39/1/2
f 39/1/2 38/1/2 40/1/2
f 41/3/2 42/3/2 43/3/2
f 43/3/2 42/3/2 44/3/2
f 45/1/2 46/1/2 47/1/2
f 47/1/2 46/1/2 48/1/2
f 49/1/2 50/1/2 53/1/2
f 53/1/2 50/1/2 54/1/2
f 51/3/2 52/3/2 55/3/2
f 55/3/2 52/3/2 56/3/2
f 57/3/2 58/3/2 59/3/2
f 59/3/2 58/3/2 60/3/2
f 61/1/2 62/1/2 63/1/2
f 63/1/2 62/1/2 64/1/2
f 65/3/2 66/3/2 67/3/2
f 67/3/2 66/3/2 68/3/2
f 69/2/2 70/2/2 71/2/2
f 71/2/2 70/2/2 72/2/2
f 75/2/3 74/2/3 73/2/3
f 76/2/3 74/2/3 75/2/3
f 79/3/3 78/3/3 77/3/3
f 80/3/3 78/3/3 79/3/3
f 83/1/3 82/1/3 81/1/3
f 84/1/3 82/1/3 83/1/3
f 87/3/3 86/3/3 85/3/3
f 88/3/3 86/3/3 87/3/3
f 91/1/3 90/1/3 89/1/3
f 92/1/3 90/1/3 91/1/3
f 95/3/3 94/3/3 93/3/3
f 96/3/3 94/3/3 95/3/3
f 99/1/3 98/1/3 97/1/3
f 100/1/3 98/1/3 99/1/3
f 103/3/3 102/3/3 101/3/3
f 104/3/3 102/3/3 103/3/3
f 107/1/3 106/1/3 105/1/3
f 108/1/3 106/1/3 107/1/3
f 109/1/4 110/1/4 111/1/4
f 111/1/4 110/1/4 112/1/4
f 113/3/4 114/3/4 115/3/4
f 115/3/4 114/3/4 116/3/4
f 117/1/4 118/1/4 119/1/4
f 119/1/4 118/1/4 120/1/4
f 121/3/4 122/3/4 123/3/4
f 123/3/4 122/3/4 124/3/4
f 125/1/4 126/1/4 127/1/4
f 127/1/4 126/1/4 128/1/4
f 129/3/4 130/3/4 131/3/4
f 131/3/4 130/3/4 132/3/4
f 133/1/4 134/1/4 135/1/4
f 135/1/4 134/1/4 136/1/4
f 137/3/4 138/3/4 139/3/4
f 139/3/4 138/3/4 140/3/4
f 141/2/4 142/2/4 143/2/4
f 143/2/4 142/2/4 144/2/4
f 147/2/5 146/2/5 145/2/5
f 148/2/5 146/2/5 147/2/5
f 151/3/5 150/3/5 149/3/5
f 152/3/5 150/3/5 151/3/5
f 153/3/5 151/3/5 149/3/5
f 154/3/5 150/3/5 152/3/5
f 155/3/5 153/3/5 149/3/5
f 155/3/5 154/3/5 153/3/5
f 156/3/5 150/3/5 154/3/5
f 156/3/5 154/3/5 155/3/5
f 159/3/5 158/3/5 157/3/5
f 160/3/5 158/3/5 159/3/5
f 161/3/5 159/3/5 157/3/5
f 162/3/5 158/3/5 160/3/5
f 163/3/5 161/3/5 157/3/5
f 163/3/5 162/3/5 161/3/5
f 164/3/5 158/3/5 162/3/5
f 164/3/5 162/3/5 163/3/5
f 167/3/5 166/3/5 165/3/5
f 168/3/5 166/3/5 167/3/5
f 169/3/5 167/3/5 165/3/5
f 170/3/5 166/3/5 168/3/5
f 171/3/5 169/3/5 165/3/5
f 171/3/5 170/3/5 169/3/5
f 172/3/5 166/3/5 170/3/5
f 172/3/5 170/3/5 171/3/5
f 175/3/5 174/3/5 173/3/5
f 176/3/5 174/3/5 175/3/5
f 177/3/5 175/3/5 173/3/5
f 178/3/5 174/3/5 176/3/5
f 179/3/5 177/3/5 173/3/5
f 179/3/5 178/3/5 177/3/5
f 180/3/5 174/3/5 178/3/5
f 180/3/5 178/3/5 179/3/5
f 181/2/6 182/2/6 183/2/6
f 183/2/6 182/2/6 184/2/6
f 181/2/6 183/2/6 185/2/6
f 184/2/6 182/2/6 186/2/6
f 186/2/6 182/2/6 187/2/6
f 185/2/6 186/2/6 187/2/6
f 187/2/6 182/2/6 188/2/6
f 185/2/6 187/2/6 189/2/6
f 188/2/6 182/2/6 190/2/6
f 185/2/6 189/2/6 191/2/6
f 189/2/6 190/2/6 191/2/6
f 191/2/6 190/2/6 192/2/6
f 185/2/6 191/2/6 193/2/6
f 192/2/6 190/2/6 194/2/6
f 181/2/6 185/2/6 195/2/6
f 193/2/6 194/2/6 195/2/6
f 185/2/6 193/2/6 195/2/6
f 195/2/6 194/2/6 196/2/6
f 181/2/6 195/2/6 197/2/6
f 196/2/6 194/2/6 198/2/6
f 181/2/6 197/2/6 199/2/6
f 197/2/6 198/2/6 199/2/6
f 194/2/6 190/2/6 200/2/6
f 199/2/6 198/2/6 200/2/6
f 190/2/6 182/2/6 200/2/6
f 198/2/6 194/2/6 200/2/6
f 201/3/6 202/3/6 203/3/6
f 203/3/6 202/3/6 204/3/6
f 205/3/6 206/3/6 207/3/6
f 207/3/6 206/3/6 208/3/6
f 209/3/6 210/3/6 211/3/6
f 211/3/6 210/3/6 212/3/6
f 213/3/6 214/3/6 215/3/6
f 215/3/6 214/3/6 216/3/6
