# MagicaVoxel @ Ephtracy

# group
o 

# material
mtllib towers-315.mtl
usemtl palette

# normals
vn -1 0 0
vn 1 0 0
vn 0 0 1
vn 0 0 -1
vn 0 -1 0
vn 0 1 0

# texcoords
vt 0.541016 0.5
vt 0.810547 0.5
vt 0.947266 0.5
vt 0.978516 0.5
vt 0.982422 0.5
vt 0.986328 0.5

# verts
v -25.5 0 19.3
v -25.5 0 15.3
v -25.5 0.1 19.3
v -25.5 0.1 17.6
v -25.5 0.1 17
v -25.5 0.1 15.3
v -25.5 1.1 17.5
v -25.5 1.1 17.1
v -25.5 1.2 17.5
v -25.5 1.2 17.1
v -25.5 1.3 17.6
v -25.5 1.3 17.5
v -25.5 1.3 17.1
v -25.5 1.3 17
v -25.5 1.4 17.6
v -25.5 1.4 17.5
v -25.5 1.4 17.1
v -25.5 1.4 17
v -25.2 1.1 17.7
v -25.2 1.1 17.6
v -25.2 1.1 17
v -25.2 1.1 16.9
v -25.2 1.3 17.6
v -25.2 1.3 17
v -25.2 1.4 17.6
v -25.2 1.4 17.5
v -25.2 1.4 17.1
v -25.2 1.4 17
v -25.2 1.5 17.7
v -25.2 1.5 17.5
v -25.2 1.5 17.1
v -25.2 1.5 16.9
v -25.1 0.9 17.7
v -25.1 0.9 17.6
v -25.1 0.9 17
v -25.1 0.9 16.9
v -25.1 1 17.7
v -25.1 1 17.6
v -25.1 1 17
v -25.1 1 16.9
v -25.1 1.1 17.7
v -25.1 1.1 17.6
v -25.1 1.1 17
v -25.1 1.1 16.9
v -23.9 0.1 17.7
v -23.9 0.1 17.6
v -23.9 0.1 17
v -23.9 0.1 16.9
v -23.9 0.9 15.8
v -23.9 0.9 15.7
v -23.9 1 15.8
v -23.9 1 15.7
v -23.9 1.1 15.9
v -23.9 1.1 15.8
v -23.9 1.1 15.7
v -23.9 1.1 15.6
v -23.9 1.3 17.6
v -23.9 1.3 17
v -23.9 1.4 17.6
v -23.9 1.4 17.5
v -23.9 1.4 17.1
v -23.9 1.4 17
v -23.9 1.5 15.9
v -23.9 1.5 15.6
v -23.9 1.6 17.7
v -23.9 1.6 17.5
v -23.9 1.6 17.1
v -23.9 1.6 16.9
v -23.9 1.7 17.7
v -23.9 1.7 17.5
v -23.9 1.7 17.1
v -23.9 1.7 16.9
v -23.8 0.1 16.9
v -23.8 0.1 15.3
v -23.8 0.9 15.8
v -23.8 0.9 15.7
v -23.8 1 15.8
v -23.8 1 15.7
v -23.8 1.1 15.9
v -23.8 1.1 15.8
v -23.8 1.1 15.7
v -23.8 1.1 15.6
v -23.8 1.3 16.9
v -23.8 1.3 15.9
v -23.8 1.3 15.6
v -23.8 1.3 15.3
v -23.8 1.4 16.9
v -23.8 1.4 15.9
v -23.8 1.4 15.6
v -23.8 1.4 15.3
v -23.3 0.1 17.7
v -23.3 0.1 17.6
v -23.3 1.2 17.5
v -23.3 1.2 17.1
v -23.3 1.2 16.9
v -23.3 1.2 15.3
v -23.3 1.3 17.6
v -23.3 1.3 17.5
v -23.3 1.3 17.1
v -23.3 1.3 16.9
v -23.3 1.3 15.3
v -23.3 1.4 17.6
v -23.3 1.4 17.5
v -23.3 1.4 17.1
v -23.3 1.4 16.9
v -23.3 1.4 15.9
v -23.3 1.4 15.6
v -23.3 1.4 15.3
v -23.3 1.5 15.9
v -23.3 1.5 15.6
v -23.3 1.6 17.7
v -23.3 1.6 17.5
v -23.3 1.6 17.1
v -23.3 1.6 16.9
v -23.3 1.7 17.7
v -23.3 1.7 17.5
v -23.3 1.7 17.1
v -23.3 1.7 16.9
v -25 0.9 17.7
v -25 0.9 17.6
v -25 0.9 17
v -25 0.9 16.9
v -25 1 17.7
v -25 1 17.6
v -25 1 17
v -25 1 16.9
v -25 1.1 17.7
v -25 1.1 17.6
v -25 1.1 17
v -25 1.1 16.9
v -24.9 1.1 17.7
v -24.9 1.1 17.6
v -24.9 1.1 17
v -24.9 1.1 16.9
v -24.9 1.3 17.6
v -24.9 1.3 17
v -24.9 1.4 17.6
v -24.9 1.4 17.5
v -24.9 1.4 17.1
v -24.9 1.4 17
v -24.9 1.5 17.7
v -24.9 1.5 17.5
v -24.9 1.5 17.1
v -24.9 1.5 16.9
v -23.7 0.1 17.7
v -23.7 0.1 17.6
v -23.7 1.2 17.1
v -23.7 1.2 16.9
v -23.7 1.2 15.3
v -23.7 1.3 17.6
v -23.7 1.3 16.9
v -23.7 1.3 15.3
v -23.7 1.4 17.6
v -23.7 1.4 17.5
v -23.7 1.4 16.9
v -23.7 1.4 15.9
v -23.7 1.4 15.6
v -23.7 1.4 15.3
v -23.7 1.5 15.9
v -23.7 1.5 15.6
v -23.7 1.6 17.7
v -23.7 1.6 17.5
v -23.7 1.6 17.1
v -23.7 1.6 16.9
v -23.7 1.7 17.7
v -23.7 1.7 17.5
v -23.7 1.7 17.1
v -23.7 1.7 16.9
v -23.2 0.1 17.5
v -23.2 0.1 17.1
v -23.2 0.1 16.9
v -23.2 0.1 15.3
v -23.2 0.9 15.8
v -23.2 0.9 15.7
v -23.2 1 15.8
v -23.2 1 15.7
v -23.2 1.1 15.9
v -23.2 1.1 15.8
v -23.2 1.1 15.7
v -23.2 1.1 15.6
v -23.2 1.3 17.5
v -23.2 1.3 17.1
v -23.2 1.3 16.9
v -23.2 1.3 15.9
v -23.2 1.3 15.6
v -23.2 1.3 15.3
v -23.2 1.4 17.5
v -23.2 1.4 17.1
v -23.2 1.4 16.9
v -23.2 1.4 15.9
v -23.2 1.4 15.6
v -23.2 1.4 15.3
v -23.1 0.1 17.7
v -23.1 0.1 17.5
v -23.1 0.1 17.1
v -23.1 0.1 16.9
v -23.1 0.9 15.8
v -23.1 0.9 15.7
v -23.1 1 15.8
v -23.1 1 15.7
v -23.1 1.1 15.9
v -23.1 1.1 15.8
v -23.1 1.1 15.7
v -23.1 1.1 15.6
v -23.1 1.5 15.9
v -23.1 1.5 15.6
v -23.1 1.6 17.7
v -23.1 1.6 17.5
v -23.1 1.6 17.1
v -23.1 1.6 16.9
v -23.1 1.7 17.7
v -23.1 1.7 17.5
v -23.1 1.7 17.1
v -23.1 1.7 16.9
v -21.5 0 19.3
v -21.5 0 15.3
v -21.5 0.1 19.3
v -21.5 0.1 15.3
v -25.5 0 19.3
v -25.5 0.1 19.3
v -21.5 0 19.3
v -21.5 0.1 19.3
v -25.2 1.1 17.7
v -25.2 1.5 17.7
v -25.1 0.9 17.7
v -25.1 1 17.7
v -25.1 1.1 17.7
v -25 0.9 17.7
v -25 1 17.7
v -25 1.1 17.7
v -24.9 1.1 17.7
v -24.9 1.5 17.7
v -23.9 0.1 17.7
v -23.9 1.6 17.7
v -23.9 1.7 17.7
v -23.7 0.1 17.7
v -23.7 1.6 17.7
v -23.7 1.7 17.7
v -23.3 0.1 17.7
v -23.3 1.6 17.7
v -23.3 1.7 17.7
v -23.1 0.1 17.7
v -23.1 1.6 17.7
v -23.1 1.7 17.7
v -25.5 0.1 17.6
v -25.5 1.3 17.6
v -25.5 1.4 17.6
v -25.2 1.1 17.6
v -25.2 1.3 17.6
v -25.2 1.4 17.6
v -25.1 0.9 17.6
v -25.1 1 17.6
v -25.1 1.1 17.6
v -25 0.9 17.6
v -25 1 17.6
v -25 1.1 17.6
v -24.9 1.1 17.6
v -24.9 1.3 17.6
v -24.9 1.4 17.6
v -23.9 0.1 17.6
v -23.9 1.3 17.6
v -23.9 1.4 17.6
v -23.7 0.1 17.6
v -23.7 1.3 17.6
v -23.7 1.4 17.6
v -23.3 0.1 17.6
v -23.3 1.3 17.6
v -23.3 1.4 17.6
v -25.5 1.2 17.1
v -25.5 1.3 17.1
v -25.5 1.4 17.1
v -25.2 1.4 17.1
v -25.2 1.5 17.1
v -24.9 1.4 17.1
v -24.9 1.5 17.1
v -23.9 1.2 17.1
v -23.9 1.3 17.1
v -23.9 1.4 17.1
v -23.9 1.6 17.1
v -23.9 1.7 17.1
v -23.7 1.2 17.1
v -23.7 1.6 17.1
v -23.7 1.7 17.1
v -23.3 1.4 17.1
v -23.3 1.6 17.1
v -23.3 1.7 17.1
v -23.2 0.1 17.1
v -23.2 1.3 17.1
v -23.2 1.4 17.1
v -23.1 0.1 17.1
v -23.1 1.6 17.1
v -23.1 1.7 17.1
v -23.9 1.1 15.9
v -23.9 1.5 15.9
v -23.8 1.1 15.9
v -23.8 1.3 15.9
v -23.8 1.4 15.9
v -23.7 1.4 15.9
v -23.7 1.5 15.9
v -23.3 1.4 15.9
v -23.3 1.5 15.9
v -23.2 1.1 15.9
v -23.2 1.3 15.9
v -23.2 1.4 15.9
v -23.1 1.1 15.9
v -23.1 1.5 15.9
v -23.9 0.9 15.8
v -23.9 1 15.8
v -23.9 1.1 15.8
v -23.8 0.9 15.8
v -23.8 1 15.8
v -23.8 1.1 15.8
v -23.2 0.9 15.8
v -23.2 1 15.8
v -23.2 1.1 15.8
v -23.1 0.9 15.8
v -23.1 1 15.8
v -23.1 1.1 15.8
v -25.5 1.2 17.5
v -25.5 1.3 17.5
v -25.5 1.4 17.5
v -25.2 1.4 17.5
v -25.2 1.5 17.5
v -24.9 1.4 17.5
v -24.9 1.5 17.5
v -23.9 1.2 17.5
v -23.9 1.3 17.5
v -23.9 1.4 17.5
v -23.9 1.6 17.5
v -23.9 1.7 17.5
v -23.7 1.2 17.5
v -23.7 1.3 17.5
v -23.7 1.4 17.5
v -23.7 1.6 17.5
v -23.7 1.7 17.5
v -23.3 1.2 17.5
v -23.3 1.3 17.5
v -23.3 1.4 17.5
v -23.3 1.6 17.5
v -23.3 1.7 17.5
v -23.2 0.1 17.5
v -23.2 1.3 17.5
v -23.2 1.4 17.5
v -23.1 0.1 17.5
v -23.1 1.6 17.5
v -23.1 1.7 17.5
v -25.5 0.1 17
v -25.5 1.3 17
v -25.5 1.4 17
v -25.2 1.1 17
v -25.2 1.3 17
v -25.2 1.4 17
v -25.1 0.9 17
v -25.1 1 17
v -25.1 1.1 17
v -25 0.9 17
v -25 1 17
v -25 1.1 17
v -24.9 1.1 17
v -24.9 1.3 17
v -24.9 1.4 17
v -23.9 0.1 17
v -23.9 1.3 17
v -23.9 1.4 17
v -25.2 1.1 16.9
v -25.2 1.5 16.9
v -25.1 0.9 16.9
v -25.1 1 16.9
v -25.1 1.1 16.9
v -25 0.9 16.9
v -25 1 16.9
v -25 1.1 16.9
v -24.9 1.1 16.9
v -24.9 1.5 16.9
v -23.9 0.1 16.9
v -23.9 1.6 16.9
v -23.9 1.7 16.9
v -23.8 0.1 16.9
v -23.8 1.3 16.9
v -23.8 1.4 16.9
v -23.7 1.4 16.9
v -23.7 1.6 16.9
v -23.7 1.7 16.9
v -23.3 1.4 16.9
v -23.3 1.6 16.9
v -23.3 1.7 16.9
v -23.2 0.1 16.9
v -23.2 1.3 16.9
v -23.2 1.4 16.9
v -23.1 0.1 16.9
v -23.1 1.6 16.9
v -23.1 1.7 16.9
v -23.9 0.9 15.7
v -23.9 1 15.7
v -23.9 1.1 15.7
v -23.8 0.9 15.7
v -23.8 1 15.7
v -23.8 1.1 15.7
v -23.2 0.9 15.7
v -23.2 1 15.7
v -23.2 1.1 15.7
v -23.1 0.9 15.7
v -23.1 1 15.7
v -23.1 1.1 15.7
v -23.9 1.1 15.6
v -23.9 1.5 15.6
v -23.8 1.1 15.6
v -23.8 1.3 15.6
v -23.8 1.4 15.6
v -23.7 1.4 15.6
v -23.7 1.5 15.6
v -23.3 1.4 15.6
v -23.3 1.5 15.6
v -23.2 1.1 15.6
v -23.2 1.3 15.6
v -23.2 1.4 15.6
v -23.1 1.1 15.6
v -23.1 1.5 15.6
v -25.5 0 15.3
v -25.5 0.1 15.3
v -23.8 0.1 15.3
v -23.8 1.3 15.3
v -23.8 1.4 15.3
v -23.7 1.1 15.3
v -23.7 1.2 15.3
v -23.7 1.3 15.3
v -23.7 1.4 15.3
v -23.3 1.1 15.3
v -23.3 1.2 15.3
v -23.3 1.3 15.3
v -23.3 1.4 15.3
v -23.2 0.1 15.3
v -23.2 1.3 15.3
v -23.2 1.4 15.3
v -21.5 0 15.3
v -21.5 0.1 15.3
v -25.5 0 19.3
v -21.5 0 19.3
v -25.5 0 15.3
v -21.5 0 15.3
v -25.1 0.9 17.7
v -25 0.9 17.7
v -25.1 0.9 17.6
v -25 0.9 17.6
v -25.1 0.9 17
v -25 0.9 17
v -25.1 0.9 16.9
v -25 0.9 16.9
v -23.9 0.9 15.8
v -23.8 0.9 15.8
v -23.2 0.9 15.8
v -23.1 0.9 15.8
v -23.9 0.9 15.7
v -23.8 0.9 15.7
v -23.2 0.9 15.7
v -23.1 0.9 15.7
v -25.2 1.1 17.7
v -25.1 1.1 17.7
v -25 1.1 17.7
v -24.9 1.1 17.7
v -25.2 1.1 17.6
v -25.1 1.1 17.6
v -25 1.1 17.6
v -24.9 1.1 17.6
v -25.2 1.1 17
v -25.1 1.1 17
v -25 1.1 17
v -24.9 1.1 17
v -25.2 1.1 16.9
v -25.1 1.1 16.9
v -25 1.1 16.9
v -24.9 1.1 16.9
v -23.9 1.1 15.9
v -23.8 1.1 15.9
v -23.2 1.1 15.9
v -23.1 1.1 15.9
v -23.9 1.1 15.8
v -23.8 1.1 15.8
v -23.2 1.1 15.8
v -23.1 1.1 15.8
v -23.9 1.1 15.7
v -23.8 1.1 15.7
v -23.2 1.1 15.7
v -23.1 1.1 15.7
v -23.9 1.1 15.6
v -23.8 1.1 15.6
v -23.2 1.1 15.6
v -23.1 1.1 15.6
v -25.5 0.1 19.3
v -21.5 0.1 19.3
v -23.9 0.1 17.7
v -23.7 0.1 17.7
v -23.3 0.1 17.7
v -23.1 0.1 17.7
v -25.5 0.1 17.6
v -23.9 0.1 17.6
v -23.7 0.1 17.6
v -23.3 0.1 17.6
v -23.2 0.1 17.5
v -23.1 0.1 17.5
v -23.2 0.1 17.1
v -23.1 0.1 17.1
v -25.5 0.1 17
v -23.9 0.1 17
v -23.9 0.1 16.9
v -23.8 0.1 16.9
v -23.2 0.1 16.9
v -23.1 0.1 16.9
v -25.5 0.1 15.3
v -23.8 0.1 15.3
v -23.2 0.1 15.3
v -21.5 0.1 15.3
v -25.5 1.2 17.5
v -23.9 1.2 17.5
v -23.7 1.2 17.5
v -23.3 1.2 17.5
v -25.5 1.2 17.1
v -23.9 1.2 17.1
v -23.7 1.2 17.1
v -23.3 1.2 17.1
v -23.7 1.2 16.9
v -23.3 1.2 16.9
v -23.7 1.2 15.3
v -23.3 1.2 15.3
v -25.5 1.4 17.6
v -25.2 1.4 17.6
v -24.9 1.4 17.6
v -23.9 1.4 17.6
v -23.7 1.4 17.6
v -23.3 1.4 17.6
v -25.5 1.4 17.5
v -25.2 1.4 17.5
v -24.9 1.4 17.5
v -23.9 1.4 17.5
v -23.7 1.4 17.5
v -23.3 1.4 17.5
v -23.2 1.4 17.5
v -25.5 1.4 17.1
v -25.2 1.4 17.1
v -24.9 1.4 17.1
v -23.9 1.4 17.1
v -23.3 1.4 17.1
v -23.2 1.4 17.1
v -25.5 1.4 17
v -25.2 1.4 17
v -24.9 1.4 17
v -23.9 1.4 17
v -23.8 1.4 16.9
v -23.7 1.4 16.9
v -23.3 1.4 16.9
v -23.2 1.4 16.9
v -23.8 1.4 15.9
v -23.7 1.4 15.9
v -23.3 1.4 15.9
v -23.2 1.4 15.9
v -23.8 1.4 15.6
v -23.7 1.4 15.6
v -23.3 1.4 15.6
v -23.2 1.4 15.6
v -23.8 1.4 15.3
v -23.7 1.4 15.3
v -23.3 1.4 15.3
v -23.2 1.4 15.3
v -25.2 1.5 17.7
v -24.9 1.5 17.7
v -25.2 1.5 17.5
v -24.9 1.5 17.5
v -25.2 1.5 17.1
v -24.9 1.5 17.1
v -25.2 1.5 16.9
v -24.9 1.5 16.9
v -23.9 1.5 15.9
v -23.7 1.5 15.9
v -23.3 1.5 15.9
v -23.1 1.5 15.9
v -23.9 1.5 15.6
v -23.7 1.5 15.6
v -23.3 1.5 15.6
v -23.1 1.5 15.6
v -23.9 1.7 17.7
v -23.7 1.7 17.7
v -23.3 1.7 17.7
v -23.1 1.7 17.7
v -23.9 1.7 17.5
v -23.7 1.7 17.5
v -23.3 1.7 17.5
v -23.1 1.7 17.5
v -23.9 1.7 17.1
v -23.7 1.7 17.1
v -23.3 1.7 17.1
v -23.1 1.7 17.1
v -23.9 1.7 16.9
v -23.7 1.7 16.9
v -23.3 1.7 16.9
v -23.1 1.7 16.9

# faces
f 3/1/1 2/1/1 1/1/1
f 4/1/1 2/1/1 3/1/1
f 5/1/1 2/1/1 4/1/1
f 6/1/1 2/1/1 5/1/1
f 7/4/1 5/4/1 4/4/1
f 8/4/1 5/4/1 7/4/1
f 9/4/1 7/4/1 4/4/1
f 9/3/1 8/3/1 7/3/1
f 10/4/1 5/4/1 8/4/1
f 10/3/1 8/3/1 9/3/1
f 11/4/1 9/4/1 4/4/1
f 12/4/1 9/4/1 11/4/1
f 13/4/1 5/4/1 10/4/1
f 14/4/1 5/4/1 13/4/1
f 15/6/1 12/6/1 11/6/1
f 16/6/1 12/6/1 15/6/1
f 17/6/1 14/6/1 13/6/1
f 18/6/1 14/6/1 17/6/1
f 23/5/1 20/5/1 19/5/1
f 24/5/1 22/5/1 21/5/1
f 25/5/1 23/5/1 19/5/1
f 28/5/1 22/5/1 24/5/1
f 29/5/1 26/5/1 25/5/1
f 29/5/1 25/5/1 19/5/1
f 30/5/1 26/5/1 29/5/1
f 31/5/1 28/5/1 27/5/1
f 32/5/1 22/5/1 28/5/1
f 32/5/1 28/5/1 31/5/1
f 37/2/1 34/2/1 33/2/1
f 38/2/1 34/2/1 37/2/1
f 39/2/1 36/2/1 35/2/1
f 40/2/1 36/2/1 39/2/1
f 41/5/1 38/5/1 37/5/1
f 42/5/1 38/5/1 41/5/1
f 43/5/1 40/5/1 39/5/1
f 44/5/1 40/5/1 43/5/1
f 51/2/1 50/2/1 49/2/1
f 52/2/1 50/2/1 51/2/1
f 54/5/1 52/5/1 51/5/1
f 55/5/1 52/5/1 54/5/1
f 57/5/1 46/5/1 45/5/1
f 58/5/1 48/5/1 47/5/1
f 59/5/1 57/5/1 45/5/1
f 62/5/1 48/5/1 58/5/1
f 63/5/1 56/5/1 55/5/1
f 63/5/1 55/5/1 54/5/1
f 63/5/1 54/5/1 53/5/1
f 64/5/1 56/5/1 63/5/1
f 65/5/1 60/5/1 59/5/1
f 65/5/1 59/5/1 45/5/1
f 66/5/1 60/5/1 65/5/1
f 67/5/1 62/5/1 61/5/1
f 68/5/1 48/5/1 62/5/1
f 68/5/1 62/5/1 67/5/1
f 69/6/1 66/6/1 65/6/1
f 70/6/1 66/6/1 69/6/1
f 71/6/1 68/6/1 67/6/1
f 72/6/1 68/6/1 71/6/1
f 75/4/1 74/4/1 73/4/1
f 76/4/1 74/4/1 75/4/1
f 77/4/1 75/4/1 73/4/1
f 78/4/1 74/4/1 76/4/1
f 79/4/1 77/4/1 73/4/1
f 80/4/1 77/4/1 79/4/1
f 81/4/1 74/4/1 78/4/1
f 82/4/1 74/4/1 81/4/1
f 83/4/1 79/4/1 73/4/1
f 84/4/1 79/4/1 83/4/1
f 85/4/1 74/4/1 82/4/1
f 86/4/1 74/4/1 85/4/1
f 87/6/1 84/6/1 83/6/1
f 88/6/1 84/6/1 87/6/1
f 89/6/1 86/6/1 85/6/1
f 90/6/1 86/6/1 89/6/1
f 97/5/1 92/5/1 91/5/1
f 98/4/1 94/4/1 93/4/1
f 99/5/1 95/5/1 94/5/1
f 99/4/1 94/4/1 98/4/1
f 100/4/1 96/4/1 95/4/1
f 100/5/1 95/5/1 99/5/1
f 101/4/1 96/4/1 100/4/1
f 102/5/1 97/5/1 91/5/1
f 103/6/1 99/6/1 98/6/1
f 104/5/1 100/5/1 99/5/1
f 104/6/1 99/6/1 103/6/1
f 105/6/1 101/6/1 100/6/1
f 105/5/1 100/5/1 104/5/1
f 106/6/1 101/6/1 105/6/1
f 107/6/1 101/6/1 106/6/1
f 108/6/1 101/6/1 107/6/1
f 109/5/1 107/5/1 106/5/1
f 110/5/1 107/5/1 109/5/1
f 111/5/1 102/5/1 91/5/1
f 111/5/1 103/5/1 102/5/1
f 112/5/1 103/5/1 111/5/1
f 113/5/1 105/5/1 104/5/1
f 114/5/1 105/5/1 113/5/1
f 115/6/1 112/6/1 111/6/1
f 116/6/1 112/6/1 115/6/1
f 117/6/1 114/6/1 113/6/1
f 118/6/1 114/6/1 117/6/1
f 119/2/2 120/2/2 123/2/2
f 123/2/2 120/2/2 124/2/2
f 121/2/2 122/2/2 125/2/2
f 125/2/2 122/2/2 126/2/2
f 123/5/2 124/5/2 127/5/2
f 127/5/2 124/5/2 128/5/2
f 125/5/2 126/5/2 129/5/2
f 129/5/2 126/5/2 130/5/2
f 131/5/2 132/5/2 135/5/2
f 133/5/2 134/5/2 136/5/2
f 131/5/2 135/5/2 137/5/2
f 136/5/2 134/5/2 140/5/2
f 137/5/2 138/5/2 141/5/2
f 131/5/2 137/5/2 141/5/2
f 141/5/2 138/5/2 142/5/2
f 139/5/2 140/5/2 143/5/2
f 140/5/2 134/5/2 144/5/2
f 143/5/2 140/5/2 144/5/2
f 145/5/2 146/5/2 150/5/2
f 148/4/2 149/4/2 151/4/2
f 147/5/2 148/5/2 151/5/2
f 151/4/2 149/4/2 152/4/2
f 145/5/2 150/5/2 153/5/2
f 147/5/2 151/5/2 155/5/2
f 151/6/2 152/6/2 155/6/2
f 155/6/2 152/6/2 156/6/2
f 156/6/2 152/6/2 157/6/2
f 157/6/2 152/6/2 158/6/2
f 156/5/2 157/5/2 159/5/2
f 159/5/2 157/5/2 160/5/2
f 153/5/2 154/5/2 161/5/2
f 145/5/2 153/5/2 161/5/2
f 161/5/2 154/5/2 162/5/2
f 147/5/2 155/5/2 163/5/2
f 163/5/2 155/5/2 164/5/2
f 161/6/2 162/6/2 165/6/2
f 165/6/2 162/6/2 166/6/2
f 163/6/2 164/6/2 167/6/2
f 167/6/2 164/6/2 168/6/2
f 171/4/2 172/4/2 173/4/2
f 173/4/2 172/4/2 174/4/2
f 171/4/2 173/4/2 175/4/2
f 174/4/2 172/4/2 176/4/2
f 171/4/2 175/4/2 177/4/2
f 177/4/2 175/4/2 178/4/2
f 176/4/2 172/4/2 179/4/2
f 179/4/2 172/4/2 180/4/2
f 169/4/2 170/4/2 181/4/2
f 181/4/2 170/4/2 182/4/2
f 171/4/2 177/4/2 183/4/2
f 183/4/2 177/4/2 184/4/2
f 180/4/2 172/4/2 185/4/2
f 185/4/2 172/4/2 186/4/2
f 181/6/2 182/6/2 187/6/2
f 187/6/2 182/6/2 188/6/2
f 183/6/2 184/6/2 189/6/2
f 189/6/2 184/6/2 190/6/2
f 185/6/2 186/6/2 191/6/2
f 191/6/2 186/6/2 192/6/2
f 197/2/2 198/2/2 199/2/2
f 199/2/2 198/2/2 200/2/2
f 199/5/2 200/5/2 202/5/2
f 202/5/2 200/5/2 203/5/2
f 202/5/2 203/5/2 205/5/2
f 203/5/2 204/5/2 205/5/2
f 201/5/2 202/5/2 205/5/2
f 205/5/2 204/5/2 206/5/2
f 193/5/2 194/5/2 207/5/2
f 207/5/2 194/5/2 208/5/2
f 195/5/2 196/5/2 209/5/2
f 209/5/2 196/5/2 210/5/2
f 207/6/2 208/6/2 211/6/2
f 211/6/2 208/6/2 212/6/2
f 209/6/2 210/6/2 213/6/2
f 213/6/2 210/6/2 214/6/2
f 215/1/2 216/1/2 217/1/2
f 217/1/2 216/1/2 218/1/2
f 221/1/3 220/1/3 219/1/3
f 222/1/3 220/1/3 221/1/3
f 227/5/3 224/5/3 223/5/3
f 228/2/3 226/2/3 225/2/3
f 229/5/3 227/5/3 226/5/3
f 229/2/3 226/2/3 228/2/3
f 230/5/3 224/5/3 227/5/3
f 230/5/3 227/5/3 229/5/3
f 231/5/3 224/5/3 230/5/3
f 232/5/3 224/5/3 231/5/3
f 236/5/3 234/5/3 233/5/3
f 237/6/3 235/6/3 234/6/3
f 237/5/3 234/5/3 236/5/3
f 238/6/3 235/6/3 237/6/3
f 242/5/3 240/5/3 239/5/3
f 243/6/3 241/6/3 240/6/3
f 243/5/3 240/5/3 242/5/3
f 244/6/3 241/6/3 243/6/3
f 248/4/3 246/4/3 245/4/3
f 249/6/3 247/6/3 246/6/3
f 249/4/3 246/4/3 248/4/3
f 250/6/3 247/6/3 249/6/3
f 251/4/3 248/4/3 245/4/3
f 252/4/3 248/4/3 251/4/3
f 253/4/3 248/4/3 252/4/3
f 254/4/3 251/4/3 245/4/3
f 257/4/3 255/4/3 254/4/3
f 257/4/3 256/4/3 255/4/3
f 260/4/3 257/4/3 254/4/3
f 260/4/3 254/4/3 245/4/3
f 260/4/3 258/4/3 257/4/3
f 261/6/3 259/6/3 258/6/3
f 261/4/3 258/4/3 260/4/3
f 262/6/3 259/6/3 261/6/3
f 266/4/3 264/4/3 263/4/3
f 267/6/3 265/6/3 264/6/3
f 267/4/3 264/4/3 266/4/3
f 268/6/3 265/6/3 267/6/3
f 272/6/3 271/6/3 270/6/3
f 274/6/3 272/6/3 270/6/3
f 274/5/3 273/5/3 272/5/3
f 275/5/3 273/5/3 274/5/3
f 276/4/3 270/4/3 269/4/3
f 277/6/3 274/6/3 270/6/3
f 277/4/3 270/4/3 276/4/3
f 278/6/3 274/6/3 277/6/3
f 281/5/3 278/5/3 277/5/3
f 281/5/3 277/5/3 276/5/3
f 281/5/3 279/5/3 278/5/3
f 282/6/3 280/6/3 279/6/3
f 282/5/3 279/5/3 281/5/3
f 283/6/3 280/6/3 282/6/3
f 289/5/3 285/5/3 284/5/3
f 290/5/3 288/5/3 287/5/3
f 290/5/3 289/5/3 288/5/3
f 291/5/3 285/5/3 289/5/3
f 291/5/3 289/5/3 290/5/3
f 291/6/3 286/6/3 285/6/3
f 292/6/3 286/6/3 291/6/3
f 295/5/3 294/5/3 293/5/3
f 296/5/3 294/5/3 295/5/3
f 297/5/3 294/5/3 296/5/3
f 298/5/3 294/5/3 297/5/3
f 299/5/3 294/5/3 298/5/3
f 304/5/3 301/5/3 300/5/3
f 305/5/3 303/5/3 302/5/3
f 305/5/3 304/5/3 303/5/3
f 306/5/3 301/5/3 304/5/3
f 306/5/3 304/5/3 305/5/3
f 310/2/3 308/2/3 307/2/3
f 311/5/3 309/5/3 308/5/3
f 311/2/3 308/2/3 310/2/3
f 312/5/3 309/5/3 311/5/3
f 316/2/3 314/2/3 313/2/3
f 317/5/3 315/5/3 314/5/3
f 317/2/3 314/2/3 316/2/3
f 318/5/3 315/5/3 317/5/3
f 320/6/4 321/6/4 322/6/4
f 320/6/4 322/6/4 324/6/4
f 322/5/4 323/5/4 324/5/4
f 324/5/4 323/5/4 325/5/4
f 319/4/4 320/4/4 326/4/4
f 320/6/4 324/6/4 327/6/4
f 326/4/4 320/4/4 327/4/4
f 327/6/4 324/6/4 328/6/4
f 327/5/4 328/5/4 331/5/4
f 326/5/4 327/5/4 331/5/4
f 328/5/4 329/5/4 331/5/4
f 331/5/4 329/5/4 332/5/4
f 332/5/4 329/5/4 333/5/4
f 329/6/4 330/6/4 334/6/4
f 333/5/4 329/5/4 334/5/4
f 334/6/4 330/6/4 335/6/4
f 331/4/4 332/4/4 336/4/4
f 332/6/4 333/6/4 337/6/4
f 336/4/4 332/4/4 337/4/4
f 337/6/4 333/6/4 338/6/4
f 338/5/4 339/5/4 343/5/4
f 341/5/4 342/5/4 344/5/4
f 342/5/4 343/5/4 344/5/4
f 339/6/4 340/6/4 345/6/4
f 344/5/4 343/5/4 345/5/4
f 343/5/4 339/5/4 345/5/4
f 345/6/4 340/6/4 346/6/4
f 347/4/4 348/4/4 350/4/4
f 348/6/4 349/6/4 351/6/4
f 350/4/4 348/4/4 351/4/4
f 351/6/4 349/6/4 352/6/4
f 347/4/4 350/4/4 353/4/4
f 353/4/4 350/4/4 354/4/4
f 354/4/4 350/4/4 355/4/4
f 347/4/4 353/4/4 356/4/4
f 356/4/4 357/4/4 359/4/4
f 357/4/4 358/4/4 359/4/4
f 356/4/4 359/4/4 362/4/4
f 347/4/4 356/4/4 362/4/4
f 359/4/4 360/4/4 362/4/4
f 360/6/4 361/6/4 363/6/4
f 362/4/4 360/4/4 363/4/4
f 363/6/4 361/6/4 364/6/4
f 365/5/4 366/5/4 369/5/4
f 367/2/4 368/2/4 370/2/4
f 368/5/4 369/5/4 371/5/4
f 370/2/4 368/2/4 371/2/4
f 369/5/4 366/5/4 372/5/4
f 371/5/4 369/5/4 372/5/4
f 372/5/4 366/5/4 373/5/4
f 373/5/4 366/5/4 374/5/4
f 375/5/4 376/5/4 378/5/4
f 378/5/4 376/5/4 379/5/4
f 379/5/4 376/5/4 380/5/4
f 380/5/4 376/5/4 381/5/4
f 376/6/4 377/6/4 382/6/4
f 381/5/4 376/5/4 382/5/4
f 382/6/4 377/6/4 383/6/4
f 384/5/4 385/5/4 389/5/4
f 387/5/4 388/5/4 390/5/4
f 388/5/4 389/5/4 390/5/4
f 389/5/4 385/5/4 391/5/4
f 390/5/4 389/5/4 391/5/4
f 385/6/4 386/6/4 391/6/4
f 391/6/4 386/6/4 392/6/4
f 393/2/4 394/2/4 396/2/4
f 394/5/4 395/5/4 397/5/4
f 396/2/4 394/2/4 397/2/4
f 397/5/4 395/5/4 398/5/4
f 399/2/4 400/2/4 402/2/4
f 400/5/4 401/5/4 403/5/4
f 402/2/4 400/2/4 403/2/4
f 403/5/4 401/5/4 404/5/4
f 405/5/4 406/5/4 407/5/4
f 407/5/4 406/5/4 408/5/4
f 408/5/4 406/5/4 409/5/4
f 409/5/4 406/5/4 410/5/4
f 410/5/4 406/5/4 411/5/4
f 412/5/4 413/5/4 416/5/4
f 414/5/4 415/5/4 417/5/4
f 415/5/4 416/5/4 417/5/4
f 416/5/4 413/5/4 418/5/4
f 417/5/4 416/5/4 418/5/4
f 419/1/4 420/1/4 421/1/4
f 421/4/4 422/4/4 424/4/4
f 424/4/4 422/4/4 425/4/4
f 422/6/4 423/6/4 426/6/4
f 425/4/4 422/4/4 426/4/4
f 426/6/4 423/6/4 427/6/4
f 424/3/4 425/3/4 428/3/4
f 421/4/4 424/4/4 428/4/4
f 428/3/4 425/3/4 429/3/4
f 419/1/4 421/1/4 432/1/4
f 421/4/4 428/4/4 432/4/4
f 429/4/4 430/4/4 432/4/4
f 428/4/4 429/4/4 432/4/4
f 430/6/4 431/6/4 433/6/4
f 432/4/4 430/4/4 433/4/4
f 433/6/4 431/6/4 434/6/4
f 419/1/4 432/1/4 435/1/4
f 435/1/4 432/1/4 436/1/4
f 439/1/5 438/1/5 437/1/5
f 440/1/5 438/1/5 439/1/5
f 443/2/5 442/2/5 441/2/5
f 444/2/5 442/2/5 443/2/5
f 447/2/5 446/2/5 445/2/5
f 448/2/5 446/2/5 447/2/5
f 453/2/5 450/2/5 449/2/5
f 454/2/5 450/2/5 453/2/5
f 455/2/5 452/2/5 451/2/5
f 456/2/5 452/2/5 455/2/5
f 461/5/5 458/5/5 457/5/5
f 462/5/5 458/5/5 461/5/5
f 463/5/5 460/5/5 459/5/5
f 464/5/5 460/5/5 463/5/5
f 469/5/5 466/5/5 465/5/5
f 470/5/5 466/5/5 469/5/5
f 471/5/5 468/5/5 467/5/5
f 472/5/5 468/5/5 471/5/5
f 477/5/5 474/5/5 473/5/5
f 478/5/5 474/5/5 477/5/5
f 479/5/5 476/5/5 475/5/5
f 480/5/5 476/5/5 479/5/5
f 485/5/5 482/5/5 481/5/5
f 486/5/5 482/5/5 485/5/5
f 487/5/5 484/5/5 483/5/5
f 488/5/5 484/5/5 487/5/5
f 489/1/6 490/1/6 491/1/6
f 491/1/6 490/1/6 492/1/6
f 492/1/6 490/1/6 493/1/6
f 493/1/6 490/1/6 494/1/6
f 489/1/6 491/1/6 495/1/6
f 495/1/6 491/1/6 496/1/6
f 492/1/6 493/1/6 497/1/6
f 497/1/6 493/1/6 498/1/6
f 494/1/6 490/1/6 500/1/6
f 499/1/6 500/1/6 501/1/6
f 500/1/6 490/1/6 502/1/6
f 501/1/6 500/1/6 502/1/6
f 503/1/6 504/1/6 505/1/6
f 502/1/6 490/1/6 508/1/6
f 505/1/6 506/1/6 509/1/6
f 503/1/6 505/1/6 509/1/6
f 509/1/6 506/1/6 510/1/6
f 507/1/6 508/1/6 511/1/6
f 508/1/6 490/1/6 512/1/6
f 511/1/6 508/1/6 512/1/6
f 513/3/6 514/3/6 517/3/6
f 515/3/6 516/3/6 517/3/6
f 514/3/6 515/3/6 517/3/6
f 517/3/6 516/3/6 518/3/6
f 518/3/6 516/3/6 519/3/6
f 519/3/6 516/3/6 520/3/6
f 519/3/6 520/3/6 521/3/6
f 521/3/6 520/3/6 522/3/6
f 521/3/6 522/3/6 523/3/6
f 523/3/6 522/3/6 524/3/6
f 525/6/6 526/6/6 531/6/6
f 531/6/6 526/6/6 532/6/6
f 527/6/6 528/6/6 533/6/6
f 533/6/6 528/6/6 534/6/6
f 529/6/6 530/6/6 535/6/6
f 535/6/6 530/6/6 536/6/6
f 536/6/6 537/6/6 542/6/6
f 542/6/6 537/6/6 543/6/6
f 538/6/6 539/6/6 544/6/6
f 544/6/6 539/6/6 545/6/6
f 540/6/6 541/6/6 546/6/6
f 546/6/6 541/6/6 547/6/6
f 548/6/6 549/6/6 552/6/6
f 552/6/6 549/6/6 553/6/6
f 550/6/6 551/6/6 554/6/6
f 554/6/6 551/6/6 555/6/6
f 556/6/6 557/6/6 560/6/6
f 560/6/6 557/6/6 561/6/6
f 558/6/6 559/6/6 562/6/6
f 562/6/6 559/6/6 563/6/6
f 564/5/6 565/5/6 566/5/6
f 566/5/6 565/5/6 567/5/6
f 568/5/6 569/5/6 570/5/6
f 570/5/6 569/5/6 571/5/6
f 572/5/6 573/5/6 576/5/6
f 576/5/6 573/5/6 577/5/6
f 574/5/6 575/5/6 578/5/6
f 578/5/6 575/5/6 579/5/6
f 580/6/6 581/6/6 584/6/6
f 584/6/6 581/6/6 585/6/6
f 582/6/6 583/6/6 586/6/6
f 586/6/6 583/6/6 587/6/6
f 588/6/6 589/6/6 592/6/6
f 592/6/6 589/6/6 593/6/6
f 590/6/6 591/6/6 594/6/6
f 594/6/6 591/6/6 595/6/6
