# MagicaVoxel @ Ephtracy

# group
o 

# material
mtllib towers-262.mtl
usemtl palette

# normals
vn -1 0 0
vn 1 0 0
vn 0 0 1
vn 0 0 -1
vn 0 -1 0
vn 0 1 0

# texcoords
vt 0.541016 0.5
vt 0.587891 0.5
vt 0.947266 0.5
vt 0.978516 0.5
vt 0.982422 0.5
vt 0.986328 0.5

# verts
v -25.5 0 19.3
v -25.5 0 15.3
v -25.5 0.1 19.3
v -25.5 0.1 17.6
v -25.5 0.1 17
v -25.5 0.1 15.3
v -25.5 1.1 17.5
v -25.5 1.1 17.1
v -25.5 1.2 17.5
v -25.5 1.2 17.1
v -25.5 1.3 17.6
v -25.5 1.3 17.5
v -25.5 1.3 17.1
v -25.5 1.3 17
v -25.5 1.4 17.6
v -25.5 1.4 17.5
v -25.5 1.4 17.1
v -25.5 1.4 17
v -25.2 1.1 17.7
v -25.2 1.1 17.6
v -25.2 1.1 17
v -25.2 1.1 16.9
v -25.2 1.3 17.6
v -25.2 1.3 17
v -25.2 1.4 17.6
v -25.2 1.4 17.5
v -25.2 1.4 17.1
v -25.2 1.4 17
v -25.2 1.5 17.7
v -25.2 1.5 17.5
v -25.2 1.5 17.1
v -25.2 1.5 16.9
v -25.1 0.9 17.7
v -25.1 0.9 17.6
v -25.1 0.9 17
v -25.1 0.9 16.9
v -25.1 1 17.7
v -25.1 1 17.6
v -25.1 1 17
v -25.1 1 16.9
v -25.1 1.1 17.7
v -25.1 1.1 17.6
v -25.1 1.1 17
v -25.1 1.1 16.9
v -24.5 1.1 17.7
v -24.5 1.1 17.6
v -24.5 1.1 17
v -24.5 1.1 16.9
v -24.5 1.3 17.6
v -24.5 1.3 17
v -24.5 1.4 17.6
v -24.5 1.4 17.5
v -24.5 1.4 17.1
v -24.5 1.4 17
v -24.5 1.5 17.7
v -24.5 1.5 17.5
v -24.5 1.5 17.1
v -24.5 1.5 16.9
v -24.4 0.9 17.7
v -24.4 0.9 17.6
v -24.4 0.9 17
v -24.4 0.9 16.9
v -24.4 1 17.7
v -24.4 1 17.6
v -24.4 1 17
v -24.4 1 16.9
v -24.4 1.1 17.7
v -24.4 1.1 17.6
v -24.4 1.1 17
v -24.4 1.1 16.9
v -24 0.1 17.8
v -24 0.1 17.6
v -24 0.1 17
v -24 0.1 16.8
v -24 0.3 17.8
v -24 0.3 17.6
v -24 0.3 17
v -24 0.3 16.8
v -23.9 0.3 17.7
v -23.9 0.3 17.6
v -23.9 0.3 17
v -23.9 0.3 16.9
v -23.9 1.3 17.6
v -23.9 1.3 17
v -23.9 1.4 17.6
v -23.9 1.4 17.5
v -23.9 1.4 17.1
v -23.9 1.4 17
v -23.9 1.8 17.7
v -23.9 1.8 17.5
v -23.9 1.8 17.1
v -23.9 1.8 16.9
v -23.9 1.9 17.7
v -23.9 1.9 17.5
v -23.9 1.9 17.1
v -23.9 1.9 16.9
v -23.4 0.1 17.8
v -23.4 0.1 17.6
v -23.4 0.1 17
v -23.4 0.1 16.8
v -23.4 0.3 17.8
v -23.4 0.3 17.6
v -23.4 0.3 17
v -23.4 0.3 16.8
v -23.3 0.3 17.7
v -23.3 0.3 17.6
v -23.3 0.3 17
v -23.3 0.3 16.9
v -23.3 1.2 17.5
v -23.3 1.2 17.1
v -23.3 1.3 17.6
v -23.3 1.3 17.5
v -23.3 1.3 17.1
v -23.3 1.3 17
v -23.3 1.4 17.6
v -23.3 1.4 17.5
v -23.3 1.4 17.1
v -23.3 1.4 17
v -23.3 1.8 17.7
v -23.3 1.8 17.5
v -23.3 1.8 17.1
v -23.3 1.8 16.9
v -23.3 1.9 17.7
v -23.3 1.9 17.5
v -23.3 1.9 17.1
v -23.3 1.9 16.9
v -25 0.9 17.7
v -25 0.9 17.6
v -25 0.9 17
v -25 0.9 16.9
v -25 1 17.7
v -25 1 17.6
v -25 1 17
v -25 1 16.9
v -25 1.1 17.7
v -25 1.1 17.6
v -25 1.1 17
v -25 1.1 16.9
v -24.9 1.1 17.7
v -24.9 1.1 17.6
v -24.9 1.1 17
v -24.9 1.1 16.9
v -24.9 1.3 17.6
v -24.9 1.3 17
v -24.9 1.4 17.6
v -24.9 1.4 17.5
v -24.9 1.4 17.1
v -24.9 1.4 17
v -24.9 1.5 17.7
v -24.9 1.5 17.5
v -24.9 1.5 17.1
v -24.9 1.5 16.9
v -24.3 0.9 17.7
v -24.3 0.9 17.6
v -24.3 0.9 17
v -24.3 0.9 16.9
v -24.3 1 17.7
v -24.3 1 17.6
v -24.3 1 17
v -24.3 1 16.9
v -24.3 1.3 17.6
v -24.3 1.3 17
v -24.3 1.4 17.6
v -24.3 1.4 17.5
v -24.3 1.4 17.1
v -24.3 1.4 17
v -24.3 1.5 17.7
v -24.3 1.5 17.5
v -24.3 1.5 17.1
v -24.3 1.5 16.9
v -23.7 0.3 17.7
v -23.7 0.3 17.6
v -23.7 0.3 17
v -23.7 0.3 16.9
v -23.7 1.3 17.6
v -23.7 1.3 17
v -23.7 1.4 17.6
v -23.7 1.4 17.5
v -23.7 1.4 17.1
v -23.7 1.4 17
v -23.7 1.8 17.7
v -23.7 1.8 17.5
v -23.7 1.8 17.1
v -23.7 1.8 16.9
v -23.7 1.9 17.7
v -23.7 1.9 17.5
v -23.7 1.9 17.1
v -23.7 1.9 16.9
v -23.6 0.1 17.8
v -23.6 0.1 17.6
v -23.6 0.1 17
v -23.6 0.1 16.8
v -23.6 0.3 17.8
v -23.6 0.3 17.6
v -23.6 0.3 17
v -23.6 0.3 16.8
v -23.2 0.1 17.4
v -23.2 0.1 17.2
v -23.2 0.3 17.5
v -23.2 0.3 17.4
v -23.2 0.3 17.2
v -23.2 0.3 17.1
v -23.2 1.3 17.5
v -23.2 1.3 17.1
v -23.2 1.4 17.5
v -23.2 1.4 17.1
v -23.1 0.3 17.7
v -23.1 0.3 17.5
v -23.1 0.3 17.1
v -23.1 0.3 16.9
v -23.1 1.8 17.7
v -23.1 1.8 17.5
v -23.1 1.8 17.1
v -23.1 1.8 16.9
v -23.1 1.9 17.7
v -23.1 1.9 17.5
v -23.1 1.9 17.1
v -23.1 1.9 16.9
v -23 0.1 17.8
v -23 0.1 17.4
v -23 0.1 17.2
v -23 0.1 16.8
v -23 0.3 17.8
v -23 0.3 17.4
v -23 0.3 17.2
v -23 0.3 16.8
v -21.5 0 19.3
v -21.5 0 15.3
v -21.5 0.1 19.3
v -21.5 0.1 15.3
v -25.5 0 19.3
v -25.5 0.1 19.3
v -21.5 0 19.3
v -21.5 0.1 19.3
v -24 0.1 17.8
v -24 0.3 17.8
v -23.6 0.1 17.8
v -23.6 0.3 17.8
v -23.4 0.1 17.8
v -23.4 0.3 17.8
v -23 0.1 17.8
v -23 0.3 17.8
v -25.2 1.1 17.7
v -25.2 1.5 17.7
v -25.1 0.9 17.7
v -25.1 1 17.7
v -25.1 1.1 17.7
v -25 0.9 17.7
v -25 1 17.7
v -25 1.1 17.7
v -24.9 1.1 17.7
v -24.9 1.5 17.7
v -24.5 1.1 17.7
v -24.5 1.5 17.7
v -24.4 0.9 17.7
v -24.4 1 17.7
v -24.4 1.1 17.7
v -24.3 0.9 17.7
v -24.3 1 17.7
v -24.3 1.5 17.7
v -23.9 0.3 17.7
v -23.9 1.8 17.7
v -23.9 1.9 17.7
v -23.7 0.3 17.7
v -23.7 1.8 17.7
v -23.7 1.9 17.7
v -23.3 0.3 17.7
v -23.3 1.8 17.7
v -23.3 1.9 17.7
v -23.1 0.3 17.7
v -23.1 1.8 17.7
v -23.1 1.9 17.7
v -25.5 0.1 17.6
v -25.5 1.3 17.6
v -25.5 1.4 17.6
v -25.2 1.1 17.6
v -25.2 1.3 17.6
v -25.2 1.4 17.6
v -25.1 0.9 17.6
v -25.1 1 17.6
v -25.1 1.1 17.6
v -25 0.9 17.6
v -25 1 17.6
v -25 1.1 17.6
v -24.9 1.1 17.6
v -24.9 1.3 17.6
v -24.9 1.4 17.6
v -24.5 1.1 17.6
v -24.5 1.3 17.6
v -24.5 1.4 17.6
v -24.4 0.9 17.6
v -24.4 1 17.6
v -24.4 1.1 17.6
v -24.3 0.9 17.6
v -24.3 1 17.6
v -24.3 1.3 17.6
v -24.3 1.4 17.6
v -24 0.1 17.6
v -24 0.3 17.6
v -23.9 0.3 17.6
v -23.9 1.3 17.6
v -23.9 1.4 17.6
v -23.7 0.3 17.6
v -23.7 1.3 17.6
v -23.7 1.4 17.6
v -23.6 0.1 17.6
v -23.6 0.3 17.6
v -23.4 0.1 17.6
v -23.4 0.3 17.6
v -23.3 0.3 17.6
v -23.3 1.3 17.6
v -23.3 1.4 17.6
v -23.2 0.1 17.2
v -23.2 0.3 17.2
v -23 0.1 17.2
v -23 0.3 17.2
v -25.5 1.2 17.1
v -25.5 1.3 17.1
v -25.5 1.4 17.1
v -25.2 1.4 17.1
v -25.2 1.5 17.1
v -24.9 1.4 17.1
v -24.9 1.5 17.1
v -24.5 1.4 17.1
v -24.5 1.5 17.1
v -24.3 1.4 17.1
v -24.3 1.5 17.1
v -23.9 1.2 17.1
v -23.9 1.3 17.1
v -23.9 1.4 17.1
v -23.9 1.8 17.1
v -23.9 1.9 17.1
v -23.7 1.2 17.1
v -23.7 1.3 17.1
v -23.7 1.4 17.1
v -23.7 1.8 17.1
v -23.7 1.9 17.1
v -23.3 1.2 17.1
v -23.3 1.3 17.1
v -23.3 1.4 17.1
v -23.3 1.8 17.1
v -23.3 1.9 17.1
v -23.2 0.3 17.1
v -23.2 1.3 17.1
v -23.2 1.4 17.1
v -23.1 0.3 17.1
v -23.1 1.8 17.1
v -23.1 1.9 17.1
v -25.5 1.2 17.5
v -25.5 1.3 17.5
v -25.5 1.4 17.5
v -25.2 1.4 17.5
v -25.2 1.5 17.5
v -24.9 1.4 17.5
v -24.9 1.5 17.5
v -24.5 1.4 17.5
v -24.5 1.5 17.5
v -24.3 1.4 17.5
v -24.3 1.5 17.5
v -23.9 1.2 17.5
v -23.9 1.3 17.5
v -23.9 1.4 17.5
v -23.9 1.8 17.5
v -23.9 1.9 17.5
v -23.7 1.2 17.5
v -23.7 1.3 17.5
v -23.7 1.4 17.5
v -23.7 1.8 17.5
v -23.7 1.9 17.5
v -23.3 1.2 17.5
v -23.3 1.3 17.5
v -23.3 1.4 17.5
v -23.3 1.8 17.5
v -23.3 1.9 17.5
v -23.2 0.3 17.5
v -23.2 1.3 17.5
v -23.2 1.4 17.5
v -23.1 0.3 17.5
v -23.1 1.8 17.5
v -23.1 1.9 17.5
v -23.2 0.1 17.4
v -23.2 0.3 17.4
v -23 0.1 17.4
v -23 0.3 17.4
v -25.5 0.1 17
v -25.5 1.3 17
v -25.5 1.4 17
v -25.2 1.1 17
v -25.2 1.3 17
v -25.2 1.4 17
v -25.1 0.9 17
v -25.1 1 17
v -25.1 1.1 17
v -25 0.9 17
v -25 1 17
v -25 1.1 17
v -24.9 1.1 17
v -24.9 1.3 17
v -24.9 1.4 17
v -24.5 1.1 17
v -24.5 1.3 17
v -24.5 1.4 17
v -24.4 0.9 17
v -24.4 1 17
v -24.4 1.1 17
v -24.3 0.9 17
v -24.3 1 17
v -24.3 1.3 17
v -24.3 1.4 17
v -24 0.1 17
v -24 0.3 17
v -23.9 0.3 17
v -23.9 1.3 17
v -23.9 1.4 17
v -23.7 0.3 17
v -23.7 1.3 17
v -23.7 1.4 17
v -23.6 0.1 17
v -23.6 0.3 17
v -23.4 0.1 17
v -23.4 0.3 17
v -23.3 0.3 17
v -23.3 1.3 17
v -23.3 1.4 17
v -25.2 1.1 16.9
v -25.2 1.5 16.9
v -25.1 0.9 16.9
v -25.1 1 16.9
v -25.1 1.1 16.9
v -25 0.9 16.9
v -25 1 16.9
v -25 1.1 16.9
v -24.9 1.1 16.9
v -24.9 1.5 16.9
v -24.5 1.1 16.9
v -24.5 1.5 16.9
v -24.4 0.9 16.9
v -24.4 1 16.9
v -24.4 1.1 16.9
v -24.3 0.9 16.9
v -24.3 1 16.9
v -24.3 1.5 16.9
v -23.9 0.3 16.9
v -23.9 1.8 16.9
v -23.9 1.9 16.9
v -23.7 0.3 16.9
v -23.7 1.8 16.9
v -23.7 1.9 16.9
v -23.3 0.3 16.9
v -23.3 1.8 16.9
v -23.3 1.9 16.9
v -23.1 0.3 16.9
v -23.1 1.8 16.9
v -23.1 1.9 16.9
v -24 0.1 16.8
v -24 0.3 16.8
v -23.6 0.1 16.8
v -23.6 0.3 16.8
v -23.4 0.1 16.8
v -23.4 0.3 16.8
v -23 0.1 16.8
v -23 0.3 16.8
v -25.5 0 15.3
v -25.5 0.1 15.3
v -21.5 0 15.3
v -21.5 0.1 15.3
v -25.5 0 19.3
v -21.5 0 19.3
v -25.5 0 15.3
v -21.5 0 15.3
v -25.1 0.9 17.7
v -25 0.9 17.7
v -24.4 0.9 17.7
v -24.3 0.9 17.7
v -25.1 0.9 17.6
v -25 0.9 17.6
v -24.4 0.9 17.6
v -24.3 0.9 17.6
v -25.1 0.9 17
v -25 0.9 17
v -24.4 0.9 17
v -24.3 0.9 17
v -25.1 0.9 16.9
v -25 0.9 16.9
v -24.4 0.9 16.9
v -24.3 0.9 16.9
v -25.2 1.1 17.7
v -25.1 1.1 17.7
v -25 1.1 17.7
v -24.9 1.1 17.7
v -24.5 1.1 17.7
v -24.4 1.1 17.7
v -25.2 1.1 17.6
v -25.1 1.1 17.6
v -25 1.1 17.6
v -24.9 1.1 17.6
v -24.5 1.1 17.6
v -24.4 1.1 17.6
v -25.2 1.1 17
v -25.1 1.1 17
v -25 1.1 17
v -24.9 1.1 17
v -24.5 1.1 17
v -24.4 1.1 17
v -25.2 1.1 16.9
v -25.1 1.1 16.9
v -25 1.1 16.9
v -24.9 1.1 16.9
v -24.5 1.1 16.9
v -24.4 1.1 16.9
v -25.5 0.1 19.3
v -21.5 0.1 19.3
v -24 0.1 17.8
v -23.6 0.1 17.8
v -23.4 0.1 17.8
v -23 0.1 17.8
v -25.5 0.1 17.6
v -24 0.1 17.6
v -23.6 0.1 17.6
v -23.4 0.1 17.6
v -23.2 0.1 17.4
v -23 0.1 17.4
v -23.2 0.1 17.2
v -23 0.1 17.2
v -25.5 0.1 17
v -24 0.1 17
v -23.6 0.1 17
v -23.4 0.1 17
v -24 0.1 16.8
v -23.6 0.1 16.8
v -23.4 0.1 16.8
v -23 0.1 16.8
v -25.5 0.1 15.3
v -21.5 0.1 15.3
v -24 0.3 17.8
v -23.6 0.3 17.8
v -23.4 0.3 17.8
v -23 0.3 17.8
v -23.9 0.3 17.7
v -23.7 0.3 17.7
v -23.3 0.3 17.7
v -23.1 0.3 17.7
v -24 0.3 17.6
v -23.9 0.3 17.6
v -23.7 0.3 17.6
v -23.6 0.3 17.6
v -23.4 0.3 17.6
v -23.3 0.3 17.6
v -23.2 0.3 17.5
v -23.1 0.3 17.5
v -23.2 0.3 17.4
v -23 0.3 17.4
v -23.2 0.3 17.2
v -23 0.3 17.2
v -23.2 0.3 17.1
v -23.1 0.3 17.1
v -24 0.3 17
v -23.9 0.3 17
v -23.7 0.3 17
v -23.6 0.3 17
v -23.4 0.3 17
v -23.3 0.3 17
v -23.9 0.3 16.9
v -23.7 0.3 16.9
v -23.3 0.3 16.9
v -23.1 0.3 16.9
v -24 0.3 16.8
v -23.6 0.3 16.8
v -23.4 0.3 16.8
v -23 0.3 16.8
v -25.5 1.2 17.5
v -23.9 1.2 17.5
v -23.7 1.2 17.5
v -23.3 1.2 17.5
v -25.5 1.2 17.1
v -23.9 1.2 17.1
v -23.7 1.2 17.1
v -23.3 1.2 17.1
v -25.5 1.4 17.6
v -25.2 1.4 17.6
v -24.9 1.4 17.6
v -24.5 1.4 17.6
v -24.3 1.4 17.6
v -23.9 1.4 17.6
v -23.7 1.4 17.6
v -23.3 1.4 17.6
v -25.5 1.4 17.5
v -25.2 1.4 17.5
v -24.9 1.4 17.5
v -24.5 1.4 17.5
v -24.3 1.4 17.5
v -23.9 1.4 17.5
v -23.7 1.4 17.5
v -23.3 1.4 17.5
v -23.2 1.4 17.5
v -25.5 1.4 17.1
v -25.2 1.4 17.1
v -24.9 1.4 17.1
v -24.5 1.4 17.1
v -24.3 1.4 17.1
v -23.9 1.4 17.1
v -23.7 1.4 17.1
v -23.3 1.4 17.1
v -23.2 1.4 17.1
v -25.5 1.4 17
v -25.2 1.4 17
v -24.9 1.4 17
v -24.5 1.4 17
v -24.3 1.4 17
v -23.9 1.4 17
v -23.7 1.4 17
v -23.3 1.4 17
v -25.2 1.5 17.7
v -24.9 1.5 17.7
v -24.5 1.5 17.7
v -24.3 1.5 17.7
v -25.2 1.5 17.5
v -24.9 1.5 17.5
v -24.5 1.5 17.5
v -24.3 1.5 17.5
v -25.2 1.5 17.1
v -24.9 1.5 17.1
v -24.5 1.5 17.1
v -24.3 1.5 17.1
v -25.2 1.5 16.9
v -24.9 1.5 16.9
v -24.5 1.5 16.9
v -24.3 1.5 16.9
v -23.9 1.9 17.7
v -23.7 1.9 17.7
v -23.3 1.9 17.7
v -23.1 1.9 17.7
v -23.9 1.9 17.5
v -23.7 1.9 17.5
v -23.3 1.9 17.5
v -23.1 1.9 17.5
v -23.9 1.9 17.1
v -23.7 1.9 17.1
v -23.3 1.9 17.1
v -23.1 1.9 17.1
v -23.9 1.9 16.9
v -23.7 1.9 16.9
v -23.3 1.9 16.9
v -23.1 1.9 16.9

# faces
f 3/1/1 2/1/1 1/1/1
f 4/1/1 2/1/1 3/1/1
f 5/1/1 2/1/1 4/1/1
f 6/1/1 2/1/1 5/1/1
f 7/4/1 5/4/1 4/4/1
f 8/4/1 5/4/1 7/4/1
f 9/4/1 7/4/1 4/4/1
f 9/3/1 8/3/1 7/3/1
f 10/4/1 5/4/1 8/4/1
f 10/3/1 8/3/1 9/3/1
f 11/4/1 9/4/1 4/4/1
f 12/4/1 9/4/1 11/4/1
f 13/4/1 5/4/1 10/4/1
f 14/4/1 5/4/1 13/4/1
f 15/6/1 12/6/1 11/6/1
f 16/6/1 12/6/1 15/6/1
f 17/6/1 14/6/1 13/6/1
f 18/6/1 14/6/1 17/6/1
f 23/5/1 20/5/1 19/5/1
f 24/5/1 22/5/1 21/5/1
f 25/5/1 23/5/1 19/5/1
f 28/5/1 22/5/1 24/5/1
f 29/5/1 26/5/1 25/5/1
f 29/5/1 25/5/1 19/5/1
f 30/5/1 26/5/1 29/5/1
f 31/5/1 28/5/1 27/5/1
f 32/5/1 22/5/1 28/5/1
f 32/5/1 28/5/1 31/5/1
f 37/2/1 34/2/1 33/2/1
f 38/2/1 34/2/1 37/2/1
f 39/2/1 36/2/1 35/2/1
f 40/2/1 36/2/1 39/2/1
f 41/5/1 38/5/1 37/5/1
f 42/5/1 38/5/1 41/5/1
f 43/5/1 40/5/1 39/5/1
f 44/5/1 40/5/1 43/5/1
f 49/5/1 46/5/1 45/5/1
f 50/5/1 48/5/1 47/5/1
f 51/5/1 49/5/1 45/5/1
f 54/5/1 48/5/1 50/5/1
f 55/5/1 52/5/1 51/5/1
f 55/5/1 51/5/1 45/5/1
f 56/5/1 52/5/1 55/5/1
f 57/5/1 54/5/1 53/5/1
f 58/5/1 48/5/1 54/5/1
f 58/5/1 54/5/1 57/5/1
f 63/2/1 60/2/1 59/2/1
f 64/2/1 60/2/1 63/2/1
f 65/2/1 62/2/1 61/2/1
f 66/2/1 62/2/1 65/2/1
f 67/5/1 64/5/1 63/5/1
f 68/5/1 64/5/1 67/5/1
f 69/5/1 66/5/1 65/5/1
f 70/5/1 66/5/1 69/5/1
f 75/6/1 72/6/1 71/6/1
f 76/6/1 72/6/1 75/6/1
f 77/6/1 74/6/1 73/6/1
f 78/6/1 74/6/1 77/6/1
f 83/5/1 80/5/1 79/5/1
f 84/5/1 82/5/1 81/5/1
f 85/5/1 83/5/1 79/5/1
f 88/5/1 82/5/1 84/5/1
f 89/5/1 86/5/1 85/5/1
f 89/5/1 85/5/1 79/5/1
f 90/5/1 86/5/1 89/5/1
f 91/5/1 88/5/1 87/5/1
f 92/5/1 82/5/1 88/5/1
f 92/5/1 88/5/1 91/5/1
f 93/6/1 90/6/1 89/6/1
f 94/6/1 90/6/1 93/6/1
f 95/6/1 92/6/1 91/6/1
f 96/6/1 92/6/1 95/6/1
f 101/6/1 98/6/1 97/6/1
f 102/6/1 98/6/1 101/6/1
f 103/6/1 100/6/1 99/6/1
f 104/6/1 100/6/1 103/6/1
f 111/5/1 106/5/1 105/5/1
f 112/4/1 110/4/1 109/4/1
f 113/4/1 110/4/1 112/4/1
f 114/5/1 108/5/1 107/5/1
f 115/5/1 111/5/1 105/5/1
f 116/6/1 113/6/1 112/6/1
f 117/6/1 113/6/1 116/6/1
f 118/5/1 108/5/1 114/5/1
f 119/5/1 115/5/1 105/5/1
f 119/5/1 116/5/1 115/5/1
f 120/5/1 116/5/1 119/5/1
f 121/5/1 118/5/1 117/5/1
f 122/5/1 108/5/1 118/5/1
f 122/5/1 118/5/1 121/5/1
f 123/6/1 120/6/1 119/6/1
f 124/6/1 120/6/1 123/6/1
f 125/6/1 122/6/1 121/6/1
f 126/6/1 122/6/1 125/6/1
f 127/2/2 128/2/2 131/2/2
f 131/2/2 128/2/2 132/2/2
f 129/2/2 130/2/2 133/2/2
f 133/2/2 130/2/2 134/2/2
f 131/5/2 132/5/2 135/5/2
f 135/5/2 132/5/2 136/5/2
f 133/5/2 134/5/2 137/5/2
f 137/5/2 134/5/2 138/5/2
f 139/5/2 140/5/2 143/5/2
f 141/5/2 142/5/2 144/5/2
f 139/5/2 143/5/2 145/5/2
f 144/5/2 142/5/2 148/5/2
f 145/5/2 146/5/2 149/5/2
f 139/5/2 145/5/2 149/5/2
f 149/5/2 146/5/2 150/5/2
f 147/5/2 148/5/2 151/5/2
f 148/5/2 142/5/2 152/5/2
f 151/5/2 148/5/2 152/5/2
f 153/2/2 154/2/2 157/2/2
f 157/2/2 154/2/2 158/2/2
f 155/2/2 156/2/2 159/2/2
f 159/2/2 156/2/2 160/2/2
f 157/5/2 158/5/2 161/5/2
f 159/5/2 160/5/2 162/5/2
f 157/5/2 161/5/2 163/5/2
f 162/5/2 160/5/2 166/5/2
f 163/5/2 164/5/2 167/5/2
f 157/5/2 163/5/2 167/5/2
f 167/5/2 164/5/2 168/5/2
f 165/5/2 166/5/2 169/5/2
f 166/5/2 160/5/2 170/5/2
f 169/5/2 166/5/2 170/5/2
f 171/5/2 172/5/2 175/5/2
f 173/5/2 174/5/2 176/5/2
f 171/5/2 175/5/2 177/5/2
f 176/5/2 174/5/2 180/5/2
f 177/5/2 178/5/2 181/5/2
f 171/5/2 177/5/2 181/5/2
f 181/5/2 178/5/2 182/5/2
f 179/5/2 180/5/2 183/5/2
f 180/5/2 174/5/2 184/5/2
f 183/5/2 180/5/2 184/5/2
f 181/6/2 182/6/2 185/6/2
f 185/6/2 182/6/2 186/6/2
f 183/6/2 184/6/2 187/6/2
f 187/6/2 184/6/2 188/6/2
f 189/6/2 190/6/2 193/6/2
f 193/6/2 190/6/2 194/6/2
f 191/6/2 192/6/2 195/6/2
f 195/6/2 192/6/2 196/6/2
f 197/4/2 198/4/2 200/4/2
f 200/4/2 198/4/2 201/4/2
f 199/4/2 200/4/2 203/4/2
f 201/4/2 202/4/2 203/4/2
f 200/4/2 201/4/2 203/4/2
f 203/4/2 202/4/2 204/4/2
f 203/6/2 204/6/2 205/6/2
f 205/6/2 204/6/2 206/6/2
f 207/5/2 208/5/2 211/5/2
f 211/5/2 208/5/2 212/5/2
f 209/5/2 210/5/2 213/5/2
f 213/5/2 210/5/2 214/5/2
f 211/6/2 212/6/2 215/6/2
f 215/6/2 212/6/2 216/6/2
f 213/6/2 214/6/2 217/6/2
f 217/6/2 214/6/2 218/6/2
f 219/6/2 220/6/2 223/6/2
f 223/6/2 220/6/2 224/6/2
f 221/6/2 222/6/2 225/6/2
f 225/6/2 222/6/2 226/6/2
f 227/1/2 228/1/2 229/1/2
f 229/1/2 228/1/2 230/1/2
f 233/1/3 232/1/3 231/1/3
f 234/1/3 232/1/3 233/1/3
f 237/6/3 236/6/3 235/6/3
f 238/6/3 236/6/3 237/6/3
f 241/6/3 240/6/3 239/6/3
f 242/6/3 240/6/3 241/6/3
f 247/5/3 244/5/3 243/5/3
f 248/2/3 246/2/3 245/2/3
f 249/5/3 247/5/3 246/5/3
f 249/2/3 246/2/3 248/2/3
f 250/5/3 244/5/3 247/5/3
f 250/5/3 247/5/3 249/5/3
f 251/5/3 244/5/3 250/5/3
f 252/5/3 244/5/3 251/5/3
f 257/5/3 254/5/3 253/5/3
f 258/2/3 256/2/3 255/2/3
f 259/5/3 257/5/3 256/5/3
f 259/2/3 256/2/3 258/2/3
f 260/5/3 254/5/3 257/5/3
f 260/5/3 257/5/3 259/5/3
f 264/5/3 262/5/3 261/5/3
f 265/6/3 263/6/3 262/6/3
f 265/5/3 262/5/3 264/5/3
f 266/6/3 263/6/3 265/6/3
f 270/5/3 268/5/3 267/5/3
f 271/6/3 269/6/3 268/6/3
f 271/5/3 268/5/3 270/5/3
f 272/6/3 269/6/3 271/6/3
f 276/4/3 274/4/3 273/4/3
f 277/6/3 275/6/3 274/6/3
f 277/4/3 274/4/3 276/4/3
f 278/6/3 275/6/3 277/6/3
f 279/4/3 276/4/3 273/4/3
f 280/4/3 276/4/3 279/4/3
f 281/4/3 276/4/3 280/4/3
f 282/4/3 279/4/3 273/4/3
f 285/4/3 283/4/3 282/4/3
f 285/4/3 284/4/3 283/4/3
f 288/4/3 285/4/3 282/4/3
f 288/4/3 286/4/3 285/4/3
f 289/6/3 287/6/3 286/6/3
f 289/4/3 286/4/3 288/4/3
f 290/6/3 287/6/3 289/6/3
f 291/4/3 288/4/3 282/4/3
f 291/4/3 282/4/3 273/4/3
f 292/4/3 288/4/3 291/4/3
f 293/4/3 288/4/3 292/4/3
f 294/4/3 291/4/3 273/4/3
f 298/4/3 295/4/3 294/4/3
f 298/4/3 294/4/3 273/4/3
f 298/4/3 296/4/3 295/4/3
f 299/4/3 296/4/3 298/4/3
f 300/4/3 296/4/3 299/4/3
f 301/6/3 297/6/3 296/6/3
f 301/4/3 296/4/3 300/4/3
f 302/6/3 297/6/3 301/6/3
f 307/4/3 304/4/3 303/4/3
f 308/4/3 307/4/3 306/4/3
f 309/4/3 304/4/3 307/4/3
f 309/4/3 307/4/3 308/4/3
f 310/4/3 304/4/3 309/4/3
f 311/6/3 305/6/3 304/6/3
f 311/4/3 304/4/3 310/4/3
f 312/6/3 305/6/3 311/6/3
f 315/6/3 314/6/3 313/6/3
f 316/6/3 314/6/3 315/6/3
f 320/6/3 319/6/3 318/6/3
f 322/6/3 320/6/3 318/6/3
f 322/5/3 321/5/3 320/5/3
f 323/5/3 321/5/3 322/5/3
f 324/6/3 322/6/3 318/6/3
f 326/6/3 324/6/3 318/6/3
f 326/5/3 325/5/3 324/5/3
f 327/5/3 325/5/3 326/5/3
f 328/4/3 318/4/3 317/4/3
f 329/6/3 326/6/3 318/6/3
f 329/4/3 318/4/3 328/4/3
f 330/6/3 326/6/3 329/6/3
f 333/5/3 330/5/3 329/5/3
f 333/5/3 329/5/3 328/5/3
f 333/5/3 331/5/3 330/5/3
f 334/5/3 331/5/3 333/5/3
f 335/5/3 331/5/3 334/5/3
f 336/6/3 332/6/3 331/6/3
f 336/5/3 331/5/3 335/5/3
f 337/6/3 332/6/3 336/6/3
f 338/4/3 334/4/3 333/4/3
f 339/6/3 335/6/3 334/6/3
f 339/4/3 334/4/3 338/4/3
f 340/6/3 335/6/3 339/6/3
f 345/5/3 341/5/3 340/5/3
f 346/5/3 344/5/3 343/5/3
f 346/5/3 345/5/3 344/5/3
f 347/6/3 342/6/3 341/6/3
f 347/5/3 345/5/3 346/5/3
f 347/5/3 341/5/3 345/5/3
f 348/6/3 342/6/3 347/6/3
f 350/6/4 351/6/4 352/6/4
f 350/6/4 352/6/4 354/6/4
f 352/5/4 353/5/4 354/5/4
f 354/5/4 353/5/4 355/5/4
f 350/6/4 354/6/4 356/6/4
f 350/6/4 356/6/4 358/6/4
f 356/5/4 357/5/4 358/5/4
f 358/5/4 357/5/4 359/5/4
f 349/4/4 350/4/4 360/4/4
f 350/6/4 358/6/4 361/6/4
f 360/4/4 350/4/4 361/4/4
f 361/6/4 358/6/4 362/6/4
f 361/5/4 362/5/4 365/5/4
f 360/5/4 361/5/4 365/5/4
f 362/5/4 363/5/4 365/5/4
f 365/5/4 363/5/4 366/5/4
f 366/5/4 363/5/4 367/5/4
f 363/6/4 364/6/4 368/6/4
f 367/5/4 363/5/4 368/5/4
f 368/6/4 364/6/4 369/6/4
f 365/4/4 366/4/4 370/4/4
f 366/6/4 367/6/4 371/6/4
f 370/4/4 366/4/4 371/4/4
f 371/6/4 367/6/4 372/6/4
f 372/5/4 373/5/4 377/5/4
f 375/5/4 376/5/4 378/5/4
f 376/5/4 377/5/4 378/5/4
f 373/6/4 374/6/4 379/6/4
f 378/5/4 377/5/4 379/5/4
f 377/5/4 373/5/4 379/5/4
f 379/6/4 374/6/4 380/6/4
f 381/6/4 382/6/4 383/6/4
f 383/6/4 382/6/4 384/6/4
f 385/4/4 386/4/4 388/4/4
f 386/6/4 387/6/4 389/6/4
f 388/4/4 386/4/4 389/4/4
f 389/6/4 387/6/4 390/6/4
f 385/4/4 388/4/4 391/4/4
f 391/4/4 388/4/4 392/4/4
f 392/4/4 388/4/4 393/4/4
f 385/4/4 391/4/4 394/4/4
f 394/4/4 395/4/4 397/4/4
f 395/4/4 396/4/4 397/4/4
f 394/4/4 397/4/4 400/4/4
f 397/4/4 398/4/4 400/4/4
f 398/6/4 399/6/4 401/6/4
f 400/4/4 398/4/4 401/4/4
f 401/6/4 399/6/4 402/6/4
f 394/4/4 400/4/4 403/4/4
f 385/4/4 394/4/4 403/4/4
f 403/4/4 400/4/4 404/4/4
f 404/4/4 400/4/4 405/4/4
f 385/4/4 403/4/4 406/4/4
f 406/4/4 407/4/4 410/4/4
f 385/4/4 406/4/4 410/4/4
f 407/4/4 408/4/4 410/4/4
f 410/4/4 408/4/4 411/4/4
f 411/4/4 408/4/4 412/4/4
f 408/6/4 409/6/4 413/6/4
f 412/4/4 408/4/4 413/4/4
f 413/6/4 409/6/4 414/6/4
f 415/4/4 416/4/4 419/4/4
f 418/4/4 419/4/4 420/4/4
f 419/4/4 416/4/4 421/4/4
f 420/4/4 419/4/4 421/4/4
f 421/4/4 416/4/4 422/4/4
f 416/6/4 417/6/4 423/6/4
f 422/4/4 416/4/4 423/4/4
f 423/6/4 417/6/4 424/6/4
f 425/5/4 426/5/4 429/5/4
f 427/2/4 428/2/4 430/2/4
f 428/5/4 429/5/4 431/5/4
f 430/2/4 428/2/4 431/2/4
f 429/5/4 426/5/4 432/5/4
f 431/5/4 429/5/4 432/5/4
f 432/5/4 426/5/4 433/5/4
f 433/5/4 426/5/4 434/5/4
f 435/5/4 436/5/4 439/5/4
f 437/2/4 438/2/4 440/2/4
f 438/5/4 439/5/4 441/5/4
f 440/2/4 438/2/4 441/2/4
f 439/5/4 436/5/4 442/5/4
f 441/5/4 439/5/4 442/5/4
f 443/5/4 444/5/4 446/5/4
f 444/6/4 445/6/4 447/6/4
f 446/5/4 444/5/4 447/5/4
f 447/6/4 445/6/4 448/6/4
f 449/5/4 450/5/4 452/5/4
f 450/6/4 451/6/4 453/6/4
f 452/5/4 450/5/4 453/5/4
f 453/6/4 451/6/4 454/6/4
f 455/6/4 456/6/4 457/6/4
f 457/6/4 456/6/4 458/6/4
f 459/6/4 460/6/4 461/6/4
f 461/6/4 460/6/4 462/6/4
f 463/1/4 464/1/4 465/1/4
f 465/1/4 464/1/4 466/1/4
f 469/1/5 468/1/5 467/1/5
f 470/1/5 468/1/5 469/1/5
f 475/2/5 472/2/5 471/2/5
f 476/2/5 472/2/5 475/2/5
f 477/2/5 474/2/5 473/2/5
f 478/2/5 474/2/5 477/2/5
f 483/2/5 480/2/5 479/2/5
f 484/2/5 480/2/5 483/2/5
f 485/2/5 482/2/5 481/2/5
f 486/2/5 482/2/5 485/2/5
f 493/5/5 488/5/5 487/5/5
f 494/5/5 488/5/5 493/5/5
f 495/5/5 490/5/5 489/5/5
f 496/5/5 490/5/5 495/5/5
f 497/5/5 492/5/5 491/5/5
f 498/5/5 492/5/5 497/5/5
f 505/5/5 500/5/5 499/5/5
f 506/5/5 500/5/5 505/5/5
f 507/5/5 502/5/5 501/5/5
f 508/5/5 502/5/5 507/5/5
f 509/5/5 504/5/5 503/5/5
f 510/5/5 504/5/5 509/5/5
f 511/1/6 512/1/6 513/1/6
f 513/1/6 512/1/6 514/1/6
f 514/1/6 512/1/6 515/1/6
f 515/1/6 512/1/6 516/1/6
f 511/1/6 513/1/6 517/1/6
f 517/1/6 513/1/6 518/1/6
f 514/1/6 515/1/6 519/1/6
f 519/1/6 515/1/6 520/1/6
f 516/1/6 512/1/6 522/1/6
f 521/1/6 522/1/6 523/1/6
f 522/1/6 512/1/6 524/1/6
f 523/1/6 522/1/6 524/1/6
f 525/1/6 526/1/6 529/1/6
f 527/1/6 528/1/6 530/1/6
f 530/1/6 528/1/6 531/1/6
f 524/1/6 512/1/6 532/1/6
f 530/1/6 531/1/6 533/1/6
f 531/1/6 532/1/6 533/1/6
f 525/1/6 529/1/6 533/1/6
f 529/1/6 530/1/6 533/1/6
f 532/1/6 512/1/6 534/1/6
f 533/1/6 532/1/6 534/1/6
f 535/6/6 536/6/6 539/6/6
f 539/6/6 536/6/6 540/6/6
f 537/6/6 538/6/6 541/6/6
f 541/6/6 538/6/6 542/6/6
f 535/6/6 539/6/6 543/6/6
f 543/6/6 539/6/6 544/6/6
f 540/6/6 536/6/6 545/6/6
f 545/6/6 536/6/6 546/6/6
f 537/6/6 541/6/6 547/6/6
f 547/6/6 541/6/6 548/6/6
f 542/6/6 538/6/6 550/6/6
f 549/6/6 550/6/6 551/6/6
f 550/6/6 538/6/6 552/6/6
f 551/6/6 550/6/6 552/6/6
f 553/6/6 554/6/6 555/6/6
f 555/6/6 554/6/6 556/6/6
f 557/6/6 558/6/6 563/6/6
f 559/6/6 560/6/6 564/6/6
f 561/6/6 562/6/6 565/6/6
f 556/6/6 554/6/6 566/6/6
f 563/6/6 564/6/6 567/6/6
f 557/6/6 563/6/6 567/6/6
f 564/6/6 560/6/6 568/6/6
f 567/6/6 564/6/6 568/6/6
f 561/6/6 565/6/6 569/6/6
f 565/6/6 566/6/6 569/6/6
f 566/6/6 554/6/6 570/6/6
f 569/6/6 566/6/6 570/6/6
f 571/3/6 572/3/6 575/3/6
f 573/3/6 574/3/6 575/3/6
f 572/3/6 573/3/6 575/3/6
f 575/3/6 574/3/6 576/3/6
f 576/3/6 574/3/6 577/3/6
f 577/3/6 574/3/6 578/3/6
f 579/6/6 580/6/6 587/6/6
f 587/6/6 580/6/6 588/6/6
f 581/6/6 582/6/6 589/6/6
f 589/6/6 582/6/6 590/6/6
f 583/6/6 584/6/6 591/6/6
f 591/6/6 584/6/6 592/6/6
f 585/6/6 586/6/6 593/6/6
f 593/6/6 586/6/6 594/6/6
f 594/6/6 595/6/6 603/6/6
f 603/6/6 595/6/6 604/6/6
f 596/6/6 597/6/6 605/6/6
f 605/6/6 597/6/6 606/6/6
f 598/6/6 599/6/6 607/6/6
f 607/6/6 599/6/6 608/6/6
f 600/6/6 601/6/6 609/6/6
f 609/6/6 601/6/6 610/6/6
f 602/6/6 603/6/6 611/6/6
f 611/6/6 603/6/6 612/6/6
f 613/5/6 614/5/6 617/5/6
f 617/5/6 614/5/6 618/5/6
f 615/5/6 616/5/6 619/5/6
f 619/5/6 616/5/6 620/5/6
f 621/5/6 622/5/6 625/5/6
f 625/5/6 622/5/6 626/5/6
f 623/5/6 624/5/6 627/5/6
f 627/5/6 624/5/6 628/5/6
f 629/6/6 630/6/6 633/6/6
f 633/6/6 630/6/6 634/6/6
f 631/6/6 632/6/6 635/6/6
f 635/6/6 632/6/6 636/6/6
f 637/6/6 638/6/6 641/6/6
f 641/6/6 638/6/6 642/6/6
f 639/6/6 640/6/6 643/6/6
f 643/6/6 640/6/6 644/6/6
