# MagicaVoxel @ Ephtracy

# group
o 

# material
mtllib towers-316.mtl
usemtl palette

# normals
vn -1 0 0
vn 1 0 0
vn 0 0 1
vn 0 0 -1
vn 0 -1 0
vn 0 1 0

# texcoords
vt 0.541016 0.5
vt 0.810547 0.5
vt 0.947266 0.5
vt 0.978516 0.5
vt 0.982422 0.5
vt 0.986328 0.5

# verts
v -25.5 0 19.3
v -25.5 0 15.3
v -25.5 0.1 19.3
v -25.5 0.1 15.3
v -23.9 0.1 17.7
v -23.9 0.1 17.5
v -23.9 0.1 17.1
v -23.9 0.1 16.9
v -23.9 0.9 15.8
v -23.9 0.9 15.7
v -23.9 1 15.8
v -23.9 1 15.7
v -23.9 1.1 15.9
v -23.9 1.1 15.8
v -23.9 1.1 15.7
v -23.9 1.1 15.6
v -23.9 1.5 15.9
v -23.9 1.5 15.6
v -23.9 1.6 17.7
v -23.9 1.6 17.5
v -23.9 1.6 17.1
v -23.9 1.6 16.9
v -23.9 1.7 17.7
v -23.9 1.7 17.5
v -23.9 1.7 17.1
v -23.9 1.7 16.9
v -23.8 0.1 17.5
v -23.8 0.1 17.1
v -23.8 0.1 16.9
v -23.8 0.1 15.3
v -23.8 0.9 15.8
v -23.8 0.9 15.7
v -23.8 1 15.8
v -23.8 1 15.7
v -23.8 1.1 15.9
v -23.8 1.1 15.8
v -23.8 1.1 15.7
v -23.8 1.1 15.6
v -23.8 1.3 17.5
v -23.8 1.3 17.1
v -23.8 1.3 16.9
v -23.8 1.3 15.9
v -23.8 1.3 15.6
v -23.8 1.3 15.3
v -23.8 1.4 17.5
v -23.8 1.4 17.1
v -23.8 1.4 16.9
v -23.8 1.4 15.9
v -23.8 1.4 15.6
v -23.8 1.4 15.3
v -23.3 0.1 17.7
v -23.3 0.1 17.6
v -23.3 1.2 17.1
v -23.3 1.2 16.9
v -23.3 1.2 15.3
v -23.3 1.3 17.6
v -23.3 1.3 16.9
v -23.3 1.3 15.3
v -23.3 1.4 17.6
v -23.3 1.4 17.5
v -23.3 1.4 16.9
v -23.3 1.4 15.9
v -23.3 1.4 15.6
v -23.3 1.4 15.3
v -23.3 1.5 15.9
v -23.3 1.5 15.6
v -23.3 1.6 17.7
v -23.3 1.6 17.5
v -23.3 1.6 17.1
v -23.3 1.6 16.9
v -23.3 1.7 17.7
v -23.3 1.7 17.5
v -23.3 1.7 17.1
v -23.3 1.7 16.9
v -22.1 1.1 17.7
v -22.1 1.1 17.6
v -22.1 1.1 17
v -22.1 1.1 16.9
v -22.1 1.3 17.6
v -22.1 1.3 17
v -22.1 1.4 17.6
v -22.1 1.4 17.5
v -22.1 1.4 17.1
v -22.1 1.4 17
v -22.1 1.5 17.7
v -22.1 1.5 17.5
v -22.1 1.5 17.1
v -22.1 1.5 16.9
v -22 0.9 17.7
v -22 0.9 17.6
v -22 0.9 17
v -22 0.9 16.9
v -22 1 17.7
v -22 1 17.6
v -22 1 17
v -22 1 16.9
v -22 1.1 17.7
v -22 1.1 17.6
v -22 1.1 17
v -22 1.1 16.9
v -23.7 0.1 17.7
v -23.7 0.1 17.6
v -23.7 1.2 17.5
v -23.7 1.2 17.1
v -23.7 1.2 16.9
v -23.7 1.2 15.3
v -23.7 1.3 17.6
v -23.7 1.3 17.5
v -23.7 1.3 17.1
v -23.7 1.3 16.9
v -23.7 1.3 15.3
v -23.7 1.4 17.6
v -23.7 1.4 17.5
v -23.7 1.4 17.1
v -23.7 1.4 16.9
v -23.7 1.4 15.9
v -23.7 1.4 15.6
v -23.7 1.4 15.3
v -23.7 1.5 15.9
v -23.7 1.5 15.6
v -23.7 1.6 17.7
v -23.7 1.6 17.5
v -23.7 1.6 17.1
v -23.7 1.6 16.9
v -23.7 1.7 17.7
v -23.7 1.7 17.5
v -23.7 1.7 17.1
v -23.7 1.7 16.9
v -23.2 0.1 16.9
v -23.2 0.1 15.3
v -23.2 0.9 15.8
v -23.2 0.9 15.7
v -23.2 1 15.8
v -23.2 1 15.7
v -23.2 1.1 15.9
v -23.2 1.1 15.8
v -23.2 1.1 15.7
v -23.2 1.1 15.6
v -23.2 1.3 16.9
v -23.2 1.3 15.9
v -23.2 1.3 15.6
v -23.2 1.3 15.3
v -23.2 1.4 16.9
v -23.2 1.4 15.9
v -23.2 1.4 15.6
v -23.2 1.4 15.3
v -23.1 0.1 17.7
v -23.1 0.1 17.6
v -23.1 0.1 17
v -23.1 0.1 16.9
v -23.1 0.9 15.8
v -23.1 0.9 15.7
v -23.1 1 15.8
v -23.1 1 15.7
v -23.1 1.1 15.9
v -23.1 1.1 15.8
v -23.1 1.1 15.7
v -23.1 1.1 15.6
v -23.1 1.3 17.6
v -23.1 1.3 17
v -23.1 1.4 17.6
v -23.1 1.4 17.5
v -23.1 1.4 17.1
v -23.1 1.4 17
v -23.1 1.5 15.9
v -23.1 1.5 15.6
v -23.1 1.6 17.7
v -23.1 1.6 17.5
v -23.1 1.6 17.1
v -23.1 1.6 16.9
v -23.1 1.7 17.7
v -23.1 1.7 17.5
v -23.1 1.7 17.1
v -23.1 1.7 16.9
v -21.9 0.9 17.7
v -21.9 0.9 17.6
v -21.9 0.9 17
v -21.9 0.9 16.9
v -21.9 1 17.7
v -21.9 1 17.6
v -21.9 1 17
v -21.9 1 16.9
v -21.9 1.1 17.7
v -21.9 1.1 17.6
v -21.9 1.1 17
v -21.9 1.1 16.9
v -21.8 1.1 17.7
v -21.8 1.1 17.6
v -21.8 1.1 17
v -21.8 1.1 16.9
v -21.8 1.3 17.6
v -21.8 1.3 17
v -21.8 1.4 17.6
v -21.8 1.4 17.5
v -21.8 1.4 17.1
v -21.8 1.4 17
v -21.8 1.5 17.7
v -21.8 1.5 17.5
v -21.8 1.5 17.1
v -21.8 1.5 16.9
v -21.5 0 19.3
v -21.5 0 15.3
v -21.5 0.1 19.3
v -21.5 0.1 17.6
v -21.5 0.1 17
v -21.5 0.1 15.3
v -21.5 1.1 17.5
v -21.5 1.1 17.1
v -21.5 1.2 17.5
v -21.5 1.2 17.1
v -21.5 1.3 17.6
v -21.5 1.3 17.5
v -21.5 1.3 17.1
v -21.5 1.3 17
v -21.5 1.4 17.6
v -21.5 1.4 17.5
v -21.5 1.4 17.1
v -21.5 1.4 17
v -25.5 0 19.3
v -25.5 0.1 19.3
v -21.5 0 19.3
v -21.5 0.1 19.3
v -23.9 0.1 17.7
v -23.9 1.6 17.7
v -23.9 1.7 17.7
v -23.7 0.1 17.7
v -23.7 1.6 17.7
v -23.7 1.7 17.7
v -23.3 0.1 17.7
v -23.3 1.6 17.7
v -23.3 1.7 17.7
v -23.1 0.1 17.7
v -23.1 1.6 17.7
v -23.1 1.7 17.7
v -22.1 1.1 17.7
v -22.1 1.5 17.7
v -22 0.9 17.7
v -22 1 17.7
v -22 1.1 17.7
v -21.9 0.9 17.7
v -21.9 1 17.7
v -21.9 1.1 17.7
v -21.8 1.1 17.7
v -21.8 1.5 17.7
v -23.7 0.1 17.6
v -23.7 1.3 17.6
v -23.7 1.4 17.6
v -23.3 0.1 17.6
v -23.3 1.3 17.6
v -23.3 1.4 17.6
v -23.1 0.1 17.6
v -23.1 1.3 17.6
v -23.1 1.4 17.6
v -22.1 1.1 17.6
v -22.1 1.3 17.6
v -22.1 1.4 17.6
v -22 0.9 17.6
v -22 1 17.6
v -22 1.1 17.6
v -21.9 0.9 17.6
v -21.9 1 17.6
v -21.9 1.1 17.6
v -21.8 1.1 17.6
v -21.8 1.3 17.6
v -21.8 1.4 17.6
v -21.5 0.1 17.6
v -21.5 1.3 17.6
v -21.5 1.4 17.6
v -23.9 0.1 17.1
v -23.9 1.6 17.1
v -23.9 1.7 17.1
v -23.8 0.1 17.1
v -23.8 1.3 17.1
v -23.8 1.4 17.1
v -23.7 1.4 17.1
v -23.7 1.6 17.1
v -23.7 1.7 17.1
v -23.3 1.2 17.1
v -23.3 1.6 17.1
v -23.3 1.7 17.1
v -23.1 1.2 17.1
v -23.1 1.3 17.1
v -23.1 1.4 17.1
v -23.1 1.6 17.1
v -23.1 1.7 17.1
v -22.1 1.4 17.1
v -22.1 1.5 17.1
v -21.8 1.4 17.1
v -21.8 1.5 17.1
v -21.5 1.2 17.1
v -21.5 1.3 17.1
v -21.5 1.4 17.1
v -23.9 1.1 15.9
v -23.9 1.5 15.9
v -23.8 1.1 15.9
v -23.8 1.3 15.9
v -23.8 1.4 15.9
v -23.7 1.4 15.9
v -23.7 1.5 15.9
v -23.3 1.4 15.9
v -23.3 1.5 15.9
v -23.2 1.1 15.9
v -23.2 1.3 15.9
v -23.2 1.4 15.9
v -23.1 1.1 15.9
v -23.1 1.5 15.9
v -23.9 0.9 15.8
v -23.9 1 15.8
v -23.9 1.1 15.8
v -23.8 0.9 15.8
v -23.8 1 15.8
v -23.8 1.1 15.8
v -23.2 0.9 15.8
v -23.2 1 15.8
v -23.2 1.1 15.8
v -23.1 0.9 15.8
v -23.1 1 15.8
v -23.1 1.1 15.8
v -23.9 0.1 17.5
v -23.9 1.6 17.5
v -23.9 1.7 17.5
v -23.8 0.1 17.5
v -23.8 1.3 17.5
v -23.8 1.4 17.5
v -23.7 1.2 17.5
v -23.7 1.3 17.5
v -23.7 1.4 17.5
v -23.7 1.6 17.5
v -23.7 1.7 17.5
v -23.3 1.2 17.5
v -23.3 1.3 17.5
v -23.3 1.4 17.5
v -23.3 1.6 17.5
v -23.3 1.7 17.5
v -23.1 1.2 17.5
v -23.1 1.3 17.5
v -23.1 1.4 17.5
v -23.1 1.6 17.5
v -23.1 1.7 17.5
v -22.1 1.4 17.5
v -22.1 1.5 17.5
v -21.8 1.4 17.5
v -21.8 1.5 17.5
v -21.5 1.2 17.5
v -21.5 1.3 17.5
v -21.5 1.4 17.5
v -23.1 0.1 17
v -23.1 1.3 17
v -23.1 1.4 17
v -22.1 1.1 17
v -22.1 1.3 17
v -22.1 1.4 17
v -22 0.9 17
v -22 1 17
v -22 1.1 17
v -21.9 0.9 17
v -21.9 1 17
v -21.9 1.1 17
v -21.8 1.1 17
v -21.8 1.3 17
v -21.8 1.4 17
v -21.5 0.1 17
v -21.5 1.3 17
v -21.5 1.4 17
v -23.9 0.1 16.9
v -23.9 1.6 16.9
v -23.9 1.7 16.9
v -23.8 0.1 16.9
v -23.8 1.3 16.9
v -23.8 1.4 16.9
v -23.7 1.4 16.9
v -23.7 1.6 16.9
v -23.7 1.7 16.9
v -23.3 1.4 16.9
v -23.3 1.6 16.9
v -23.3 1.7 16.9
v -23.2 0.1 16.9
v -23.2 1.3 16.9
v -23.2 1.4 16.9
v -23.1 0.1 16.9
v -23.1 1.6 16.9
v -23.1 1.7 16.9
v -22.1 1.1 16.9
v -22.1 1.5 16.9
v -22 0.9 16.9
v -22 1 16.9
v -22 1.1 16.9
v -21.9 0.9 16.9
v -21.9 1 16.9
v -21.9 1.1 16.9
v -21.8 1.1 16.9
v -21.8 1.5 16.9
v -23.9 0.9 15.7
v -23.9 1 15.7
v -23.9 1.1 15.7
v -23.8 0.9 15.7
v -23.8 1 15.7
v -23.8 1.1 15.7
v -23.2 0.9 15.7
v -23.2 1 15.7
v -23.2 1.1 15.7
v -23.1 0.9 15.7
v -23.1 1 15.7
v -23.1 1.1 15.7
v -23.9 1.1 15.6
v -23.9 1.5 15.6
v -23.8 1.1 15.6
v -23.8 1.3 15.6
v -23.8 1.4 15.6
v -23.7 1.4 15.6
v -23.7 1.5 15.6
v -23.3 1.4 15.6
v -23.3 1.5 15.6
v -23.2 1.1 15.6
v -23.2 1.3 15.6
v -23.2 1.4 15.6
v -23.1 1.1 15.6
v -23.1 1.5 15.6
v -25.5 0 15.3
v -25.5 0.1 15.3
v -23.8 0.1 15.3
v -23.8 1.3 15.3
v -23.8 1.4 15.3
v -23.7 1.1 15.3
v -23.7 1.2 15.3
v -23.7 1.3 15.3
v -23.7 1.4 15.3
v -23.3 1.1 15.3
v -23.3 1.2 15.3
v -23.3 1.3 15.3
v -23.3 1.4 15.3
v -23.2 0.1 15.3
v -23.2 1.3 15.3
v -23.2 1.4 15.3
v -21.5 0 15.3
v -21.5 0.1 15.3
v -25.5 0 19.3
v -21.5 0 19.3
v -25.5 0 15.3
v -21.5 0 15.3
v -22 0.9 17.7
v -21.9 0.9 17.7
v -22 0.9 17.6
v -21.9 0.9 17.6
v -22 0.9 17
v -21.9 0.9 17
v -22 0.9 16.9
v -21.9 0.9 16.9
v -23.9 0.9 15.8
v -23.8 0.9 15.8
v -23.2 0.9 15.8
v -23.1 0.9 15.8
v -23.9 0.9 15.7
v -23.8 0.9 15.7
v -23.2 0.9 15.7
v -23.1 0.9 15.7
v -22.1 1.1 17.7
v -22 1.1 17.7
v -21.9 1.1 17.7
v -21.8 1.1 17.7
v -22.1 1.1 17.6
v -22 1.1 17.6
v -21.9 1.1 17.6
v -21.8 1.1 17.6
v -22.1 1.1 17
v -22 1.1 17
v -21.9 1.1 17
v -21.8 1.1 17
v -22.1 1.1 16.9
v -22 1.1 16.9
v -21.9 1.1 16.9
v -21.8 1.1 16.9
v -23.9 1.1 15.9
v -23.8 1.1 15.9
v -23.2 1.1 15.9
v -23.1 1.1 15.9
v -23.9 1.1 15.8
v -23.8 1.1 15.8
v -23.2 1.1 15.8
v -23.1 1.1 15.8
v -23.9 1.1 15.7
v -23.8 1.1 15.7
v -23.2 1.1 15.7
v -23.1 1.1 15.7
v -23.9 1.1 15.6
v -23.8 1.1 15.6
v -23.2 1.1 15.6
v -23.1 1.1 15.6
v -25.5 0.1 19.3
v -21.5 0.1 19.3
v -23.9 0.1 17.7
v -23.7 0.1 17.7
v -23.3 0.1 17.7
v -23.1 0.1 17.7
v -23.7 0.1 17.6
v -23.3 0.1 17.6
v -23.1 0.1 17.6
v -21.5 0.1 17.6
v -23.9 0.1 17.5
v -23.8 0.1 17.5
v -23.9 0.1 17.1
v -23.8 0.1 17.1
v -23.1 0.1 17
v -21.5 0.1 17
v -23.9 0.1 16.9
v -23.8 0.1 16.9
v -23.2 0.1 16.9
v -23.1 0.1 16.9
v -25.5 0.1 15.3
v -23.8 0.1 15.3
v -23.2 0.1 15.3
v -21.5 0.1 15.3
v -23.7 1.2 17.5
v -23.3 1.2 17.5
v -23.1 1.2 17.5
v -21.5 1.2 17.5
v -23.7 1.2 17.1
v -23.3 1.2 17.1
v -23.1 1.2 17.1
v -21.5 1.2 17.1
v -23.7 1.2 16.9
v -23.3 1.2 16.9
v -23.7 1.2 15.3
v -23.3 1.2 15.3
v -23.7 1.4 17.6
v -23.3 1.4 17.6
v -23.1 1.4 17.6
v -22.1 1.4 17.6
v -21.8 1.4 17.6
v -21.5 1.4 17.6
v -23.8 1.4 17.5
v -23.7 1.4 17.5
v -23.3 1.4 17.5
v -23.1 1.4 17.5
v -22.1 1.4 17.5
v -21.8 1.4 17.5
v -21.5 1.4 17.5
v -23.8 1.4 17.1
v -23.7 1.4 17.1
v -23.1 1.4 17.1
v -22.1 1.4 17.1
v -21.8 1.4 17.1
v -21.5 1.4 17.1
v -23.1 1.4 17
v -22.1 1.4 17
v -21.8 1.4 17
v -21.5 1.4 17
v -23.8 1.4 16.9
v -23.7 1.4 16.9
v -23.3 1.4 16.9
v -23.2 1.4 16.9
v -23.8 1.4 15.9
v -23.7 1.4 15.9
v -23.3 1.4 15.9
v -23.2 1.4 15.9
v -23.8 1.4 15.6
v -23.7 1.4 15.6
v -23.3 1.4 15.6
v -23.2 1.4 15.6
v -23.8 1.4 15.3
v -23.7 1.4 15.3
v -23.3 1.4 15.3
v -23.2 1.4 15.3
v -22.1 1.5 17.7
v -21.8 1.5 17.7
v -22.1 1.5 17.5
v -21.8 1.5 17.5
v -22.1 1.5 17.1
v -21.8 1.5 17.1
v -22.1 1.5 16.9
v -21.8 1.5 16.9
v -23.9 1.5 15.9
v -23.7 1.5 15.9
v -23.3 1.5 15.9
v -23.1 1.5 15.9
v -23.9 1.5 15.6
v -23.7 1.5 15.6
v -23.3 1.5 15.6
v -23.1 1.5 15.6
v -23.9 1.7 17.7
v -23.7 1.7 17.7
v -23.3 1.7 17.7
v -23.1 1.7 17.7
v -23.9 1.7 17.5
v -23.7 1.7 17.5
v -23.3 1.7 17.5
v -23.1 1.7 17.5
v -23.9 1.7 17.1
v -23.7 1.7 17.1
v -23.3 1.7 17.1
v -23.1 1.7 17.1
v -23.9 1.7 16.9
v -23.7 1.7 16.9
v -23.3 1.7 16.9
v -23.1 1.7 16.9

# faces
f 3/1/1 2/1/1 1/1/1
f 4/1/1 2/1/1 3/1/1
f 11/2/1 10/2/1 9/2/1
f 12/2/1 10/2/1 11/2/1
f 14/5/1 12/5/1 11/5/1
f 15/5/1 12/5/1 14/5/1
f 17/5/1 15/5/1 14/5/1
f 17/5/1 16/5/1 15/5/1
f 17/5/1 14/5/1 13/5/1
f 18/5/1 16/5/1 17/5/1
f 19/5/1 6/5/1 5/5/1
f 20/5/1 6/5/1 19/5/1
f 21/5/1 8/5/1 7/5/1
f 22/5/1 8/5/1 21/5/1
f 23/6/1 20/6/1 19/6/1
f 24/6/1 20/6/1 23/6/1
f 25/6/1 22/6/1 21/6/1
f 26/6/1 22/6/1 25/6/1
f 31/4/1 30/4/1 29/4/1
f 32/4/1 30/4/1 31/4/1
f 33/4/1 31/4/1 29/4/1
f 34/4/1 30/4/1 32/4/1
f 35/4/1 33/4/1 29/4/1
f 36/4/1 33/4/1 35/4/1
f 37/4/1 30/4/1 34/4/1
f 38/4/1 30/4/1 37/4/1
f 39/4/1 28/4/1 27/4/1
f 40/4/1 28/4/1 39/4/1
f 41/4/1 35/4/1 29/4/1
f 42/4/1 35/4/1 41/4/1
f 43/4/1 30/4/1 38/4/1
f 44/4/1 30/4/1 43/4/1
f 45/6/1 40/6/1 39/6/1
f 46/6/1 40/6/1 45/6/1
f 47/6/1 42/6/1 41/6/1
f 48/6/1 42/6/1 47/6/1
f 49/6/1 44/6/1 43/6/1
f 50/6/1 44/6/1 49/6/1
f 56/5/1 52/5/1 51/5/1
f 57/4/1 55/4/1 54/4/1
f 57/5/1 54/5/1 53/5/1
f 58/4/1 55/4/1 57/4/1
f 59/5/1 56/5/1 51/5/1
f 61/5/1 57/5/1 53/5/1
f 61/6/1 58/6/1 57/6/1
f 62/6/1 58/6/1 61/6/1
f 63/6/1 58/6/1 62/6/1
f 64/6/1 58/6/1 63/6/1
f 65/5/1 63/5/1 62/5/1
f 66/5/1 63/5/1 65/5/1
f 67/5/1 60/5/1 59/5/1
f 67/5/1 59/5/1 51/5/1
f 68/5/1 60/5/1 67/5/1
f 69/5/1 61/5/1 53/5/1
f 70/5/1 61/5/1 69/5/1
f 71/6/1 68/6/1 67/6/1
f 72/6/1 68/6/1 71/6/1
f 73/6/1 70/6/1 69/6/1
f 74/6/1 70/6/1 73/6/1
f 79/5/1 76/5/1 75/5/1
f 80/5/1 78/5/1 77/5/1
f 81/5/1 79/5/1 75/5/1
f 84/5/1 78/5/1 80/5/1
f 85/5/1 82/5/1 81/5/1
f 85/5/1 81/5/1 75/5/1
f 86/5/1 82/5/1 85/5/1
f 87/5/1 84/5/1 83/5/1
f 88/5/1 78/5/1 84/5/1
f 88/5/1 84/5/1 87/5/1
f 93/2/1 90/2/1 89/2/1
f 94/2/1 90/2/1 93/2/1
f 95/2/1 92/2/1 91/2/1
f 96/2/1 92/2/1 95/2/1
f 97/5/1 94/5/1 93/5/1
f 98/5/1 94/5/1 97/5/1
f 99/5/1 96/5/1 95/5/1
f 100/5/1 96/5/1 99/5/1
f 101/5/2 102/5/2 107/5/2
f 103/4/2 104/4/2 108/4/2
f 104/5/2 105/5/2 109/5/2
f 108/4/2 104/4/2 109/4/2
f 105/4/2 106/4/2 110/4/2
f 109/5/2 105/5/2 110/5/2
f 110/4/2 106/4/2 111/4/2
f 101/5/2 107/5/2 112/5/2
f 108/6/2 109/6/2 113/6/2
f 109/5/2 110/5/2 114/5/2
f 113/6/2 109/6/2 114/6/2
f 110/6/2 111/6/2 115/6/2
f 114/5/2 110/5/2 115/5/2
f 115/6/2 111/6/2 116/6/2
f 116/6/2 111/6/2 117/6/2
f 117/6/2 111/6/2 118/6/2
f 116/5/2 117/5/2 119/5/2
f 119/5/2 117/5/2 120/5/2
f 101/5/2 112/5/2 121/5/2
f 112/5/2 113/5/2 121/5/2
f 121/5/2 113/5/2 122/5/2
f 114/5/2 115/5/2 123/5/2
f 123/5/2 115/5/2 124/5/2
f 121/6/2 122/6/2 125/6/2
f 125/6/2 122/6/2 126/6/2
f 123/6/2 124/6/2 127/6/2
f 127/6/2 124/6/2 128/6/2
f 129/4/2 130/4/2 131/4/2
f 131/4/2 130/4/2 132/4/2
f 129/4/2 131/4/2 133/4/2
f 132/4/2 130/4/2 134/4/2
f 129/4/2 133/4/2 135/4/2
f 135/4/2 133/4/2 136/4/2
f 134/4/2 130/4/2 137/4/2
f 137/4/2 130/4/2 138/4/2
f 129/4/2 135/4/2 139/4/2
f 139/4/2 135/4/2 140/4/2
f 138/4/2 130/4/2 141/4/2
f 141/4/2 130/4/2 142/4/2
f 139/6/2 140/6/2 143/6/2
f 143/6/2 140/6/2 144/6/2
f 141/6/2 142/6/2 145/6/2
f 145/6/2 142/6/2 146/6/2
f 151/2/2 152/2/2 153/2/2
f 153/2/2 152/2/2 154/2/2
f 153/5/2 154/5/2 156/5/2
f 156/5/2 154/5/2 157/5/2
f 147/5/2 148/5/2 159/5/2
f 149/5/2 150/5/2 160/5/2
f 147/5/2 159/5/2 161/5/2
f 160/5/2 150/5/2 164/5/2
f 157/5/2 158/5/2 165/5/2
f 156/5/2 157/5/2 165/5/2
f 155/5/2 156/5/2 165/5/2
f 165/5/2 158/5/2 166/5/2
f 161/5/2 162/5/2 167/5/2
f 147/5/2 161/5/2 167/5/2
f 167/5/2 162/5/2 168/5/2
f 163/5/2 164/5/2 169/5/2
f 164/5/2 150/5/2 170/5/2
f 169/5/2 164/5/2 170/5/2
f 167/6/2 168/6/2 171/6/2
f 171/6/2 168/6/2 172/6/2
f 169/6/2 170/6/2 173/6/2
f 173/6/2 170/6/2 174/6/2
f 175/2/2 176/2/2 179/2/2
f 179/2/2 176/2/2 180/2/2
f 177/2/2 178/2/2 181/2/2
f 181/2/2 178/2/2 182/2/2
f 179/5/2 180/5/2 183/5/2
f 183/5/2 180/5/2 184/5/2
f 181/5/2 182/5/2 185/5/2
f 185/5/2 182/5/2 186/5/2
f 187/5/2 188/5/2 191/5/2
f 189/5/2 190/5/2 192/5/2
f 187/5/2 191/5/2 193/5/2
f 192/5/2 190/5/2 196/5/2
f 193/5/2 194/5/2 197/5/2
f 187/5/2 193/5/2 197/5/2
f 197/5/2 194/5/2 198/5/2
f 195/5/2 196/5/2 199/5/2
f 196/5/2 190/5/2 200/5/2
f 199/5/2 196/5/2 200/5/2
f 201/1/2 202/1/2 203/1/2
f 203/1/2 202/1/2 204/1/2
f 204/1/2 202/1/2 205/1/2
f 205/1/2 202/1/2 206/1/2
f 204/4/2 205/4/2 207/4/2
f 207/4/2 205/4/2 208/4/2
f 204/4/2 207/4/2 209/4/2
f 207/3/2 208/3/2 209/3/2
f 208/4/2 205/4/2 210/4/2
f 209/3/2 208/3/2 210/3/2
f 204/4/2 209/4/2 211/4/2
f 211/4/2 209/4/2 212/4/2
f 210/4/2 205/4/2 213/4/2
f 213/4/2 205/4/2 214/4/2
f 211/6/2 212/6/2 215/6/2
f 215/6/2 212/6/2 216/6/2
f 213/6/2 214/6/2 217/6/2
f 217/6/2 214/6/2 218/6/2
f 221/1/3 220/1/3 219/1/3
f 222/1/3 220/1/3 221/1/3
f 226/5/3 224/5/3 223/5/3
f 227/6/3 225/6/3 224/6/3
f 227/5/3 224/5/3 226/5/3
f 228/6/3 225/6/3 227/6/3
f 232/5/3 230/5/3 229/5/3
f 233/6/3 231/6/3 230/6/3
f 233/5/3 230/5/3 232/5/3
f 234/6/3 231/6/3 233/6/3
f 239/5/3 236/5/3 235/5/3
f 240/2/3 238/2/3 237/2/3
f 241/5/3 239/5/3 238/5/3
f 241/2/3 238/2/3 240/2/3
f 242/5/3 236/5/3 239/5/3
f 242/5/3 239/5/3 241/5/3
f 243/5/3 236/5/3 242/5/3
f 244/5/3 236/5/3 243/5/3
f 248/4/3 246/4/3 245/4/3
f 249/6/3 247/6/3 246/6/3
f 249/4/3 246/4/3 248/4/3
f 250/6/3 247/6/3 249/6/3
f 254/4/3 252/4/3 251/4/3
f 255/6/3 253/6/3 252/6/3
f 255/4/3 252/4/3 254/4/3
f 256/6/3 253/6/3 255/6/3
f 257/4/3 254/4/3 251/4/3
f 258/4/3 254/4/3 257/4/3
f 259/4/3 254/4/3 258/4/3
f 260/4/3 257/4/3 251/4/3
f 263/4/3 261/4/3 260/4/3
f 263/4/3 262/4/3 261/4/3
f 266/4/3 263/4/3 260/4/3
f 266/4/3 260/4/3 251/4/3
f 266/4/3 264/4/3 263/4/3
f 267/6/3 265/6/3 264/6/3
f 267/4/3 264/4/3 266/4/3
f 268/6/3 265/6/3 267/6/3
f 272/5/3 270/5/3 269/5/3
f 273/5/3 270/5/3 272/5/3
f 274/5/3 270/5/3 273/5/3
f 275/5/3 270/5/3 274/5/3
f 276/6/3 271/6/3 270/6/3
f 276/5/3 270/5/3 275/5/3
f 277/6/3 271/6/3 276/6/3
f 281/5/3 279/5/3 278/5/3
f 282/5/3 279/5/3 281/5/3
f 283/5/3 279/5/3 282/5/3
f 284/6/3 280/6/3 279/6/3
f 284/5/3 279/5/3 283/5/3
f 285/6/3 280/6/3 284/6/3
f 286/6/3 283/6/3 282/6/3
f 288/6/3 286/6/3 282/6/3
f 288/5/3 287/5/3 286/5/3
f 289/5/3 287/5/3 288/5/3
f 290/4/3 282/4/3 281/4/3
f 291/6/3 288/6/3 282/6/3
f 291/4/3 282/4/3 290/4/3
f 292/6/3 288/6/3 291/6/3
f 295/5/3 294/5/3 293/5/3
f 296/5/3 294/5/3 295/5/3
f 297/5/3 294/5/3 296/5/3
f 298/5/3 294/5/3 297/5/3
f 299/5/3 294/5/3 298/5/3
f 304/5/3 301/5/3 300/5/3
f 305/5/3 303/5/3 302/5/3
f 305/5/3 304/5/3 303/5/3
f 306/5/3 301/5/3 304/5/3
f 306/5/3 304/5/3 305/5/3
f 310/2/3 308/2/3 307/2/3
f 311/5/3 309/5/3 308/5/3
f 311/2/3 308/2/3 310/2/3
f 312/5/3 309/5/3 311/5/3
f 316/2/3 314/2/3 313/2/3
f 317/5/3 315/5/3 314/5/3
f 317/2/3 314/2/3 316/2/3
f 318/5/3 315/5/3 317/5/3
f 319/5/4 320/5/4 322/5/4
f 322/5/4 320/5/4 323/5/4
f 323/5/4 320/5/4 324/5/4
f 324/5/4 320/5/4 327/5/4
f 320/6/4 321/6/4 328/6/4
f 327/5/4 320/5/4 328/5/4
f 328/6/4 321/6/4 329/6/4
f 325/4/4 326/4/4 330/4/4
f 326/6/4 327/6/4 331/6/4
f 330/4/4 326/4/4 331/4/4
f 331/6/4 327/6/4 332/6/4
f 330/5/4 331/5/4 335/5/4
f 331/5/4 332/5/4 335/5/4
f 332/5/4 333/5/4 335/5/4
f 335/5/4 333/5/4 336/5/4
f 336/5/4 333/5/4 337/5/4
f 333/6/4 334/6/4 338/6/4
f 337/5/4 333/5/4 338/5/4
f 338/6/4 334/6/4 339/6/4
f 336/6/4 337/6/4 340/6/4
f 336/6/4 340/6/4 342/6/4
f 340/5/4 341/5/4 342/5/4
f 342/5/4 341/5/4 343/5/4
f 335/4/4 336/4/4 344/4/4
f 336/6/4 342/6/4 345/6/4
f 344/4/4 336/4/4 345/4/4
f 345/6/4 342/6/4 346/6/4
f 347/4/4 348/4/4 350/4/4
f 348/6/4 349/6/4 351/6/4
f 350/4/4 348/4/4 351/4/4
f 351/6/4 349/6/4 352/6/4
f 347/4/4 350/4/4 353/4/4
f 353/4/4 350/4/4 354/4/4
f 354/4/4 350/4/4 355/4/4
f 347/4/4 353/4/4 356/4/4
f 356/4/4 357/4/4 359/4/4
f 357/4/4 358/4/4 359/4/4
f 356/4/4 359/4/4 362/4/4
f 347/4/4 356/4/4 362/4/4
f 359/4/4 360/4/4 362/4/4
f 360/6/4 361/6/4 363/6/4
f 362/4/4 360/4/4 363/4/4
f 363/6/4 361/6/4 364/6/4
f 365/5/4 366/5/4 368/5/4
f 368/5/4 366/5/4 369/5/4
f 369/5/4 366/5/4 370/5/4
f 370/5/4 366/5/4 371/5/4
f 366/6/4 367/6/4 372/6/4
f 371/5/4 366/5/4 372/5/4
f 372/6/4 367/6/4 373/6/4
f 374/5/4 375/5/4 379/5/4
f 377/5/4 378/5/4 380/5/4
f 378/5/4 379/5/4 380/5/4
f 379/5/4 375/5/4 381/5/4
f 380/5/4 379/5/4 381/5/4
f 375/6/4 376/6/4 381/6/4
f 381/6/4 376/6/4 382/6/4
f 383/5/4 384/5/4 387/5/4
f 385/2/4 386/2/4 388/2/4
f 386/5/4 387/5/4 389/5/4
f 388/2/4 386/2/4 389/2/4
f 387/5/4 384/5/4 390/5/4
f 389/5/4 387/5/4 390/5/4
f 390/5/4 384/5/4 391/5/4
f 391/5/4 384/5/4 392/5/4
f 393/2/4 394/2/4 396/2/4
f 394/5/4 395/5/4 397/5/4
f 396/2/4 394/2/4 397/2/4
f 397/5/4 395/5/4 398/5/4
f 399/2/4 400/2/4 402/2/4
f 400/5/4 401/5/4 403/5/4
f 402/2/4 400/2/4 403/2/4
f 403/5/4 401/5/4 404/5/4
f 405/5/4 406/5/4 407/5/4
f 407/5/4 406/5/4 408/5/4
f 408/5/4 406/5/4 409/5/4
f 409/5/4 406/5/4 410/5/4
f 410/5/4 406/5/4 411/5/4
f 412/5/4 413/5/4 416/5/4
f 414/5/4 415/5/4 417/5/4
f 415/5/4 416/5/4 417/5/4
f 416/5/4 413/5/4 418/5/4
f 417/5/4 416/5/4 418/5/4
f 419/1/4 420/1/4 421/1/4
f 421/4/4 422/4/4 424/4/4
f 424/4/4 422/4/4 425/4/4
f 422/6/4 423/6/4 426/6/4
f 425/4/4 422/4/4 426/4/4
f 426/6/4 423/6/4 427/6/4
f 424/3/4 425/3/4 428/3/4
f 421/4/4 424/4/4 428/4/4
f 428/3/4 425/3/4 429/3/4
f 419/1/4 421/1/4 432/1/4
f 421/4/4 428/4/4 432/4/4
f 429/4/4 430/4/4 432/4/4
f 428/4/4 429/4/4 432/4/4
f 430/6/4 431/6/4 433/6/4
f 432/4/4 430/4/4 433/4/4
f 433/6/4 431/6/4 434/6/4
f 419/1/4 432/1/4 435/1/4
f 435/1/4 432/1/4 436/1/4
f 439/1/5 438/1/5 437/1/5
f 440/1/5 438/1/5 439/1/5
f 443/2/5 442/2/5 441/2/5
f 444/2/5 442/2/5 443/2/5
f 447/2/5 446/2/5 445/2/5
f 448/2/5 446/2/5 447/2/5
f 453/2/5 450/2/5 449/2/5
f 454/2/5 450/2/5 453/2/5
f 455/2/5 452/2/5 451/2/5
f 456/2/5 452/2/5 455/2/5
f 461/5/5 458/5/5 457/5/5
f 462/5/5 458/5/5 461/5/5
f 463/5/5 460/5/5 459/5/5
f 464/5/5 460/5/5 463/5/5
f 469/5/5 466/5/5 465/5/5
f 470/5/5 466/5/5 469/5/5
f 471/5/5 468/5/5 467/5/5
f 472/5/5 468/5/5 471/5/5
f 477/5/5 474/5/5 473/5/5
f 478/5/5 474/5/5 477/5/5
f 479/5/5 476/5/5 475/5/5
f 480/5/5 476/5/5 479/5/5
f 485/5/5 482/5/5 481/5/5
f 486/5/5 482/5/5 485/5/5
f 487/5/5 484/5/5 483/5/5
f 488/5/5 484/5/5 487/5/5
f 489/1/6 490/1/6 491/1/6
f 491/1/6 490/1/6 492/1/6
f 492/1/6 490/1/6 493/1/6
f 493/1/6 490/1/6 494/1/6
f 492/1/6 493/1/6 495/1/6
f 495/1/6 493/1/6 496/1/6
f 494/1/6 490/1/6 497/1/6
f 497/1/6 490/1/6 498/1/6
f 489/1/6 491/1/6 499/1/6
f 489/1/6 499/1/6 501/1/6
f 499/1/6 500/1/6 501/1/6
f 501/1/6 500/1/6 502/1/6
f 489/1/6 501/1/6 505/1/6
f 503/1/6 504/1/6 508/1/6
f 505/1/6 506/1/6 509/1/6
f 489/1/6 505/1/6 509/1/6
f 509/1/6 506/1/6 510/1/6
f 507/1/6 508/1/6 511/1/6
f 508/1/6 504/1/6 512/1/6
f 511/1/6 508/1/6 512/1/6
f 513/3/6 514/3/6 517/3/6
f 515/3/6 516/3/6 517/3/6
f 514/3/6 515/3/6 517/3/6
f 517/3/6 516/3/6 518/3/6
f 518/3/6 516/3/6 519/3/6
f 519/3/6 516/3/6 520/3/6
f 517/3/6 518/3/6 521/3/6
f 521/3/6 518/3/6 522/3/6
f 521/3/6 522/3/6 523/3/6
f 523/3/6 522/3/6 524/3/6
f 525/6/6 526/6/6 532/6/6
f 532/6/6 526/6/6 533/6/6
f 527/6/6 528/6/6 534/6/6
f 534/6/6 528/6/6 535/6/6
f 529/6/6 530/6/6 536/6/6
f 536/6/6 530/6/6 537/6/6
f 531/6/6 532/6/6 538/6/6
f 538/6/6 532/6/6 539/6/6
f 540/6/6 541/6/6 544/6/6
f 544/6/6 541/6/6 545/6/6
f 542/6/6 543/6/6 546/6/6
f 546/6/6 543/6/6 547/6/6
f 548/6/6 549/6/6 552/6/6
f 552/6/6 549/6/6 553/6/6
f 550/6/6 551/6/6 554/6/6
f 554/6/6 551/6/6 555/6/6
f 556/6/6 557/6/6 560/6/6
f 560/6/6 557/6/6 561/6/6
f 558/6/6 559/6/6 562/6/6
f 562/6/6 559/6/6 563/6/6
f 564/5/6 565/5/6 566/5/6
f 566/5/6 565/5/6 567/5/6
f 568/5/6 569/5/6 570/5/6
f 570/5/6 569/5/6 571/5/6
f 572/5/6 573/5/6 576/5/6
f 576/5/6 573/5/6 577/5/6
f 574/5/6 575/5/6 578/5/6
f 578/5/6 575/5/6 579/5/6
f 580/6/6 581/6/6 584/6/6
f 584/6/6 581/6/6 585/6/6
f 582/6/6 583/6/6 586/6/6
f 586/6/6 583/6/6 587/6/6
f 588/6/6 589/6/6 592/6/6
f 592/6/6 589/6/6 593/6/6
f 590/6/6 591/6/6 594/6/6
f 594/6/6 591/6/6 595/6/6
