# MagicaVoxel @ Ephtracy

# group
o 

# material
mtllib towers-273.mtl
usemtl palette

# normals
vn -1 0 0
vn 1 0 0
vn 0 0 1
vn 0 0 -1
vn 0 -1 0
vn 0 1 0

# texcoords
vt 0.541016 0.5
vt 0.810547 0.5
vt 0.947266 0.5
vt 0.978516 0.5
vt 0.982422 0.5
vt 0.986328 0.5

# verts
v -25.5 0 19.3
v -25.5 0 15.3
v -25.5 0.1 19.3
v -25.5 0.1 15.3
v -23.9 0.1 17.7
v -23.9 0.1 17.5
v -23.9 0.1 17.1
v -23.9 0.1 16.9
v -23.9 0.9 18.9
v -23.9 0.9 18.8
v -23.9 1 18.9
v -23.9 1 18.8
v -23.9 1.1 19
v -23.9 1.1 18.9
v -23.9 1.1 18.8
v -23.9 1.1 18.7
v -23.9 1.5 19
v -23.9 1.5 18.7
v -23.9 1.6 17.7
v -23.9 1.6 17.5
v -23.9 1.6 17.1
v -23.9 1.6 16.9
v -23.9 1.7 17.7
v -23.9 1.7 17.5
v -23.9 1.7 17.1
v -23.9 1.7 16.9
v -23.8 0.1 19.3
v -23.8 0.1 17.7
v -23.8 0.1 17.5
v -23.8 0.1 17.1
v -23.8 0.9 18.9
v -23.8 0.9 18.8
v -23.8 1 18.9
v -23.8 1 18.8
v -23.8 1.1 19
v -23.8 1.1 18.9
v -23.8 1.1 18.8
v -23.8 1.1 18.7
v -23.8 1.3 19.3
v -23.8 1.3 19
v -23.8 1.3 18.7
v -23.8 1.3 17.7
v -23.8 1.3 17.5
v -23.8 1.3 17.1
v -23.8 1.4 19.3
v -23.8 1.4 19
v -23.8 1.4 18.7
v -23.8 1.4 17.7
v -23.8 1.4 17.5
v -23.8 1.4 17.1
v -23.3 0.1 17
v -23.3 0.1 16.9
v -23.3 1.2 19.3
v -23.3 1.2 17.7
v -23.3 1.2 17.5
v -23.3 1.2 17.1
v -23.3 1.3 19.3
v -23.3 1.3 17.7
v -23.3 1.3 17.5
v -23.3 1.3 17.1
v -23.3 1.3 17
v -23.3 1.4 19.3
v -23.3 1.4 19
v -23.3 1.4 18.7
v -23.3 1.4 17.7
v -23.3 1.4 17.5
v -23.3 1.4 17.1
v -23.3 1.4 17
v -23.3 1.5 19
v -23.3 1.5 18.7
v -23.3 1.6 17.7
v -23.3 1.6 17.5
v -23.3 1.6 17.1
v -23.3 1.6 16.9
v -23.3 1.7 17.7
v -23.3 1.7 17.5
v -23.3 1.7 17.1
v -23.3 1.7 16.9
v -23.7 0.1 17
v -23.7 0.1 16.9
v -23.7 1.2 19.3
v -23.7 1.2 17.7
v -23.7 1.2 17.5
v -23.7 1.2 17.1
v -23.7 1.3 19.3
v -23.7 1.3 17.7
v -23.7 1.3 17.5
v -23.7 1.3 17.1
v -23.7 1.3 17
v -23.7 1.4 19.3
v -23.7 1.4 19
v -23.7 1.4 18.7
v -23.7 1.4 17.7
v -23.7 1.4 17.5
v -23.7 1.4 17.1
v -23.7 1.4 17
v -23.7 1.5 19
v -23.7 1.5 18.7
v -23.7 1.6 17.7
v -23.7 1.6 17.5
v -23.7 1.6 17.1
v -23.7 1.6 16.9
v -23.7 1.7 17.7
v -23.7 1.7 17.5
v -23.7 1.7 17.1
v -23.7 1.7 16.9
v -23.2 0.1 19.3
v -23.2 0.1 17.7
v -23.2 0.1 17.5
v -23.2 0.1 17.1
v -23.2 0.9 18.9
v -23.2 0.9 18.8
v -23.2 1 18.9
v -23.2 1 18.8
v -23.2 1.1 19
v -23.2 1.1 18.9
v -23.2 1.1 18.8
v -23.2 1.1 18.7
v -23.2 1.3 19.3
v -23.2 1.3 19
v -23.2 1.3 18.7
v -23.2 1.3 17.7
v -23.2 1.3 17.5
v -23.2 1.3 17.1
v -23.2 1.4 19.3
v -23.2 1.4 19
v -23.2 1.4 18.7
v -23.2 1.4 17.7
v -23.2 1.4 17.5
v -23.2 1.4 17.1
v -23.1 0.1 17.7
v -23.1 0.1 17.5
v -23.1 0.1 17.1
v -23.1 0.1 16.9
v -23.1 0.9 18.9
v -23.1 0.9 18.8
v -23.1 1 18.9
v -23.1 1 18.8
v -23.1 1.1 19
v -23.1 1.1 18.9
v -23.1 1.1 18.8
v -23.1 1.1 18.7
v -23.1 1.5 19
v -23.1 1.5 18.7
v -23.1 1.6 17.7
v -23.1 1.6 17.5
v -23.1 1.6 17.1
v -23.1 1.6 16.9
v -23.1 1.7 17.7
v -23.1 1.7 17.5
v -23.1 1.7 17.1
v -23.1 1.7 16.9
v -21.5 0 19.3
v -21.5 0 15.3
v -21.5 0.1 19.3
v -21.5 0.1 15.3
v -25.5 0 19.3
v -25.5 0.1 19.3
v -23.8 0.1 19.3
v -23.8 1.3 19.3
v -23.8 1.4 19.3
v -23.7 1.1 19.3
v -23.7 1.2 19.3
v -23.7 1.3 19.3
v -23.7 1.4 19.3
v -23.3 1.1 19.3
v -23.3 1.2 19.3
v -23.3 1.3 19.3
v -23.3 1.4 19.3
v -23.2 0.1 19.3
v -23.2 1.3 19.3
v -23.2 1.4 19.3
v -21.5 0 19.3
v -21.5 0.1 19.3
v -23.9 1.1 19
v -23.9 1.5 19
v -23.8 1.1 19
v -23.8 1.3 19
v -23.8 1.4 19
v -23.7 1.4 19
v -23.7 1.5 19
v -23.3 1.4 19
v -23.3 1.5 19
v -23.2 1.1 19
v -23.2 1.3 19
v -23.2 1.4 19
v -23.1 1.1 19
v -23.1 1.5 19
v -23.9 0.9 18.9
v -23.9 1 18.9
v -23.9 1.1 18.9
v -23.8 0.9 18.9
v -23.8 1 18.9
v -23.8 1.1 18.9
v -23.2 0.9 18.9
v -23.2 1 18.9
v -23.2 1.1 18.9
v -23.1 0.9 18.9
v -23.1 1 18.9
v -23.1 1.1 18.9
v -23.9 0.1 17.7
v -23.9 1.6 17.7
v -23.9 1.7 17.7
v -23.8 0.1 17.7
v -23.8 1.3 17.7
v -23.8 1.4 17.7
v -23.7 1.4 17.7
v -23.7 1.6 17.7
v -23.7 1.7 17.7
v -23.3 1.4 17.7
v -23.3 1.6 17.7
v -23.3 1.7 17.7
v -23.2 0.1 17.7
v -23.2 1.3 17.7
v -23.2 1.4 17.7
v -23.1 0.1 17.7
v -23.1 1.6 17.7
v -23.1 1.7 17.7
v -23.9 0.1 17.1
v -23.9 1.6 17.1
v -23.9 1.7 17.1
v -23.8 0.1 17.1
v -23.8 1.3 17.1
v -23.8 1.4 17.1
v -23.7 1.2 17.1
v -23.7 1.3 17.1
v -23.7 1.4 17.1
v -23.7 1.6 17.1
v -23.7 1.7 17.1
v -23.3 1.2 17.1
v -23.3 1.3 17.1
v -23.3 1.4 17.1
v -23.3 1.6 17.1
v -23.3 1.7 17.1
v -23.2 0.1 17.1
v -23.2 1.3 17.1
v -23.2 1.4 17.1
v -23.1 0.1 17.1
v -23.1 1.6 17.1
v -23.1 1.7 17.1
v -23.9 0.9 18.8
v -23.9 1 18.8
v -23.9 1.1 18.8
v -23.8 0.9 18.8
v -23.8 1 18.8
v -23.8 1.1 18.8
v -23.2 0.9 18.8
v -23.2 1 18.8
v -23.2 1.1 18.8
v -23.1 0.9 18.8
v -23.1 1 18.8
v -23.1 1.1 18.8
v -23.9 1.1 18.7
v -23.9 1.5 18.7
v -23.8 1.1 18.7
v -23.8 1.3 18.7
v -23.8 1.4 18.7
v -23.7 1.4 18.7
v -23.7 1.5 18.7
v -23.3 1.4 18.7
v -23.3 1.5 18.7
v -23.2 1.1 18.7
v -23.2 1.3 18.7
v -23.2 1.4 18.7
v -23.1 1.1 18.7
v -23.1 1.5 18.7
v -23.9 0.1 17.5
v -23.9 1.6 17.5
v -23.9 1.7 17.5
v -23.8 0.1 17.5
v -23.8 1.3 17.5
v -23.8 1.4 17.5
v -23.7 1.4 17.5
v -23.7 1.6 17.5
v -23.7 1.7 17.5
v -23.3 1.4 17.5
v -23.3 1.6 17.5
v -23.3 1.7 17.5
v -23.2 0.1 17.5
v -23.2 1.3 17.5
v -23.2 1.4 17.5
v -23.1 0.1 17.5
v -23.1 1.6 17.5
v -23.1 1.7 17.5
v -23.7 0.1 17
v -23.7 1.3 17
v -23.7 1.4 17
v -23.3 0.1 17
v -23.3 1.3 17
v -23.3 1.4 17
v -23.9 0.1 16.9
v -23.9 1.6 16.9
v -23.9 1.7 16.9
v -23.7 0.1 16.9
v -23.7 1.6 16.9
v -23.7 1.7 16.9
v -23.3 0.1 16.9
v -23.3 1.6 16.9
v -23.3 1.7 16.9
v -23.1 0.1 16.9
v -23.1 1.6 16.9
v -23.1 1.7 16.9
v -25.5 0 15.3
v -25.5 0.1 15.3
v -21.5 0 15.3
v -21.5 0.1 15.3
v -25.5 0 19.3
v -21.5 0 19.3
v -25.5 0 15.3
v -21.5 0 15.3
v -23.9 0.9 18.9
v -23.8 0.9 18.9
v -23.2 0.9 18.9
v -23.1 0.9 18.9
v -23.9 0.9 18.8
v -23.8 0.9 18.8
v -23.2 0.9 18.8
v -23.1 0.9 18.8
v -23.9 1.1 19
v -23.8 1.1 19
v -23.2 1.1 19
v -23.1 1.1 19
v -23.9 1.1 18.9
v -23.8 1.1 18.9
v -23.2 1.1 18.9
v -23.1 1.1 18.9
v -23.9 1.1 18.8
v -23.8 1.1 18.8
v -23.2 1.1 18.8
v -23.1 1.1 18.8
v -23.9 1.1 18.7
v -23.8 1.1 18.7
v -23.2 1.1 18.7
v -23.1 1.1 18.7
v -25.5 0.1 19.3
v -23.8 0.1 19.3
v -23.2 0.1 19.3
v -21.5 0.1 19.3
v -23.9 0.1 17.7
v -23.8 0.1 17.7
v -23.2 0.1 17.7
v -23.1 0.1 17.7
v -23.9 0.1 17.5
v -23.8 0.1 17.5
v -23.2 0.1 17.5
v -23.1 0.1 17.5
v -23.9 0.1 17.1
v -23.8 0.1 17.1
v -23.2 0.1 17.1
v -23.1 0.1 17.1
v -23.7 0.1 17
v -23.3 0.1 17
v -23.9 0.1 16.9
v -23.7 0.1 16.9
v -23.3 0.1 16.9
v -23.1 0.1 16.9
v -25.5 0.1 15.3
v -21.5 0.1 15.3
v -23.7 1.2 19.3
v -23.3 1.2 19.3
v -23.7 1.2 17.7
v -23.3 1.2 17.7
v -23.7 1.2 17.5
v -23.3 1.2 17.5
v -23.7 1.2 17.1
v -23.3 1.2 17.1
v -23.8 1.4 19.3
v -23.7 1.4 19.3
v -23.3 1.4 19.3
v -23.2 1.4 19.3
v -23.8 1.4 19
v -23.7 1.4 19
v -23.3 1.4 19
v -23.2 1.4 19
v -23.8 1.4 18.7
v -23.7 1.4 18.7
v -23.3 1.4 18.7
v -23.2 1.4 18.7
v -23.8 1.4 17.7
v -23.7 1.4 17.7
v -23.3 1.4 17.7
v -23.2 1.4 17.7
v -23.8 1.4 17.5
v -23.7 1.4 17.5
v -23.3 1.4 17.5
v -23.2 1.4 17.5
v -23.8 1.4 17.1
v -23.7 1.4 17.1
v -23.3 1.4 17.1
v -23.2 1.4 17.1
v -23.7 1.4 17
v -23.3 1.4 17
v -23.9 1.5 19
v -23.7 1.5 19
v -23.3 1.5 19
v -23.1 1.5 19
v -23.9 1.5 18.7
v -23.7 1.5 18.7
v -23.3 1.5 18.7
v -23.1 1.5 18.7
v -23.9 1.7 17.7
v -23.7 1.7 17.7
v -23.3 1.7 17.7
v -23.1 1.7 17.7
v -23.9 1.7 17.5
v -23.7 1.7 17.5
v -23.3 1.7 17.5
v -23.1 1.7 17.5
v -23.9 1.7 17.1
v -23.7 1.7 17.1
v -23.3 1.7 17.1
v -23.1 1.7 17.1
v -23.9 1.7 16.9
v -23.7 1.7 16.9
v -23.3 1.7 16.9
v -23.1 1.7 16.9

# faces
f 3/1/1 2/1/1 1/1/1
f 4/1/1 2/1/1 3/1/1
f 11/2/1 10/2/1 9/2/1
f 12/2/1 10/2/1 11/2/1
f 14/5/1 12/5/1 11/5/1
f 15/5/1 12/5/1 14/5/1
f 17/5/1 15/5/1 14/5/1
f 17/5/1 16/5/1 15/5/1
f 17/5/1 14/5/1 13/5/1
f 18/5/1 16/5/1 17/5/1
f 19/5/1 6/5/1 5/5/1
f 20/5/1 6/5/1 19/5/1
f 21/5/1 8/5/1 7/5/1
f 22/5/1 8/5/1 21/5/1
f 23/6/1 20/6/1 19/6/1
f 24/6/1 20/6/1 23/6/1
f 25/6/1 22/6/1 21/6/1
f 26/6/1 22/6/1 25/6/1
f 31/4/1 28/4/1 27/4/1
f 32/4/1 28/4/1 31/4/1
f 33/4/1 31/4/1 27/4/1
f 34/4/1 28/4/1 32/4/1
f 35/4/1 33/4/1 27/4/1
f 36/4/1 33/4/1 35/4/1
f 37/4/1 28/4/1 34/4/1
f 38/4/1 28/4/1 37/4/1
f 39/4/1 35/4/1 27/4/1
f 40/4/1 35/4/1 39/4/1
f 41/4/1 28/4/1 38/4/1
f 42/4/1 28/4/1 41/4/1
f 43/4/1 30/4/1 29/4/1
f 44/4/1 30/4/1 43/4/1
f 45/6/1 40/6/1 39/6/1
f 46/6/1 40/6/1 45/6/1
f 47/6/1 42/6/1 41/6/1
f 48/6/1 42/6/1 47/6/1
f 49/6/1 44/6/1 43/6/1
f 50/6/1 44/6/1 49/6/1
f 57/4/1 54/4/1 53/4/1
f 58/5/1 55/5/1 54/5/1
f 58/4/1 54/4/1 57/4/1
f 59/4/1 56/4/1 55/4/1
f 59/5/1 55/5/1 58/5/1
f 60/4/1 56/4/1 59/4/1
f 61/5/1 52/5/1 51/5/1
f 62/6/1 58/6/1 57/6/1
f 63/6/1 58/6/1 62/6/1
f 64/6/1 58/6/1 63/6/1
f 65/5/1 59/5/1 58/5/1
f 65/6/1 58/6/1 64/6/1
f 66/6/1 60/6/1 59/6/1
f 66/5/1 59/5/1 65/5/1
f 67/6/1 60/6/1 66/6/1
f 68/5/1 52/5/1 61/5/1
f 69/5/1 64/5/1 63/5/1
f 70/5/1 64/5/1 69/5/1
f 71/5/1 66/5/1 65/5/1
f 72/5/1 66/5/1 71/5/1
f 73/5/1 68/5/1 67/5/1
f 74/5/1 52/5/1 68/5/1
f 74/5/1 68/5/1 73/5/1
f 75/6/1 72/6/1 71/6/1
f 76/6/1 72/6/1 75/6/1
f 77/6/1 74/6/1 73/6/1
f 78/6/1 74/6/1 77/6/1
f 81/4/2 82/4/2 85/4/2
f 82/5/2 83/5/2 86/5/2
f 85/4/2 82/4/2 86/4/2
f 83/4/2 84/4/2 87/4/2
f 86/5/2 83/5/2 87/5/2
f 87/4/2 84/4/2 88/4/2
f 79/5/2 80/5/2 89/5/2
f 85/6/2 86/6/2 90/6/2
f 90/6/2 86/6/2 91/6/2
f 91/6/2 86/6/2 92/6/2
f 86/5/2 87/5/2 93/5/2
f 92/6/2 86/6/2 93/6/2
f 87/6/2 88/6/2 94/6/2
f 93/5/2 87/5/2 94/5/2
f 94/6/2 88/6/2 95/6/2
f 89/5/2 80/5/2 96/5/2
f 91/5/2 92/5/2 97/5/2
f 97/5/2 92/5/2 98/5/2
f 93/5/2 94/5/2 99/5/2
f 99/5/2 94/5/2 100/5/2
f 95/5/2 96/5/2 101/5/2
f 96/5/2 80/5/2 102/5/2
f 101/5/2 96/5/2 102/5/2
f 99/6/2 100/6/2 103/6/2
f 103/6/2 100/6/2 104/6/2
f 101/6/2 102/6/2 105/6/2
f 105/6/2 102/6/2 106/6/2
f 107/4/2 108/4/2 111/4/2
f 111/4/2 108/4/2 112/4/2
f 107/4/2 111/4/2 113/4/2
f 112/4/2 108/4/2 114/4/2
f 107/4/2 113/4/2 115/4/2
f 115/4/2 113/4/2 116/4/2
f 114/4/2 108/4/2 117/4/2
f 117/4/2 108/4/2 118/4/2
f 107/4/2 115/4/2 119/4/2
f 119/4/2 115/4/2 120/4/2
f 118/4/2 108/4/2 121/4/2
f 121/4/2 108/4/2 122/4/2
f 109/4/2 110/4/2 123/4/2
f 123/4/2 110/4/2 124/4/2
f 119/6/2 120/6/2 125/6/2
f 125/6/2 120/6/2 126/6/2
f 121/6/2 122/6/2 127/6/2
f 127/6/2 122/6/2 128/6/2
f 123/6/2 124/6/2 129/6/2
f 129/6/2 124/6/2 130/6/2
f 135/2/2 136/2/2 137/2/2
f 137/2/2 136/2/2 138/2/2
f 137/5/2 138/5/2 140/5/2
f 140/5/2 138/5/2 141/5/2
f 140/5/2 141/5/2 143/5/2
f 141/5/2 142/5/2 143/5/2
f 139/5/2 140/5/2 143/5/2
f 143/5/2 142/5/2 144/5/2
f 131/5/2 132/5/2 145/5/2
f 145/5/2 132/5/2 146/5/2
f 133/5/2 134/5/2 147/5/2
f 147/5/2 134/5/2 148/5/2
f 145/6/2 146/6/2 149/6/2
f 149/6/2 146/6/2 150/6/2
f 147/6/2 148/6/2 151/6/2
f 151/6/2 148/6/2 152/6/2
f 153/1/2 154/1/2 155/1/2
f 155/1/2 154/1/2 156/1/2
f 159/1/3 158/1/3 157/1/3
f 162/4/3 160/4/3 159/4/3
f 163/4/3 160/4/3 162/4/3
f 164/6/3 161/6/3 160/6/3
f 164/4/3 160/4/3 163/4/3
f 165/6/3 161/6/3 164/6/3
f 166/3/3 163/3/3 162/3/3
f 166/4/3 162/4/3 159/4/3
f 167/3/3 163/3/3 166/3/3
f 170/1/3 159/1/3 157/1/3
f 170/4/3 166/4/3 159/4/3
f 170/4/3 168/4/3 167/4/3
f 170/4/3 167/4/3 166/4/3
f 171/6/3 169/6/3 168/6/3
f 171/4/3 168/4/3 170/4/3
f 172/6/3 169/6/3 171/6/3
f 173/1/3 170/1/3 157/1/3
f 174/1/3 170/1/3 173/1/3
f 177/5/3 176/5/3 175/5/3
f 178/5/3 176/5/3 177/5/3
f 179/5/3 176/5/3 178/5/3
f 180/5/3 176/5/3 179/5/3
f 181/5/3 176/5/3 180/5/3
f 186/5/3 183/5/3 182/5/3
f 187/5/3 185/5/3 184/5/3
f 187/5/3 186/5/3 185/5/3
f 188/5/3 183/5/3 186/5/3
f 188/5/3 186/5/3 187/5/3
f 192/2/3 190/2/3 189/2/3
f 193/5/3 191/5/3 190/5/3
f 193/2/3 190/2/3 192/2/3
f 194/5/3 191/5/3 193/5/3
f 198/2/3 196/2/3 195/2/3
f 199/5/3 197/5/3 196/5/3
f 199/2/3 196/2/3 198/2/3
f 200/5/3 197/5/3 199/5/3
f 204/5/3 202/5/3 201/5/3
f 205/5/3 202/5/3 204/5/3
f 206/5/3 202/5/3 205/5/3
f 207/5/3 202/5/3 206/5/3
f 208/6/3 203/6/3 202/6/3
f 208/5/3 202/5/3 207/5/3
f 209/6/3 203/6/3 208/6/3
f 215/5/3 211/5/3 210/5/3
f 216/5/3 214/5/3 213/5/3
f 216/5/3 215/5/3 214/5/3
f 217/5/3 211/5/3 215/5/3
f 217/5/3 215/5/3 216/5/3
f 217/6/3 212/6/3 211/6/3
f 218/6/3 212/6/3 217/6/3
f 222/5/3 220/5/3 219/5/3
f 223/5/3 220/5/3 222/5/3
f 224/5/3 220/5/3 223/5/3
f 227/5/3 220/5/3 224/5/3
f 228/6/3 221/6/3 220/6/3
f 228/5/3 220/5/3 227/5/3
f 229/6/3 221/6/3 228/6/3
f 230/4/3 226/4/3 225/4/3
f 231/6/3 227/6/3 226/6/3
f 231/4/3 226/4/3 230/4/3
f 232/6/3 227/6/3 231/6/3
f 237/5/3 233/5/3 232/5/3
f 238/5/3 236/5/3 235/5/3
f 238/5/3 237/5/3 236/5/3
f 239/6/3 234/6/3 233/6/3
f 239/5/3 237/5/3 238/5/3
f 239/5/3 233/5/3 237/5/3
f 240/6/3 234/6/3 239/6/3
f 241/2/4 242/2/4 244/2/4
f 242/5/4 243/5/4 245/5/4
f 244/2/4 242/2/4 245/2/4
f 245/5/4 243/5/4 246/5/4
f 247/2/4 248/2/4 250/2/4
f 248/5/4 249/5/4 251/5/4
f 250/2/4 248/2/4 251/2/4
f 251/5/4 249/5/4 252/5/4
f 253/5/4 254/5/4 255/5/4
f 255/5/4 254/5/4 256/5/4
f 256/5/4 254/5/4 257/5/4
f 257/5/4 254/5/4 258/5/4
f 258/5/4 254/5/4 259/5/4
f 260/5/4 261/5/4 264/5/4
f 262/5/4 263/5/4 265/5/4
f 263/5/4 264/5/4 265/5/4
f 264/5/4 261/5/4 266/5/4
f 265/5/4 264/5/4 266/5/4
f 267/5/4 268/5/4 270/5/4
f 270/5/4 268/5/4 271/5/4
f 271/5/4 268/5/4 272/5/4
f 272/5/4 268/5/4 273/5/4
f 268/6/4 269/6/4 274/6/4
f 273/5/4 268/5/4 274/5/4
f 274/6/4 269/6/4 275/6/4
f 276/5/4 277/5/4 281/5/4
f 279/5/4 280/5/4 282/5/4
f 280/5/4 281/5/4 282/5/4
f 281/5/4 277/5/4 283/5/4
f 282/5/4 281/5/4 283/5/4
f 277/6/4 278/6/4 283/6/4
f 283/6/4 278/6/4 284/6/4
f 285/4/4 286/4/4 288/4/4
f 286/6/4 287/6/4 289/6/4
f 288/4/4 286/4/4 289/4/4
f 289/6/4 287/6/4 290/6/4
f 291/5/4 292/5/4 294/5/4
f 292/6/4 293/6/4 295/6/4
f 294/5/4 292/5/4 295/5/4
f 295/6/4 293/6/4 296/6/4
f 297/5/4 298/5/4 300/5/4
f 298/6/4 299/6/4 301/6/4
f 300/5/4 298/5/4 301/5/4
f 301/6/4 299/6/4 302/6/4
f 303/1/4 304/1/4 305/1/4
f 305/1/4 304/1/4 306/1/4
f 309/1/5 308/1/5 307/1/5
f 310/1/5 308/1/5 309/1/5
f 315/2/5 312/2/5 311/2/5
f 316/2/5 312/2/5 315/2/5
f 317/2/5 314/2/5 313/2/5
f 318/2/5 314/2/5 317/2/5
f 323/5/5 320/5/5 319/5/5
f 324/5/5 320/5/5 323/5/5
f 325/5/5 322/5/5 321/5/5
f 326/5/5 322/5/5 325/5/5
f 331/5/5 328/5/5 327/5/5
f 332/5/5 328/5/5 331/5/5
f 333/5/5 330/5/5 329/5/5
f 334/5/5 330/5/5 333/5/5
f 335/1/6 336/1/6 339/1/6
f 339/1/6 336/1/6 340/1/6
f 337/1/6 338/1/6 341/1/6
f 341/1/6 338/1/6 342/1/6
f 335/1/6 339/1/6 343/1/6
f 342/1/6 338/1/6 346/1/6
f 343/1/6 344/1/6 347/1/6
f 335/1/6 343/1/6 347/1/6
f 347/1/6 344/1/6 348/1/6
f 345/1/6 346/1/6 349/1/6
f 346/1/6 338/1/6 350/1/6
f 349/1/6 346/1/6 350/1/6
f 335/1/6 347/1/6 353/1/6
f 351/1/6 352/1/6 354/1/6
f 354/1/6 352/1/6 355/1/6
f 350/1/6 338/1/6 356/1/6
f 354/1/6 355/1/6 357/1/6
f 355/1/6 356/1/6 357/1/6
f 335/1/6 353/1/6 357/1/6
f 353/1/6 354/1/6 357/1/6
f 356/1/6 338/1/6 358/1/6
f 357/1/6 356/1/6 358/1/6
f 359/3/6 360/3/6 361/3/6
f 361/3/6 360/3/6 362/3/6
f 361/3/6 362/3/6 363/3/6
f 363/3/6 362/3/6 364/3/6
f 363/3/6 364/3/6 365/3/6
f 365/3/6 364/3/6 366/3/6
f 367/6/6 368/6/6 371/6/6
f 371/6/6 368/6/6 372/6/6
f 369/6/6 370/6/6 373/6/6
f 373/6/6 370/6/6 374/6/6
f 375/6/6 376/6/6 379/6/6
f 379/6/6 376/6/6 380/6/6
f 377/6/6 378/6/6 381/6/6
f 381/6/6 378/6/6 382/6/6
f 383/6/6 384/6/6 387/6/6
f 387/6/6 384/6/6 388/6/6
f 385/6/6 386/6/6 389/6/6
f 389/6/6 386/6/6 390/6/6
f 388/6/6 389/6/6 391/6/6
f 391/6/6 389/6/6 392/6/6
f 393/5/6 394/5/6 397/5/6
f 397/5/6 394/5/6 398/5/6
f 395/5/6 396/5/6 399/5/6
f 399/5/6 396/5/6 400/5/6
f 401/6/6 402/6/6 405/6/6
f 405/6/6 402/6/6 406/6/6
f 403/6/6 404/6/6 407/6/6
f 407/6/6 404/6/6 408/6/6
f 409/6/6 410/6/6 413/6/6
f 413/6/6 410/6/6 414/6/6
f 411/6/6 412/6/6 415/6/6
f 415/6/6 412/6/6 416/6/6
