# MagicaVoxel @ Ephtracy

# group
o 

# material
mtllib towers-268.mtl
usemtl palette

# normals
vn 0 0 1
vn 0 0 -1
vn 1 0 0
vn -1 0 0
vn 0 -1 0
vn 0 1 0

# texcoords
vt 0.541016 0.5
vt 0.810547 0.5
vt 0.947266 0.5
vt 0.978516 0.5
vt 0.982422 0.5
vt 0.986328 0.5

# verts
v -21.5 0 19.3
v -25.5 0 19.3
v -21.5 0.1 19.3
v -25.5 0.1 19.3
v -23.1 0.1 17.7
v -23.3 0.1 17.7
v -23.7 0.1 17.7
v -23.9 0.1 17.7
v -21.9 0.9 17.7
v -22 0.9 17.7
v -25 0.9 17.7
v -25.1 0.9 17.7
v -21.9 1 17.7
v -22 1 17.7
v -25 1 17.7
v -25.1 1 17.7
v -21.8 1.1 17.7
v -21.9 1.1 17.7
v -22 1.1 17.7
v -22.1 1.1 17.7
v -24.9 1.1 17.7
v -25 1.1 17.7
v -25.1 1.1 17.7
v -25.2 1.1 17.7
v -21.8 1.5 17.7
v -22.1 1.5 17.7
v -24.9 1.5 17.7
v -25.2 1.5 17.7
v -23.1 1.6 17.7
v -23.3 1.6 17.7
v -23.7 1.6 17.7
v -23.9 1.6 17.7
v -23.1 1.7 17.7
v -23.3 1.7 17.7
v -23.7 1.7 17.7
v -23.9 1.7 17.7
v -21.5 0.1 17.6
v -23.1 0.1 17.6
v -23.3 0.1 17.6
v -23.7 0.1 17.6
v -23.9 0.1 17.6
v -25.5 0.1 17.6
v -21.9 0.9 17.6
v -22 0.9 17.6
v -25 0.9 17.6
v -25.1 0.9 17.6
v -21.9 1 17.6
v -22 1 17.6
v -25 1 17.6
v -25.1 1 17.6
v -21.8 1.1 17.6
v -21.9 1.1 17.6
v -22 1.1 17.6
v -22.1 1.1 17.6
v -24.9 1.1 17.6
v -25 1.1 17.6
v -25.1 1.1 17.6
v -25.2 1.1 17.6
v -21.5 1.3 17.6
v -21.8 1.3 17.6
v -22.1 1.3 17.6
v -23.1 1.3 17.6
v -23.3 1.3 17.6
v -23.7 1.3 17.6
v -23.9 1.3 17.6
v -24.9 1.3 17.6
v -25.2 1.3 17.6
v -25.5 1.3 17.6
v -21.5 1.4 17.6
v -21.8 1.4 17.6
v -22.1 1.4 17.6
v -23.1 1.4 17.6
v -23.3 1.4 17.6
v -23.7 1.4 17.6
v -23.9 1.4 17.6
v -24.9 1.4 17.6
v -25.2 1.4 17.6
v -25.5 1.4 17.6
v -21.5 1.2 17.1
v -23.1 1.2 17.1
v -23.3 1.2 17.1
v -23.7 1.2 17.1
v -23.9 1.2 17.1
v -25.5 1.2 17.1
v -21.5 1.3 17.1
v -23.1 1.3 17.1
v -23.3 1.3 17.1
v -23.7 1.3 17.1
v -23.9 1.3 17.1
v -25.5 1.3 17.1
v -21.5 1.4 17.1
v -21.8 1.4 17.1
v -22.1 1.4 17.1
v -23.1 1.4 17.1
v -23.3 1.4 17.1
v -23.7 1.4 17.1
v -23.9 1.4 17.1
v -24.9 1.4 17.1
v -25.2 1.4 17.1
v -25.5 1.4 17.1
v -21.8 1.5 17.1
v -22.1 1.5 17.1
v -24.9 1.5 17.1
v -25.2 1.5 17.1
v -23.1 1.6 17.1
v -23.3 1.6 17.1
v -23.7 1.6 17.1
v -23.9 1.6 17.1
v -23.1 1.7 17.1
v -23.3 1.7 17.1
v -23.7 1.7 17.1
v -23.9 1.7 17.1
v -21.5 1.2 17.5
v -23.1 1.2 17.5
v -23.3 1.2 17.5
v -23.7 1.2 17.5
v -23.9 1.2 17.5
v -25.5 1.2 17.5
v -21.5 1.3 17.5
v -23.1 1.3 17.5
v -23.3 1.3 17.5
v -23.7 1.3 17.5
v -23.9 1.3 17.5
v -25.5 1.3 17.5
v -21.5 1.4 17.5
v -21.8 1.4 17.5
v -22.1 1.4 17.5
v -23.1 1.4 17.5
v -23.3 1.4 17.5
v -23.7 1.4 17.5
v -23.9 1.4 17.5
v -24.9 1.4 17.5
v -25.2 1.4 17.5
v -25.5 1.4 17.5
v -21.8 1.5 17.5
v -22.1 1.5 17.5
v -24.9 1.5 17.5
v -25.2 1.5 17.5
v -23.1 1.6 17.5
v -23.3 1.6 17.5
v -23.7 1.6 17.5
v -23.9 1.6 17.5
v -23.1 1.7 17.5
v -23.3 1.7 17.5
v -23.7 1.7 17.5
v -23.9 1.7 17.5
v -21.5 0.1 17
v -23.1 0.1 17
v -23.3 0.1 17
v -23.7 0.1 17
v -23.9 0.1 17
v -25.5 0.1 17
v -21.9 0.9 17
v -22 0.9 17
v -25 0.9 17
v -25.1 0.9 17
v -21.9 1 17
v -22 1 17
v -25 1 17
v -25.1 1 17
v -21.8 1.1 17
v -21.9 1.1 17
v -22 1.1 17
v -22.1 1.1 17
v -24.9 1.1 17
v -25 1.1 17
v -25.1 1.1 17
v -25.2 1.1 17
v -21.5 1.3 17
v -21.8 1.3 17
v -22.1 1.3 17
v -23.1 1.3 17
v -23.3 1.3 17
v -23.7 1.3 17
v -23.9 1.3 17
v -24.9 1.3 17
v -25.2 1.3 17
v -25.5 1.3 17
v -21.5 1.4 17
v -21.8 1.4 17
v -22.1 1.4 17
v -23.1 1.4 17
v -23.3 1.4 17
v -23.7 1.4 17
v -23.9 1.4 17
v -24.9 1.4 17
v -25.2 1.4 17
v -25.5 1.4 17
v -23.1 0.1 16.9
v -23.3 0.1 16.9
v -23.7 0.1 16.9
v -23.9 0.1 16.9
v -21.9 0.9 16.9
v -22 0.9 16.9
v -25 0.9 16.9
v -25.1 0.9 16.9
v -21.9 1 16.9
v -22 1 16.9
v -25 1 16.9
v -25.1 1 16.9
v -21.8 1.1 16.9
v -21.9 1.1 16.9
v -22 1.1 16.9
v -22.1 1.1 16.9
v -24.9 1.1 16.9
v -25 1.1 16.9
v -25.1 1.1 16.9
v -25.2 1.1 16.9
v -21.8 1.5 16.9
v -22.1 1.5 16.9
v -24.9 1.5 16.9
v -25.2 1.5 16.9
v -23.1 1.6 16.9
v -23.3 1.6 16.9
v -23.7 1.6 16.9
v -23.9 1.6 16.9
v -23.1 1.7 16.9
v -23.3 1.7 16.9
v -23.7 1.7 16.9
v -23.9 1.7 16.9
v -21.5 0 15.3
v -25.5 0 15.3
v -21.5 0.1 15.3
v -25.5 0.1 15.3
v -21.5 0 19.3
v -21.5 0.1 19.3
v -21.5 0.1 17.6
v -21.5 1.3 17.6
v -21.5 1.4 17.6
v -21.5 1.1 17.5
v -21.5 1.2 17.5
v -21.5 1.3 17.5
v -21.5 1.4 17.5
v -21.5 1.1 17.1
v -21.5 1.2 17.1
v -21.5 1.3 17.1
v -21.5 1.4 17.1
v -21.5 0.1 17
v -21.5 1.3 17
v -21.5 1.4 17
v -21.5 0 15.3
v -21.5 0.1 15.3
v -21.8 1.1 17.7
v -21.8 1.5 17.7
v -21.8 1.1 17.6
v -21.8 1.3 17.6
v -21.8 1.4 17.6
v -21.8 1.4 17.5
v -21.8 1.5 17.5
v -21.8 1.4 17.1
v -21.8 1.5 17.1
v -21.8 1.1 17
v -21.8 1.3 17
v -21.8 1.4 17
v -21.8 1.1 16.9
v -21.8 1.5 16.9
v -21.9 0.9 17.7
v -21.9 1 17.7
v -21.9 1.1 17.7
v -21.9 0.9 17.6
v -21.9 1 17.6
v -21.9 1.1 17.6
v -21.9 0.9 17
v -21.9 1 17
v -21.9 1.1 17
v -21.9 0.9 16.9
v -21.9 1 16.9
v -21.9 1.1 16.9
v -23.1 0.1 17.7
v -23.1 1.6 17.7
v -23.1 1.7 17.7
v -23.1 0.1 17.6
v -23.1 1.3 17.6
v -23.1 1.4 17.6
v -23.1 1.4 17.5
v -23.1 1.6 17.5
v -23.1 1.7 17.5
v -23.1 1.4 17.1
v -23.1 1.6 17.1
v -23.1 1.7 17.1
v -23.1 0.1 17
v -23.1 1.3 17
v -23.1 1.4 17
v -23.1 0.1 16.9
v -23.1 1.6 16.9
v -23.1 1.7 16.9
v -23.7 0.1 17.7
v -23.7 1.6 17.7
v -23.7 1.7 17.7
v -23.7 0.1 17.6
v -23.7 1.3 17.6
v -23.7 1.4 17.6
v -23.7 1.4 17.5
v -23.7 1.6 17.5
v -23.7 1.7 17.5
v -23.7 1.4 17.1
v -23.7 1.6 17.1
v -23.7 1.7 17.1
v -23.7 0.1 17
v -23.7 1.3 17
v -23.7 1.4 17
v -23.7 0.1 16.9
v -23.7 1.6 16.9
v -23.7 1.7 16.9
v -24.9 1.1 17.7
v -24.9 1.5 17.7
v -24.9 1.1 17.6
v -24.9 1.3 17.6
v -24.9 1.4 17.6
v -24.9 1.4 17.5
v -24.9 1.5 17.5
v -24.9 1.4 17.1
v -24.9 1.5 17.1
v -24.9 1.1 17
v -24.9 1.3 17
v -24.9 1.4 17
v -24.9 1.1 16.9
v -24.9 1.5 16.9
v -25 0.9 17.7
v -25 1 17.7
v -25 1.1 17.7
v -25 0.9 17.6
v -25 1 17.6
v -25 1.1 17.6
v -25 0.9 17
v -25 1 17
v -25 1.1 17
v -25 0.9 16.9
v -25 1 16.9
v -25 1.1 16.9
v -22 0.9 17.7
v -22 1 17.7
v -22 1.1 17.7
v -22 0.9 17.6
v -22 1 17.6
v -22 1.1 17.6
v -22 0.9 17
v -22 1 17
v -22 1.1 17
v -22 0.9 16.9
v -22 1 16.9
v -22 1.1 16.9
v -22.1 1.1 17.7
v -22.1 1.5 17.7
v -22.1 1.1 17.6
v -22.1 1.3 17.6
v -22.1 1.4 17.6
v -22.1 1.4 17.5
v -22.1 1.5 17.5
v -22.1 1.4 17.1
v -22.1 1.5 17.1
v -22.1 1.1 17
v -22.1 1.3 17
v -22.1 1.4 17
v -22.1 1.1 16.9
v -22.1 1.5 16.9
v -23.3 0.1 17.7
v -23.3 1.6 17.7
v -23.3 1.7 17.7
v -23.3 0.1 17.6
v -23.3 1.3 17.6
v -23.3 1.4 17.6
v -23.3 1.4 17.5
v -23.3 1.6 17.5
v -23.3 1.7 17.5
v -23.3 1.4 17.1
v -23.3 1.6 17.1
v -23.3 1.7 17.1
v -23.3 0.1 17
v -23.3 1.3 17
v -23.3 1.4 17
v -23.3 0.1 16.9
v -23.3 1.6 16.9
v -23.3 1.7 16.9
v -23.9 0.1 17.7
v -23.9 1.6 17.7
v -23.9 1.7 17.7
v -23.9 0.1 17.6
v -23.9 1.3 17.6
v -23.9 1.4 17.6
v -23.9 1.4 17.5
v -23.9 1.6 17.5
v -23.9 1.7 17.5
v -23.9 1.4 17.1
v -23.9 1.6 17.1
v -23.9 1.7 17.1
v -23.9 0.1 17
v -23.9 1.3 17
v -23.9 1.4 17
v -23.9 0.1 16.9
v -23.9 1.6 16.9
v -23.9 1.7 16.9
v -25.1 0.9 17.7
v -25.1 1 17.7
v -25.1 1.1 17.7
v -25.1 0.9 17.6
v -25.1 1 17.6
v -25.1 1.1 17.6
v -25.1 0.9 17
v -25.1 1 17
v -25.1 1.1 17
v -25.1 0.9 16.9
v -25.1 1 16.9
v -25.1 1.1 16.9
v -25.2 1.1 17.7
v -25.2 1.5 17.7
v -25.2 1.1 17.6
v -25.2 1.3 17.6
v -25.2 1.4 17.6
v -25.2 1.4 17.5
v -25.2 1.5 17.5
v -25.2 1.4 17.1
v -25.2 1.5 17.1
v -25.2 1.1 17
v -25.2 1.3 17
v -25.2 1.4 17
v -25.2 1.1 16.9
v -25.2 1.5 16.9
v -25.5 0 19.3
v -25.5 0.1 19.3
v -25.5 0.1 17.6
v -25.5 1.3 17.6
v -25.5 1.4 17.6
v -25.5 1.1 17.5
v -25.5 1.2 17.5
v -25.5 1.3 17.5
v -25.5 1.4 17.5
v -25.5 1.1 17.1
v -25.5 1.2 17.1
v -25.5 1.3 17.1
v -25.5 1.4 17.1
v -25.5 0.1 17
v -25.5 1.3 17
v -25.5 1.4 17
v -25.5 0 15.3
v -25.5 0.1 15.3
v -21.5 0 19.3
v -21.5 0 15.3
v -25.5 0 19.3
v -25.5 0 15.3
v -21.9 0.9 17.7
v -21.9 0.9 17.6
v -21.9 0.9 17
v -21.9 0.9 16.9
v -22 0.9 17.7
v -22 0.9 17.6
v -22 0.9 17
v -22 0.9 16.9
v -25 0.9 17.7
v -25 0.9 17.6
v -25 0.9 17
v -25 0.9 16.9
v -25.1 0.9 17.7
v -25.1 0.9 17.6
v -25.1 0.9 17
v -25.1 0.9 16.9
v -21.8 1.1 17.7
v -21.8 1.1 17.6
v -21.8 1.1 17
v -21.8 1.1 16.9
v -21.9 1.1 17.7
v -21.9 1.1 17.6
v -21.9 1.1 17
v -21.9 1.1 16.9
v -22 1.1 17.7
v -22 1.1 17.6
v -22 1.1 17
v -22 1.1 16.9
v -22.1 1.1 17.7
v -22.1 1.1 17.6
v -22.1 1.1 17
v -22.1 1.1 16.9
v -24.9 1.1 17.7
v -24.9 1.1 17.6
v -24.9 1.1 17
v -24.9 1.1 16.9
v -25 1.1 17.7
v -25 1.1 17.6
v -25 1.1 17
v -25 1.1 16.9
v -25.1 1.1 17.7
v -25.1 1.1 17.6
v -25.1 1.1 17
v -25.1 1.1 16.9
v -25.2 1.1 17.7
v -25.2 1.1 17.6
v -25.2 1.1 17
v -25.2 1.1 16.9
v -21.5 0.1 19.3
v -21.5 0.1 17.6
v -21.5 0.1 17
v -21.5 0.1 15.3
v -23.1 0.1 17.7
v -23.1 0.1 17.6
v -23.1 0.1 17
v -23.1 0.1 16.9
v -23.3 0.1 17.7
v -23.3 0.1 17.6
v -23.3 0.1 17
v -23.3 0.1 16.9
v -23.7 0.1 17.7
v -23.7 0.1 17.6
v -23.7 0.1 17
v -23.7 0.1 16.9
v -23.9 0.1 17.7
v -23.9 0.1 17.6
v -23.9 0.1 17
v -23.9 0.1 16.9
v -25.5 0.1 19.3
v -25.5 0.1 17.6
v -25.5 0.1 17
v -25.5 0.1 15.3
v -21.5 1.2 17.5
v -21.5 1.2 17.1
v -23.1 1.2 17.5
v -23.1 1.2 17.1
v -23.3 1.2 17.5
v -23.3 1.2 17.1
v -23.7 1.2 17.5
v -23.7 1.2 17.1
v -23.9 1.2 17.5
v -23.9 1.2 17.1
v -25.5 1.2 17.5
v -25.5 1.2 17.1
v -21.5 1.4 17.6
v -21.5 1.4 17.5
v -21.5 1.4 17.1
v -21.5 1.4 17
v -21.8 1.4 17.6
v -21.8 1.4 17.5
v -21.8 1.4 17.1
v -21.8 1.4 17
v -22.1 1.4 17.6
v -22.1 1.4 17.5
v -22.1 1.4 17.1
v -22.1 1.4 17
v -23.1 1.4 17.6
v -23.1 1.4 17.5
v -23.1 1.4 17.1
v -23.1 1.4 17
v -23.3 1.4 17.6
v -23.3 1.4 17.5
v -23.3 1.4 17.1
v -23.3 1.4 17
v -23.7 1.4 17.6
v -23.7 1.4 17.5
v -23.7 1.4 17.1
v -23.7 1.4 17
v -23.9 1.4 17.6
v -23.9 1.4 17.5
v -23.9 1.4 17.1
v -23.9 1.4 17
v -24.9 1.4 17.6
v -24.9 1.4 17.5
v -24.9 1.4 17.1
v -24.9 1.4 17
v -25.2 1.4 17.6
v -25.2 1.4 17.5
v -25.2 1.4 17.1
v -25.2 1.4 17
v -25.5 1.4 17.6
v -25.5 1.4 17.5
v -25.5 1.4 17.1
v -25.5 1.4 17
v -21.8 1.5 17.7
v -21.8 1.5 17.5
v -21.8 1.5 17.1
v -21.8 1.5 16.9
v -22.1 1.5 17.7
v -22.1 1.5 17.5
v -22.1 1.5 17.1
v -22.1 1.5 16.9
v -24.9 1.5 17.7
v -24.9 1.5 17.5
v -24.9 1.5 17.1
v -24.9 1.5 16.9
v -25.2 1.5 17.7
v -25.2 1.5 17.5
v -25.2 1.5 17.1
v -25.2 1.5 16.9
v -23.1 1.7 17.7
v -23.1 1.7 17.5
v -23.1 1.7 17.1
v -23.1 1.7 16.9
v -23.3 1.7 17.7
v -23.3 1.7 17.5
v -23.3 1.7 17.1
v -23.3 1.7 16.9
v -23.7 1.7 17.7
v -23.7 1.7 17.5
v -23.7 1.7 17.1
v -23.7 1.7 16.9
v -23.9 1.7 17.7
v -23.9 1.7 17.5
v -23.9 1.7 17.1
v -23.9 1.7 16.9

# faces
f 3/1/1 2/1/1 1/1/1
f 4/1/1 2/1/1 3/1/1
f 13/2/1 10/2/1 9/2/1
f 14/2/1 10/2/1 13/2/1
f 15/2/1 12/2/1 11/2/1
f 16/2/1 12/2/1 15/2/1
f 18/5/1 14/5/1 13/5/1
f 19/5/1 14/5/1 18/5/1
f 22/5/1 16/5/1 15/5/1
f 23/5/1 16/5/1 22/5/1
f 25/5/1 20/5/1 19/5/1
f 25/5/1 18/5/1 17/5/1
f 25/5/1 19/5/1 18/5/1
f 26/5/1 20/5/1 25/5/1
f 27/5/1 23/5/1 22/5/1
f 27/5/1 24/5/1 23/5/1
f 27/5/1 22/5/1 21/5/1
f 28/5/1 24/5/1 27/5/1
f 29/5/1 6/5/1 5/5/1
f 30/5/1 6/5/1 29/5/1
f 31/5/1 8/5/1 7/5/1
f 32/5/1 8/5/1 31/5/1
f 33/6/1 30/6/1 29/6/1
f 34/6/1 30/6/1 33/6/1
f 35/6/1 32/6/1 31/6/1
f 36/6/1 32/6/1 35/6/1
f 43/4/1 38/4/1 37/4/1
f 44/4/1 38/4/1 43/4/1
f 45/4/1 42/4/1 41/4/1
f 46/4/1 42/4/1 45/4/1
f 47/4/1 43/4/1 37/4/1
f 48/4/1 38/4/1 44/4/1
f 49/4/1 45/4/1 41/4/1
f 50/4/1 42/4/1 46/4/1
f 51/4/1 47/4/1 37/4/1
f 52/4/1 47/4/1 51/4/1
f 53/4/1 38/4/1 48/4/1
f 54/4/1 38/4/1 53/4/1
f 55/4/1 49/4/1 41/4/1
f 56/4/1 49/4/1 55/4/1
f 57/4/1 42/4/1 50/4/1
f 58/4/1 42/4/1 57/4/1
f 59/4/1 51/4/1 37/4/1
f 60/4/1 51/4/1 59/4/1
f 61/4/1 38/4/1 54/4/1
f 62/4/1 38/4/1 61/4/1
f 63/4/1 40/4/1 39/4/1
f 64/4/1 40/4/1 63/4/1
f 65/4/1 55/4/1 41/4/1
f 66/4/1 55/4/1 65/4/1
f 67/4/1 42/4/1 58/4/1
f 68/4/1 42/4/1 67/4/1
f 69/6/1 60/6/1 59/6/1
f 70/6/1 60/6/1 69/6/1
f 71/6/1 62/6/1 61/6/1
f 72/6/1 62/6/1 71/6/1
f 73/6/1 64/6/1 63/6/1
f 74/6/1 64/6/1 73/6/1
f 75/6/1 66/6/1 65/6/1
f 76/6/1 66/6/1 75/6/1
f 77/6/1 68/6/1 67/6/1
f 78/6/1 68/6/1 77/6/1
f 85/4/1 80/4/1 79/4/1
f 86/5/1 81/5/1 80/5/1
f 86/4/1 80/4/1 85/4/1
f 87/4/1 82/4/1 81/4/1
f 87/5/1 81/5/1 86/5/1
f 88/5/1 83/5/1 82/5/1
f 88/4/1 82/4/1 87/4/1
f 89/4/1 84/4/1 83/4/1
f 89/5/1 83/5/1 88/5/1
f 90/4/1 84/4/1 89/4/1
f 91/6/1 86/6/1 85/6/1
f 92/6/1 86/6/1 91/6/1
f 93/6/1 86/6/1 92/6/1
f 94/5/1 87/5/1 86/5/1
f 94/6/1 86/6/1 93/6/1
f 95/6/1 88/6/1 87/6/1
f 95/5/1 87/5/1 94/5/1
f 96/5/1 89/5/1 88/5/1
f 96/6/1 88/6/1 95/6/1
f 97/6/1 90/6/1 89/6/1
f 97/5/1 89/5/1 96/5/1
f 98/6/1 90/6/1 97/6/1
f 99/6/1 90/6/1 98/6/1
f 100/6/1 90/6/1 99/6/1
f 101/5/1 93/5/1 92/5/1
f 102/5/1 93/5/1 101/5/1
f 103/5/1 99/5/1 98/5/1
f 104/5/1 99/5/1 103/5/1
f 105/5/1 95/5/1 94/5/1
f 106/5/1 95/5/1 105/5/1
f 107/5/1 97/5/1 96/5/1
f 108/5/1 97/5/1 107/5/1
f 109/6/1 106/6/1 105/6/1
f 110/6/1 106/6/1 109/6/1
f 111/6/1 108/6/1 107/6/1
f 112/6/1 108/6/1 111/6/1
f 113/4/2 114/4/2 119/4/2
f 114/5/2 115/5/2 120/5/2
f 119/4/2 114/4/2 120/4/2
f 115/4/2 116/4/2 121/4/2
f 120/5/2 115/5/2 121/5/2
f 116/5/2 117/5/2 122/5/2
f 121/4/2 116/4/2 122/4/2
f 117/4/2 118/4/2 123/4/2
f 122/5/2 117/5/2 123/5/2
f 123/4/2 118/4/2 124/4/2
f 119/6/2 120/6/2 125/6/2
f 125/6/2 120/6/2 126/6/2
f 126/6/2 120/6/2 127/6/2
f 120/5/2 121/5/2 128/5/2
f 127/6/2 120/6/2 128/6/2
f 121/6/2 122/6/2 129/6/2
f 128/5/2 121/5/2 129/5/2
f 122/5/2 123/5/2 130/5/2
f 129/6/2 122/6/2 130/6/2
f 123/6/2 124/6/2 131/6/2
f 130/5/2 123/5/2 131/5/2
f 131/6/2 124/6/2 132/6/2
f 132/6/2 124/6/2 133/6/2
f 133/6/2 124/6/2 134/6/2
f 126/5/2 127/5/2 135/5/2
f 135/5/2 127/5/2 136/5/2
f 132/5/2 133/5/2 137/5/2
f 137/5/2 133/5/2 138/5/2
f 128/5/2 129/5/2 139/5/2
f 139/5/2 129/5/2 140/5/2
f 130/5/2 131/5/2 141/5/2
f 141/5/2 131/5/2 142/5/2
f 139/6/2 140/6/2 143/6/2
f 143/6/2 140/6/2 144/6/2
f 141/6/2 142/6/2 145/6/2
f 145/6/2 142/6/2 146/6/2
f 147/4/2 148/4/2 153/4/2
f 153/4/2 148/4/2 154/4/2
f 151/4/2 152/4/2 155/4/2
f 155/4/2 152/4/2 156/4/2
f 147/4/2 153/4/2 157/4/2
f 154/4/2 148/4/2 158/4/2
f 151/4/2 155/4/2 159/4/2
f 156/4/2 152/4/2 160/4/2
f 147/4/2 157/4/2 161/4/2
f 161/4/2 157/4/2 162/4/2
f 158/4/2 148/4/2 163/4/2
f 163/4/2 148/4/2 164/4/2
f 151/4/2 159/4/2 165/4/2
f 165/4/2 159/4/2 166/4/2
f 160/4/2 152/4/2 167/4/2
f 167/4/2 152/4/2 168/4/2
f 147/4/2 161/4/2 169/4/2
f 169/4/2 161/4/2 170/4/2
f 164/4/2 148/4/2 171/4/2
f 171/4/2 148/4/2 172/4/2
f 149/4/2 150/4/2 173/4/2
f 173/4/2 150/4/2 174/4/2
f 151/4/2 165/4/2 175/4/2
f 175/4/2 165/4/2 176/4/2
f 168/4/2 152/4/2 177/4/2
f 177/4/2 152/4/2 178/4/2
f 169/6/2 170/6/2 179/6/2
f 179/6/2 170/6/2 180/6/2
f 171/6/2 172/6/2 181/6/2
f 181/6/2 172/6/2 182/6/2
f 173/6/2 174/6/2 183/6/2
f 183/6/2 174/6/2 184/6/2
f 175/6/2 176/6/2 185/6/2
f 185/6/2 176/6/2 186/6/2
f 177/6/2 178/6/2 187/6/2
f 187/6/2 178/6/2 188/6/2
f 193/2/2 194/2/2 197/2/2
f 197/2/2 194/2/2 198/2/2
f 195/2/2 196/2/2 199/2/2
f 199/2/2 196/2/2 200/2/2
f 197/5/2 198/5/2 202/5/2
f 202/5/2 198/5/2 203/5/2
f 199/5/2 200/5/2 206/5/2
f 206/5/2 200/5/2 207/5/2
f 203/5/2 204/5/2 209/5/2
f 201/5/2 202/5/2 209/5/2
f 202/5/2 203/5/2 209/5/2
f 209/5/2 204/5/2 210/5/2
f 206/5/2 207/5/2 211/5/2
f 207/5/2 208/5/2 211/5/2
f 205/5/2 206/5/2 211/5/2
f 211/5/2 208/5/2 212/5/2
f 189/5/2 190/5/2 213/5/2
f 213/5/2 190/5/2 214/5/2
f 191/5/2 192/5/2 215/5/2
f 215/5/2 192/5/2 216/5/2
f 213/6/2 214/6/2 217/6/2
f 217/6/2 214/6/2 218/6/2
f 215/6/2 216/6/2 219/6/2
f 219/6/2 216/6/2 220/6/2
f 221/1/2 222/1/2 223/1/2
f 223/1/2 222/1/2 224/1/2
f 227/1/3 226/1/3 225/1/3
f 230/4/3 228/4/3 227/4/3
f 231/4/3 228/4/3 230/4/3
f 232/6/3 229/6/3 228/6/3
f 232/4/3 228/4/3 231/4/3
f 233/6/3 229/6/3 232/6/3
f 234/3/3 231/3/3 230/3/3
f 234/4/3 230/4/3 227/4/3
f 235/3/3 231/3/3 234/3/3
f 238/1/3 227/1/3 225/1/3
f 238/4/3 234/4/3 227/4/3
f 238/4/3 236/4/3 235/4/3
f 238/4/3 235/4/3 234/4/3
f 239/6/3 237/6/3 236/6/3
f 239/4/3 236/4/3 238/4/3
f 240/6/3 237/6/3 239/6/3
f 241/1/3 238/1/3 225/1/3
f 242/1/3 238/1/3 241/1/3
f 245/5/3 244/5/3 243/5/3
f 246/5/3 244/5/3 245/5/3
f 247/5/3 244/5/3 246/5/3
f 248/5/3 244/5/3 247/5/3
f 249/5/3 244/5/3 248/5/3
f 254/5/3 251/5/3 250/5/3
f 255/5/3 253/5/3 252/5/3
f 255/5/3 254/5/3 253/5/3
f 256/5/3 251/5/3 254/5/3
f 256/5/3 254/5/3 255/5/3
f 260/2/3 258/2/3 257/2/3
f 261/5/3 259/5/3 258/5/3
f 261/2/3 258/2/3 260/2/3
f 262/5/3 259/5/3 261/5/3
f 266/2/3 264/2/3 263/2/3
f 267/5/3 265/5/3 264/5/3
f 267/2/3 264/2/3 266/2/3
f 268/5/3 265/5/3 267/5/3
f 272/5/3 270/5/3 269/5/3
f 273/5/3 270/5/3 272/5/3
f 274/5/3 270/5/3 273/5/3
f 275/5/3 270/5/3 274/5/3
f 276/6/3 271/6/3 270/6/3
f 276/5/3 270/5/3 275/5/3
f 277/6/3 271/6/3 276/6/3
f 283/5/3 279/5/3 278/5/3
f 284/5/3 282/5/3 281/5/3
f 284/5/3 283/5/3 282/5/3
f 285/5/3 279/5/3 283/5/3
f 285/5/3 283/5/3 284/5/3
f 285/6/3 280/6/3 279/6/3
f 286/6/3 280/6/3 285/6/3
f 290/5/3 288/5/3 287/5/3
f 291/5/3 288/5/3 290/5/3
f 292/5/3 288/5/3 291/5/3
f 293/5/3 288/5/3 292/5/3
f 294/6/3 289/6/3 288/6/3
f 294/5/3 288/5/3 293/5/3
f 295/6/3 289/6/3 294/6/3
f 301/5/3 297/5/3 296/5/3
f 302/5/3 300/5/3 299/5/3
f 302/5/3 301/5/3 300/5/3
f 303/5/3 297/5/3 301/5/3
f 303/5/3 301/5/3 302/5/3
f 303/6/3 298/6/3 297/6/3
f 304/6/3 298/6/3 303/6/3
f 307/5/3 306/5/3 305/5/3
f 308/5/3 306/5/3 307/5/3
f 309/5/3 306/5/3 308/5/3
f 310/5/3 306/5/3 309/5/3
f 311/5/3 306/5/3 310/5/3
f 316/5/3 313/5/3 312/5/3
f 317/5/3 315/5/3 314/5/3
f 317/5/3 316/5/3 315/5/3
f 318/5/3 313/5/3 316/5/3
f 318/5/3 316/5/3 317/5/3
f 322/2/3 320/2/3 319/2/3
f 323/5/3 321/5/3 320/5/3
f 323/2/3 320/2/3 322/2/3
f 324/5/3 321/5/3 323/5/3
f 328/2/3 326/2/3 325/2/3
f 329/5/3 327/5/3 326/5/3
f 329/2/3 326/2/3 328/2/3
f 330/5/3 327/5/3 329/5/3
f 331/2/4 332/2/4 334/2/4
f 332/5/4 333/5/4 335/5/4
f 334/2/4 332/2/4 335/2/4
f 335/5/4 333/5/4 336/5/4
f 337/2/4 338/2/4 340/2/4
f 338/5/4 339/5/4 341/5/4
f 340/2/4 338/2/4 341/2/4
f 341/5/4 339/5/4 342/5/4
f 343/5/4 344/5/4 345/5/4
f 345/5/4 344/5/4 346/5/4
f 346/5/4 344/5/4 347/5/4
f 347/5/4 344/5/4 348/5/4
f 348/5/4 344/5/4 349/5/4
f 350/5/4 351/5/4 354/5/4
f 352/5/4 353/5/4 355/5/4
f 353/5/4 354/5/4 355/5/4
f 354/5/4 351/5/4 356/5/4
f 355/5/4 354/5/4 356/5/4
f 357/5/4 358/5/4 360/5/4
f 360/5/4 358/5/4 361/5/4
f 361/5/4 358/5/4 362/5/4
f 362/5/4 358/5/4 363/5/4
f 358/6/4 359/6/4 364/6/4
f 363/5/4 358/5/4 364/5/4
f 364/6/4 359/6/4 365/6/4
f 366/5/4 367/5/4 371/5/4
f 369/5/4 370/5/4 372/5/4
f 370/5/4 371/5/4 372/5/4
f 371/5/4 367/5/4 373/5/4
f 372/5/4 371/5/4 373/5/4
f 367/6/4 368/6/4 373/6/4
f 373/6/4 368/6/4 374/6/4
f 375/5/4 376/5/4 378/5/4
f 378/5/4 376/5/4 379/5/4
f 379/5/4 376/5/4 380/5/4
f 380/5/4 376/5/4 381/5/4
f 376/6/4 377/6/4 382/6/4
f 381/5/4 376/5/4 382/5/4
f 382/6/4 377/6/4 383/6/4
f 384/5/4 385/5/4 389/5/4
f 387/5/4 388/5/4 390/5/4
f 388/5/4 389/5/4 390/5/4
f 389/5/4 385/5/4 391/5/4
f 390/5/4 389/5/4 391/5/4
f 385/6/4 386/6/4 391/6/4
f 391/6/4 386/6/4 392/6/4
f 393/2/4 394/2/4 396/2/4
f 394/5/4 395/5/4 397/5/4
f 396/2/4 394/2/4 397/2/4
f 397/5/4 395/5/4 398/5/4
f 399/2/4 400/2/4 402/2/4
f 400/5/4 401/5/4 403/5/4
f 402/2/4 400/2/4 403/2/4
f 403/5/4 401/5/4 404/5/4
f 405/5/4 406/5/4 407/5/4
f 407/5/4 406/5/4 408/5/4
f 408/5/4 406/5/4 409/5/4
f 409/5/4 406/5/4 410/5/4
f 410/5/4 406/5/4 411/5/4
f 412/5/4 413/5/4 416/5/4
f 414/5/4 415/5/4 417/5/4
f 415/5/4 416/5/4 417/5/4
f 416/5/4 413/5/4 418/5/4
f 417/5/4 416/5/4 418/5/4
f 419/1/4 420/1/4 421/1/4
f 421/4/4 422/4/4 424/4/4
f 424/4/4 422/4/4 425/4/4
f 422/6/4 423/6/4 426/6/4
f 425/4/4 422/4/4 426/4/4
f 426/6/4 423/6/4 427/6/4
f 424/3/4 425/3/4 428/3/4
f 421/4/4 424/4/4 428/4/4
f 428/3/4 425/3/4 429/3/4
f 419/1/4 421/1/4 432/1/4
f 421/4/4 428/4/4 432/4/4
f 429/4/4 430/4/4 432/4/4
f 428/4/4 429/4/4 432/4/4
f 430/6/4 431/6/4 433/6/4
f 432/4/4 430/4/4 433/4/4
f 433/6/4 431/6/4 434/6/4
f 419/1/4 432/1/4 435/1/4
f 435/1/4 432/1/4 436/1/4
f 439/1/5 438/1/5 437/1/5
f 440/1/5 438/1/5 439/1/5
f 445/2/5 442/2/5 441/2/5
f 446/2/5 442/2/5 445/2/5
f 447/2/5 444/2/5 443/2/5
f 448/2/5 444/2/5 447/2/5
f 453/2/5 450/2/5 449/2/5
f 454/2/5 450/2/5 453/2/5
f 455/2/5 452/2/5 451/2/5
f 456/2/5 452/2/5 455/2/5
f 461/5/5 458/5/5 457/5/5
f 462/5/5 458/5/5 461/5/5
f 463/5/5 460/5/5 459/5/5
f 464/5/5 460/5/5 463/5/5
f 469/5/5 466/5/5 465/5/5
f 470/5/5 466/5/5 469/5/5
f 471/5/5 468/5/5 467/5/5
f 472/5/5 468/5/5 471/5/5
f 477/5/5 474/5/5 473/5/5
f 478/5/5 474/5/5 477/5/5
f 479/5/5 476/5/5 475/5/5
f 480/5/5 476/5/5 479/5/5
f 485/5/5 482/5/5 481/5/5
f 486/5/5 482/5/5 485/5/5
f 487/5/5 484/5/5 483/5/5
f 488/5/5 484/5/5 487/5/5
f 489/1/6 490/1/6 493/1/6
f 493/1/6 490/1/6 494/1/6
f 491/1/6 492/1/6 495/1/6
f 495/1/6 492/1/6 496/1/6
f 489/1/6 493/1/6 497/1/6
f 496/1/6 492/1/6 500/1/6
f 497/1/6 498/1/6 501/1/6
f 489/1/6 497/1/6 501/1/6
f 501/1/6 498/1/6 502/1/6
f 499/1/6 500/1/6 503/1/6
f 500/1/6 492/1/6 504/1/6
f 503/1/6 500/1/6 504/1/6
f 489/1/6 501/1/6 505/1/6
f 504/1/6 492/1/6 508/1/6
f 505/1/6 506/1/6 509/1/6
f 489/1/6 505/1/6 509/1/6
f 509/1/6 506/1/6 510/1/6
f 507/1/6 508/1/6 511/1/6
f 508/1/6 492/1/6 512/1/6
f 511/1/6 508/1/6 512/1/6
f 513/3/6 514/3/6 515/3/6
f 515/3/6 514/3/6 516/3/6
f 515/3/6 516/3/6 517/3/6
f 517/3/6 516/3/6 518/3/6
f 517/3/6 518/3/6 519/3/6
f 519/3/6 518/3/6 520/3/6
f 519/3/6 520/3/6 521/3/6
f 521/3/6 520/3/6 522/3/6
f 521/3/6 522/3/6 523/3/6
f 523/3/6 522/3/6 524/3/6
f 525/6/6 526/6/6 529/6/6
f 529/6/6 526/6/6 530/6/6
f 527/6/6 528/6/6 531/6/6
f 531/6/6 528/6/6 532/6/6
f 533/6/6 534/6/6 537/6/6
f 537/6/6 534/6/6 538/6/6
f 535/6/6 536/6/6 539/6/6
f 539/6/6 536/6/6 540/6/6
f 541/6/6 542/6/6 545/6/6
f 545/6/6 542/6/6 546/6/6
f 543/6/6 544/6/6 547/6/6
f 547/6/6 544/6/6 548/6/6
f 549/6/6 550/6/6 553/6/6
f 553/6/6 550/6/6 554/6/6
f 551/6/6 552/6/6 555/6/6
f 555/6/6 552/6/6 556/6/6
f 557/6/6 558/6/6 561/6/6
f 561/6/6 558/6/6 562/6/6
f 559/6/6 560/6/6 563/6/6
f 563/6/6 560/6/6 564/6/6
f 565/5/6 566/5/6 569/5/6
f 569/5/6 566/5/6 570/5/6
f 567/5/6 568/5/6 571/5/6
f 571/5/6 568/5/6 572/5/6
f 573/5/6 574/5/6 577/5/6
f 577/5/6 574/5/6 578/5/6
f 575/5/6 576/5/6 579/5/6
f 579/5/6 576/5/6 580/5/6
f 581/6/6 582/6/6 585/6/6
f 585/6/6 582/6/6 586/6/6
f 583/6/6 584/6/6 587/6/6
f 587/6/6 584/6/6 588/6/6
f 589/6/6 590/6/6 593/6/6
f 593/6/6 590/6/6 594/6/6
f 591/6/6 592/6/6 595/6/6
f 595/6/6 592/6/6 596/6/6
