# MagicaVoxel @ Ephtracy

# group
o 

# material
mtllib towers-204.mtl
usemtl palette

# normals
vn -1 0 0
vn 1 0 0
vn 0 0 1
vn 0 0 -1
vn 0 -1 0
vn 0 1 0

# texcoords
vt 0.263672 0.5
vt 0.541016 0.5
vt 0.544922 0.5
vt 0.583984 0.5

# verts
v -25.5 0 19.3
v -25.5 0 15.3
v -25.5 0.1 19.3
v -25.5 0.1 15.3
v -25 0.1 17.1
v -25 0.1 16.8
v -25 0.2 16.9
v -25 0.2 16.8
v -25 0.3 17.1
v -25 0.3 16.9
v -25 0.7 17
v -25 0.7 16.7
v -25 1.8 17
v -25 1.8 16.7
v -24.9 0.2 16.9
v -24.9 0.2 16.8
v -24.9 0.3 16.9
v -24.9 0.7 16.9
v -24.9 0.7 16.8
v -24.8 0.7 18.5
v -24.8 0.7 18.2
v -24.8 1.6 18.5
v -24.8 1.6 18.2
v -24.7 0.1 18.4
v -24.7 0.1 18.3
v -24.7 0.1 17.7
v -24.7 0.1 17.4
v -24.7 0.2 17.7
v -24.7 0.2 17.6
v -24.7 0.2 17.5
v -24.7 0.2 17.4
v -24.7 0.3 17.6
v -24.7 0.3 17.5
v -24.7 0.7 18.4
v -24.7 0.7 18.3
v -24.7 0.7 17.7
v -24.7 0.7 17.4
v -24.7 1.4 17.7
v -24.7 1.4 17.4
v -24.6 0.3 17.6
v -24.6 0.3 17.5
v -24.6 0.7 17.6
v -24.6 0.7 17.5
v -24.1 0.7 18.2
v -24.1 0.7 17.9
v -24.1 1.7 18.2
v -24.1 1.7 17.9
v -24 0.1 18.1
v -24 0.1 18
v -24 0.1 16.8
v -24 0.1 16.6
v -24 0.2 16.8
v -24 0.2 16.6
v -24 0.7 18.1
v -24 0.7 18
v -23.9 0.2 16.8
v -23.9 0.2 16.6
v -23.9 0.3 16.8
v -23.9 0.3 16.6
v -24.8 0.1 17.1
v -24.8 0.1 16.9
v -24.8 0.1 16.8
v -24.8 0.3 17.1
v -24.8 0.3 16.9
v -24.8 0.7 16.9
v -24.8 0.7 16.8
v -24.7 0.7 17
v -24.7 0.7 16.7
v -24.7 1.8 17
v -24.7 1.8 16.7
v -24.6 0.1 18.4
v -24.6 0.1 18.3
v -24.6 0.7 18.4
v -24.6 0.7 18.3
v -24.5 0.1 17.7
v -24.5 0.1 17.6
v -24.5 0.1 17.5
v -24.5 0.1 17.4
v -24.5 0.2 17.7
v -24.5 0.2 17.6
v -24.5 0.2 17.5
v -24.5 0.2 17.4
v -24.5 0.7 18.5
v -24.5 0.7 18.2
v -24.5 0.7 17.6
v -24.5 0.7 17.5
v -24.5 1.6 18.5
v -24.5 1.6 18.2
v -24.4 0.7 17.7
v -24.4 0.7 17.4
v -24.4 1.4 17.7
v -24.4 1.4 17.4
v -23.9 0.1 18.1
v -23.9 0.1 18
v -23.9 0.7 18.1
v -23.9 0.7 18
v -23.8 0.7 18.2
v -23.8 0.7 17.9
v -23.8 1.7 18.2
v -23.8 1.7 17.9
v -23.7 0.1 16.8
v -23.7 0.1 16.6
v -23.7 0.3 16.8
v -23.7 0.3 16.6
v -21.5 0 19.3
v -21.5 0 15.3
v -21.5 0.1 19.3
v -21.5 0.1 15.3
v -25.5 0 19.3
v -25.5 0.1 19.3
v -21.5 0 19.3
v -21.5 0.1 19.3
v -24.8 0.7 18.5
v -24.8 1.6 18.5
v -24.5 0.7 18.5
v -24.5 1.6 18.5
v -24.7 0.1 18.4
v -24.7 0.7 18.4
v -24.6 0.1 18.4
v -24.6 0.7 18.4
v -24.1 0.7 18.2
v -24.1 1.7 18.2
v -23.8 0.7 18.2
v -23.8 1.7 18.2
v -24 0.1 18.1
v -24 0.7 18.1
v -23.9 0.1 18.1
v -23.9 0.7 18.1
v -24.7 0.1 17.7
v -24.7 0.2 17.7
v -24.7 0.7 17.7
v -24.7 1.4 17.7
v -24.5 0.1 17.7
v -24.5 0.2 17.7
v -24.4 0.7 17.7
v -24.4 1.4 17.7
v -24.7 0.2 17.6
v -24.7 0.3 17.6
v -24.6 0.2 17.6
v -24.6 0.3 17.6
v -24.6 0.7 17.6
v -24.5 0.2 17.6
v -24.5 0.7 17.6
v -25 0.1 17.1
v -25 0.3 17.1
v -24.8 0.1 17.1
v -24.8 0.3 17.1
v -25 0.7 17
v -25 1.8 17
v -24.7 0.7 17
v -24.7 1.8 17
v -24.9 0.3 16.9
v -24.9 0.7 16.9
v -24.8 0.3 16.9
v -24.8 0.7 16.9
v -24 0.1 16.8
v -24 0.2 16.8
v -23.9 0.2 16.8
v -23.9 0.3 16.8
v -23.7 0.1 16.8
v -23.7 0.3 16.8
v -24.7 0.1 18.3
v -24.7 0.7 18.3
v -24.6 0.1 18.3
v -24.6 0.7 18.3
v -24.8 0.7 18.2
v -24.8 1.6 18.2
v -24.5 0.7 18.2
v -24.5 1.6 18.2
v -24 0.1 18
v -24 0.7 18
v -23.9 0.1 18
v -23.9 0.7 18
v -24.1 0.7 17.9
v -24.1 1.7 17.9
v -23.8 0.7 17.9
v -23.8 1.7 17.9
v -24.7 0.2 17.5
v -24.7 0.3 17.5
v -24.6 0.2 17.5
v -24.6 0.3 17.5
v -24.6 0.7 17.5
v -24.5 0.2 17.5
v -24.5 0.7 17.5
v -24.7 0.1 17.4
v -24.7 0.2 17.4
v -24.7 0.7 17.4
v -24.7 1.4 17.4
v -24.5 0.1 17.4
v -24.5 0.2 17.4
v -24.4 0.7 17.4
v -24.4 1.4 17.4
v -25 0.2 16.9
v -25 0.3 16.9
v -24.9 0.2 16.9
v -24.9 0.3 16.9
v -25 0.1 16.8
v -25 0.2 16.8
v -24.9 0.1 16.8
v -24.9 0.2 16.8
v -24.9 0.7 16.8
v -24.8 0.1 16.8
v -24.8 0.7 16.8
v -25 0.7 16.7
v -25 1.8 16.7
v -24.7 0.7 16.7
v -24.7 1.8 16.7
v -24 0.1 16.6
v -24 0.2 16.6
v -23.9 0.2 16.6
v -23.9 0.3 16.6
v -23.7 0.1 16.6
v -23.7 0.3 16.6
v -25.5 0 15.3
v -25.5 0.1 15.3
v -21.5 0 15.3
v -21.5 0.1 15.3
v -25.5 0 19.3
v -21.5 0 19.3
v -25.5 0 15.3
v -21.5 0 15.3
v -24.8 0.7 18.5
v -24.5 0.7 18.5
v -24.7 0.7 18.4
v -24.6 0.7 18.4
v -24.7 0.7 18.3
v -24.6 0.7 18.3
v -24.8 0.7 18.2
v -24.5 0.7 18.2
v -24.1 0.7 18.2
v -23.8 0.7 18.2
v -24 0.7 18.1
v -23.9 0.7 18.1
v -24 0.7 18
v -23.9 0.7 18
v -24.1 0.7 17.9
v -23.8 0.7 17.9
v -24.7 0.7 17.7
v -24.4 0.7 17.7
v -24.6 0.7 17.6
v -24.5 0.7 17.6
v -24.6 0.7 17.5
v -24.5 0.7 17.5
v -24.7 0.7 17.4
v -24.4 0.7 17.4
v -25 0.7 17
v -24.7 0.7 17
v -24.9 0.7 16.9
v -24.8 0.7 16.9
v -24.9 0.7 16.8
v -24.8 0.7 16.8
v -25 0.7 16.7
v -24.7 0.7 16.7
v -25.5 0.1 19.3
v -21.5 0.1 19.3
v -24.7 0.1 18.4
v -24.6 0.1 18.4
v -24.7 0.1 18.3
v -24.6 0.1 18.3
v -24 0.1 18.1
v -23.9 0.1 18.1
v -24 0.1 18
v -23.9 0.1 18
v -24.7 0.1 17.7
v -24.5 0.1 17.7
v -24.5 0.1 17.6
v -24.5 0.1 17.5
v -24.7 0.1 17.4
v -24.5 0.1 17.4
v -25 0.1 17.1
v -24.8 0.1 17.1
v -24.8 0.1 16.9
v -25 0.1 16.8
v -24.9 0.1 16.8
v -24.8 0.1 16.8
v -24 0.1 16.8
v -23.7 0.1 16.8
v -24 0.1 16.6
v -23.7 0.1 16.6
v -25.5 0.1 15.3
v -21.5 0.1 15.3
v -24.7 0.2 17.7
v -24.5 0.2 17.7
v -24.7 0.2 17.6
v -24.6 0.2 17.6
v -24.5 0.2 17.6
v -24.7 0.2 17.5
v -24.6 0.2 17.5
v -24.5 0.2 17.5
v -24.7 0.2 17.4
v -24.5 0.2 17.4
v -25 0.2 16.9
v -24.9 0.2 16.9
v -25 0.2 16.8
v -24.9 0.2 16.8
v -24 0.2 16.8
v -23.9 0.2 16.8
v -24 0.2 16.6
v -23.9 0.2 16.6
v -24.7 0.3 17.6
v -24.6 0.3 17.6
v -24.7 0.3 17.5
v -24.6 0.3 17.5
v -25 0.3 17.1
v -24.8 0.3 17.1
v -25 0.3 16.9
v -24.9 0.3 16.9
v -24.8 0.3 16.9
v -23.9 0.3 16.8
v -23.7 0.3 16.8
v -23.9 0.3 16.6
v -23.7 0.3 16.6
v -24.7 1.4 17.7
v -24.4 1.4 17.7
v -24.7 1.4 17.4
v -24.4 1.4 17.4
v -24.8 1.6 18.5
v -24.5 1.6 18.5
v -24.8 1.6 18.2
v -24.5 1.6 18.2
v -24.1 1.7 18.2
v -23.8 1.7 18.2
v -24.1 1.7 17.9
v -23.8 1.7 17.9
v -25 1.8 17
v -24.7 1.8 17
v -25 1.8 16.7
v -24.7 1.8 16.7

# faces
f 3/2/1 2/2/1 1/2/1
f 4/2/1 2/2/1 3/2/1
f 7/3/1 6/3/1 5/3/1
f 8/3/1 6/3/1 7/3/1
f 9/3/1 7/3/1 5/3/1
f 10/3/1 7/3/1 9/3/1
f 13/4/1 12/4/1 11/4/1
f 14/4/1 12/4/1 13/4/1
f 17/1/1 16/1/1 15/1/1
f 18/1/1 16/1/1 17/1/1
f 19/1/1 16/1/1 18/1/1
f 22/4/1 21/4/1 20/4/1
f 23/4/1 21/4/1 22/4/1
f 28/3/1 27/3/1 26/3/1
f 29/3/1 27/3/1 28/3/1
f 30/3/1 27/3/1 29/3/1
f 31/3/1 27/3/1 30/3/1
f 32/3/1 30/3/1 29/3/1
f 33/3/1 30/3/1 32/3/1
f 34/1/1 25/1/1 24/1/1
f 35/1/1 25/1/1 34/1/1
f 38/4/1 37/4/1 36/4/1
f 39/4/1 37/4/1 38/4/1
f 42/1/1 41/1/1 40/1/1
f 43/1/1 41/1/1 42/1/1
f 46/4/1 45/4/1 44/4/1
f 47/4/1 45/4/1 46/4/1
f 52/3/1 51/3/1 50/3/1
f 53/3/1 51/3/1 52/3/1
f 54/1/1 49/1/1 48/1/1
f 55/1/1 49/1/1 54/1/1
f 58/3/1 57/3/1 56/3/1
f 59/3/1 57/3/1 58/3/1
f 60/3/2 61/3/2 63/3/2
f 61/1/2 62/1/2 64/1/2
f 63/3/2 61/3/2 64/3/2
f 64/1/2 62/1/2 65/1/2
f 65/1/2 62/1/2 66/1/2
f 67/4/2 68/4/2 69/4/2
f 69/4/2 68/4/2 70/4/2
f 71/1/2 72/1/2 73/1/2
f 73/1/2 72/1/2 74/1/2
f 75/3/2 76/3/2 79/3/2
f 76/1/2 77/1/2 80/1/2
f 79/3/2 76/3/2 80/3/2
f 77/3/2 78/3/2 81/3/2
f 80/1/2 77/1/2 81/1/2
f 81/3/2 78/3/2 82/3/2
f 80/1/2 81/1/2 85/1/2
f 85/1/2 81/1/2 86/1/2
f 83/4/2 84/4/2 87/4/2
f 87/4/2 84/4/2 88/4/2
f 89/4/2 90/4/2 91/4/2
f 91/4/2 90/4/2 92/4/2
f 93/1/2 94/1/2 95/1/2
f 95/1/2 94/1/2 96/1/2
f 97/4/2 98/4/2 99/4/2
f 99/4/2 98/4/2 100/4/2
f 101/3/2 102/3/2 103/3/2
f 103/3/2 102/3/2 104/3/2
f 105/2/2 106/2/2 107/2/2
f 107/2/2 106/2/2 108/2/2
f 111/2/3 110/2/3 109/2/3
f 112/2/3 110/2/3 111/2/3
f 115/4/3 114/4/3 113/4/3
f 116/4/3 114/4/3 115/4/3
f 119/1/3 118/1/3 117/1/3
f 120/1/3 118/1/3 119/1/3
f 123/4/3 122/4/3 121/4/3
f 124/4/3 122/4/3 123/4/3
f 127/1/3 126/1/3 125/1/3
f 128/1/3 126/1/3 127/1/3
f 133/3/3 130/3/3 129/3/3
f 134/3/3 130/3/3 133/3/3
f 135/4/3 132/4/3 131/4/3
f 136/4/3 132/4/3 135/4/3
f 139/3/3 138/3/3 137/3/3
f 140/3/3 138/3/3 139/3/3
f 142/1/3 140/1/3 139/1/3
f 142/1/3 141/1/3 140/1/3
f 143/1/3 141/1/3 142/1/3
f 146/3/3 145/3/3 144/3/3
f 147/3/3 145/3/3 146/3/3
f 150/4/3 149/4/3 148/4/3
f 151/4/3 149/4/3 150/4/3
f 154/1/3 153/1/3 152/1/3
f 155/1/3 153/1/3 154/1/3
f 158/3/3 157/3/3 156/3/3
f 160/3/3 158/3/3 156/3/3
f 160/3/3 159/3/3 158/3/3
f 161/3/3 159/3/3 160/3/3
f 162/1/4 163/1/4 164/1/4
f 164/1/4 163/1/4 165/1/4
f 166/4/4 167/4/4 168/4/4
f 168/4/4 167/4/4 169/4/4
f 170/1/4 171/1/4 172/1/4
f 172/1/4 171/1/4 173/1/4
f 174/4/4 175/4/4 176/4/4
f 176/4/4 175/4/4 177/4/4
f 178/3/4 179/3/4 180/3/4
f 180/3/4 179/3/4 181/3/4
f 180/1/4 181/1/4 183/1/4
f 181/1/4 182/1/4 183/1/4
f 183/1/4 182/1/4 184/1/4
f 185/3/4 186/3/4 189/3/4
f 189/3/4 186/3/4 190/3/4
f 187/4/4 188/4/4 191/4/4
f 191/4/4 188/4/4 192/4/4
f 193/3/4 194/3/4 195/3/4
f 195/3/4 194/3/4 196/3/4
f 197/3/4 198/3/4 199/3/4
f 199/3/4 198/3/4 200/3/4
f 199/1/4 200/1/4 202/1/4
f 200/1/4 201/1/4 202/1/4
f 202/1/4 201/1/4 203/1/4
f 204/4/4 205/4/4 206/4/4
f 206/4/4 205/4/4 207/4/4
f 208/3/4 209/3/4 210/3/4
f 208/3/4 210/3/4 212/3/4
f 210/3/4 211/3/4 212/3/4
f 212/3/4 211/3/4 213/3/4
f 214/2/4 215/2/4 216/2/4
f 216/2/4 215/2/4 217/2/4
f 220/2/5 219/2/5 218/2/5
f 221/2/5 219/2/5 220/2/5
f 224/4/5 223/4/5 222/4/5
f 225/4/5 223/4/5 224/4/5
f 226/4/5 224/4/5 222/4/5
f 227/4/5 223/4/5 225/4/5
f 228/4/5 226/4/5 222/4/5
f 228/4/5 227/4/5 226/4/5
f 229/4/5 223/4/5 227/4/5
f 229/4/5 227/4/5 228/4/5
f 232/4/5 231/4/5 230/4/5
f 233/4/5 231/4/5 232/4/5
f 234/4/5 232/4/5 230/4/5
f 235/4/5 231/4/5 233/4/5
f 236/4/5 234/4/5 230/4/5
f 236/4/5 235/4/5 234/4/5
f 237/4/5 231/4/5 235/4/5
f 237/4/5 235/4/5 236/4/5
f 240/4/5 239/4/5 238/4/5
f 241/4/5 239/4/5 240/4/5
f 242/4/5 240/4/5 238/4/5
f 243/4/5 239/4/5 241/4/5
f 244/4/5 242/4/5 238/4/5
f 244/4/5 243/4/5 242/4/5
f 245/4/5 239/4/5 243/4/5
f 245/4/5 243/4/5 244/4/5
f 248/4/5 247/4/5 246/4/5
f 249/4/5 247/4/5 248/4/5
f 250/4/5 248/4/5 246/4/5
f 251/4/5 247/4/5 249/4/5
f 252/4/5 250/4/5 246/4/5
f 252/4/5 251/4/5 250/4/5
f 253/4/5 247/4/5 251/4/5
f 253/4/5 251/4/5 252/4/5
f 254/2/6 255/2/6 256/2/6
f 256/2/6 255/2/6 257/2/6
f 254/2/6 256/2/6 258/2/6
f 257/2/6 255/2/6 259/2/6
f 259/2/6 255/2/6 260/2/6
f 258/2/6 259/2/6 260/2/6
f 260/2/6 255/2/6 261/2/6
f 258/2/6 260/2/6 262/2/6
f 261/2/6 255/2/6 263/2/6
f 254/2/6 258/2/6 264/2/6
f 262/2/6 263/2/6 264/2/6
f 258/2/6 262/2/6 264/2/6
f 264/2/6 263/2/6 265/2/6
f 265/2/6 263/2/6 266/2/6
f 266/2/6 263/2/6 267/2/6
f 254/2/6 264/2/6 268/2/6
f 267/2/6 263/2/6 269/2/6
f 254/2/6 268/2/6 270/2/6
f 268/2/6 269/2/6 270/2/6
f 270/2/6 269/2/6 271/2/6
f 271/2/6 269/2/6 272/2/6
f 254/2/6 270/2/6 273/2/6
f 272/2/6 269/2/6 275/2/6
f 269/2/6 263/2/6 276/2/6
f 275/2/6 269/2/6 276/2/6
f 263/2/6 255/2/6 277/2/6
f 276/2/6 263/2/6 277/2/6
f 275/2/6 276/2/6 278/2/6
f 274/2/6 275/2/6 278/2/6
f 273/2/6 274/2/6 278/2/6
f 277/2/6 255/2/6 279/2/6
f 273/2/6 278/2/6 280/2/6
f 278/2/6 279/2/6 280/2/6
f 254/2/6 273/2/6 280/2/6
f 279/2/6 255/2/6 281/2/6
f 280/2/6 279/2/6 281/2/6
f 282/3/6 283/3/6 284/3/6
f 284/3/6 283/3/6 285/3/6
f 285/3/6 283/3/6 286/3/6
f 287/3/6 288/3/6 290/3/6
f 288/3/6 289/3/6 290/3/6
f 290/3/6 289/3/6 291/3/6
f 292/3/6 293/3/6 294/3/6
f 294/3/6 293/3/6 295/3/6
f 296/3/6 297/3/6 298/3/6
f 298/3/6 297/3/6 299/3/6
f 300/3/6 301/3/6 302/3/6
f 302/3/6 301/3/6 303/3/6
f 304/3/6 305/3/6 306/3/6
f 306/3/6 305/3/6 307/3/6
f 307/3/6 305/3/6 308/3/6
f 309/3/6 310/3/6 311/3/6
f 311/3/6 310/3/6 312/3/6
f 313/4/6 314/4/6 315/4/6
f 315/4/6 314/4/6 316/4/6
f 317/4/6 318/4/6 319/4/6
f 319/4/6 318/4/6 320/4/6
f 321/4/6 322/4/6 323/4/6
f 323/4/6 322/4/6 324/4/6
f 325/4/6 326/4/6 327/4/6
f 327/4/6 326/4/6 328/4/6
