# MagicaVoxel @ Ephtracy

# group
o 

# material
mtllib towers-202.mtl
usemtl palette

# normals
vn -1 0 0
vn 1 0 0
vn 0 0 1
vn 0 0 -1
vn 0 -1 0
vn 0 1 0

# texcoords
vt 0.263672 0.5
vt 0.541016 0.5
vt 0.544922 0.5
vt 0.583984 0.5

# verts
v -25.5 0 19.3
v -25.5 0 15.3
v -25.5 0.1 19.3
v -25.5 0.1 15.3
v -24.2 0.1 17.8
v -24.2 0.1 17.5
v -24.2 0.2 17.8
v -24.2 0.2 17.7
v -24.2 0.3 17.7
v -24.2 0.3 17.5
v -24.1 0.7 18.8
v -24.1 0.7 18.5
v -24.1 1.8 18.8
v -24.1 1.8 18.5
v -24 0.1 18.8
v -24 0.1 18.7
v -24 0.1 18.6
v -24 0.2 18.8
v -24 0.2 18.7
v -24 0.7 18.7
v -24 0.7 18.6
v -23.9 0.2 18.8
v -23.9 0.2 18.7
v -23.9 0.3 18.8
v -23.9 0.3 18.7
v -23.4 0.1 18.5
v -23.4 0.1 18.3
v -23.4 0.2 18.5
v -23.4 0.2 18.3
v -23.4 0.7 18.5
v -23.4 0.7 18.2
v -23.4 1.4 18.5
v -23.4 1.4 18.2
v -23.3 0.2 18.5
v -23.3 0.2 18.4
v -23.3 0.2 18.3
v -23.3 0.3 18.5
v -23.3 0.3 18.4
v -23.3 0.7 18.4
v -23.3 0.7 18.3
v -22.9 0.7 17.9
v -22.9 0.7 17.6
v -22.9 1.7 17.9
v -22.9 1.7 17.6
v -22.8 0.1 17.8
v -22.8 0.1 17.7
v -22.8 0.7 17.8
v -22.8 0.7 17.7
v -22.6 0.7 18.6
v -22.6 0.7 18.3
v -22.6 1.6 18.6
v -22.6 1.6 18.3
v -22.5 0.1 18.5
v -22.5 0.1 18.4
v -22.5 0.7 18.5
v -22.5 0.7 18.4
v -24 0.1 17.8
v -24 0.1 17.5
v -24 0.2 17.8
v -24 0.2 17.7
v -24 0.3 17.7
v -24 0.3 17.5
v -23.9 0.3 18.7
v -23.9 0.3 18.6
v -23.9 0.7 18.7
v -23.9 0.7 18.6
v -23.8 0.7 18.8
v -23.8 0.7 18.5
v -23.8 1.8 18.8
v -23.8 1.8 18.5
v -23.7 0.1 18.8
v -23.7 0.1 18.6
v -23.7 0.3 18.8
v -23.7 0.3 18.6
v -23.2 0.2 18.5
v -23.2 0.2 18.4
v -23.2 0.2 18.3
v -23.2 0.3 18.5
v -23.2 0.3 18.4
v -23.2 0.7 18.4
v -23.2 0.7 18.3
v -23.1 0.1 18.5
v -23.1 0.1 18.3
v -23.1 0.2 18.5
v -23.1 0.2 18.3
v -23.1 0.7 18.5
v -23.1 0.7 18.2
v -23.1 1.4 18.5
v -23.1 1.4 18.2
v -22.7 0.1 17.8
v -22.7 0.1 17.7
v -22.7 0.7 17.8
v -22.7 0.7 17.7
v -22.6 0.7 17.9
v -22.6 0.7 17.6
v -22.6 1.7 17.9
v -22.6 1.7 17.6
v -22.4 0.1 18.5
v -22.4 0.1 18.4
v -22.4 0.7 18.5
v -22.4 0.7 18.4
v -22.3 0.7 18.6
v -22.3 0.7 18.3
v -22.3 1.6 18.6
v -22.3 1.6 18.3
v -21.5 0 19.3
v -21.5 0 15.3
v -21.5 0.1 19.3
v -21.5 0.1 15.3
v -25.5 0 19.3
v -25.5 0.1 19.3
v -21.5 0 19.3
v -21.5 0.1 19.3
v -24.1 0.7 18.8
v -24.1 1.8 18.8
v -24 0.1 18.8
v -24 0.2 18.8
v -23.9 0.2 18.8
v -23.9 0.3 18.8
v -23.8 0.7 18.8
v -23.8 1.8 18.8
v -23.7 0.1 18.8
v -23.7 0.3 18.8
v -24 0.2 18.7
v -24 0.7 18.7
v -23.9 0.2 18.7
v -23.9 0.3 18.7
v -23.9 0.7 18.7
v -22.6 0.7 18.6
v -22.6 1.6 18.6
v -22.3 0.7 18.6
v -22.3 1.6 18.6
v -23.4 0.1 18.5
v -23.4 0.2 18.5
v -23.4 0.7 18.5
v -23.4 1.4 18.5
v -23.3 0.2 18.5
v -23.3 0.3 18.5
v -23.2 0.2 18.5
v -23.2 0.3 18.5
v -23.1 0.1 18.5
v -23.1 0.2 18.5
v -23.1 0.7 18.5
v -23.1 1.4 18.5
v -22.5 0.1 18.5
v -22.5 0.7 18.5
v -22.4 0.1 18.5
v -22.4 0.7 18.5
v -23.3 0.3 18.4
v -23.3 0.7 18.4
v -23.2 0.3 18.4
v -23.2 0.7 18.4
v -22.9 0.7 17.9
v -22.9 1.7 17.9
v -22.6 0.7 17.9
v -22.6 1.7 17.9
v -24.2 0.1 17.8
v -24.2 0.2 17.8
v -24 0.1 17.8
v -24 0.2 17.8
v -22.8 0.1 17.8
v -22.8 0.7 17.8
v -22.7 0.1 17.8
v -22.7 0.7 17.8
v -24.2 0.2 17.7
v -24.2 0.3 17.7
v -24 0.2 17.7
v -24 0.3 17.7
v -24 0.1 18.6
v -24 0.7 18.6
v -23.9 0.1 18.6
v -23.9 0.3 18.6
v -23.9 0.7 18.6
v -23.7 0.1 18.6
v -23.7 0.3 18.6
v -24.1 0.7 18.5
v -24.1 1.8 18.5
v -23.8 0.7 18.5
v -23.8 1.8 18.5
v -22.5 0.1 18.4
v -22.5 0.7 18.4
v -22.4 0.1 18.4
v -22.4 0.7 18.4
v -23.4 0.1 18.3
v -23.4 0.2 18.3
v -23.3 0.1 18.3
v -23.3 0.2 18.3
v -23.3 0.7 18.3
v -23.2 0.1 18.3
v -23.2 0.2 18.3
v -23.2 0.7 18.3
v -23.1 0.1 18.3
v -23.1 0.2 18.3
v -22.6 0.7 18.3
v -22.6 1.6 18.3
v -22.3 0.7 18.3
v -22.3 1.6 18.3
v -23.4 0.7 18.2
v -23.4 1.4 18.2
v -23.1 0.7 18.2
v -23.1 1.4 18.2
v -22.8 0.1 17.7
v -22.8 0.7 17.7
v -22.7 0.1 17.7
v -22.7 0.7 17.7
v -22.9 0.7 17.6
v -22.9 1.7 17.6
v -22.6 0.7 17.6
v -22.6 1.7 17.6
v -24.2 0.1 17.5
v -24.2 0.3 17.5
v -24 0.1 17.5
v -24 0.3 17.5
v -25.5 0 15.3
v -25.5 0.1 15.3
v -21.5 0 15.3
v -21.5 0.1 15.3
v -25.5 0 19.3
v -21.5 0 19.3
v -25.5 0 15.3
v -21.5 0 15.3
v -24.1 0.7 18.8
v -23.8 0.7 18.8
v -24 0.7 18.7
v -23.9 0.7 18.7
v -24 0.7 18.6
v -23.9 0.7 18.6
v -22.6 0.7 18.6
v -22.3 0.7 18.6
v -24.1 0.7 18.5
v -23.8 0.7 18.5
v -23.4 0.7 18.5
v -23.1 0.7 18.5
v -22.5 0.7 18.5
v -22.4 0.7 18.5
v -23.3 0.7 18.4
v -23.2 0.7 18.4
v -22.5 0.7 18.4
v -22.4 0.7 18.4
v -23.3 0.7 18.3
v -23.2 0.7 18.3
v -22.6 0.7 18.3
v -22.3 0.7 18.3
v -23.4 0.7 18.2
v -23.1 0.7 18.2
v -22.9 0.7 17.9
v -22.6 0.7 17.9
v -22.8 0.7 17.8
v -22.7 0.7 17.8
v -22.8 0.7 17.7
v -22.7 0.7 17.7
v -22.9 0.7 17.6
v -22.6 0.7 17.6
v -25.5 0.1 19.3
v -21.5 0.1 19.3
v -24 0.1 18.8
v -23.7 0.1 18.8
v -24 0.1 18.7
v -24 0.1 18.6
v -23.9 0.1 18.6
v -23.7 0.1 18.6
v -23.4 0.1 18.5
v -23.1 0.1 18.5
v -22.5 0.1 18.5
v -22.4 0.1 18.5
v -22.5 0.1 18.4
v -22.4 0.1 18.4
v -23.4 0.1 18.3
v -23.3 0.1 18.3
v -23.2 0.1 18.3
v -23.1 0.1 18.3
v -24.2 0.1 17.8
v -24 0.1 17.8
v -22.8 0.1 17.8
v -22.7 0.1 17.8
v -22.8 0.1 17.7
v -22.7 0.1 17.7
v -24.2 0.1 17.5
v -24 0.1 17.5
v -25.5 0.1 15.3
v -21.5 0.1 15.3
v -24 0.2 18.8
v -23.9 0.2 18.8
v -24 0.2 18.7
v -23.9 0.2 18.7
v -23.4 0.2 18.5
v -23.3 0.2 18.5
v -23.2 0.2 18.5
v -23.1 0.2 18.5
v -23.3 0.2 18.4
v -23.2 0.2 18.4
v -23.4 0.2 18.3
v -23.3 0.2 18.3
v -23.2 0.2 18.3
v -23.1 0.2 18.3
v -24.2 0.2 17.8
v -24 0.2 17.8
v -24.2 0.2 17.7
v -24 0.2 17.7
v -23.9 0.3 18.8
v -23.7 0.3 18.8
v -23.9 0.3 18.7
v -23.9 0.3 18.6
v -23.7 0.3 18.6
v -23.3 0.3 18.5
v -23.2 0.3 18.5
v -23.3 0.3 18.4
v -23.2 0.3 18.4
v -24.2 0.3 17.7
v -24 0.3 17.7
v -24.2 0.3 17.5
v -24 0.3 17.5
v -23.4 1.4 18.5
v -23.1 1.4 18.5
v -23.4 1.4 18.2
v -23.1 1.4 18.2
v -22.6 1.6 18.6
v -22.3 1.6 18.6
v -22.6 1.6 18.3
v -22.3 1.6 18.3
v -22.9 1.7 17.9
v -22.6 1.7 17.9
v -22.9 1.7 17.6
v -22.6 1.7 17.6
v -24.1 1.8 18.8
v -23.8 1.8 18.8
v -24.1 1.8 18.5
v -23.8 1.8 18.5

# faces
f 3/2/1 2/2/1 1/2/1
f 4/2/1 2/2/1 3/2/1
f 7/3/1 6/3/1 5/3/1
f 8/3/1 6/3/1 7/3/1
f 9/3/1 6/3/1 8/3/1
f 10/3/1 6/3/1 9/3/1
f 13/4/1 12/4/1 11/4/1
f 14/4/1 12/4/1 13/4/1
f 18/3/1 16/3/1 15/3/1
f 19/1/1 17/1/1 16/1/1
f 19/3/1 16/3/1 18/3/1
f 20/1/1 17/1/1 19/1/1
f 21/1/1 17/1/1 20/1/1
f 24/3/1 23/3/1 22/3/1
f 25/3/1 23/3/1 24/3/1
f 28/3/1 27/3/1 26/3/1
f 29/3/1 27/3/1 28/3/1
f 32/4/1 31/4/1 30/4/1
f 33/4/1 31/4/1 32/4/1
f 37/3/1 35/3/1 34/3/1
f 38/1/1 36/1/1 35/1/1
f 38/3/1 35/3/1 37/3/1
f 39/1/1 36/1/1 38/1/1
f 40/1/1 36/1/1 39/1/1
f 43/4/1 42/4/1 41/4/1
f 44/4/1 42/4/1 43/4/1
f 47/1/1 46/1/1 45/1/1
f 48/1/1 46/1/1 47/1/1
f 51/4/1 50/4/1 49/4/1
f 52/4/1 50/4/1 51/4/1
f 55/1/1 54/1/1 53/1/1
f 56/1/1 54/1/1 55/1/1
f 57/3/2 58/3/2 59/3/2
f 59/3/2 58/3/2 60/3/2
f 60/3/2 58/3/2 61/3/2
f 61/3/2 58/3/2 62/3/2
f 63/1/2 64/1/2 65/1/2
f 65/1/2 64/1/2 66/1/2
f 67/4/2 68/4/2 69/4/2
f 69/4/2 68/4/2 70/4/2
f 71/3/2 72/3/2 73/3/2
f 73/3/2 72/3/2 74/3/2
f 75/3/2 76/3/2 78/3/2
f 76/1/2 77/1/2 79/1/2
f 78/3/2 76/3/2 79/3/2
f 79/1/2 77/1/2 80/1/2
f 80/1/2 77/1/2 81/1/2
f 82/3/2 83/3/2 84/3/2
f 84/3/2 83/3/2 85/3/2
f 86/4/2 87/4/2 88/4/2
f 88/4/2 87/4/2 89/4/2
f 90/1/2 91/1/2 92/1/2
f 92/1/2 91/1/2 93/1/2
f 94/4/2 95/4/2 96/4/2
f 96/4/2 95/4/2 97/4/2
f 98/1/2 99/1/2 100/1/2
f 100/1/2 99/1/2 101/1/2
f 102/4/2 103/4/2 104/4/2
f 104/4/2 103/4/2 105/4/2
f 106/2/2 107/2/2 108/2/2
f 108/2/2 107/2/2 109/2/2
f 112/2/3 111/2/3 110/2/3
f 113/2/3 111/2/3 112/2/3
f 118/3/3 117/3/3 116/3/3
f 120/4/3 115/4/3 114/4/3
f 121/4/3 115/4/3 120/4/3
f 122/3/3 119/3/3 118/3/3
f 122/3/3 118/3/3 116/3/3
f 123/3/3 119/3/3 122/3/3
f 126/1/3 125/1/3 124/1/3
f 127/1/3 125/1/3 126/1/3
f 128/1/3 125/1/3 127/1/3
f 131/4/3 130/4/3 129/4/3
f 132/4/3 130/4/3 131/4/3
f 137/3/3 134/3/3 133/3/3
f 139/3/3 137/3/3 133/3/3
f 139/3/3 138/3/3 137/3/3
f 140/3/3 138/3/3 139/3/3
f 141/3/3 139/3/3 133/3/3
f 142/3/3 139/3/3 141/3/3
f 143/4/3 136/4/3 135/4/3
f 144/4/3 136/4/3 143/4/3
f 147/1/3 146/1/3 145/1/3
f 148/1/3 146/1/3 147/1/3
f 151/1/3 150/1/3 149/1/3
f 152/1/3 150/1/3 151/1/3
f 155/4/3 154/4/3 153/4/3
f 156/4/3 154/4/3 155/4/3
f 159/3/3 158/3/3 157/3/3
f 160/3/3 158/3/3 159/3/3
f 163/1/3 162/1/3 161/1/3
f 164/1/3 162/1/3 163/1/3
f 167/3/3 166/3/3 165/3/3
f 168/3/3 166/3/3 167/3/3
f 169/1/4 170/1/4 171/1/4
f 171/1/4 170/1/4 172/1/4
f 172/1/4 170/1/4 173/1/4
f 171/3/4 172/3/4 174/3/4
f 174/3/4 172/3/4 175/3/4
f 176/4/4 177/4/4 178/4/4
f 178/4/4 177/4/4 179/4/4
f 180/1/4 181/1/4 182/1/4
f 182/1/4 181/1/4 183/1/4
f 184/3/4 185/3/4 186/3/4
f 186/3/4 185/3/4 187/3/4
f 186/1/4 187/1/4 189/1/4
f 187/1/4 188/1/4 189/1/4
f 189/1/4 188/1/4 190/1/4
f 190/1/4 188/1/4 191/1/4
f 189/3/4 190/3/4 192/3/4
f 192/3/4 190/3/4 193/3/4
f 194/4/4 195/4/4 196/4/4
f 196/4/4 195/4/4 197/4/4
f 198/4/4 199/4/4 200/4/4
f 200/4/4 199/4/4 201/4/4
f 202/1/4 203/1/4 204/1/4
f 204/1/4 203/1/4 205/1/4
f 206/4/4 207/4/4 208/4/4
f 208/4/4 207/4/4 209/4/4
f 210/3/4 211/3/4 212/3/4
f 212/3/4 211/3/4 213/3/4
f 214/2/4 215/2/4 216/2/4
f 216/2/4 215/2/4 217/2/4
f 220/2/5 219/2/5 218/2/5
f 221/2/5 219/2/5 220/2/5
f 224/4/5 223/4/5 222/4/5
f 225/4/5 223/4/5 224/4/5
f 226/4/5 224/4/5 222/4/5
f 227/4/5 223/4/5 225/4/5
f 230/4/5 226/4/5 222/4/5
f 230/4/5 227/4/5 226/4/5
f 231/4/5 223/4/5 227/4/5
f 231/4/5 227/4/5 230/4/5
f 234/4/5 229/4/5 228/4/5
f 235/4/5 229/4/5 234/4/5
f 236/4/5 233/4/5 232/4/5
f 237/4/5 233/4/5 236/4/5
f 238/4/5 234/4/5 228/4/5
f 239/4/5 229/4/5 235/4/5
f 240/4/5 236/4/5 232/4/5
f 241/4/5 233/4/5 237/4/5
f 242/4/5 238/4/5 228/4/5
f 242/4/5 239/4/5 238/4/5
f 243/4/5 229/4/5 239/4/5
f 243/4/5 239/4/5 242/4/5
f 244/4/5 241/4/5 240/4/5
f 244/4/5 240/4/5 232/4/5
f 245/4/5 233/4/5 241/4/5
f 245/4/5 241/4/5 244/4/5
f 248/4/5 247/4/5 246/4/5
f 249/4/5 247/4/5 248/4/5
f 250/4/5 248/4/5 246/4/5
f 251/4/5 247/4/5 249/4/5
f 252/4/5 250/4/5 246/4/5
f 252/4/5 251/4/5 250/4/5
f 253/4/5 247/4/5 251/4/5
f 253/4/5 251/4/5 252/4/5
f 254/2/6 255/2/6 256/2/6
f 256/2/6 255/2/6 257/2/6
f 254/2/6 256/2/6 258/2/6
f 254/2/6 258/2/6 259/2/6
f 257/2/6 255/2/6 261/2/6
f 259/2/6 260/2/6 262/2/6
f 260/2/6 261/2/6 262/2/6
f 261/2/6 255/2/6 262/2/6
f 262/2/6 255/2/6 263/2/6
f 263/2/6 255/2/6 264/2/6
f 264/2/6 255/2/6 265/2/6
f 263/2/6 264/2/6 266/2/6
f 265/2/6 255/2/6 267/2/6
f 259/2/6 262/2/6 268/2/6
f 266/2/6 267/2/6 271/2/6
f 263/2/6 266/2/6 271/2/6
f 254/2/6 259/2/6 272/2/6
f 270/2/6 271/2/6 272/2/6
f 269/2/6 270/2/6 272/2/6
f 268/2/6 269/2/6 272/2/6
f 259/2/6 268/2/6 272/2/6
f 272/2/6 271/2/6 273/2/6
f 271/2/6 267/2/6 274/2/6
f 273/2/6 271/2/6 274/2/6
f 274/2/6 267/2/6 275/2/6
f 273/2/6 274/2/6 276/2/6
f 275/2/6 267/2/6 277/2/6
f 254/2/6 272/2/6 278/2/6
f 273/2/6 276/2/6 279/2/6
f 276/2/6 277/2/6 279/2/6
f 254/2/6 278/2/6 280/2/6
f 278/2/6 279/2/6 280/2/6
f 279/2/6 277/2/6 281/2/6
f 280/2/6 279/2/6 281/2/6
f 267/2/6 255/2/6 281/2/6
f 277/2/6 267/2/6 281/2/6
f 282/3/6 283/3/6 284/3/6
f 284/3/6 283/3/6 285/3/6
f 286/3/6 287/3/6 290/3/6
f 288/3/6 289/3/6 291/3/6
f 286/3/6 290/3/6 292/3/6
f 292/3/6 290/3/6 293/3/6
f 291/3/6 289/3/6 294/3/6
f 294/3/6 289/3/6 295/3/6
f 296/3/6 297/3/6 298/3/6
f 298/3/6 297/3/6 299/3/6
f 300/3/6 301/3/6 302/3/6
f 302/3/6 301/3/6 303/3/6
f 303/3/6 301/3/6 304/3/6
f 305/3/6 306/3/6 307/3/6
f 307/3/6 306/3/6 308/3/6
f 309/3/6 310/3/6 311/3/6
f 311/3/6 310/3/6 312/3/6
f 313/4/6 314/4/6 315/4/6
f 315/4/6 314/4/6 316/4/6
f 317/4/6 318/4/6 319/4/6
f 319/4/6 318/4/6 320/4/6
f 321/4/6 322/4/6 323/4/6
f 323/4/6 322/4/6 324/4/6
f 325/4/6 326/4/6 327/4/6
f 327/4/6 326/4/6 328/4/6
