# MagicaVoxel @ Ephtracy

# group
o 

# material
mtllib towers-206.mtl
usemtl palette

# normals
vn -1 0 0
vn 1 0 0
vn 0 0 1
vn 0 0 -1
vn 0 -1 0
vn 0 1 0

# texcoords
vt 0.263672 0.5
vt 0.541016 0.5
vt 0.544922 0.5
vt 0.583984 0.5

# verts
v -25.5 0 19.3
v -25.5 0 15.3
v -25.5 0.1 19.3
v -25.5 0.1 15.3
v -24.7 0.7 16.3
v -24.7 0.7 16
v -24.7 1.6 16.3
v -24.7 1.6 16
v -24.6 0.1 16.2
v -24.6 0.1 16.1
v -24.6 0.7 16.2
v -24.6 0.7 16.1
v -24.4 0.7 17
v -24.4 0.7 16.7
v -24.4 1.7 17
v -24.4 1.7 16.7
v -24.3 0.1 16.9
v -24.3 0.1 16.8
v -24.3 0.7 16.9
v -24.3 0.7 16.8
v -23.9 0.1 16.3
v -23.9 0.1 16.1
v -23.9 0.2 16.3
v -23.9 0.2 16.1
v -23.9 0.7 16.4
v -23.9 0.7 16.1
v -23.9 1.4 16.4
v -23.9 1.4 16.1
v -23.8 0.2 16.3
v -23.8 0.2 16.2
v -23.8 0.2 16.1
v -23.8 0.3 16.2
v -23.8 0.3 16.1
v -23.8 0.7 16.3
v -23.8 0.7 16.2
v -23.3 0.1 16
v -23.3 0.1 15.8
v -23.3 0.3 16
v -23.3 0.3 15.8
v -23.2 0.7 16.1
v -23.2 0.7 15.8
v -23.2 1.8 16.1
v -23.2 1.8 15.8
v -23.1 0.3 16
v -23.1 0.3 15.9
v -23.1 0.7 16
v -23.1 0.7 15.9
v -23 0.1 17.1
v -23 0.1 16.8
v -23 0.2 16.9
v -23 0.2 16.8
v -23 0.3 17.1
v -23 0.3 16.9
v -24.5 0.1 16.2
v -24.5 0.1 16.1
v -24.5 0.7 16.2
v -24.5 0.7 16.1
v -24.4 0.7 16.3
v -24.4 0.7 16
v -24.4 1.6 16.3
v -24.4 1.6 16
v -24.2 0.1 16.9
v -24.2 0.1 16.8
v -24.2 0.7 16.9
v -24.2 0.7 16.8
v -24.1 0.7 17
v -24.1 0.7 16.7
v -24.1 1.7 17
v -24.1 1.7 16.7
v -23.7 0.2 16.3
v -23.7 0.2 16.2
v -23.7 0.2 16.1
v -23.7 0.3 16.2
v -23.7 0.3 16.1
v -23.7 0.7 16.3
v -23.7 0.7 16.2
v -23.6 0.1 16.3
v -23.6 0.1 16.1
v -23.6 0.2 16.3
v -23.6 0.2 16.1
v -23.6 0.7 16.4
v -23.6 0.7 16.1
v -23.6 1.4 16.4
v -23.6 1.4 16.1
v -23.1 0.2 15.9
v -23.1 0.2 15.8
v -23.1 0.3 15.9
v -23.1 0.3 15.8
v -23 0.1 16
v -23 0.1 15.9
v -23 0.1 15.8
v -23 0.2 15.9
v -23 0.2 15.8
v -23 0.7 16
v -23 0.7 15.9
v -22.9 0.7 16.1
v -22.9 0.7 15.8
v -22.9 1.8 16.1
v -22.9 1.8 15.8
v -22.8 0.1 17.1
v -22.8 0.1 16.8
v -22.8 0.2 16.9
v -22.8 0.2 16.8
v -22.8 0.3 17.1
v -22.8 0.3 16.9
v -21.5 0 19.3
v -21.5 0 15.3
v -21.5 0.1 19.3
v -21.5 0.1 15.3
v -25.5 0 19.3
v -25.5 0.1 19.3
v -21.5 0 19.3
v -21.5 0.1 19.3
v -23 0.1 17.1
v -23 0.3 17.1
v -22.8 0.1 17.1
v -22.8 0.3 17.1
v -24.4 0.7 17
v -24.4 1.7 17
v -24.1 0.7 17
v -24.1 1.7 17
v -24.3 0.1 16.9
v -24.3 0.7 16.9
v -24.2 0.1 16.9
v -24.2 0.7 16.9
v -23.9 0.7 16.4
v -23.9 1.4 16.4
v -23.6 0.7 16.4
v -23.6 1.4 16.4
v -24.7 0.7 16.3
v -24.7 1.6 16.3
v -24.4 0.7 16.3
v -24.4 1.6 16.3
v -23.9 0.1 16.3
v -23.9 0.2 16.3
v -23.8 0.1 16.3
v -23.8 0.2 16.3
v -23.8 0.7 16.3
v -23.7 0.1 16.3
v -23.7 0.2 16.3
v -23.7 0.7 16.3
v -23.6 0.1 16.3
v -23.6 0.2 16.3
v -24.6 0.1 16.2
v -24.6 0.7 16.2
v -24.5 0.1 16.2
v -24.5 0.7 16.2
v -23.2 0.7 16.1
v -23.2 1.8 16.1
v -22.9 0.7 16.1
v -22.9 1.8 16.1
v -23.3 0.1 16
v -23.3 0.3 16
v -23.1 0.1 16
v -23.1 0.3 16
v -23.1 0.7 16
v -23 0.1 16
v -23 0.7 16
v -23 0.2 16.9
v -23 0.3 16.9
v -22.8 0.2 16.9
v -22.8 0.3 16.9
v -24.3 0.1 16.8
v -24.3 0.7 16.8
v -24.2 0.1 16.8
v -24.2 0.7 16.8
v -23 0.1 16.8
v -23 0.2 16.8
v -22.8 0.1 16.8
v -22.8 0.2 16.8
v -24.4 0.7 16.7
v -24.4 1.7 16.7
v -24.1 0.7 16.7
v -24.1 1.7 16.7
v -23.8 0.3 16.2
v -23.8 0.7 16.2
v -23.7 0.3 16.2
v -23.7 0.7 16.2
v -24.6 0.1 16.1
v -24.6 0.7 16.1
v -24.5 0.1 16.1
v -24.5 0.7 16.1
v -23.9 0.1 16.1
v -23.9 0.2 16.1
v -23.9 0.7 16.1
v -23.9 1.4 16.1
v -23.8 0.2 16.1
v -23.8 0.3 16.1
v -23.7 0.2 16.1
v -23.7 0.3 16.1
v -23.6 0.1 16.1
v -23.6 0.2 16.1
v -23.6 0.7 16.1
v -23.6 1.4 16.1
v -24.7 0.7 16
v -24.7 1.6 16
v -24.4 0.7 16
v -24.4 1.6 16
v -23.1 0.2 15.9
v -23.1 0.3 15.9
v -23.1 0.7 15.9
v -23 0.2 15.9
v -23 0.7 15.9
v -23.3 0.1 15.8
v -23.3 0.3 15.8
v -23.2 0.7 15.8
v -23.2 1.8 15.8
v -23.1 0.2 15.8
v -23.1 0.3 15.8
v -23 0.1 15.8
v -23 0.2 15.8
v -22.9 0.7 15.8
v -22.9 1.8 15.8
v -25.5 0 15.3
v -25.5 0.1 15.3
v -21.5 0 15.3
v -21.5 0.1 15.3
v -25.5 0 19.3
v -21.5 0 19.3
v -25.5 0 15.3
v -21.5 0 15.3
v -24.4 0.7 17
v -24.1 0.7 17
v -24.3 0.7 16.9
v -24.2 0.7 16.9
v -24.3 0.7 16.8
v -24.2 0.7 16.8
v -24.4 0.7 16.7
v -24.1 0.7 16.7
v -23.9 0.7 16.4
v -23.6 0.7 16.4
v -24.7 0.7 16.3
v -24.4 0.7 16.3
v -23.8 0.7 16.3
v -23.7 0.7 16.3
v -24.6 0.7 16.2
v -24.5 0.7 16.2
v -23.8 0.7 16.2
v -23.7 0.7 16.2
v -24.6 0.7 16.1
v -24.5 0.7 16.1
v -23.9 0.7 16.1
v -23.6 0.7 16.1
v -23.2 0.7 16.1
v -22.9 0.7 16.1
v -24.7 0.7 16
v -24.4 0.7 16
v -23.1 0.7 16
v -23 0.7 16
v -23.1 0.7 15.9
v -23 0.7 15.9
v -23.2 0.7 15.8
v -22.9 0.7 15.8
v -25.5 0.1 19.3
v -21.5 0.1 19.3
v -23 0.1 17.1
v -22.8 0.1 17.1
v -24.3 0.1 16.9
v -24.2 0.1 16.9
v -24.3 0.1 16.8
v -24.2 0.1 16.8
v -23 0.1 16.8
v -22.8 0.1 16.8
v -23.9 0.1 16.3
v -23.8 0.1 16.3
v -23.7 0.1 16.3
v -23.6 0.1 16.3
v -24.6 0.1 16.2
v -24.5 0.1 16.2
v -24.6 0.1 16.1
v -24.5 0.1 16.1
v -23.9 0.1 16.1
v -23.6 0.1 16.1
v -23.3 0.1 16
v -23.1 0.1 16
v -23 0.1 16
v -23 0.1 15.9
v -23.3 0.1 15.8
v -23 0.1 15.8
v -25.5 0.1 15.3
v -21.5 0.1 15.3
v -23 0.2 16.9
v -22.8 0.2 16.9
v -23 0.2 16.8
v -22.8 0.2 16.8
v -23.9 0.2 16.3
v -23.8 0.2 16.3
v -23.7 0.2 16.3
v -23.6 0.2 16.3
v -23.8 0.2 16.2
v -23.7 0.2 16.2
v -23.9 0.2 16.1
v -23.8 0.2 16.1
v -23.7 0.2 16.1
v -23.6 0.2 16.1
v -23.1 0.2 15.9
v -23 0.2 15.9
v -23.1 0.2 15.8
v -23 0.2 15.8
v -23 0.3 17.1
v -22.8 0.3 17.1
v -23 0.3 16.9
v -22.8 0.3 16.9
v -23.8 0.3 16.2
v -23.7 0.3 16.2
v -23.8 0.3 16.1
v -23.7 0.3 16.1
v -23.3 0.3 16
v -23.1 0.3 16
v -23.1 0.3 15.9
v -23.3 0.3 15.8
v -23.1 0.3 15.8
v -23.9 1.4 16.4
v -23.6 1.4 16.4
v -23.9 1.4 16.1
v -23.6 1.4 16.1
v -24.7 1.6 16.3
v -24.4 1.6 16.3
v -24.7 1.6 16
v -24.4 1.6 16
v -24.4 1.7 17
v -24.1 1.7 17
v -24.4 1.7 16.7
v -24.1 1.7 16.7
v -23.2 1.8 16.1
v -22.9 1.8 16.1
v -23.2 1.8 15.8
v -22.9 1.8 15.8

# faces
f 3/2/1 2/2/1 1/2/1
f 4/2/1 2/2/1 3/2/1
f 7/4/1 6/4/1 5/4/1
f 8/4/1 6/4/1 7/4/1
f 11/1/1 10/1/1 9/1/1
f 12/1/1 10/1/1 11/1/1
f 15/4/1 14/4/1 13/4/1
f 16/4/1 14/4/1 15/4/1
f 19/1/1 18/1/1 17/1/1
f 20/1/1 18/1/1 19/1/1
f 23/3/1 22/3/1 21/3/1
f 24/3/1 22/3/1 23/3/1
f 27/4/1 26/4/1 25/4/1
f 28/4/1 26/4/1 27/4/1
f 32/1/1 30/1/1 29/1/1
f 32/3/1 31/3/1 30/3/1
f 33/3/1 31/3/1 32/3/1
f 34/1/1 32/1/1 29/1/1
f 35/1/1 32/1/1 34/1/1
f 38/3/1 37/3/1 36/3/1
f 39/3/1 37/3/1 38/3/1
f 42/4/1 41/4/1 40/4/1
f 43/4/1 41/4/1 42/4/1
f 46/1/1 45/1/1 44/1/1
f 47/1/1 45/1/1 46/1/1
f 50/3/1 49/3/1 48/3/1
f 51/3/1 49/3/1 50/3/1
f 52/3/1 50/3/1 48/3/1
f 53/3/1 50/3/1 52/3/1
f 54/1/2 55/1/2 56/1/2
f 56/1/2 55/1/2 57/1/2
f 58/4/2 59/4/2 60/4/2
f 60/4/2 59/4/2 61/4/2
f 62/1/2 63/1/2 64/1/2
f 64/1/2 63/1/2 65/1/2
f 66/4/2 67/4/2 68/4/2
f 68/4/2 67/4/2 69/4/2
f 70/1/2 71/1/2 73/1/2
f 71/3/2 72/3/2 73/3/2
f 73/3/2 72/3/2 74/3/2
f 70/1/2 73/1/2 75/1/2
f 75/1/2 73/1/2 76/1/2
f 77/3/2 78/3/2 79/3/2
f 79/3/2 78/3/2 80/3/2
f 81/4/2 82/4/2 83/4/2
f 83/4/2 82/4/2 84/4/2
f 85/3/2 86/3/2 87/3/2
f 87/3/2 86/3/2 88/3/2
f 89/1/2 90/1/2 92/1/2
f 90/3/2 91/3/2 92/3/2
f 92/3/2 91/3/2 93/3/2
f 89/1/2 92/1/2 94/1/2
f 94/1/2 92/1/2 95/1/2
f 96/4/2 97/4/2 98/4/2
f 98/4/2 97/4/2 99/4/2
f 100/3/2 101/3/2 102/3/2
f 102/3/2 101/3/2 103/3/2
f 100/3/2 102/3/2 104/3/2
f 104/3/2 102/3/2 105/3/2
f 106/2/2 107/2/2 108/2/2
f 108/2/2 107/2/2 109/2/2
f 112/2/3 111/2/3 110/2/3
f 113/2/3 111/2/3 112/2/3
f 116/3/3 115/3/3 114/3/3
f 117/3/3 115/3/3 116/3/3
f 120/4/3 119/4/3 118/4/3
f 121/4/3 119/4/3 120/4/3
f 124/1/3 123/1/3 122/1/3
f 125/1/3 123/1/3 124/1/3
f 128/4/3 127/4/3 126/4/3
f 129/4/3 127/4/3 128/4/3
f 132/4/3 131/4/3 130/4/3
f 133/4/3 131/4/3 132/4/3
f 136/3/3 135/3/3 134/3/3
f 137/3/3 135/3/3 136/3/3
f 139/1/3 137/1/3 136/1/3
f 139/1/3 138/1/3 137/1/3
f 140/1/3 138/1/3 139/1/3
f 141/1/3 138/1/3 140/1/3
f 142/3/3 140/3/3 139/3/3
f 143/3/3 140/3/3 142/3/3
f 146/1/3 145/1/3 144/1/3
f 147/1/3 145/1/3 146/1/3
f 150/4/3 149/4/3 148/4/3
f 151/4/3 149/4/3 150/4/3
f 154/3/3 153/3/3 152/3/3
f 155/3/3 153/3/3 154/3/3
f 157/1/3 155/1/3 154/1/3
f 157/1/3 156/1/3 155/1/3
f 158/1/3 156/1/3 157/1/3
f 159/3/4 160/3/4 161/3/4
f 161/3/4 160/3/4 162/3/4
f 163/1/4 164/1/4 165/1/4
f 165/1/4 164/1/4 166/1/4
f 167/3/4 168/3/4 169/3/4
f 169/3/4 168/3/4 170/3/4
f 171/4/4 172/4/4 173/4/4
f 173/4/4 172/4/4 174/4/4
f 175/1/4 176/1/4 177/1/4
f 177/1/4 176/1/4 178/1/4
f 179/1/4 180/1/4 181/1/4
f 181/1/4 180/1/4 182/1/4
f 183/3/4 184/3/4 187/3/4
f 183/3/4 187/3/4 189/3/4
f 187/3/4 188/3/4 189/3/4
f 189/3/4 188/3/4 190/3/4
f 183/3/4 189/3/4 191/3/4
f 191/3/4 189/3/4 192/3/4
f 185/4/4 186/4/4 193/4/4
f 193/4/4 186/4/4 194/4/4
f 195/4/4 196/4/4 197/4/4
f 197/4/4 196/4/4 198/4/4
f 199/1/4 200/1/4 202/1/4
f 200/1/4 201/1/4 202/1/4
f 202/1/4 201/1/4 203/1/4
f 204/3/4 205/3/4 208/3/4
f 208/3/4 205/3/4 209/3/4
f 204/3/4 208/3/4 210/3/4
f 210/3/4 208/3/4 211/3/4
f 206/4/4 207/4/4 212/4/4
f 212/4/4 207/4/4 213/4/4
f 214/2/4 215/2/4 216/2/4
f 216/2/4 215/2/4 217/2/4
f 220/2/5 219/2/5 218/2/5
f 221/2/5 219/2/5 220/2/5
f 224/4/5 223/4/5 222/4/5
f 225/4/5 223/4/5 224/4/5
f 226/4/5 224/4/5 222/4/5
f 227/4/5 223/4/5 225/4/5
f 228/4/5 226/4/5 222/4/5
f 228/4/5 227/4/5 226/4/5
f 229/4/5 223/4/5 227/4/5
f 229/4/5 227/4/5 228/4/5
f 234/4/5 231/4/5 230/4/5
f 235/4/5 231/4/5 234/4/5
f 236/4/5 233/4/5 232/4/5
f 237/4/5 233/4/5 236/4/5
f 238/4/5 234/4/5 230/4/5
f 239/4/5 231/4/5 235/4/5
f 240/4/5 236/4/5 232/4/5
f 241/4/5 233/4/5 237/4/5
f 242/4/5 238/4/5 230/4/5
f 242/4/5 239/4/5 238/4/5
f 243/4/5 231/4/5 239/4/5
f 243/4/5 239/4/5 242/4/5
f 246/4/5 241/4/5 240/4/5
f 246/4/5 240/4/5 232/4/5
f 247/4/5 233/4/5 241/4/5
f 247/4/5 241/4/5 246/4/5
f 248/4/5 245/4/5 244/4/5
f 249/4/5 245/4/5 248/4/5
f 250/4/5 248/4/5 244/4/5
f 251/4/5 245/4/5 249/4/5
f 252/4/5 250/4/5 244/4/5
f 252/4/5 251/4/5 250/4/5
f 253/4/5 245/4/5 251/4/5
f 253/4/5 251/4/5 252/4/5
f 254/2/6 255/2/6 256/2/6
f 256/2/6 255/2/6 257/2/6
f 254/2/6 256/2/6 258/2/6
f 258/2/6 256/2/6 259/2/6
f 254/2/6 258/2/6 260/2/6
f 259/2/6 256/2/6 261/2/6
f 261/2/6 256/2/6 262/2/6
f 257/2/6 255/2/6 263/2/6
f 261/2/6 262/2/6 264/2/6
f 262/2/6 263/2/6 264/2/6
f 260/2/6 261/2/6 264/2/6
f 264/2/6 263/2/6 265/2/6
f 265/2/6 263/2/6 266/2/6
f 266/2/6 263/2/6 267/2/6
f 254/2/6 260/2/6 268/2/6
f 260/2/6 264/2/6 268/2/6
f 268/2/6 264/2/6 269/2/6
f 254/2/6 268/2/6 270/2/6
f 269/2/6 264/2/6 271/2/6
f 271/2/6 264/2/6 272/2/6
f 267/2/6 263/2/6 273/2/6
f 271/2/6 272/2/6 274/2/6
f 272/2/6 273/2/6 274/2/6
f 273/2/6 263/2/6 274/2/6
f 270/2/6 271/2/6 274/2/6
f 274/2/6 263/2/6 275/2/6
f 275/2/6 263/2/6 276/2/6
f 276/2/6 263/2/6 277/2/6
f 270/2/6 274/2/6 278/2/6
f 277/2/6 263/2/6 279/2/6
f 254/2/6 270/2/6 280/2/6
f 278/2/6 279/2/6 280/2/6
f 270/2/6 278/2/6 280/2/6
f 263/2/6 255/2/6 281/2/6
f 280/2/6 279/2/6 281/2/6
f 279/2/6 263/2/6 281/2/6
f 282/3/6 283/3/6 284/3/6
f 284/3/6 283/3/6 285/3/6
f 286/3/6 287/3/6 290/3/6
f 288/3/6 289/3/6 291/3/6
f 286/3/6 290/3/6 292/3/6
f 292/3/6 290/3/6 293/3/6
f 291/3/6 289/3/6 294/3/6
f 294/3/6 289/3/6 295/3/6
f 296/3/6 297/3/6 298/3/6
f 298/3/6 297/3/6 299/3/6
f 300/3/6 301/3/6 302/3/6
f 302/3/6 301/3/6 303/3/6
f 304/3/6 305/3/6 306/3/6
f 306/3/6 305/3/6 307/3/6
f 308/3/6 309/3/6 310/3/6
f 308/3/6 310/3/6 311/3/6
f 311/3/6 310/3/6 312/3/6
f 313/4/6 314/4/6 315/4/6
f 315/4/6 314/4/6 316/4/6
f 317/4/6 318/4/6 319/4/6
f 319/4/6 318/4/6 320/4/6
f 321/4/6 322/4/6 323/4/6
f 323/4/6 322/4/6 324/4/6
f 325/4/6 326/4/6 327/4/6
f 327/4/6 326/4/6 328/4/6
