# MagicaVoxel @ Ephtracy

# group
o 

# material
mtllib towers-260.mtl
usemtl palette

# normals
vn -1 0 0
vn 1 0 0
vn 0 0 1
vn 0 0 -1
vn 0 -1 0
vn 0 1 0

# texcoords
vt 0.541016 0.5
vt 0.587891 0.5
vt 0.947266 0.5
vt 0.978516 0.5
vt 0.982422 0.5
vt 0.986328 0.5

# verts
v -25.5 0 19.3
v -25.5 0 15.3
v -25.5 0.1 19.3
v -25.5 0.1 15.3
v -24 0.1 17.8
v -24 0.1 17.4
v -24 0.1 17.2
v -24 0.1 16.8
v -24 0.3 17.8
v -24 0.3 17.4
v -24 0.3 17.2
v -24 0.3 16.8
v -23.9 0.3 17.7
v -23.9 0.3 17.5
v -23.9 0.3 17.1
v -23.9 0.3 16.9
v -23.9 0.9 18.9
v -23.9 0.9 18.8
v -23.9 0.9 18.2
v -23.9 0.9 18.1
v -23.9 1 18.9
v -23.9 1 18.8
v -23.9 1 18.2
v -23.9 1 18.1
v -23.9 1.1 19
v -23.9 1.1 18.9
v -23.9 1.1 18.8
v -23.9 1.1 18.7
v -23.9 1.1 18.3
v -23.9 1.1 18.2
v -23.9 1.5 19
v -23.9 1.5 18.7
v -23.9 1.5 18.3
v -23.9 1.5 18.1
v -23.9 1.8 17.7
v -23.9 1.8 17.5
v -23.9 1.8 17.1
v -23.9 1.8 16.9
v -23.9 1.9 17.7
v -23.9 1.9 17.5
v -23.9 1.9 17.1
v -23.9 1.9 16.9
v -23.8 0.1 19.3
v -23.8 0.1 17.8
v -23.8 0.1 17.4
v -23.8 0.1 17.2
v -23.8 0.3 17.8
v -23.8 0.3 17.7
v -23.8 0.3 17.5
v -23.8 0.3 17.4
v -23.8 0.3 17.2
v -23.8 0.3 17.1
v -23.8 0.9 18.9
v -23.8 0.9 18.8
v -23.8 0.9 18.2
v -23.8 0.9 18.1
v -23.8 1 18.9
v -23.8 1 18.8
v -23.8 1 18.2
v -23.8 1 18.1
v -23.8 1.1 19
v -23.8 1.1 18.9
v -23.8 1.1 18.8
v -23.8 1.1 18.7
v -23.8 1.1 18.3
v -23.8 1.1 18.2
v -23.8 1.3 19.3
v -23.8 1.3 19
v -23.8 1.3 18.7
v -23.8 1.3 18.3
v -23.8 1.3 18.1
v -23.8 1.3 17.7
v -23.8 1.3 17.5
v -23.8 1.3 17.1
v -23.8 1.4 19.3
v -23.8 1.4 19
v -23.8 1.4 18.7
v -23.8 1.4 18.3
v -23.8 1.4 18.1
v -23.8 1.4 17.7
v -23.8 1.4 17.5
v -23.8 1.4 17.1
v -23.4 0.1 17
v -23.4 0.1 16.8
v -23.4 0.3 17
v -23.4 0.3 16.8
v -23.3 0.3 17
v -23.3 0.3 16.9
v -23.3 1.2 19.3
v -23.3 1.2 17.7
v -23.3 1.2 17.5
v -23.3 1.2 17.1
v -23.3 1.3 19.3
v -23.3 1.3 17.7
v -23.3 1.3 17.5
v -23.3 1.3 17.1
v -23.3 1.3 17
v -23.3 1.4 19.3
v -23.3 1.4 19
v -23.3 1.4 18.7
v -23.3 1.4 18.3
v -23.3 1.4 18.1
v -23.3 1.4 17.7
v -23.3 1.4 17.5
v -23.3 1.4 17.1
v -23.3 1.4 17
v -23.3 1.5 19
v -23.3 1.5 18.7
v -23.3 1.5 18.3
v -23.3 1.5 18.1
v -23.3 1.8 17.7
v -23.3 1.8 17.5
v -23.3 1.8 17.1
v -23.3 1.8 16.9
v -23.3 1.9 17.7
v -23.3 1.9 17.5
v -23.3 1.9 17.1
v -23.3 1.9 16.9
v -23.7 0.3 17
v -23.7 0.3 16.9
v -23.7 1.2 19.3
v -23.7 1.2 17.7
v -23.7 1.2 17.5
v -23.7 1.2 17.1
v -23.7 1.3 19.3
v -23.7 1.3 17.7
v -23.7 1.3 17.5
v -23.7 1.3 17.1
v -23.7 1.3 17
v -23.7 1.4 19.3
v -23.7 1.4 19
v -23.7 1.4 18.7
v -23.7 1.4 18.3
v -23.7 1.4 18.1
v -23.7 1.4 17.7
v -23.7 1.4 17.5
v -23.7 1.4 17.1
v -23.7 1.4 17
v -23.7 1.5 19
v -23.7 1.5 18.7
v -23.7 1.5 18.3
v -23.7 1.5 18.1
v -23.7 1.8 17.7
v -23.7 1.8 17.5
v -23.7 1.8 17.1
v -23.7 1.8 16.9
v -23.7 1.9 17.7
v -23.7 1.9 17.5
v -23.7 1.9 17.1
v -23.7 1.9 16.9
v -23.6 0.1 17
v -23.6 0.1 16.8
v -23.6 0.3 17
v -23.6 0.3 16.8
v -23.2 0.1 19.3
v -23.2 0.1 17.8
v -23.2 0.1 17.4
v -23.2 0.1 17.2
v -23.2 0.3 17.8
v -23.2 0.3 17.7
v -23.2 0.3 17.5
v -23.2 0.3 17.4
v -23.2 0.3 17.2
v -23.2 0.3 17.1
v -23.2 0.9 18.9
v -23.2 0.9 18.8
v -23.2 0.9 18.2
v -23.2 0.9 18.1
v -23.2 1 18.9
v -23.2 1 18.8
v -23.2 1 18.2
v -23.2 1 18.1
v -23.2 1.1 19
v -23.2 1.1 18.9
v -23.2 1.1 18.8
v -23.2 1.1 18.7
v -23.2 1.1 18.3
v -23.2 1.1 18.2
v -23.2 1.3 19.3
v -23.2 1.3 19
v -23.2 1.3 18.7
v -23.2 1.3 18.3
v -23.2 1.3 18.1
v -23.2 1.3 17.7
v -23.2 1.3 17.5
v -23.2 1.3 17.1
v -23.2 1.4 19.3
v -23.2 1.4 19
v -23.2 1.4 18.7
v -23.2 1.4 18.3
v -23.2 1.4 18.1
v -23.2 1.4 17.7
v -23.2 1.4 17.5
v -23.2 1.4 17.1
v -23.1 0.3 17.7
v -23.1 0.3 17.5
v -23.1 0.3 17.1
v -23.1 0.3 16.9
v -23.1 0.9 18.9
v -23.1 0.9 18.8
v -23.1 0.9 18.2
v -23.1 0.9 18.1
v -23.1 1 18.9
v -23.1 1 18.8
v -23.1 1 18.2
v -23.1 1 18.1
v -23.1 1.1 19
v -23.1 1.1 18.9
v -23.1 1.1 18.8
v -23.1 1.1 18.7
v -23.1 1.1 18.3
v -23.1 1.1 18.2
v -23.1 1.5 19
v -23.1 1.5 18.7
v -23.1 1.5 18.3
v -23.1 1.5 18.1
v -23.1 1.8 17.7
v -23.1 1.8 17.5
v -23.1 1.8 17.1
v -23.1 1.8 16.9
v -23.1 1.9 17.7
v -23.1 1.9 17.5
v -23.1 1.9 17.1
v -23.1 1.9 16.9
v -23 0.1 17.8
v -23 0.1 17.4
v -23 0.1 17.2
v -23 0.1 16.8
v -23 0.3 17.8
v -23 0.3 17.4
v -23 0.3 17.2
v -23 0.3 16.8
v -21.5 0 19.3
v -21.5 0 15.3
v -21.5 0.1 19.3
v -21.5 0.1 15.3
v -25.5 0 19.3
v -25.5 0.1 19.3
v -23.8 0.1 19.3
v -23.8 1.3 19.3
v -23.8 1.4 19.3
v -23.7 1.1 19.3
v -23.7 1.2 19.3
v -23.7 1.3 19.3
v -23.7 1.4 19.3
v -23.3 1.1 19.3
v -23.3 1.2 19.3
v -23.3 1.3 19.3
v -23.3 1.4 19.3
v -23.2 0.1 19.3
v -23.2 1.3 19.3
v -23.2 1.4 19.3
v -21.5 0 19.3
v -21.5 0.1 19.3
v -23.9 1.1 19
v -23.9 1.5 19
v -23.8 1.1 19
v -23.8 1.3 19
v -23.8 1.4 19
v -23.7 1.4 19
v -23.7 1.5 19
v -23.3 1.4 19
v -23.3 1.5 19
v -23.2 1.1 19
v -23.2 1.3 19
v -23.2 1.4 19
v -23.1 1.1 19
v -23.1 1.5 19
v -23.9 0.9 18.9
v -23.9 1 18.9
v -23.9 1.1 18.9
v -23.8 0.9 18.9
v -23.8 1 18.9
v -23.8 1.1 18.9
v -23.2 0.9 18.9
v -23.2 1 18.9
v -23.2 1.1 18.9
v -23.1 0.9 18.9
v -23.1 1 18.9
v -23.1 1.1 18.9
v -23.9 1.1 18.3
v -23.9 1.5 18.3
v -23.8 1.1 18.3
v -23.8 1.3 18.3
v -23.8 1.4 18.3
v -23.7 1.4 18.3
v -23.7 1.5 18.3
v -23.3 1.4 18.3
v -23.3 1.5 18.3
v -23.2 1.1 18.3
v -23.2 1.3 18.3
v -23.2 1.4 18.3
v -23.1 1.1 18.3
v -23.1 1.5 18.3
v -23.9 0.9 18.2
v -23.9 1 18.2
v -23.9 1.1 18.2
v -23.8 0.9 18.2
v -23.8 1 18.2
v -23.8 1.1 18.2
v -23.2 0.9 18.2
v -23.2 1 18.2
v -23.2 1.1 18.2
v -23.1 0.9 18.2
v -23.1 1 18.2
v -23.1 1.1 18.2
v -24 0.1 17.8
v -24 0.3 17.8
v -23.8 0.1 17.8
v -23.8 0.3 17.8
v -23.2 0.1 17.8
v -23.2 0.3 17.8
v -23 0.1 17.8
v -23 0.3 17.8
v -23.9 0.3 17.7
v -23.9 1.8 17.7
v -23.9 1.9 17.7
v -23.8 0.3 17.7
v -23.8 1.3 17.7
v -23.8 1.4 17.7
v -23.7 1.4 17.7
v -23.7 1.8 17.7
v -23.7 1.9 17.7
v -23.3 1.4 17.7
v -23.3 1.8 17.7
v -23.3 1.9 17.7
v -23.2 0.3 17.7
v -23.2 1.3 17.7
v -23.2 1.4 17.7
v -23.1 0.3 17.7
v -23.1 1.8 17.7
v -23.1 1.9 17.7
v -24 0.1 17.2
v -24 0.3 17.2
v -23.8 0.1 17.2
v -23.8 0.3 17.2
v -23.2 0.1 17.2
v -23.2 0.3 17.2
v -23 0.1 17.2
v -23 0.3 17.2
v -23.9 0.3 17.1
v -23.9 1.8 17.1
v -23.9 1.9 17.1
v -23.8 0.3 17.1
v -23.8 1.3 17.1
v -23.8 1.4 17.1
v -23.7 1.2 17.1
v -23.7 1.3 17.1
v -23.7 1.4 17.1
v -23.7 1.8 17.1
v -23.7 1.9 17.1
v -23.3 1.2 17.1
v -23.3 1.3 17.1
v -23.3 1.4 17.1
v -23.3 1.8 17.1
v -23.3 1.9 17.1
v -23.2 0.3 17.1
v -23.2 1.3 17.1
v -23.2 1.4 17.1
v -23.1 0.3 17.1
v -23.1 1.8 17.1
v -23.1 1.9 17.1
v -23.9 0.9 18.8
v -23.9 1 18.8
v -23.9 1.1 18.8
v -23.8 0.9 18.8
v -23.8 1 18.8
v -23.8 1.1 18.8
v -23.2 0.9 18.8
v -23.2 1 18.8
v -23.2 1.1 18.8
v -23.1 0.9 18.8
v -23.1 1 18.8
v -23.1 1.1 18.8
v -23.9 1.1 18.7
v -23.9 1.5 18.7
v -23.8 1.1 18.7
v -23.8 1.3 18.7
v -23.8 1.4 18.7
v -23.7 1.4 18.7
v -23.7 1.5 18.7
v -23.3 1.4 18.7
v -23.3 1.5 18.7
v -23.2 1.1 18.7
v -23.2 1.3 18.7
v -23.2 1.4 18.7
v -23.1 1.1 18.7
v -23.1 1.5 18.7
v -23.9 0.9 18.1
v -23.9 1 18.1
v -23.9 1.5 18.1
v -23.8 0.9 18.1
v -23.8 1 18.1
v -23.8 1.3 18.1
v -23.8 1.4 18.1
v -23.7 1.4 18.1
v -23.7 1.5 18.1
v -23.3 1.4 18.1
v -23.3 1.5 18.1
v -23.2 0.9 18.1
v -23.2 1 18.1
v -23.2 1.3 18.1
v -23.2 1.4 18.1
v -23.1 0.9 18.1
v -23.1 1 18.1
v -23.1 1.5 18.1
v -23.9 0.3 17.5
v -23.9 1.8 17.5
v -23.9 1.9 17.5
v -23.8 0.3 17.5
v -23.8 1.3 17.5
v -23.8 1.4 17.5
v -23.7 1.4 17.5
v -23.7 1.8 17.5
v -23.7 1.9 17.5
v -23.3 1.4 17.5
v -23.3 1.8 17.5
v -23.3 1.9 17.5
v -23.2 0.3 17.5
v -23.2 1.3 17.5
v -23.2 1.4 17.5
v -23.1 0.3 17.5
v -23.1 1.8 17.5
v -23.1 1.9 17.5
v -24 0.1 17.4
v -24 0.3 17.4
v -23.8 0.1 17.4
v -23.8 0.3 17.4
v -23.2 0.1 17.4
v -23.2 0.3 17.4
v -23 0.1 17.4
v -23 0.3 17.4
v -23.7 0.3 17
v -23.7 1.3 17
v -23.7 1.4 17
v -23.6 0.1 17
v -23.6 0.3 17
v -23.4 0.1 17
v -23.4 0.3 17
v -23.3 0.3 17
v -23.3 1.3 17
v -23.3 1.4 17
v -23.9 0.3 16.9
v -23.9 1.8 16.9
v -23.9 1.9 16.9
v -23.7 0.3 16.9
v -23.7 1.8 16.9
v -23.7 1.9 16.9
v -23.3 0.3 16.9
v -23.3 1.8 16.9
v -23.3 1.9 16.9
v -23.1 0.3 16.9
v -23.1 1.8 16.9
v -23.1 1.9 16.9
v -24 0.1 16.8
v -24 0.3 16.8
v -23.6 0.1 16.8
v -23.6 0.3 16.8
v -23.4 0.1 16.8
v -23.4 0.3 16.8
v -23 0.1 16.8
v -23 0.3 16.8
v -25.5 0 15.3
v -25.5 0.1 15.3
v -21.5 0 15.3
v -21.5 0.1 15.3
v -25.5 0 19.3
v -21.5 0 19.3
v -25.5 0 15.3
v -21.5 0 15.3
v -23.9 0.9 18.9
v -23.8 0.9 18.9
v -23.2 0.9 18.9
v -23.1 0.9 18.9
v -23.9 0.9 18.8
v -23.8 0.9 18.8
v -23.2 0.9 18.8
v -23.1 0.9 18.8
v -23.9 0.9 18.2
v -23.8 0.9 18.2
v -23.2 0.9 18.2
v -23.1 0.9 18.2
v -23.9 0.9 18.1
v -23.8 0.9 18.1
v -23.2 0.9 18.1
v -23.1 0.9 18.1
v -23.9 1.1 19
v -23.8 1.1 19
v -23.2 1.1 19
v -23.1 1.1 19
v -23.9 1.1 18.9
v -23.8 1.1 18.9
v -23.2 1.1 18.9
v -23.1 1.1 18.9
v -23.9 1.1 18.8
v -23.8 1.1 18.8
v -23.2 1.1 18.8
v -23.1 1.1 18.8
v -23.9 1.1 18.7
v -23.8 1.1 18.7
v -23.2 1.1 18.7
v -23.1 1.1 18.7
v -23.9 1.1 18.3
v -23.8 1.1 18.3
v -23.2 1.1 18.3
v -23.1 1.1 18.3
v -23.9 1.1 18.2
v -23.8 1.1 18.2
v -23.2 1.1 18.2
v -23.1 1.1 18.2
v -25.5 0.1 19.3
v -23.8 0.1 19.3
v -23.2 0.1 19.3
v -21.5 0.1 19.3
v -24 0.1 17.8
v -23.8 0.1 17.8
v -23.2 0.1 17.8
v -23 0.1 17.8
v -24 0.1 17.4
v -23.8 0.1 17.4
v -23.2 0.1 17.4
v -23 0.1 17.4
v -24 0.1 17.2
v -23.8 0.1 17.2
v -23.2 0.1 17.2
v -23 0.1 17.2
v -23.6 0.1 17
v -23.4 0.1 17
v -24 0.1 16.8
v -23.6 0.1 16.8
v -23.4 0.1 16.8
v -23 0.1 16.8
v -25.5 0.1 15.3
v -21.5 0.1 15.3
v -24 0.3 17.8
v -23.8 0.3 17.8
v -23.2 0.3 17.8
v -23 0.3 17.8
v -23.9 0.3 17.7
v -23.8 0.3 17.7
v -23.2 0.3 17.7
v -23.1 0.3 17.7
v -23.9 0.3 17.5
v -23.8 0.3 17.5
v -23.2 0.3 17.5
v -23.1 0.3 17.5
v -24 0.3 17.4
v -23.8 0.3 17.4
v -23.2 0.3 17.4
v -23 0.3 17.4
v -24 0.3 17.2
v -23.8 0.3 17.2
v -23.2 0.3 17.2
v -23 0.3 17.2
v -23.9 0.3 17.1
v -23.8 0.3 17.1
v -23.2 0.3 17.1
v -23.1 0.3 17.1
v -23.7 0.3 17
v -23.6 0.3 17
v -23.4 0.3 17
v -23.3 0.3 17
v -23.9 0.3 16.9
v -23.7 0.3 16.9
v -23.3 0.3 16.9
v -23.1 0.3 16.9
v -24 0.3 16.8
v -23.6 0.3 16.8
v -23.4 0.3 16.8
v -23 0.3 16.8
v -23.7 1.2 19.3
v -23.3 1.2 19.3
v -23.7 1.2 17.7
v -23.3 1.2 17.7
v -23.7 1.2 17.5
v -23.3 1.2 17.5
v -23.7 1.2 17.1
v -23.3 1.2 17.1
v -23.8 1.4 19.3
v -23.7 1.4 19.3
v -23.3 1.4 19.3
v -23.2 1.4 19.3
v -23.8 1.4 19
v -23.7 1.4 19
v -23.3 1.4 19
v -23.2 1.4 19
v -23.8 1.4 18.7
v -23.7 1.4 18.7
v -23.3 1.4 18.7
v -23.2 1.4 18.7
v -23.8 1.4 18.3
v -23.7 1.4 18.3
v -23.3 1.4 18.3
v -23.2 1.4 18.3
v -23.8 1.4 18.1
v -23.7 1.4 18.1
v -23.3 1.4 18.1
v -23.2 1.4 18.1
v -23.8 1.4 17.7
v -23.7 1.4 17.7
v -23.3 1.4 17.7
v -23.2 1.4 17.7
v -23.8 1.4 17.5
v -23.7 1.4 17.5
v -23.3 1.4 17.5
v -23.2 1.4 17.5
v -23.8 1.4 17.1
v -23.7 1.4 17.1
v -23.3 1.4 17.1
v -23.2 1.4 17.1
v -23.7 1.4 17
v -23.3 1.4 17
v -23.9 1.5 19
v -23.7 1.5 19
v -23.3 1.5 19
v -23.1 1.5 19
v -23.9 1.5 18.7
v -23.7 1.5 18.7
v -23.3 1.5 18.7
v -23.1 1.5 18.7
v -23.9 1.5 18.3
v -23.7 1.5 18.3
v -23.3 1.5 18.3
v -23.1 1.5 18.3
v -23.9 1.5 18.1
v -23.7 1.5 18.1
v -23.3 1.5 18.1
v -23.1 1.5 18.1
v -23.9 1.9 17.7
v -23.7 1.9 17.7
v -23.3 1.9 17.7
v -23.1 1.9 17.7
v -23.9 1.9 17.5
v -23.7 1.9 17.5
v -23.3 1.9 17.5
v -23.1 1.9 17.5
v -23.9 1.9 17.1
v -23.7 1.9 17.1
v -23.3 1.9 17.1
v -23.1 1.9 17.1
v -23.9 1.9 16.9
v -23.7 1.9 16.9
v -23.3 1.9 16.9
v -23.1 1.9 16.9

# faces
f 3/1/1 2/1/1 1/1/1
f 4/1/1 2/1/1 3/1/1
f 9/6/1 6/6/1 5/6/1
f 10/6/1 6/6/1 9/6/1
f 11/6/1 8/6/1 7/6/1
f 12/6/1 8/6/1 11/6/1
f 21/2/1 18/2/1 17/2/1
f 22/2/1 18/2/1 21/2/1
f 23/2/1 20/2/1 19/2/1
f 24/2/1 20/2/1 23/2/1
f 26/5/1 22/5/1 21/5/1
f 27/5/1 22/5/1 26/5/1
f 30/5/1 24/5/1 23/5/1
f 31/5/1 28/5/1 27/5/1
f 31/5/1 26/5/1 25/5/1
f 31/5/1 27/5/1 26/5/1
f 32/5/1 28/5/1 31/5/1
f 33/5/1 30/5/1 29/5/1
f 34/5/1 24/5/1 30/5/1
f 34/5/1 30/5/1 33/5/1
f 35/5/1 14/5/1 13/5/1
f 36/5/1 14/5/1 35/5/1
f 37/5/1 16/5/1 15/5/1
f 38/5/1 16/5/1 37/5/1
f 39/6/1 36/6/1 35/6/1
f 40/6/1 36/6/1 39/6/1
f 41/6/1 38/6/1 37/6/1
f 42/6/1 38/6/1 41/6/1
f 47/4/1 44/4/1 43/4/1
f 50/4/1 46/4/1 45/4/1
f 51/4/1 46/4/1 50/4/1
f 53/4/1 48/4/1 47/4/1
f 53/4/1 47/4/1 43/4/1
f 54/4/1 48/4/1 53/4/1
f 55/4/1 48/4/1 54/4/1
f 56/4/1 48/4/1 55/4/1
f 57/4/1 53/4/1 43/4/1
f 58/4/1 55/4/1 54/4/1
f 59/4/1 55/4/1 58/4/1
f 60/4/1 48/4/1 56/4/1
f 61/4/1 57/4/1 43/4/1
f 62/4/1 57/4/1 61/4/1
f 63/4/1 59/4/1 58/4/1
f 64/4/1 59/4/1 63/4/1
f 65/4/1 59/4/1 64/4/1
f 66/4/1 59/4/1 65/4/1
f 67/4/1 61/4/1 43/4/1
f 68/4/1 61/4/1 67/4/1
f 69/4/1 65/4/1 64/4/1
f 70/4/1 65/4/1 69/4/1
f 71/4/1 48/4/1 60/4/1
f 72/4/1 48/4/1 71/4/1
f 73/4/1 52/4/1 51/4/1
f 73/4/1 51/4/1 50/4/1
f 73/4/1 50/4/1 49/4/1
f 74/4/1 52/4/1 73/4/1
f 75/6/1 68/6/1 67/6/1
f 76/6/1 68/6/1 75/6/1
f 77/6/1 70/6/1 69/6/1
f 78/6/1 70/6/1 77/6/1
f 79/6/1 72/6/1 71/6/1
f 80/6/1 72/6/1 79/6/1
f 81/6/1 74/6/1 73/6/1
f 82/6/1 74/6/1 81/6/1
f 85/6/1 84/6/1 83/6/1
f 86/6/1 84/6/1 85/6/1
f 93/4/1 90/4/1 89/4/1
f 94/5/1 91/5/1 90/5/1
f 94/4/1 90/4/1 93/4/1
f 95/4/1 92/4/1 91/4/1
f 95/5/1 91/5/1 94/5/1
f 96/4/1 92/4/1 95/4/1
f 97/5/1 88/5/1 87/5/1
f 98/6/1 94/6/1 93/6/1
f 99/6/1 94/6/1 98/6/1
f 100/6/1 94/6/1 99/6/1
f 101/6/1 94/6/1 100/6/1
f 102/6/1 94/6/1 101/6/1
f 103/5/1 95/5/1 94/5/1
f 103/6/1 94/6/1 102/6/1
f 104/6/1 96/6/1 95/6/1
f 104/5/1 95/5/1 103/5/1
f 105/6/1 96/6/1 104/6/1
f 106/5/1 88/5/1 97/5/1
f 107/5/1 100/5/1 99/5/1
f 108/5/1 100/5/1 107/5/1
f 109/5/1 102/5/1 101/5/1
f 110/5/1 102/5/1 109/5/1
f 111/5/1 104/5/1 103/5/1
f 112/5/1 104/5/1 111/5/1
f 113/5/1 106/5/1 105/5/1
f 114/5/1 88/5/1 106/5/1
f 114/5/1 106/5/1 113/5/1
f 115/6/1 112/6/1 111/6/1
f 116/6/1 112/6/1 115/6/1
f 117/6/1 114/6/1 113/6/1
f 118/6/1 114/6/1 117/6/1
f 121/4/2 122/4/2 125/4/2
f 122/5/2 123/5/2 126/5/2
f 125/4/2 122/4/2 126/4/2
f 123/4/2 124/4/2 127/4/2
f 126/5/2 123/5/2 127/5/2
f 127/4/2 124/4/2 128/4/2
f 119/5/2 120/5/2 129/5/2
f 125/6/2 126/6/2 130/6/2
f 130/6/2 126/6/2 131/6/2
f 131/6/2 126/6/2 132/6/2
f 132/6/2 126/6/2 133/6/2
f 133/6/2 126/6/2 134/6/2
f 126/5/2 127/5/2 135/5/2
f 134/6/2 126/6/2 135/6/2
f 127/6/2 128/6/2 136/6/2
f 135/5/2 127/5/2 136/5/2
f 136/6/2 128/6/2 137/6/2
f 129/5/2 120/5/2 138/5/2
f 131/5/2 132/5/2 139/5/2
f 139/5/2 132/5/2 140/5/2
f 133/5/2 134/5/2 141/5/2
f 141/5/2 134/5/2 142/5/2
f 135/5/2 136/5/2 143/5/2
f 143/5/2 136/5/2 144/5/2
f 137/5/2 138/5/2 145/5/2
f 138/5/2 120/5/2 146/5/2
f 145/5/2 138/5/2 146/5/2
f 143/6/2 144/6/2 147/6/2
f 147/6/2 144/6/2 148/6/2
f 145/6/2 146/6/2 149/6/2
f 149/6/2 146/6/2 150/6/2
f 151/6/2 152/6/2 153/6/2
f 153/6/2 152/6/2 154/6/2
f 155/4/2 156/4/2 159/4/2
f 157/4/2 158/4/2 162/4/2
f 162/4/2 158/4/2 163/4/2
f 159/4/2 160/4/2 165/4/2
f 155/4/2 159/4/2 165/4/2
f 165/4/2 160/4/2 166/4/2
f 166/4/2 160/4/2 167/4/2
f 167/4/2 160/4/2 168/4/2
f 155/4/2 165/4/2 169/4/2
f 166/4/2 167/4/2 170/4/2
f 170/4/2 167/4/2 171/4/2
f 168/4/2 160/4/2 172/4/2
f 155/4/2 169/4/2 173/4/2
f 173/4/2 169/4/2 174/4/2
f 170/4/2 171/4/2 175/4/2
f 175/4/2 171/4/2 176/4/2
f 176/4/2 171/4/2 177/4/2
f 177/4/2 171/4/2 178/4/2
f 155/4/2 173/4/2 179/4/2
f 179/4/2 173/4/2 180/4/2
f 176/4/2 177/4/2 181/4/2
f 181/4/2 177/4/2 182/4/2
f 172/4/2 160/4/2 183/4/2
f 183/4/2 160/4/2 184/4/2
f 163/4/2 164/4/2 185/4/2
f 162/4/2 163/4/2 185/4/2
f 161/4/2 162/4/2 185/4/2
f 185/4/2 164/4/2 186/4/2
f 179/6/2 180/6/2 187/6/2
f 187/6/2 180/6/2 188/6/2
f 181/6/2 182/6/2 189/6/2
f 189/6/2 182/6/2 190/6/2
f 183/6/2 184/6/2 191/6/2
f 191/6/2 184/6/2 192/6/2
f 185/6/2 186/6/2 193/6/2
f 193/6/2 186/6/2 194/6/2
f 199/2/2 200/2/2 203/2/2
f 203/2/2 200/2/2 204/2/2
f 201/2/2 202/2/2 205/2/2
f 205/2/2 202/2/2 206/2/2
f 203/5/2 204/5/2 208/5/2
f 208/5/2 204/5/2 209/5/2
f 205/5/2 206/5/2 212/5/2
f 209/5/2 210/5/2 213/5/2
f 207/5/2 208/5/2 213/5/2
f 208/5/2 209/5/2 213/5/2
f 213/5/2 210/5/2 214/5/2
f 211/5/2 212/5/2 215/5/2
f 212/5/2 206/5/2 216/5/2
f 215/5/2 212/5/2 216/5/2
f 195/5/2 196/5/2 217/5/2
f 217/5/2 196/5/2 218/5/2
f 197/5/2 198/5/2 219/5/2
f 219/5/2 198/5/2 220/5/2
f 217/6/2 218/6/2 221/6/2
f 221/6/2 218/6/2 222/6/2
f 219/6/2 220/6/2 223/6/2
f 223/6/2 220/6/2 224/6/2
f 225/6/2 226/6/2 229/6/2
f 229/6/2 226/6/2 230/6/2
f 227/6/2 228/6/2 231/6/2
f 231/6/2 228/6/2 232/6/2
f 233/1/2 234/1/2 235/1/2
f 235/1/2 234/1/2 236/1/2
f 239/1/3 238/1/3 237/1/3
f 242/4/3 240/4/3 239/4/3
f 243/4/3 240/4/3 242/4/3
f 244/6/3 241/6/3 240/6/3
f 244/4/3 240/4/3 243/4/3
f 245/6/3 241/6/3 244/6/3
f 246/3/3 243/3/3 242/3/3
f 246/4/3 242/4/3 239/4/3
f 247/3/3 243/3/3 246/3/3
f 250/1/3 239/1/3 237/1/3
f 250/4/3 246/4/3 239/4/3
f 250/4/3 248/4/3 247/4/3
f 250/4/3 247/4/3 246/4/3
f 251/6/3 249/6/3 248/6/3
f 251/4/3 248/4/3 250/4/3
f 252/6/3 249/6/3 251/6/3
f 253/1/3 250/1/3 237/1/3
f 254/1/3 250/1/3 253/1/3
f 257/5/3 256/5/3 255/5/3
f 258/5/3 256/5/3 257/5/3
f 259/5/3 256/5/3 258/5/3
f 260/5/3 256/5/3 259/5/3
f 261/5/3 256/5/3 260/5/3
f 266/5/3 263/5/3 262/5/3
f 267/5/3 265/5/3 264/5/3
f 267/5/3 266/5/3 265/5/3
f 268/5/3 263/5/3 266/5/3
f 268/5/3 266/5/3 267/5/3
f 272/2/3 270/2/3 269/2/3
f 273/5/3 271/5/3 270/5/3
f 273/2/3 270/2/3 272/2/3
f 274/5/3 271/5/3 273/5/3
f 278/2/3 276/2/3 275/2/3
f 279/5/3 277/5/3 276/5/3
f 279/2/3 276/2/3 278/2/3
f 280/5/3 277/5/3 279/5/3
f 283/5/3 282/5/3 281/5/3
f 284/5/3 282/5/3 283/5/3
f 285/5/3 282/5/3 284/5/3
f 286/5/3 282/5/3 285/5/3
f 287/5/3 282/5/3 286/5/3
f 292/5/3 289/5/3 288/5/3
f 293/5/3 291/5/3 290/5/3
f 293/5/3 292/5/3 291/5/3
f 294/5/3 289/5/3 292/5/3
f 294/5/3 292/5/3 293/5/3
f 298/2/3 296/2/3 295/2/3
f 299/5/3 297/5/3 296/5/3
f 299/2/3 296/2/3 298/2/3
f 300/5/3 297/5/3 299/5/3
f 304/2/3 302/2/3 301/2/3
f 305/5/3 303/5/3 302/5/3
f 305/2/3 302/2/3 304/2/3
f 306/5/3 303/5/3 305/5/3
f 309/6/3 308/6/3 307/6/3
f 310/6/3 308/6/3 309/6/3
f 313/6/3 312/6/3 311/6/3
f 314/6/3 312/6/3 313/6/3
f 318/5/3 316/5/3 315/5/3
f 319/5/3 316/5/3 318/5/3
f 320/5/3 316/5/3 319/5/3
f 321/5/3 316/5/3 320/5/3
f 322/6/3 317/6/3 316/6/3
f 322/5/3 316/5/3 321/5/3
f 323/6/3 317/6/3 322/6/3
f 329/5/3 325/5/3 324/5/3
f 330/5/3 328/5/3 327/5/3
f 330/5/3 329/5/3 328/5/3
f 331/5/3 325/5/3 329/5/3
f 331/5/3 329/5/3 330/5/3
f 331/6/3 326/6/3 325/6/3
f 332/6/3 326/6/3 331/6/3
f 335/6/3 334/6/3 333/6/3
f 336/6/3 334/6/3 335/6/3
f 339/6/3 338/6/3 337/6/3
f 340/6/3 338/6/3 339/6/3
f 344/5/3 342/5/3 341/5/3
f 345/5/3 342/5/3 344/5/3
f 346/5/3 342/5/3 345/5/3
f 349/5/3 342/5/3 346/5/3
f 350/6/3 343/6/3 342/6/3
f 350/5/3 342/5/3 349/5/3
f 351/6/3 343/6/3 350/6/3
f 352/4/3 348/4/3 347/4/3
f 353/6/3 349/6/3 348/6/3
f 353/4/3 348/4/3 352/4/3
f 354/6/3 349/6/3 353/6/3
f 359/5/3 355/5/3 354/5/3
f 360/5/3 358/5/3 357/5/3
f 360/5/3 359/5/3 358/5/3
f 361/6/3 356/6/3 355/6/3
f 361/5/3 359/5/3 360/5/3
f 361/5/3 355/5/3 359/5/3
f 362/6/3 356/6/3 361/6/3
f 363/2/4 364/2/4 366/2/4
f 364/5/4 365/5/4 367/5/4
f 366/2/4 364/2/4 367/2/4
f 367/5/4 365/5/4 368/5/4
f 369/2/4 370/2/4 372/2/4
f 370/5/4 371/5/4 373/5/4
f 372/2/4 370/2/4 373/2/4
f 373/5/4 371/5/4 374/5/4
f 375/5/4 376/5/4 377/5/4
f 377/5/4 376/5/4 378/5/4
f 378/5/4 376/5/4 379/5/4
f 379/5/4 376/5/4 380/5/4
f 380/5/4 376/5/4 381/5/4
f 382/5/4 383/5/4 386/5/4
f 384/5/4 385/5/4 387/5/4
f 385/5/4 386/5/4 387/5/4
f 386/5/4 383/5/4 388/5/4
f 387/5/4 386/5/4 388/5/4
f 389/2/4 390/2/4 392/2/4
f 390/5/4 391/5/4 393/5/4
f 392/2/4 390/2/4 393/2/4
f 393/5/4 391/5/4 394/5/4
f 394/5/4 391/5/4 395/5/4
f 395/5/4 391/5/4 396/5/4
f 396/5/4 391/5/4 397/5/4
f 398/5/4 399/5/4 403/5/4
f 400/2/4 401/2/4 404/2/4
f 401/5/4 402/5/4 405/5/4
f 404/2/4 401/2/4 405/2/4
f 402/5/4 403/5/4 405/5/4
f 403/5/4 399/5/4 406/5/4
f 405/5/4 403/5/4 406/5/4
f 407/5/4 408/5/4 410/5/4
f 410/5/4 408/5/4 411/5/4
f 411/5/4 408/5/4 412/5/4
f 412/5/4 408/5/4 413/5/4
f 408/6/4 409/6/4 414/6/4
f 413/5/4 408/5/4 414/5/4
f 414/6/4 409/6/4 415/6/4
f 416/5/4 417/5/4 421/5/4
f 419/5/4 420/5/4 422/5/4
f 420/5/4 421/5/4 422/5/4
f 421/5/4 417/5/4 423/5/4
f 422/5/4 421/5/4 423/5/4
f 417/6/4 418/6/4 423/6/4
f 423/6/4 418/6/4 424/6/4
f 425/6/4 426/6/4 427/6/4
f 427/6/4 426/6/4 428/6/4
f 429/6/4 430/6/4 431/6/4
f 431/6/4 430/6/4 432/6/4
f 433/4/4 434/4/4 437/4/4
f 436/4/4 437/4/4 438/4/4
f 437/4/4 434/4/4 439/4/4
f 438/4/4 437/4/4 439/4/4
f 439/4/4 434/4/4 440/4/4
f 434/6/4 435/6/4 441/6/4
f 440/4/4 434/4/4 441/4/4
f 441/6/4 435/6/4 442/6/4
f 443/5/4 444/5/4 446/5/4
f 444/6/4 445/6/4 447/6/4
f 446/5/4 444/5/4 447/5/4
f 447/6/4 445/6/4 448/6/4
f 449/5/4 450/5/4 452/5/4
f 450/6/4 451/6/4 453/6/4
f 452/5/4 450/5/4 453/5/4
f 453/6/4 451/6/4 454/6/4
f 455/6/4 456/6/4 457/6/4
f 457/6/4 456/6/4 458/6/4
f 459/6/4 460/6/4 461/6/4
f 461/6/4 460/6/4 462/6/4
f 463/1/4 464/1/4 465/1/4
f 465/1/4 464/1/4 466/1/4
f 469/1/5 468/1/5 467/1/5
f 470/1/5 468/1/5 469/1/5
f 475/2/5 472/2/5 471/2/5
f 476/2/5 472/2/5 475/2/5
f 477/2/5 474/2/5 473/2/5
f 478/2/5 474/2/5 477/2/5
f 483/2/5 480/2/5 479/2/5
f 484/2/5 480/2/5 483/2/5
f 485/2/5 482/2/5 481/2/5
f 486/2/5 482/2/5 485/2/5
f 491/5/5 488/5/5 487/5/5
f 492/5/5 488/5/5 491/5/5
f 493/5/5 490/5/5 489/5/5
f 494/5/5 490/5/5 493/5/5
f 499/5/5 496/5/5 495/5/5
f 500/5/5 496/5/5 499/5/5
f 501/5/5 498/5/5 497/5/5
f 502/5/5 498/5/5 501/5/5
f 507/5/5 504/5/5 503/5/5
f 508/5/5 504/5/5 507/5/5
f 509/5/5 506/5/5 505/5/5
f 510/5/5 506/5/5 509/5/5
f 511/1/6 512/1/6 515/1/6
f 515/1/6 512/1/6 516/1/6
f 513/1/6 514/1/6 517/1/6
f 517/1/6 514/1/6 518/1/6
f 511/1/6 515/1/6 519/1/6
f 518/1/6 514/1/6 522/1/6
f 519/1/6 520/1/6 523/1/6
f 511/1/6 519/1/6 523/1/6
f 523/1/6 520/1/6 524/1/6
f 521/1/6 522/1/6 525/1/6
f 522/1/6 514/1/6 526/1/6
f 525/1/6 522/1/6 526/1/6
f 511/1/6 523/1/6 529/1/6
f 527/1/6 528/1/6 530/1/6
f 530/1/6 528/1/6 531/1/6
f 526/1/6 514/1/6 532/1/6
f 530/1/6 531/1/6 533/1/6
f 531/1/6 532/1/6 533/1/6
f 511/1/6 529/1/6 533/1/6
f 529/1/6 530/1/6 533/1/6
f 532/1/6 514/1/6 534/1/6
f 533/1/6 532/1/6 534/1/6
f 535/6/6 536/6/6 539/6/6
f 539/6/6 536/6/6 540/6/6
f 537/6/6 538/6/6 541/6/6
f 541/6/6 538/6/6 542/6/6
f 535/6/6 539/6/6 543/6/6
f 542/6/6 538/6/6 546/6/6
f 543/6/6 544/6/6 547/6/6
f 535/6/6 543/6/6 547/6/6
f 547/6/6 544/6/6 548/6/6
f 545/6/6 546/6/6 549/6/6
f 546/6/6 538/6/6 550/6/6
f 549/6/6 546/6/6 550/6/6
f 551/6/6 552/6/6 555/6/6
f 555/6/6 552/6/6 556/6/6
f 553/6/6 554/6/6 557/6/6
f 557/6/6 554/6/6 558/6/6
f 551/6/6 555/6/6 563/6/6
f 559/6/6 560/6/6 564/6/6
f 561/6/6 562/6/6 565/6/6
f 558/6/6 554/6/6 566/6/6
f 563/6/6 564/6/6 567/6/6
f 551/6/6 563/6/6 567/6/6
f 564/6/6 560/6/6 568/6/6
f 567/6/6 564/6/6 568/6/6
f 561/6/6 565/6/6 569/6/6
f 565/6/6 566/6/6 569/6/6
f 566/6/6 554/6/6 570/6/6
f 569/6/6 566/6/6 570/6/6
f 571/3/6 572/3/6 573/3/6
f 573/3/6 572/3/6 574/3/6
f 573/3/6 574/3/6 575/3/6
f 575/3/6 574/3/6 576/3/6
f 575/3/6 576/3/6 577/3/6
f 577/3/6 576/3/6 578/3/6
f 579/6/6 580/6/6 583/6/6
f 583/6/6 580/6/6 584/6/6
f 581/6/6 582/6/6 585/6/6
f 585/6/6 582/6/6 586/6/6
f 587/6/6 588/6/6 591/6/6
f 591/6/6 588/6/6 592/6/6
f 589/6/6 590/6/6 593/6/6
f 593/6/6 590/6/6 594/6/6
f 595/6/6 596/6/6 599/6/6
f 599/6/6 596/6/6 600/6/6
f 597/6/6 598/6/6 601/6/6
f 601/6/6 598/6/6 602/6/6
f 603/6/6 604/6/6 607/6/6
f 607/6/6 604/6/6 608/6/6
f 605/6/6 606/6/6 609/6/6
f 609/6/6 606/6/6 610/6/6
f 608/6/6 609/6/6 611/6/6
f 611/6/6 609/6/6 612/6/6
f 613/5/6 614/5/6 617/5/6
f 617/5/6 614/5/6 618/5/6
f 615/5/6 616/5/6 619/5/6
f 619/5/6 616/5/6 620/5/6
f 621/5/6 622/5/6 625/5/6
f 625/5/6 622/5/6 626/5/6
f 623/5/6 624/5/6 627/5/6
f 627/5/6 624/5/6 628/5/6
f 629/6/6 630/6/6 633/6/6
f 633/6/6 630/6/6 634/6/6
f 631/6/6 632/6/6 635/6/6
f 635/6/6 632/6/6 636/6/6
f 637/6/6 638/6/6 641/6/6
f 641/6/6 638/6/6 642/6/6
f 639/6/6 640/6/6 643/6/6
f 643/6/6 640/6/6 644/6/6
