# MagicaVoxel @ Ephtracy

# group
o 

# material
mtllib towers-259.mtl
usemtl palette

# normals
vn -1 0 0
vn 1 0 0
vn 0 0 1
vn 0 0 -1
vn 0 -1 0
vn 0 1 0

# texcoords
vt 0.541016 0.5
vt 0.587891 0.5
vt 0.947266 0.5
vt 0.978516 0.5
vt 0.982422 0.5
vt 0.986328 0.5

# verts
v -25.5 0 19.3
v -25.5 0 15.3
v -25.5 0.1 19.3
v -25.5 0.1 15.3
v -24 0.1 17.8
v -24 0.1 17.4
v -24 0.1 17.2
v -24 0.1 16.8
v -24 0.3 17.8
v -24 0.3 17.4
v -24 0.3 17.2
v -24 0.3 16.8
v -23.9 0.3 17.7
v -23.9 0.3 17.5
v -23.9 0.3 17.1
v -23.9 0.3 16.9
v -23.9 1.8 17.7
v -23.9 1.8 17.5
v -23.9 1.8 17.1
v -23.9 1.8 16.9
v -23.9 1.9 17.7
v -23.9 1.9 17.5
v -23.9 1.9 17.1
v -23.9 1.9 16.9
v -23.8 0.1 17.4
v -23.8 0.1 17.2
v -23.8 0.3 17.5
v -23.8 0.3 17.4
v -23.8 0.3 17.2
v -23.8 0.3 17.1
v -23.8 1.3 17.5
v -23.8 1.3 17.1
v -23.8 1.4 17.5
v -23.8 1.4 17.1
v -23.4 0.1 17.8
v -23.4 0.1 17.6
v -23.4 0.1 17
v -23.4 0.1 16.8
v -23.4 0.3 17.8
v -23.4 0.3 17.6
v -23.4 0.3 17
v -23.4 0.3 16.8
v -23.3 0.3 17.7
v -23.3 0.3 17.6
v -23.3 0.3 17
v -23.3 0.3 16.9
v -23.3 1.3 17.6
v -23.3 1.3 17
v -23.3 1.4 17.6
v -23.3 1.4 17.5
v -23.3 1.4 17.1
v -23.3 1.4 17
v -23.3 1.8 17.7
v -23.3 1.8 17.5
v -23.3 1.8 17.1
v -23.3 1.8 16.9
v -23.3 1.9 17.7
v -23.3 1.9 17.5
v -23.3 1.9 17.1
v -23.3 1.9 16.9
v -22.7 0.9 17.7
v -22.7 0.9 17.6
v -22.7 0.9 17
v -22.7 0.9 16.9
v -22.7 1 17.7
v -22.7 1 17.6
v -22.7 1 17
v -22.7 1 16.9
v -22.7 1.3 17.6
v -22.7 1.3 17
v -22.7 1.4 17.6
v -22.7 1.4 17.5
v -22.7 1.4 17.1
v -22.7 1.4 17
v -22.7 1.5 17.7
v -22.7 1.5 17.5
v -22.7 1.5 17.1
v -22.7 1.5 16.9
v -22.1 1.1 17.7
v -22.1 1.1 17.6
v -22.1 1.1 17
v -22.1 1.1 16.9
v -22.1 1.3 17.6
v -22.1 1.3 17
v -22.1 1.4 17.6
v -22.1 1.4 17.5
v -22.1 1.4 17.1
v -22.1 1.4 17
v -22.1 1.5 17.7
v -22.1 1.5 17.5
v -22.1 1.5 17.1
v -22.1 1.5 16.9
v -22 0.9 17.7
v -22 0.9 17.6
v -22 0.9 17
v -22 0.9 16.9
v -22 1 17.7
v -22 1 17.6
v -22 1 17
v -22 1 16.9
v -22 1.1 17.7
v -22 1.1 17.6
v -22 1.1 17
v -22 1.1 16.9
v -23.7 0.3 17.7
v -23.7 0.3 17.6
v -23.7 0.3 17
v -23.7 0.3 16.9
v -23.7 1.2 17.5
v -23.7 1.2 17.1
v -23.7 1.3 17.6
v -23.7 1.3 17.5
v -23.7 1.3 17.1
v -23.7 1.3 17
v -23.7 1.4 17.6
v -23.7 1.4 17.5
v -23.7 1.4 17.1
v -23.7 1.4 17
v -23.7 1.8 17.7
v -23.7 1.8 17.5
v -23.7 1.8 17.1
v -23.7 1.8 16.9
v -23.7 1.9 17.7
v -23.7 1.9 17.5
v -23.7 1.9 17.1
v -23.7 1.9 16.9
v -23.6 0.1 17.8
v -23.6 0.1 17.6
v -23.6 0.1 17
v -23.6 0.1 16.8
v -23.6 0.3 17.8
v -23.6 0.3 17.6
v -23.6 0.3 17
v -23.6 0.3 16.8
v -23.1 0.3 17.7
v -23.1 0.3 17.6
v -23.1 0.3 17
v -23.1 0.3 16.9
v -23.1 1.3 17.6
v -23.1 1.3 17
v -23.1 1.4 17.6
v -23.1 1.4 17.5
v -23.1 1.4 17.1
v -23.1 1.4 17
v -23.1 1.8 17.7
v -23.1 1.8 17.5
v -23.1 1.8 17.1
v -23.1 1.8 16.9
v -23.1 1.9 17.7
v -23.1 1.9 17.5
v -23.1 1.9 17.1
v -23.1 1.9 16.9
v -23 0.1 17.8
v -23 0.1 17.6
v -23 0.1 17
v -23 0.1 16.8
v -23 0.3 17.8
v -23 0.3 17.6
v -23 0.3 17
v -23 0.3 16.8
v -22.6 0.9 17.7
v -22.6 0.9 17.6
v -22.6 0.9 17
v -22.6 0.9 16.9
v -22.6 1 17.7
v -22.6 1 17.6
v -22.6 1 17
v -22.6 1 16.9
v -22.6 1.1 17.7
v -22.6 1.1 17.6
v -22.6 1.1 17
v -22.6 1.1 16.9
v -22.5 1.1 17.7
v -22.5 1.1 17.6
v -22.5 1.1 17
v -22.5 1.1 16.9
v -22.5 1.3 17.6
v -22.5 1.3 17
v -22.5 1.4 17.6
v -22.5 1.4 17.5
v -22.5 1.4 17.1
v -22.5 1.4 17
v -22.5 1.5 17.7
v -22.5 1.5 17.5
v -22.5 1.5 17.1
v -22.5 1.5 16.9
v -21.9 0.9 17.7
v -21.9 0.9 17.6
v -21.9 0.9 17
v -21.9 0.9 16.9
v -21.9 1 17.7
v -21.9 1 17.6
v -21.9 1 17
v -21.9 1 16.9
v -21.9 1.1 17.7
v -21.9 1.1 17.6
v -21.9 1.1 17
v -21.9 1.1 16.9
v -21.8 1.1 17.7
v -21.8 1.1 17.6
v -21.8 1.1 17
v -21.8 1.1 16.9
v -21.8 1.3 17.6
v -21.8 1.3 17
v -21.8 1.4 17.6
v -21.8 1.4 17.5
v -21.8 1.4 17.1
v -21.8 1.4 17
v -21.8 1.5 17.7
v -21.8 1.5 17.5
v -21.8 1.5 17.1
v -21.8 1.5 16.9
v -21.5 0 19.3
v -21.5 0 15.3
v -21.5 0.1 19.3
v -21.5 0.1 17.6
v -21.5 0.1 17
v -21.5 0.1 15.3
v -21.5 1.1 17.5
v -21.5 1.1 17.1
v -21.5 1.2 17.5
v -21.5 1.2 17.1
v -21.5 1.3 17.6
v -21.5 1.3 17.5
v -21.5 1.3 17.1
v -21.5 1.3 17
v -21.5 1.4 17.6
v -21.5 1.4 17.5
v -21.5 1.4 17.1
v -21.5 1.4 17
v -25.5 0 19.3
v -25.5 0.1 19.3
v -21.5 0 19.3
v -21.5 0.1 19.3
v -24 0.1 17.8
v -24 0.3 17.8
v -23.6 0.1 17.8
v -23.6 0.3 17.8
v -23.4 0.1 17.8
v -23.4 0.3 17.8
v -23 0.1 17.8
v -23 0.3 17.8
v -23.9 0.3 17.7
v -23.9 1.8 17.7
v -23.9 1.9 17.7
v -23.7 0.3 17.7
v -23.7 1.8 17.7
v -23.7 1.9 17.7
v -23.3 0.3 17.7
v -23.3 1.8 17.7
v -23.3 1.9 17.7
v -23.1 0.3 17.7
v -23.1 1.8 17.7
v -23.1 1.9 17.7
v -22.7 0.9 17.7
v -22.7 1 17.7
v -22.7 1.5 17.7
v -22.6 0.9 17.7
v -22.6 1 17.7
v -22.6 1.1 17.7
v -22.5 1.1 17.7
v -22.5 1.5 17.7
v -22.1 1.1 17.7
v -22.1 1.5 17.7
v -22 0.9 17.7
v -22 1 17.7
v -22 1.1 17.7
v -21.9 0.9 17.7
v -21.9 1 17.7
v -21.9 1.1 17.7
v -21.8 1.1 17.7
v -21.8 1.5 17.7
v -23.7 0.3 17.6
v -23.7 1.3 17.6
v -23.7 1.4 17.6
v -23.6 0.1 17.6
v -23.6 0.3 17.6
v -23.4 0.1 17.6
v -23.4 0.3 17.6
v -23.3 0.3 17.6
v -23.3 1.3 17.6
v -23.3 1.4 17.6
v -23.1 0.3 17.6
v -23.1 1.3 17.6
v -23.1 1.4 17.6
v -23 0.1 17.6
v -23 0.3 17.6
v -22.7 0.9 17.6
v -22.7 1 17.6
v -22.7 1.3 17.6
v -22.7 1.4 17.6
v -22.6 0.9 17.6
v -22.6 1 17.6
v -22.6 1.1 17.6
v -22.5 1.1 17.6
v -22.5 1.3 17.6
v -22.5 1.4 17.6
v -22.1 1.1 17.6
v -22.1 1.3 17.6
v -22.1 1.4 17.6
v -22 0.9 17.6
v -22 1 17.6
v -22 1.1 17.6
v -21.9 0.9 17.6
v -21.9 1 17.6
v -21.9 1.1 17.6
v -21.8 1.1 17.6
v -21.8 1.3 17.6
v -21.8 1.4 17.6
v -21.5 0.1 17.6
v -21.5 1.3 17.6
v -21.5 1.4 17.6
v -24 0.1 17.2
v -24 0.3 17.2
v -23.8 0.1 17.2
v -23.8 0.3 17.2
v -23.9 0.3 17.1
v -23.9 1.8 17.1
v -23.9 1.9 17.1
v -23.8 0.3 17.1
v -23.8 1.3 17.1
v -23.8 1.4 17.1
v -23.7 1.2 17.1
v -23.7 1.3 17.1
v -23.7 1.4 17.1
v -23.7 1.8 17.1
v -23.7 1.9 17.1
v -23.3 1.2 17.1
v -23.3 1.3 17.1
v -23.3 1.4 17.1
v -23.3 1.8 17.1
v -23.3 1.9 17.1
v -23.1 1.2 17.1
v -23.1 1.3 17.1
v -23.1 1.4 17.1
v -23.1 1.8 17.1
v -23.1 1.9 17.1
v -22.7 1.4 17.1
v -22.7 1.5 17.1
v -22.5 1.4 17.1
v -22.5 1.5 17.1
v -22.1 1.4 17.1
v -22.1 1.5 17.1
v -21.8 1.4 17.1
v -21.8 1.5 17.1
v -21.5 1.2 17.1
v -21.5 1.3 17.1
v -21.5 1.4 17.1
v -23.9 0.3 17.5
v -23.9 1.8 17.5
v -23.9 1.9 17.5
v -23.8 0.3 17.5
v -23.8 1.3 17.5
v -23.8 1.4 17.5
v -23.7 1.2 17.5
v -23.7 1.3 17.5
v -23.7 1.4 17.5
v -23.7 1.8 17.5
v -23.7 1.9 17.5
v -23.3 1.2 17.5
v -23.3 1.3 17.5
v -23.3 1.4 17.5
v -23.3 1.8 17.5
v -23.3 1.9 17.5
v -23.1 1.2 17.5
v -23.1 1.3 17.5
v -23.1 1.4 17.5
v -23.1 1.8 17.5
v -23.1 1.9 17.5
v -22.7 1.4 17.5
v -22.7 1.5 17.5
v -22.5 1.4 17.5
v -22.5 1.5 17.5
v -22.1 1.4 17.5
v -22.1 1.5 17.5
v -21.8 1.4 17.5
v -21.8 1.5 17.5
v -21.5 1.2 17.5
v -21.5 1.3 17.5
v -21.5 1.4 17.5
v -24 0.1 17.4
v -24 0.3 17.4
v -23.8 0.1 17.4
v -23.8 0.3 17.4
v -23.7 0.3 17
v -23.7 1.3 17
v -23.7 1.4 17
v -23.6 0.1 17
v -23.6 0.3 17
v -23.4 0.1 17
v -23.4 0.3 17
v -23.3 0.3 17
v -23.3 1.3 17
v -23.3 1.4 17
v -23.1 0.3 17
v -23.1 1.3 17
v -23.1 1.4 17
v -23 0.1 17
v -23 0.3 17
v -22.7 0.9 17
v -22.7 1 17
v -22.7 1.3 17
v -22.7 1.4 17
v -22.6 0.9 17
v -22.6 1 17
v -22.6 1.1 17
v -22.5 1.1 17
v -22.5 1.3 17
v -22.5 1.4 17
v -22.1 1.1 17
v -22.1 1.3 17
v -22.1 1.4 17
v -22 0.9 17
v -22 1 17
v -22 1.1 17
v -21.9 0.9 17
v -21.9 1 17
v -21.9 1.1 17
v -21.8 1.1 17
v -21.8 1.3 17
v -21.8 1.4 17
v -21.5 0.1 17
v -21.5 1.3 17
v -21.5 1.4 17
v -23.9 0.3 16.9
v -23.9 1.8 16.9
v -23.9 1.9 16.9
v -23.7 0.3 16.9
v -23.7 1.8 16.9
v -23.7 1.9 16.9
v -23.3 0.3 16.9
v -23.3 1.8 16.9
v -23.3 1.9 16.9
v -23.1 0.3 16.9
v -23.1 1.8 16.9
v -23.1 1.9 16.9
v -22.7 0.9 16.9
v -22.7 1 16.9
v -22.7 1.5 16.9
v -22.6 0.9 16.9
v -22.6 1 16.9
v -22.6 1.1 16.9
v -22.5 1.1 16.9
v -22.5 1.5 16.9
v -22.1 1.1 16.9
v -22.1 1.5 16.9
v -22 0.9 16.9
v -22 1 16.9
v -22 1.1 16.9
v -21.9 0.9 16.9
v -21.9 1 16.9
v -21.9 1.1 16.9
v -21.8 1.1 16.9
v -21.8 1.5 16.9
v -24 0.1 16.8
v -24 0.3 16.8
v -23.6 0.1 16.8
v -23.6 0.3 16.8
v -23.4 0.1 16.8
v -23.4 0.3 16.8
v -23 0.1 16.8
v -23 0.3 16.8
v -25.5 0 15.3
v -25.5 0.1 15.3
v -21.5 0 15.3
v -21.5 0.1 15.3
v -25.5 0 19.3
v -21.5 0 19.3
v -25.5 0 15.3
v -21.5 0 15.3
v -22.7 0.9 17.7
v -22.6 0.9 17.7
v -22 0.9 17.7
v -21.9 0.9 17.7
v -22.7 0.9 17.6
v -22.6 0.9 17.6
v -22 0.9 17.6
v -21.9 0.9 17.6
v -22.7 0.9 17
v -22.6 0.9 17
v -22 0.9 17
v -21.9 0.9 17
v -22.7 0.9 16.9
v -22.6 0.9 16.9
v -22 0.9 16.9
v -21.9 0.9 16.9
v -22.6 1.1 17.7
v -22.5 1.1 17.7
v -22.1 1.1 17.7
v -22 1.1 17.7
v -21.9 1.1 17.7
v -21.8 1.1 17.7
v -22.6 1.1 17.6
v -22.5 1.1 17.6
v -22.1 1.1 17.6
v -22 1.1 17.6
v -21.9 1.1 17.6
v -21.8 1.1 17.6
v -22.6 1.1 17
v -22.5 1.1 17
v -22.1 1.1 17
v -22 1.1 17
v -21.9 1.1 17
v -21.8 1.1 17
v -22.6 1.1 16.9
v -22.5 1.1 16.9
v -22.1 1.1 16.9
v -22 1.1 16.9
v -21.9 1.1 16.9
v -21.8 1.1 16.9
v -25.5 0.1 19.3
v -21.5 0.1 19.3
v -24 0.1 17.8
v -23.6 0.1 17.8
v -23.4 0.1 17.8
v -23 0.1 17.8
v -23.6 0.1 17.6
v -23.4 0.1 17.6
v -23 0.1 17.6
v -21.5 0.1 17.6
v -24 0.1 17.4
v -23.8 0.1 17.4
v -24 0.1 17.2
v -23.8 0.1 17.2
v -23.6 0.1 17
v -23.4 0.1 17
v -23 0.1 17
v -21.5 0.1 17
v -24 0.1 16.8
v -23.6 0.1 16.8
v -23.4 0.1 16.8
v -23 0.1 16.8
v -25.5 0.1 15.3
v -21.5 0.1 15.3
v -24 0.3 17.8
v -23.6 0.3 17.8
v -23.4 0.3 17.8
v -23 0.3 17.8
v -23.9 0.3 17.7
v -23.7 0.3 17.7
v -23.3 0.3 17.7
v -23.1 0.3 17.7
v -23.7 0.3 17.6
v -23.6 0.3 17.6
v -23.4 0.3 17.6
v -23.3 0.3 17.6
v -23.1 0.3 17.6
v -23 0.3 17.6
v -23.9 0.3 17.5
v -23.8 0.3 17.5
v -24 0.3 17.4
v -23.8 0.3 17.4
v -24 0.3 17.2
v -23.8 0.3 17.2
v -23.9 0.3 17.1
v -23.8 0.3 17.1
v -23.7 0.3 17
v -23.6 0.3 17
v -23.4 0.3 17
v -23.3 0.3 17
v -23.1 0.3 17
v -23 0.3 17
v -23.9 0.3 16.9
v -23.7 0.3 16.9
v -23.3 0.3 16.9
v -23.1 0.3 16.9
v -24 0.3 16.8
v -23.6 0.3 16.8
v -23.4 0.3 16.8
v -23 0.3 16.8
v -23.7 1.2 17.5
v -23.3 1.2 17.5
v -23.1 1.2 17.5
v -21.5 1.2 17.5
v -23.7 1.2 17.1
v -23.3 1.2 17.1
v -23.1 1.2 17.1
v -21.5 1.2 17.1
v -23.7 1.4 17.6
v -23.3 1.4 17.6
v -23.1 1.4 17.6
v -22.7 1.4 17.6
v -22.5 1.4 17.6
v -22.1 1.4 17.6
v -21.8 1.4 17.6
v -21.5 1.4 17.6
v -23.8 1.4 17.5
v -23.7 1.4 17.5
v -23.3 1.4 17.5
v -23.1 1.4 17.5
v -22.7 1.4 17.5
v -22.5 1.4 17.5
v -22.1 1.4 17.5
v -21.8 1.4 17.5
v -21.5 1.4 17.5
v -23.8 1.4 17.1
v -23.7 1.4 17.1
v -23.3 1.4 17.1
v -23.1 1.4 17.1
v -22.7 1.4 17.1
v -22.5 1.4 17.1
v -22.1 1.4 17.1
v -21.8 1.4 17.1
v -21.5 1.4 17.1
v -23.7 1.4 17
v -23.3 1.4 17
v -23.1 1.4 17
v -22.7 1.4 17
v -22.5 1.4 17
v -22.1 1.4 17
v -21.8 1.4 17
v -21.5 1.4 17
v -22.7 1.5 17.7
v -22.5 1.5 17.7
v -22.1 1.5 17.7
v -21.8 1.5 17.7
v -22.7 1.5 17.5
v -22.5 1.5 17.5
v -22.1 1.5 17.5
v -21.8 1.5 17.5
v -22.7 1.5 17.1
v -22.5 1.5 17.1
v -22.1 1.5 17.1
v -21.8 1.5 17.1
v -22.7 1.5 16.9
v -22.5 1.5 16.9
v -22.1 1.5 16.9
v -21.8 1.5 16.9
v -23.9 1.9 17.7
v -23.7 1.9 17.7
v -23.3 1.9 17.7
v -23.1 1.9 17.7
v -23.9 1.9 17.5
v -23.7 1.9 17.5
v -23.3 1.9 17.5
v -23.1 1.9 17.5
v -23.9 1.9 17.1
v -23.7 1.9 17.1
v -23.3 1.9 17.1
v -23.1 1.9 17.1
v -23.9 1.9 16.9
v -23.7 1.9 16.9
v -23.3 1.9 16.9
v -23.1 1.9 16.9

# faces
f 3/1/1 2/1/1 1/1/1
f 4/1/1 2/1/1 3/1/1
f 9/6/1 6/6/1 5/6/1
f 10/6/1 6/6/1 9/6/1
f 11/6/1 8/6/1 7/6/1
f 12/6/1 8/6/1 11/6/1
f 17/5/1 14/5/1 13/5/1
f 18/5/1 14/5/1 17/5/1
f 19/5/1 16/5/1 15/5/1
f 20/5/1 16/5/1 19/5/1
f 21/6/1 18/6/1 17/6/1
f 22/6/1 18/6/1 21/6/1
f 23/6/1 20/6/1 19/6/1
f 24/6/1 20/6/1 23/6/1
f 28/4/1 26/4/1 25/4/1
f 29/4/1 26/4/1 28/4/1
f 31/4/1 28/4/1 27/4/1
f 31/4/1 30/4/1 29/4/1
f 31/4/1 29/4/1 28/4/1
f 32/4/1 30/4/1 31/4/1
f 33/6/1 32/6/1 31/6/1
f 34/6/1 32/6/1 33/6/1
f 39/6/1 36/6/1 35/6/1
f 40/6/1 36/6/1 39/6/1
f 41/6/1 38/6/1 37/6/1
f 42/6/1 38/6/1 41/6/1
f 47/5/1 44/5/1 43/5/1
f 48/5/1 46/5/1 45/5/1
f 49/5/1 47/5/1 43/5/1
f 52/5/1 46/5/1 48/5/1
f 53/5/1 50/5/1 49/5/1
f 53/5/1 49/5/1 43/5/1
f 54/5/1 50/5/1 53/5/1
f 55/5/1 52/5/1 51/5/1
f 56/5/1 46/5/1 52/5/1
f 56/5/1 52/5/1 55/5/1
f 57/6/1 54/6/1 53/6/1
f 58/6/1 54/6/1 57/6/1
f 59/6/1 56/6/1 55/6/1
f 60/6/1 56/6/1 59/6/1
f 65/2/1 62/2/1 61/2/1
f 66/2/1 62/2/1 65/2/1
f 67/2/1 64/2/1 63/2/1
f 68/2/1 64/2/1 67/2/1
f 69/5/1 66/5/1 65/5/1
f 70/5/1 68/5/1 67/5/1
f 71/5/1 69/5/1 65/5/1
f 74/5/1 68/5/1 70/5/1
f 75/5/1 72/5/1 71/5/1
f 75/5/1 71/5/1 65/5/1
f 76/5/1 72/5/1 75/5/1
f 77/5/1 74/5/1 73/5/1
f 78/5/1 68/5/1 74/5/1
f 78/5/1 74/5/1 77/5/1
f 83/5/1 80/5/1 79/5/1
f 84/5/1 82/5/1 81/5/1
f 85/5/1 83/5/1 79/5/1
f 88/5/1 82/5/1 84/5/1
f 89/5/1 86/5/1 85/5/1
f 89/5/1 85/5/1 79/5/1
f 90/5/1 86/5/1 89/5/1
f 91/5/1 88/5/1 87/5/1
f 92/5/1 82/5/1 88/5/1
f 92/5/1 88/5/1 91/5/1
f 97/2/1 94/2/1 93/2/1
f 98/2/1 94/2/1 97/2/1
f 99/2/1 96/2/1 95/2/1
f 100/2/1 96/2/1 99/2/1
f 101/5/1 98/5/1 97/5/1
f 102/5/1 98/5/1 101/5/1
f 103/5/1 100/5/1 99/5/1
f 104/5/1 100/5/1 103/5/1
f 105/5/2 106/5/2 111/5/2
f 109/4/2 110/4/2 112/4/2
f 112/4/2 110/4/2 113/4/2
f 107/5/2 108/5/2 114/5/2
f 105/5/2 111/5/2 115/5/2
f 112/6/2 113/6/2 116/6/2
f 116/6/2 113/6/2 117/6/2
f 114/5/2 108/5/2 118/5/2
f 105/5/2 115/5/2 119/5/2
f 115/5/2 116/5/2 119/5/2
f 119/5/2 116/5/2 120/5/2
f 117/5/2 118/5/2 121/5/2
f 118/5/2 108/5/2 122/5/2
f 121/5/2 118/5/2 122/5/2
f 119/6/2 120/6/2 123/6/2
f 123/6/2 120/6/2 124/6/2
f 121/6/2 122/6/2 125/6/2
f 125/6/2 122/6/2 126/6/2
f 127/6/2 128/6/2 131/6/2
f 131/6/2 128/6/2 132/6/2
f 129/6/2 130/6/2 133/6/2
f 133/6/2 130/6/2 134/6/2
f 135/5/2 136/5/2 139/5/2
f 137/5/2 138/5/2 140/5/2
f 135/5/2 139/5/2 141/5/2
f 140/5/2 138/5/2 144/5/2
f 141/5/2 142/5/2 145/5/2
f 135/5/2 141/5/2 145/5/2
f 145/5/2 142/5/2 146/5/2
f 143/5/2 144/5/2 147/5/2
f 144/5/2 138/5/2 148/5/2
f 147/5/2 144/5/2 148/5/2
f 145/6/2 146/6/2 149/6/2
f 149/6/2 146/6/2 150/6/2
f 147/6/2 148/6/2 151/6/2
f 151/6/2 148/6/2 152/6/2
f 153/6/2 154/6/2 157/6/2
f 157/6/2 154/6/2 158/6/2
f 155/6/2 156/6/2 159/6/2
f 159/6/2 156/6/2 160/6/2
f 161/2/2 162/2/2 165/2/2
f 165/2/2 162/2/2 166/2/2
f 163/2/2 164/2/2 167/2/2
f 167/2/2 164/2/2 168/2/2
f 165/5/2 166/5/2 169/5/2
f 169/5/2 166/5/2 170/5/2
f 167/5/2 168/5/2 171/5/2
f 171/5/2 168/5/2 172/5/2
f 173/5/2 174/5/2 177/5/2
f 175/5/2 176/5/2 178/5/2
f 173/5/2 177/5/2 179/5/2
f 178/5/2 176/5/2 182/5/2
f 179/5/2 180/5/2 183/5/2
f 173/5/2 179/5/2 183/5/2
f 183/5/2 180/5/2 184/5/2
f 181/5/2 182/5/2 185/5/2
f 182/5/2 176/5/2 186/5/2
f 185/5/2 182/5/2 186/5/2
f 187/2/2 188/2/2 191/2/2
f 191/2/2 188/2/2 192/2/2
f 189/2/2 190/2/2 193/2/2
f 193/2/2 190/2/2 194/2/2
f 191/5/2 192/5/2 195/5/2
f 195/5/2 192/5/2 196/5/2
f 193/5/2 194/5/2 197/5/2
f 197/5/2 194/5/2 198/5/2
f 199/5/2 200/5/2 203/5/2
f 201/5/2 202/5/2 204/5/2
f 199/5/2 203/5/2 205/5/2
f 204/5/2 202/5/2 208/5/2
f 205/5/2 206/5/2 209/5/2
f 199/5/2 205/5/2 209/5/2
f 209/5/2 206/5/2 210/5/2
f 207/5/2 208/5/2 211/5/2
f 208/5/2 202/5/2 212/5/2
f 211/5/2 208/5/2 212/5/2
f 213/1/2 214/1/2 215/1/2
f 215/1/2 214/1/2 216/1/2
f 216/1/2 214/1/2 217/1/2
f 217/1/2 214/1/2 218/1/2
f 216/4/2 217/4/2 219/4/2
f 219/4/2 217/4/2 220/4/2
f 216/4/2 219/4/2 221/4/2
f 219/3/2 220/3/2 221/3/2
f 220/4/2 217/4/2 222/4/2
f 221/3/2 220/3/2 222/3/2
f 216/4/2 221/4/2 223/4/2
f 223/4/2 221/4/2 224/4/2
f 222/4/2 217/4/2 225/4/2
f 225/4/2 217/4/2 226/4/2
f 223/6/2 224/6/2 227/6/2
f 227/6/2 224/6/2 228/6/2
f 225/6/2 226/6/2 229/6/2
f 229/6/2 226/6/2 230/6/2
f 233/1/3 232/1/3 231/1/3
f 234/1/3 232/1/3 233/1/3
f 237/6/3 236/6/3 235/6/3
f 238/6/3 236/6/3 237/6/3
f 241/6/3 240/6/3 239/6/3
f 242/6/3 240/6/3 241/6/3
f 246/5/3 244/5/3 243/5/3
f 247/6/3 245/6/3 244/6/3
f 247/5/3 244/5/3 246/5/3
f 248/6/3 245/6/3 247/6/3
f 252/5/3 250/5/3 249/5/3
f 253/6/3 251/6/3 250/6/3
f 253/5/3 250/5/3 252/5/3
f 254/6/3 251/6/3 253/6/3
f 258/2/3 256/2/3 255/2/3
f 259/5/3 257/5/3 256/5/3
f 259/2/3 256/2/3 258/2/3
f 260/5/3 257/5/3 259/5/3
f 261/5/3 257/5/3 260/5/3
f 262/5/3 257/5/3 261/5/3
f 267/5/3 264/5/3 263/5/3
f 268/2/3 266/2/3 265/2/3
f 269/5/3 267/5/3 266/5/3
f 269/2/3 266/2/3 268/2/3
f 270/5/3 264/5/3 267/5/3
f 270/5/3 267/5/3 269/5/3
f 271/5/3 264/5/3 270/5/3
f 272/5/3 264/5/3 271/5/3
f 277/4/3 274/4/3 273/4/3
f 278/4/3 277/4/3 276/4/3
f 279/4/3 274/4/3 277/4/3
f 279/4/3 277/4/3 278/4/3
f 280/4/3 274/4/3 279/4/3
f 281/6/3 275/6/3 274/6/3
f 281/4/3 274/4/3 280/4/3
f 282/6/3 275/6/3 281/6/3
f 287/4/3 284/4/3 283/4/3
f 288/4/3 284/4/3 287/4/3
f 288/4/3 287/4/3 286/4/3
f 289/4/3 284/4/3 288/4/3
f 290/6/3 285/6/3 284/6/3
f 290/4/3 284/4/3 289/4/3
f 291/6/3 285/6/3 290/6/3
f 292/4/3 288/4/3 286/4/3
f 295/4/3 293/4/3 292/4/3
f 295/4/3 294/4/3 293/4/3
f 298/4/3 295/4/3 292/4/3
f 298/4/3 296/4/3 295/4/3
f 299/6/3 297/6/3 296/6/3
f 299/4/3 296/4/3 298/4/3
f 300/6/3 297/6/3 299/6/3
f 301/4/3 292/4/3 286/4/3
f 301/4/3 298/4/3 292/4/3
f 302/4/3 298/4/3 301/4/3
f 303/4/3 298/4/3 302/4/3
f 304/4/3 301/4/3 286/4/3
f 307/4/3 305/4/3 304/4/3
f 307/4/3 306/4/3 305/4/3
f 310/4/3 307/4/3 304/4/3
f 310/4/3 304/4/3 286/4/3
f 310/4/3 308/4/3 307/4/3
f 311/6/3 309/6/3 308/6/3
f 311/4/3 308/4/3 310/4/3
f 312/6/3 309/6/3 311/6/3
f 315/6/3 314/6/3 313/6/3
f 316/6/3 314/6/3 315/6/3
f 320/5/3 318/5/3 317/5/3
f 321/5/3 318/5/3 320/5/3
f 322/5/3 318/5/3 321/5/3
f 325/5/3 318/5/3 322/5/3
f 326/6/3 319/6/3 318/6/3
f 326/5/3 318/5/3 325/5/3
f 327/6/3 319/6/3 326/6/3
f 328/4/3 324/4/3 323/4/3
f 329/6/3 325/6/3 324/6/3
f 329/4/3 324/4/3 328/4/3
f 330/6/3 325/6/3 329/6/3
f 333/5/3 329/5/3 328/5/3
f 333/5/3 330/5/3 329/5/3
f 333/5/3 331/5/3 330/5/3
f 334/5/3 331/5/3 333/5/3
f 335/5/3 331/5/3 334/5/3
f 336/6/3 332/6/3 331/6/3
f 336/5/3 331/5/3 335/5/3
f 337/6/3 332/6/3 336/6/3
f 338/6/3 335/6/3 334/6/3
f 340/6/3 338/6/3 334/6/3
f 340/5/3 339/5/3 338/5/3
f 341/5/3 339/5/3 340/5/3
f 342/6/3 340/6/3 334/6/3
f 344/6/3 342/6/3 334/6/3
f 344/5/3 343/5/3 342/5/3
f 345/5/3 343/5/3 344/5/3
f 346/4/3 334/4/3 333/4/3
f 347/6/3 344/6/3 334/6/3
f 347/4/3 334/4/3 346/4/3
f 348/6/3 344/6/3 347/6/3
f 349/5/4 350/5/4 352/5/4
f 352/5/4 350/5/4 353/5/4
f 353/5/4 350/5/4 354/5/4
f 354/5/4 350/5/4 357/5/4
f 350/6/4 351/6/4 358/6/4
f 357/5/4 350/5/4 358/5/4
f 358/6/4 351/6/4 359/6/4
f 355/4/4 356/4/4 360/4/4
f 356/6/4 357/6/4 361/6/4
f 360/4/4 356/4/4 361/4/4
f 361/6/4 357/6/4 362/6/4
f 360/5/4 361/5/4 365/5/4
f 361/5/4 362/5/4 365/5/4
f 362/5/4 363/5/4 365/5/4
f 365/5/4 363/5/4 366/5/4
f 366/5/4 363/5/4 367/5/4
f 363/6/4 364/6/4 368/6/4
f 367/5/4 363/5/4 368/5/4
f 368/6/4 364/6/4 369/6/4
f 366/6/4 367/6/4 370/6/4
f 366/6/4 370/6/4 372/6/4
f 370/5/4 371/5/4 372/5/4
f 372/5/4 371/5/4 373/5/4
f 366/6/4 372/6/4 374/6/4
f 366/6/4 374/6/4 376/6/4
f 374/5/4 375/5/4 376/5/4
f 376/5/4 375/5/4 377/5/4
f 365/4/4 366/4/4 378/4/4
f 366/6/4 376/6/4 379/6/4
f 378/4/4 366/4/4 379/4/4
f 379/6/4 376/6/4 380/6/4
f 381/6/4 382/6/4 383/6/4
f 383/6/4 382/6/4 384/6/4
f 385/4/4 386/4/4 389/4/4
f 388/4/4 389/4/4 390/4/4
f 389/4/4 386/4/4 391/4/4
f 390/4/4 389/4/4 391/4/4
f 391/4/4 386/4/4 392/4/4
f 386/6/4 387/6/4 393/6/4
f 392/4/4 386/4/4 393/4/4
f 393/6/4 387/6/4 394/6/4
f 395/4/4 396/4/4 399/4/4
f 399/4/4 396/4/4 400/4/4
f 398/4/4 399/4/4 400/4/4
f 400/4/4 396/4/4 401/4/4
f 396/6/4 397/6/4 402/6/4
f 401/4/4 396/4/4 402/4/4
f 402/6/4 397/6/4 403/6/4
f 398/4/4 400/4/4 404/4/4
f 404/4/4 405/4/4 407/4/4
f 405/4/4 406/4/4 407/4/4
f 404/4/4 407/4/4 410/4/4
f 407/4/4 408/4/4 410/4/4
f 408/6/4 409/6/4 411/6/4
f 410/4/4 408/4/4 411/4/4
f 411/6/4 409/6/4 412/6/4
f 398/4/4 404/4/4 413/4/4
f 404/4/4 410/4/4 413/4/4
f 413/4/4 410/4/4 414/4/4
f 414/4/4 410/4/4 415/4/4
f 398/4/4 413/4/4 416/4/4
f 416/4/4 417/4/4 419/4/4
f 417/4/4 418/4/4 419/4/4
f 416/4/4 419/4/4 422/4/4
f 398/4/4 416/4/4 422/4/4
f 419/4/4 420/4/4 422/4/4
f 420/6/4 421/6/4 423/6/4
f 422/4/4 420/4/4 423/4/4
f 423/6/4 421/6/4 424/6/4
f 425/5/4 426/5/4 428/5/4
f 426/6/4 427/6/4 429/6/4
f 428/5/4 426/5/4 429/5/4
f 429/6/4 427/6/4 430/6/4
f 431/5/4 432/5/4 434/5/4
f 432/6/4 433/6/4 435/6/4
f 434/5/4 432/5/4 435/5/4
f 435/6/4 433/6/4 436/6/4
f 437/2/4 438/2/4 440/2/4
f 438/5/4 439/5/4 441/5/4
f 440/2/4 438/2/4 441/2/4
f 441/5/4 439/5/4 442/5/4
f 442/5/4 439/5/4 443/5/4
f 443/5/4 439/5/4 444/5/4
f 445/5/4 446/5/4 449/5/4
f 447/2/4 448/2/4 450/2/4
f 448/5/4 449/5/4 451/5/4
f 450/2/4 448/2/4 451/2/4
f 449/5/4 446/5/4 452/5/4
f 451/5/4 449/5/4 452/5/4
f 452/5/4 446/5/4 453/5/4
f 453/5/4 446/5/4 454/5/4
f 455/6/4 456/6/4 457/6/4
f 457/6/4 456/6/4 458/6/4
f 459/6/4 460/6/4 461/6/4
f 461/6/4 460/6/4 462/6/4
f 463/1/4 464/1/4 465/1/4
f 465/1/4 464/1/4 466/1/4
f 469/1/5 468/1/5 467/1/5
f 470/1/5 468/1/5 469/1/5
f 475/2/5 472/2/5 471/2/5
f 476/2/5 472/2/5 475/2/5
f 477/2/5 474/2/5 473/2/5
f 478/2/5 474/2/5 477/2/5
f 483/2/5 480/2/5 479/2/5
f 484/2/5 480/2/5 483/2/5
f 485/2/5 482/2/5 481/2/5
f 486/2/5 482/2/5 485/2/5
f 493/5/5 488/5/5 487/5/5
f 494/5/5 488/5/5 493/5/5
f 495/5/5 490/5/5 489/5/5
f 496/5/5 490/5/5 495/5/5
f 497/5/5 492/5/5 491/5/5
f 498/5/5 492/5/5 497/5/5
f 505/5/5 500/5/5 499/5/5
f 506/5/5 500/5/5 505/5/5
f 507/5/5 502/5/5 501/5/5
f 508/5/5 502/5/5 507/5/5
f 509/5/5 504/5/5 503/5/5
f 510/5/5 504/5/5 509/5/5
f 511/1/6 512/1/6 513/1/6
f 513/1/6 512/1/6 514/1/6
f 514/1/6 512/1/6 515/1/6
f 515/1/6 512/1/6 516/1/6
f 514/1/6 515/1/6 517/1/6
f 517/1/6 515/1/6 518/1/6
f 516/1/6 512/1/6 519/1/6
f 519/1/6 512/1/6 520/1/6
f 511/1/6 513/1/6 521/1/6
f 511/1/6 521/1/6 523/1/6
f 521/1/6 522/1/6 523/1/6
f 523/1/6 522/1/6 524/1/6
f 511/1/6 523/1/6 529/1/6
f 525/1/6 526/1/6 530/1/6
f 530/1/6 526/1/6 531/1/6
f 527/1/6 528/1/6 532/1/6
f 530/1/6 531/1/6 533/1/6
f 531/1/6 532/1/6 533/1/6
f 511/1/6 529/1/6 533/1/6
f 529/1/6 530/1/6 533/1/6
f 532/1/6 528/1/6 534/1/6
f 533/1/6 532/1/6 534/1/6
f 535/6/6 536/6/6 539/6/6
f 539/6/6 536/6/6 540/6/6
f 537/6/6 538/6/6 541/6/6
f 541/6/6 538/6/6 542/6/6
f 540/6/6 536/6/6 543/6/6
f 543/6/6 536/6/6 544/6/6
f 537/6/6 541/6/6 545/6/6
f 545/6/6 541/6/6 546/6/6
f 542/6/6 538/6/6 547/6/6
f 547/6/6 538/6/6 548/6/6
f 535/6/6 539/6/6 549/6/6
f 535/6/6 549/6/6 551/6/6
f 549/6/6 550/6/6 551/6/6
f 551/6/6 550/6/6 552/6/6
f 553/6/6 554/6/6 555/6/6
f 555/6/6 554/6/6 556/6/6
f 553/6/6 555/6/6 563/6/6
f 557/6/6 558/6/6 564/6/6
f 559/6/6 560/6/6 565/6/6
f 561/6/6 562/6/6 566/6/6
f 553/6/6 563/6/6 567/6/6
f 563/6/6 564/6/6 567/6/6
f 564/6/6 558/6/6 568/6/6
f 567/6/6 564/6/6 568/6/6
f 559/6/6 565/6/6 569/6/6
f 565/6/6 566/6/6 569/6/6
f 566/6/6 562/6/6 570/6/6
f 569/6/6 566/6/6 570/6/6
f 571/3/6 572/3/6 575/3/6
f 573/3/6 574/3/6 575/3/6
f 572/3/6 573/3/6 575/3/6
f 575/3/6 574/3/6 576/3/6
f 576/3/6 574/3/6 577/3/6
f 577/3/6 574/3/6 578/3/6
f 579/6/6 580/6/6 588/6/6
f 588/6/6 580/6/6 589/6/6
f 581/6/6 582/6/6 590/6/6
f 590/6/6 582/6/6 591/6/6
f 583/6/6 584/6/6 592/6/6
f 592/6/6 584/6/6 593/6/6
f 585/6/6 586/6/6 594/6/6
f 594/6/6 586/6/6 595/6/6
f 587/6/6 588/6/6 596/6/6
f 596/6/6 588/6/6 597/6/6
f 597/6/6 598/6/6 605/6/6
f 605/6/6 598/6/6 606/6/6
f 599/6/6 600/6/6 607/6/6
f 607/6/6 600/6/6 608/6/6
f 601/6/6 602/6/6 609/6/6
f 609/6/6 602/6/6 610/6/6
f 603/6/6 604/6/6 611/6/6
f 611/6/6 604/6/6 612/6/6
f 613/5/6 614/5/6 617/5/6
f 617/5/6 614/5/6 618/5/6
f 615/5/6 616/5/6 619/5/6
f 619/5/6 616/5/6 620/5/6
f 621/5/6 622/5/6 625/5/6
f 625/5/6 622/5/6 626/5/6
f 623/5/6 624/5/6 627/5/6
f 627/5/6 624/5/6 628/5/6
f 629/6/6 630/6/6 633/6/6
f 633/6/6 630/6/6 634/6/6
f 631/6/6 632/6/6 635/6/6
f 635/6/6 632/6/6 636/6/6
f 637/6/6 638/6/6 641/6/6
f 641/6/6 638/6/6 642/6/6
f 639/6/6 640/6/6 643/6/6
f 643/6/6 640/6/6 644/6/6
