# MagicaVoxel @ Ephtracy

# group
o 

# material
mtllib towers-275.mtl
usemtl palette

# normals
vn -1 0 0
vn 1 0 0
vn 0 0 1
vn 0 0 -1
vn 0 -1 0
vn 0 1 0

# texcoords
vt 0.541016 0.5
vt 0.810547 0.5
vt 0.947266 0.5
vt 0.978516 0.5
vt 0.982422 0.5
vt 0.986328 0.5

# verts
v -25.5 0 19.3
v -25.5 0 15.3
v -25.5 0.1 19.3
v -25.5 0.1 17.6
v -25.5 0.1 17
v -25.5 0.1 15.3
v -25.5 1.1 17.5
v -25.5 1.1 17.1
v -25.5 1.2 17.5
v -25.5 1.2 17.1
v -25.5 1.3 17.6
v -25.5 1.3 17.5
v -25.5 1.3 17.1
v -25.5 1.3 17
v -25.5 1.4 17.6
v -25.5 1.4 17.5
v -25.5 1.4 17.1
v -25.5 1.4 17
v -25.2 1.1 17.7
v -25.2 1.1 17.6
v -25.2 1.1 17
v -25.2 1.1 16.9
v -25.2 1.3 17.6
v -25.2 1.3 17
v -25.2 1.4 17.6
v -25.2 1.4 17.5
v -25.2 1.4 17.1
v -25.2 1.4 17
v -25.2 1.5 17.7
v -25.2 1.5 17.5
v -25.2 1.5 17.1
v -25.2 1.5 16.9
v -25.1 0.9 17.7
v -25.1 0.9 17.6
v -25.1 0.9 17
v -25.1 0.9 16.9
v -25.1 1 17.7
v -25.1 1 17.6
v -25.1 1 17
v -25.1 1 16.9
v -25.1 1.1 17.7
v -25.1 1.1 17.6
v -25.1 1.1 17
v -25.1 1.1 16.9
v -23.9 0.1 17.7
v -23.9 0.1 17.6
v -23.9 0.1 17
v -23.9 0.1 16.9
v -23.9 1.3 17.6
v -23.9 1.3 17
v -23.9 1.4 17.6
v -23.9 1.4 17.5
v -23.9 1.4 17.1
v -23.9 1.4 17
v -23.9 1.6 17.7
v -23.9 1.6 17.5
v -23.9 1.6 17.1
v -23.9 1.6 16.9
v -23.9 1.7 17.7
v -23.9 1.7 17.5
v -23.9 1.7 17.1
v -23.9 1.7 16.9
v -23.3 0.1 17.7
v -23.3 0.1 17.6
v -23.3 0.1 17
v -23.3 0.1 16.9
v -23.3 1.2 17.5
v -23.3 1.2 17.1
v -23.3 1.3 17.6
v -23.3 1.3 17.5
v -23.3 1.3 17.1
v -23.3 1.3 17
v -23.3 1.4 17.6
v -23.3 1.4 17.5
v -23.3 1.4 17.1
v -23.3 1.4 17
v -23.3 1.6 17.7
v -23.3 1.6 17.5
v -23.3 1.6 17.1
v -23.3 1.6 16.9
v -23.3 1.7 17.7
v -23.3 1.7 17.5
v -23.3 1.7 17.1
v -23.3 1.7 16.9
v -25 0.9 17.7
v -25 0.9 17.6
v -25 0.9 17
v -25 0.9 16.9
v -25 1 17.7
v -25 1 17.6
v -25 1 17
v -25 1 16.9
v -25 1.1 17.7
v -25 1.1 17.6
v -25 1.1 17
v -25 1.1 16.9
v -24.9 1.1 17.7
v -24.9 1.1 17.6
v -24.9 1.1 17
v -24.9 1.1 16.9
v -24.9 1.3 17.6
v -24.9 1.3 17
v -24.9 1.4 17.6
v -24.9 1.4 17.5
v -24.9 1.4 17.1
v -24.9 1.4 17
v -24.9 1.5 17.7
v -24.9 1.5 17.5
v -24.9 1.5 17.1
v -24.9 1.5 16.9
v -23.7 0.1 17.7
v -23.7 0.1 17.6
v -23.7 0.1 17
v -23.7 0.1 16.9
v -23.7 1.3 17.6
v -23.7 1.3 17
v -23.7 1.4 17.6
v -23.7 1.4 17.5
v -23.7 1.4 17.1
v -23.7 1.4 17
v -23.7 1.6 17.7
v -23.7 1.6 17.5
v -23.7 1.6 17.1
v -23.7 1.6 16.9
v -23.7 1.7 17.7
v -23.7 1.7 17.5
v -23.7 1.7 17.1
v -23.7 1.7 16.9
v -23.2 0.1 17.5
v -23.2 0.1 17.1
v -23.2 1.3 17.5
v -23.2 1.3 17.1
v -23.2 1.4 17.5
v -23.2 1.4 17.1
v -23.1 0.1 17.7
v -23.1 0.1 17.5
v -23.1 0.1 17.1
v -23.1 0.1 16.9
v -23.1 1.6 17.7
v -23.1 1.6 17.5
v -23.1 1.6 17.1
v -23.1 1.6 16.9
v -23.1 1.7 17.7
v -23.1 1.7 17.5
v -23.1 1.7 17.1
v -23.1 1.7 16.9
v -21.5 0 19.3
v -21.5 0 15.3
v -21.5 0.1 19.3
v -21.5 0.1 15.3
v -25.5 0 19.3
v -25.5 0.1 19.3
v -21.5 0 19.3
v -21.5 0.1 19.3
v -25.2 1.1 17.7
v -25.2 1.5 17.7
v -25.1 0.9 17.7
v -25.1 1 17.7
v -25.1 1.1 17.7
v -25 0.9 17.7
v -25 1 17.7
v -25 1.1 17.7
v -24.9 1.1 17.7
v -24.9 1.5 17.7
v -23.9 0.1 17.7
v -23.9 1.6 17.7
v -23.9 1.7 17.7
v -23.7 0.1 17.7
v -23.7 1.6 17.7
v -23.7 1.7 17.7
v -23.3 0.1 17.7
v -23.3 1.6 17.7
v -23.3 1.7 17.7
v -23.1 0.1 17.7
v -23.1 1.6 17.7
v -23.1 1.7 17.7
v -25.5 0.1 17.6
v -25.5 1.3 17.6
v -25.5 1.4 17.6
v -25.2 1.1 17.6
v -25.2 1.3 17.6
v -25.2 1.4 17.6
v -25.1 0.9 17.6
v -25.1 1 17.6
v -25.1 1.1 17.6
v -25 0.9 17.6
v -25 1 17.6
v -25 1.1 17.6
v -24.9 1.1 17.6
v -24.9 1.3 17.6
v -24.9 1.4 17.6
v -23.9 0.1 17.6
v -23.9 1.3 17.6
v -23.9 1.4 17.6
v -23.7 0.1 17.6
v -23.7 1.3 17.6
v -23.7 1.4 17.6
v -23.3 0.1 17.6
v -23.3 1.3 17.6
v -23.3 1.4 17.6
v -25.5 1.2 17.1
v -25.5 1.3 17.1
v -25.5 1.4 17.1
v -25.2 1.4 17.1
v -25.2 1.5 17.1
v -24.9 1.4 17.1
v -24.9 1.5 17.1
v -23.9 1.2 17.1
v -23.9 1.3 17.1
v -23.9 1.4 17.1
v -23.9 1.6 17.1
v -23.9 1.7 17.1
v -23.7 1.2 17.1
v -23.7 1.3 17.1
v -23.7 1.4 17.1
v -23.7 1.6 17.1
v -23.7 1.7 17.1
v -23.3 1.2 17.1
v -23.3 1.3 17.1
v -23.3 1.4 17.1
v -23.3 1.6 17.1
v -23.3 1.7 17.1
v -23.2 0.1 17.1
v -23.2 1.3 17.1
v -23.2 1.4 17.1
v -23.1 0.1 17.1
v -23.1 1.6 17.1
v -23.1 1.7 17.1
v -25.5 1.2 17.5
v -25.5 1.3 17.5
v -25.5 1.4 17.5
v -25.2 1.4 17.5
v -25.2 1.5 17.5
v -24.9 1.4 17.5
v -24.9 1.5 17.5
v -23.9 1.2 17.5
v -23.9 1.3 17.5
v -23.9 1.4 17.5
v -23.9 1.6 17.5
v -23.9 1.7 17.5
v -23.7 1.2 17.5
v -23.7 1.3 17.5
v -23.7 1.4 17.5
v -23.7 1.6 17.5
v -23.7 1.7 17.5
v -23.3 1.2 17.5
v -23.3 1.3 17.5
v -23.3 1.4 17.5
v -23.3 1.6 17.5
v -23.3 1.7 17.5
v -23.2 0.1 17.5
v -23.2 1.3 17.5
v -23.2 1.4 17.5
v -23.1 0.1 17.5
v -23.1 1.6 17.5
v -23.1 1.7 17.5
v -25.5 0.1 17
v -25.5 1.3 17
v -25.5 1.4 17
v -25.2 1.1 17
v -25.2 1.3 17
v -25.2 1.4 17
v -25.1 0.9 17
v -25.1 1 17
v -25.1 1.1 17
v -25 0.9 17
v -25 1 17
v -25 1.1 17
v -24.9 1.1 17
v -24.9 1.3 17
v -24.9 1.4 17
v -23.9 0.1 17
v -23.9 1.3 17
v -23.9 1.4 17
v -23.7 0.1 17
v -23.7 1.3 17
v -23.7 1.4 17
v -23.3 0.1 17
v -23.3 1.3 17
v -23.3 1.4 17
v -25.2 1.1 16.9
v -25.2 1.5 16.9
v -25.1 0.9 16.9
v -25.1 1 16.9
v -25.1 1.1 16.9
v -25 0.9 16.9
v -25 1 16.9
v -25 1.1 16.9
v -24.9 1.1 16.9
v -24.9 1.5 16.9
v -23.9 0.1 16.9
v -23.9 1.6 16.9
v -23.9 1.7 16.9
v -23.7 0.1 16.9
v -23.7 1.6 16.9
v -23.7 1.7 16.9
v -23.3 0.1 16.9
v -23.3 1.6 16.9
v -23.3 1.7 16.9
v -23.1 0.1 16.9
v -23.1 1.6 16.9
v -23.1 1.7 16.9
v -25.5 0 15.3
v -25.5 0.1 15.3
v -21.5 0 15.3
v -21.5 0.1 15.3
v -25.5 0 19.3
v -21.5 0 19.3
v -25.5 0 15.3
v -21.5 0 15.3
v -25.1 0.9 17.7
v -25 0.9 17.7
v -25.1 0.9 17.6
v -25 0.9 17.6
v -25.1 0.9 17
v -25 0.9 17
v -25.1 0.9 16.9
v -25 0.9 16.9
v -25.2 1.1 17.7
v -25.1 1.1 17.7
v -25 1.1 17.7
v -24.9 1.1 17.7
v -25.2 1.1 17.6
v -25.1 1.1 17.6
v -25 1.1 17.6
v -24.9 1.1 17.6
v -25.2 1.1 17
v -25.1 1.1 17
v -25 1.1 17
v -24.9 1.1 17
v -25.2 1.1 16.9
v -25.1 1.1 16.9
v -25 1.1 16.9
v -24.9 1.1 16.9
v -25.5 0.1 19.3
v -21.5 0.1 19.3
v -23.9 0.1 17.7
v -23.7 0.1 17.7
v -23.3 0.1 17.7
v -23.1 0.1 17.7
v -25.5 0.1 17.6
v -23.9 0.1 17.6
v -23.7 0.1 17.6
v -23.3 0.1 17.6
v -23.2 0.1 17.5
v -23.1 0.1 17.5
v -23.2 0.1 17.1
v -23.1 0.1 17.1
v -25.5 0.1 17
v -23.9 0.1 17
v -23.7 0.1 17
v -23.3 0.1 17
v -23.9 0.1 16.9
v -23.7 0.1 16.9
v -23.3 0.1 16.9
v -23.1 0.1 16.9
v -25.5 0.1 15.3
v -21.5 0.1 15.3
v -25.5 1.2 17.5
v -23.9 1.2 17.5
v -23.7 1.2 17.5
v -23.3 1.2 17.5
v -25.5 1.2 17.1
v -23.9 1.2 17.1
v -23.7 1.2 17.1
v -23.3 1.2 17.1
v -25.5 1.4 17.6
v -25.2 1.4 17.6
v -24.9 1.4 17.6
v -23.9 1.4 17.6
v -23.7 1.4 17.6
v -23.3 1.4 17.6
v -25.5 1.4 17.5
v -25.2 1.4 17.5
v -24.9 1.4 17.5
v -23.9 1.4 17.5
v -23.7 1.4 17.5
v -23.3 1.4 17.5
v -23.2 1.4 17.5
v -25.5 1.4 17.1
v -25.2 1.4 17.1
v -24.9 1.4 17.1
v -23.9 1.4 17.1
v -23.7 1.4 17.1
v -23.3 1.4 17.1
v -23.2 1.4 17.1
v -25.5 1.4 17
v -25.2 1.4 17
v -24.9 1.4 17
v -23.9 1.4 17
v -23.7 1.4 17
v -23.3 1.4 17
v -25.2 1.5 17.7
v -24.9 1.5 17.7
v -25.2 1.5 17.5
v -24.9 1.5 17.5
v -25.2 1.5 17.1
v -24.9 1.5 17.1
v -25.2 1.5 16.9
v -24.9 1.5 16.9
v -23.9 1.7 17.7
v -23.7 1.7 17.7
v -23.3 1.7 17.7
v -23.1 1.7 17.7
v -23.9 1.7 17.5
v -23.7 1.7 17.5
v -23.3 1.7 17.5
v -23.1 1.7 17.5
v -23.9 1.7 17.1
v -23.7 1.7 17.1
v -23.3 1.7 17.1
v -23.1 1.7 17.1
v -23.9 1.7 16.9
v -23.7 1.7 16.9
v -23.3 1.7 16.9
v -23.1 1.7 16.9

# faces
f 3/1/1 2/1/1 1/1/1
f 4/1/1 2/1/1 3/1/1
f 5/1/1 2/1/1 4/1/1
f 6/1/1 2/1/1 5/1/1
f 7/4/1 5/4/1 4/4/1
f 8/4/1 5/4/1 7/4/1
f 9/4/1 7/4/1 4/4/1
f 9/3/1 8/3/1 7/3/1
f 10/4/1 5/4/1 8/4/1
f 10/3/1 8/3/1 9/3/1
f 11/4/1 9/4/1 4/4/1
f 12/4/1 9/4/1 11/4/1
f 13/4/1 5/4/1 10/4/1
f 14/4/1 5/4/1 13/4/1
f 15/6/1 12/6/1 11/6/1
f 16/6/1 12/6/1 15/6/1
f 17/6/1 14/6/1 13/6/1
f 18/6/1 14/6/1 17/6/1
f 23/5/1 20/5/1 19/5/1
f 24/5/1 22/5/1 21/5/1
f 25/5/1 23/5/1 19/5/1
f 28/5/1 22/5/1 24/5/1
f 29/5/1 26/5/1 25/5/1
f 29/5/1 25/5/1 19/5/1
f 30/5/1 26/5/1 29/5/1
f 31/5/1 28/5/1 27/5/1
f 32/5/1 22/5/1 28/5/1
f 32/5/1 28/5/1 31/5/1
f 37/2/1 34/2/1 33/2/1
f 38/2/1 34/2/1 37/2/1
f 39/2/1 36/2/1 35/2/1
f 40/2/1 36/2/1 39/2/1
f 41/5/1 38/5/1 37/5/1
f 42/5/1 38/5/1 41/5/1
f 43/5/1 40/5/1 39/5/1
f 44/5/1 40/5/1 43/5/1
f 49/5/1 46/5/1 45/5/1
f 50/5/1 48/5/1 47/5/1
f 51/5/1 49/5/1 45/5/1
f 54/5/1 48/5/1 50/5/1
f 55/5/1 52/5/1 51/5/1
f 55/5/1 51/5/1 45/5/1
f 56/5/1 52/5/1 55/5/1
f 57/5/1 54/5/1 53/5/1
f 58/5/1 48/5/1 54/5/1
f 58/5/1 54/5/1 57/5/1
f 59/6/1 56/6/1 55/6/1
f 60/6/1 56/6/1 59/6/1
f 61/6/1 58/6/1 57/6/1
f 62/6/1 58/6/1 61/6/1
f 69/5/1 64/5/1 63/5/1
f 70/4/1 68/4/1 67/4/1
f 71/4/1 68/4/1 70/4/1
f 72/5/1 66/5/1 65/5/1
f 73/5/1 69/5/1 63/5/1
f 74/6/1 71/6/1 70/6/1
f 75/6/1 71/6/1 74/6/1
f 76/5/1 66/5/1 72/5/1
f 77/5/1 73/5/1 63/5/1
f 77/5/1 74/5/1 73/5/1
f 78/5/1 74/5/1 77/5/1
f 79/5/1 76/5/1 75/5/1
f 80/5/1 66/5/1 76/5/1
f 80/5/1 76/5/1 79/5/1
f 81/6/1 78/6/1 77/6/1
f 82/6/1 78/6/1 81/6/1
f 83/6/1 80/6/1 79/6/1
f 84/6/1 80/6/1 83/6/1
f 85/2/2 86/2/2 89/2/2
f 89/2/2 86/2/2 90/2/2
f 87/2/2 88/2/2 91/2/2
f 91/2/2 88/2/2 92/2/2
f 89/5/2 90/5/2 93/5/2
f 93/5/2 90/5/2 94/5/2
f 91/5/2 92/5/2 95/5/2
f 95/5/2 92/5/2 96/5/2
f 97/5/2 98/5/2 101/5/2
f 99/5/2 100/5/2 102/5/2
f 97/5/2 101/5/2 103/5/2
f 102/5/2 100/5/2 106/5/2
f 103/5/2 104/5/2 107/5/2
f 97/5/2 103/5/2 107/5/2
f 107/5/2 104/5/2 108/5/2
f 105/5/2 106/5/2 109/5/2
f 106/5/2 100/5/2 110/5/2
f 109/5/2 106/5/2 110/5/2
f 111/5/2 112/5/2 115/5/2
f 113/5/2 114/5/2 116/5/2
f 111/5/2 115/5/2 117/5/2
f 116/5/2 114/5/2 120/5/2
f 117/5/2 118/5/2 121/5/2
f 111/5/2 117/5/2 121/5/2
f 121/5/2 118/5/2 122/5/2
f 119/5/2 120/5/2 123/5/2
f 120/5/2 114/5/2 124/5/2
f 123/5/2 120/5/2 124/5/2
f 121/6/2 122/6/2 125/6/2
f 125/6/2 122/6/2 126/6/2
f 123/6/2 124/6/2 127/6/2
f 127/6/2 124/6/2 128/6/2
f 129/4/2 130/4/2 131/4/2
f 131/4/2 130/4/2 132/4/2
f 131/6/2 132/6/2 133/6/2
f 133/6/2 132/6/2 134/6/2
f 135/5/2 136/5/2 139/5/2
f 139/5/2 136/5/2 140/5/2
f 137/5/2 138/5/2 141/5/2
f 141/5/2 138/5/2 142/5/2
f 139/6/2 140/6/2 143/6/2
f 143/6/2 140/6/2 144/6/2
f 141/6/2 142/6/2 145/6/2
f 145/6/2 142/6/2 146/6/2
f 147/1/2 148/1/2 149/1/2
f 149/1/2 148/1/2 150/1/2
f 153/1/3 152/1/3 151/1/3
f 154/1/3 152/1/3 153/1/3
f 159/5/3 156/5/3 155/5/3
f 160/2/3 158/2/3 157/2/3
f 161/5/3 159/5/3 158/5/3
f 161/2/3 158/2/3 160/2/3
f 162/5/3 156/5/3 159/5/3
f 162/5/3 159/5/3 161/5/3
f 163/5/3 156/5/3 162/5/3
f 164/5/3 156/5/3 163/5/3
f 168/5/3 166/5/3 165/5/3
f 169/6/3 167/6/3 166/6/3
f 169/5/3 166/5/3 168/5/3
f 170/6/3 167/6/3 169/6/3
f 174/5/3 172/5/3 171/5/3
f 175/6/3 173/6/3 172/6/3
f 175/5/3 172/5/3 174/5/3
f 176/6/3 173/6/3 175/6/3
f 180/4/3 178/4/3 177/4/3
f 181/6/3 179/6/3 178/6/3
f 181/4/3 178/4/3 180/4/3
f 182/6/3 179/6/3 181/6/3
f 183/4/3 180/4/3 177/4/3
f 184/4/3 180/4/3 183/4/3
f 185/4/3 180/4/3 184/4/3
f 186/4/3 183/4/3 177/4/3
f 189/4/3 187/4/3 186/4/3
f 189/4/3 188/4/3 187/4/3
f 192/4/3 189/4/3 186/4/3
f 192/4/3 186/4/3 177/4/3
f 192/4/3 190/4/3 189/4/3
f 193/6/3 191/6/3 190/6/3
f 193/4/3 190/4/3 192/4/3
f 194/6/3 191/6/3 193/6/3
f 198/4/3 196/4/3 195/4/3
f 199/6/3 197/6/3 196/6/3
f 199/4/3 196/4/3 198/4/3
f 200/6/3 197/6/3 199/6/3
f 204/6/3 203/6/3 202/6/3
f 206/6/3 204/6/3 202/6/3
f 206/5/3 205/5/3 204/5/3
f 207/5/3 205/5/3 206/5/3
f 208/4/3 202/4/3 201/4/3
f 209/6/3 206/6/3 202/6/3
f 209/4/3 202/4/3 208/4/3
f 210/6/3 206/6/3 209/6/3
f 213/5/3 210/5/3 209/5/3
f 213/5/3 209/5/3 208/5/3
f 213/5/3 211/5/3 210/5/3
f 214/5/3 211/5/3 213/5/3
f 215/5/3 211/5/3 214/5/3
f 216/6/3 212/6/3 211/6/3
f 216/5/3 211/5/3 215/5/3
f 217/6/3 212/6/3 216/6/3
f 218/4/3 214/4/3 213/4/3
f 219/6/3 215/6/3 214/6/3
f 219/4/3 214/4/3 218/4/3
f 220/6/3 215/6/3 219/6/3
f 225/5/3 221/5/3 220/5/3
f 226/5/3 224/5/3 223/5/3
f 226/5/3 225/5/3 224/5/3
f 227/6/3 222/6/3 221/6/3
f 227/5/3 225/5/3 226/5/3
f 227/5/3 221/5/3 225/5/3
f 228/6/3 222/6/3 227/6/3
f 230/6/4 231/6/4 232/6/4
f 230/6/4 232/6/4 234/6/4
f 232/5/4 233/5/4 234/5/4
f 234/5/4 233/5/4 235/5/4
f 229/4/4 230/4/4 236/4/4
f 230/6/4 234/6/4 237/6/4
f 236/4/4 230/4/4 237/4/4
f 237/6/4 234/6/4 238/6/4
f 237/5/4 238/5/4 241/5/4
f 236/5/4 237/5/4 241/5/4
f 238/5/4 239/5/4 241/5/4
f 241/5/4 239/5/4 242/5/4
f 242/5/4 239/5/4 243/5/4
f 239/6/4 240/6/4 244/6/4
f 243/5/4 239/5/4 244/5/4
f 244/6/4 240/6/4 245/6/4
f 241/4/4 242/4/4 246/4/4
f 242/6/4 243/6/4 247/6/4
f 246/4/4 242/4/4 247/4/4
f 247/6/4 243/6/4 248/6/4
f 248/5/4 249/5/4 253/5/4
f 251/5/4 252/5/4 254/5/4
f 252/5/4 253/5/4 254/5/4
f 249/6/4 250/6/4 255/6/4
f 254/5/4 253/5/4 255/5/4
f 253/5/4 249/5/4 255/5/4
f 255/6/4 250/6/4 256/6/4
f 257/4/4 258/4/4 260/4/4
f 258/6/4 259/6/4 261/6/4
f 260/4/4 258/4/4 261/4/4
f 261/6/4 259/6/4 262/6/4
f 257/4/4 260/4/4 263/4/4
f 263/4/4 260/4/4 264/4/4
f 264/4/4 260/4/4 265/4/4
f 257/4/4 263/4/4 266/4/4
f 266/4/4 267/4/4 269/4/4
f 267/4/4 268/4/4 269/4/4
f 266/4/4 269/4/4 272/4/4
f 257/4/4 266/4/4 272/4/4
f 269/4/4 270/4/4 272/4/4
f 270/6/4 271/6/4 273/6/4
f 272/4/4 270/4/4 273/4/4
f 273/6/4 271/6/4 274/6/4
f 275/4/4 276/4/4 278/4/4
f 276/6/4 277/6/4 279/6/4
f 278/4/4 276/4/4 279/4/4
f 279/6/4 277/6/4 280/6/4
f 281/5/4 282/5/4 285/5/4
f 283/2/4 284/2/4 286/2/4
f 284/5/4 285/5/4 287/5/4
f 286/2/4 284/2/4 287/2/4
f 285/5/4 282/5/4 288/5/4
f 287/5/4 285/5/4 288/5/4
f 288/5/4 282/5/4 289/5/4
f 289/5/4 282/5/4 290/5/4
f 291/5/4 292/5/4 294/5/4
f 292/6/4 293/6/4 295/6/4
f 294/5/4 292/5/4 295/5/4
f 295/6/4 293/6/4 296/6/4
f 297/5/4 298/5/4 300/5/4
f 298/6/4 299/6/4 301/6/4
f 300/5/4 298/5/4 301/5/4
f 301/6/4 299/6/4 302/6/4
f 303/1/4 304/1/4 305/1/4
f 305/1/4 304/1/4 306/1/4
f 309/1/5 308/1/5 307/1/5
f 310/1/5 308/1/5 309/1/5
f 313/2/5 312/2/5 311/2/5
f 314/2/5 312/2/5 313/2/5
f 317/2/5 316/2/5 315/2/5
f 318/2/5 316/2/5 317/2/5
f 323/5/5 320/5/5 319/5/5
f 324/5/5 320/5/5 323/5/5
f 325/5/5 322/5/5 321/5/5
f 326/5/5 322/5/5 325/5/5
f 331/5/5 328/5/5 327/5/5
f 332/5/5 328/5/5 331/5/5
f 333/5/5 330/5/5 329/5/5
f 334/5/5 330/5/5 333/5/5
f 335/1/6 336/1/6 337/1/6
f 337/1/6 336/1/6 338/1/6
f 338/1/6 336/1/6 339/1/6
f 339/1/6 336/1/6 340/1/6
f 335/1/6 337/1/6 341/1/6
f 341/1/6 337/1/6 342/1/6
f 338/1/6 339/1/6 343/1/6
f 343/1/6 339/1/6 344/1/6
f 340/1/6 336/1/6 346/1/6
f 345/1/6 346/1/6 347/1/6
f 346/1/6 336/1/6 348/1/6
f 347/1/6 346/1/6 348/1/6
f 349/1/6 350/1/6 353/1/6
f 351/1/6 352/1/6 354/1/6
f 354/1/6 352/1/6 355/1/6
f 348/1/6 336/1/6 356/1/6
f 354/1/6 355/1/6 357/1/6
f 355/1/6 356/1/6 357/1/6
f 349/1/6 353/1/6 357/1/6
f 353/1/6 354/1/6 357/1/6
f 356/1/6 336/1/6 358/1/6
f 357/1/6 356/1/6 358/1/6
f 359/3/6 360/3/6 363/3/6
f 361/3/6 362/3/6 363/3/6
f 360/3/6 361/3/6 363/3/6
f 363/3/6 362/3/6 364/3/6
f 364/3/6 362/3/6 365/3/6
f 365/3/6 362/3/6 366/3/6
f 367/6/6 368/6/6 373/6/6
f 373/6/6 368/6/6 374/6/6
f 369/6/6 370/6/6 375/6/6
f 375/6/6 370/6/6 376/6/6
f 371/6/6 372/6/6 377/6/6
f 377/6/6 372/6/6 378/6/6
f 378/6/6 379/6/6 385/6/6
f 385/6/6 379/6/6 386/6/6
f 380/6/6 381/6/6 387/6/6
f 387/6/6 381/6/6 388/6/6
f 382/6/6 383/6/6 389/6/6
f 389/6/6 383/6/6 390/6/6
f 384/6/6 385/6/6 391/6/6
f 391/6/6 385/6/6 392/6/6
f 393/5/6 394/5/6 395/5/6
f 395/5/6 394/5/6 396/5/6
f 397/5/6 398/5/6 399/5/6
f 399/5/6 398/5/6 400/5/6
f 401/6/6 402/6/6 405/6/6
f 405/6/6 402/6/6 406/6/6
f 403/6/6 404/6/6 407/6/6
f 407/6/6 404/6/6 408/6/6
f 409/6/6 410/6/6 413/6/6
f 413/6/6 410/6/6 414/6/6
f 411/6/6 412/6/6 415/6/6
f 415/6/6 412/6/6 416/6/6
